<svg id="Слой_1" xmlns="http://www.w3.org/2000/svg" viewBox="0 0 1124 548"><style>.st0{fill:none}.st1{fill:#fff}</style><path class="st0" d="M460.361 268.106l11.278 14.887V216.25H460.36zm.336 72.111v10.334h17.055a1 1 0 0 1 1 1v6.803a1 1 0 0 1-1 1h-1.919v8.188h7.924v-27.325h-23.06zm-65.979-108.906h47.949v4.898h-47.949zm532.042 44.647h32.518v-23.625h-32.517zm9.862 150.812a1.06 1.06 0 0 1-.914-.593l-15.796-35.51h-4.616l19.052 42.757h67.263v-6.653h-64.989z"/><path class="st0" d="M922.101 390.667l15.171 34.104h19.84v-34.104zM458.697 350.55v-36.047l-52.323-69.132h-6.65l51.573 68.192c.115.152.203.414.203.604v36.384h7.197zm17.181-46.465l-8.257-10.918h-22.564l8.263 10.918zm-77.162-65.856h41.38v5.142h-41.38zm60.524 43.856l-8.446-11.168h-22.578l8.453 11.168zm-9.959-13.169l-5.355-7.081h-22.583l5.36 7.082zm-6.868-9.081l-10.938-14.464h-22.593l10.947 14.464zm23.696 31.332l-5.356-7.082h-22.57l5.36 7.082zm384.218-9.16c3.241 1.552 8.353-2.112 11.167-7.996 2.83-5.914 2.485-12.22-.754-13.77a3.732 3.732 0 0 0-1.625-.354c-1.183 0-2.521.482-3.905 1.425-2.226 1.516-4.237 3.996-5.666 6.983-2.815 5.883-2.456 12.163.783 13.712z"/><circle class="st0" cx="811.07" cy="249.498" r="2.565"/><path class="st0" d="M814.49 258.88l4.002-8.283.001-.003s.002-.001.002-.003l3.968-8.211-52.926-5.102 44.953 21.602zm-3.42-13.947c2.517 0 4.565 2.048 4.565 4.565s-2.048 4.565-4.565 4.565-4.564-2.048-4.564-4.565 2.048-4.565 4.564-4.565zm43.014 14.726a11 11 0 0 1 2.668-1.347l-32.297-15.458-3.722 7.704 28.794 13.788c1.323-1.926 2.88-3.544 4.557-4.687zm105.194 55.336v-7.615l-94.514-45.234c.778 2.1.882 4.792.263 7.698l94.251 45.15zm0 2.217l-94.774-45.402a23.478 23.478 0 0 1-1.205 3.065c-1.928 4.028-4.72 7.031-7.57 8.497l103.55 49.623v-15.783zm44.333 109.559h50.5v6.653h-50.5zm0-12.021h50.5v10.021h-50.5z"/><path class="st0" d="M478.263 215.25a1 1 0 0 1-1 1h-3.624v69.383l21.158 27.93c.115.152.203.413.203.604v53.375h6.4a1 1 0 0 1 1 1v16.625h6.1a1 1 0 0 1 1 1v2.5h410.062v-14.5a1 1 0 0 1 1-1h11.55v-11.834c0-.267.158-.603.365-.772l26.801-22.033v-3.316L853 284.282a6.837 6.837 0 0 1-1.021.088 5.78 5.78 0 0 1-2.515-.558c-2.524-1.208-3.832-4.13-3.837-7.749l-81.867-39.342-285.497-27.523v6.052zM934.611 242h24.667v8.334h-24.667zm-456.348-34.811l447.548 43.144h6.8v-3.925l-454.348-43.812z"/><path class="st0" d="M433.981 245.371l51.573 68.192c.115.152.203.414.203.604v53.375H493v-53.04l-52.37-69.13h-6.649zM753.446 479h-72.082v7.296h70.612l1.47-2.716zm-72.082-7.625h72.082V477h-72.082zM526.5 439.333h17v5.749h-17zm0 7.749h17v35.585h-17zM681.364 407h72.082v62.375h-72.082zm-80.728 0h78.729v79.296h-78.729z"/><path class="st0" d="M598.636 479H545.5v4.667a1 1 0 0 1-1 1h-17.358l.842 1.629h70.652V479zm327.956-43.576h-4.59l15.136 34.017h4.612zm146.363 0h-17.157l-12.165 34.017h29.322zM526.5 407h72.136v22.833H526.5zm19 64.375h53.136V477H545.5zm-19-34.042h18a1 1 0 0 1 1 1v31.042h53.136v-37.542H526.5v5.5zm-52.666-50.578l-22.334-12.39v22.941l22.334 12.391zm0-2.286v-25.115H451.5v12.724zm-25.229-27.115h28.147v-4.803h-28.147zm12.092-30.218h23.06v-11.969h-23.06zm0 2h23.06v9.081h-23.06zm5.422-15.969h16.628l-5.356-7.082h-22.557l5.36 7.082zm-10.382-98.917h20.526v-20.532h-20.526zM516 407h-6.5v4.353a1 1 0 0 1-1 1h-32.666v17.48H516V407zm-42.166 4.984L451.5 399.593v21.985l22.334 12.39zm0 24.271l-22.334-12.39v23.546l22.334 12.392zm2-66.713h24.567v15.625h-24.567z"/><path class="st0" d="M507.5 406v-18.833h-31.666v23.186H507.5zm-53.763-205.769l-70.57-6.805v4.595l70.57 6.803zM257.333 404.5H335.5v-2a1 1 0 0 1 1-1h4v-21h-84.875c-40.882 0-50.043 77.99-50.131 78.777-.054.483-.513.89-.994.89h-48.625v4.333h51.25c1.104-3.1 6.018-16.377 13.656-29.503 11.777-20.236 24.074-30.497 36.552-30.497zM138.75 311.653V373.5h15.125v-69.25h-52.816a1 1 0 0 1-1-1v-4.875H88.125v12.278h49.625a1 1 0 0 1 1 1z"/><path class="st0" d="M270.088 417.5h62.825v-6a1 1 0 0 1 1-1h1.587v-4h-78.167c-25.76 0-44.891 49.26-48.08 58h4.587c1.395-2.383 7.695-12.832 16.722-23.158 13.831-15.82 27.13-23.842 39.526-23.842zm78.185 65.916l5.814 20.054h12.918l-5.693-19.634c0-.003-.04-.256-.04-.278V438h-13v45.416zm-64.145-60.395c30.378 0 55.502 22.854 59.124 52.269"/><path class="st0" d="M346.273 475.29v-37.762l-13.02-11.424a1.09 1.09 0 0 1-.34-.752V419.5h-62.825m-95.328-92.666h26.78l16.96-14.158V280.5c.026-.114.046-.229.061-.345l21.507-58.655H215.66l-40.9 56.157v49.177z"/><path class="st0" d="M167.75 333.8h36.717l45.377-37.881a.997.997 0 0 1 .64-.232h61.2l3.912-4.92h-67.733L227.14 308.06c-.627.524-1.641.048-1.641-.768V280.5c.026-.114.046-.229.061-.345l22-60c.135-.37.545-.655.939-.655h78v-4H220.03l-2.914 4H241.5c.666 0 1.168.72.939 1.344L220.5 280.678V312.9c0 .365-.066.766-.364 1.015l-17.593 14.687a.997.997 0 0 1-.64.232H173.76a1 1 0 0 1-1-1v-47.431l-5.01 6.878v46.52zm200.375-4.05h-22.47v5.985h22.47zm6.372 145.52h61.972V437.5h-28.85zm-16.622-217.735v5.133h22.3v-5.133h-11.05zm-19.208-50.431l.006.015 6.902 16.596.001.003.002.004c.025.06.024.122.036.183.014.067.04.13.04.2v9.27h21.355l-27.495-33.45h-3.833l2.986 7.18z"/><path class="st0" d="M328.5 378.5h12.43l2.725-4.588V224.305l-6.573-15.805H328.5zm591.313 56.924h-12.848l19.193 43.074h12.82zm12.345-2l-19.051-42.757H509.5V405h383.235c.36-.01.827.254.947.613l12.392 27.81h26.084z"/><path class="st0" d="M755.446 483.833c0 .133-.058.36-.12.477l-1.876 3.462a1.035 1.035 0 0 1-.879.524H527.375c-.351 0-.728-.23-.888-.541l-1.875-3.629a1.316 1.316 0 0 1-.112-.459V407H518v76.424l4.372 8.497H757.58l4.366-8.334V407h-6.5v76.833zM345.655 321.75v6h22.47v-6h-11.25zm656.956 113.674h-73.83l15.158 34.017h97.57l12.165-34.017zM373.29 477.271h63.18V484h-63.18zm76.21-117.917h-1.895a1 1 0 0 1-1-1v-6.803a1 1 0 0 1 1-1h1.895v-36.048l-52.581-69.527a1.142 1.142 0 0 1-.203-.605v-6.163h-2.998a1 1 0 0 1-1-1v-6.897a1 1 0 0 1 1-1h49.949a1 1 0 0 1 1 1v6.897a1 1 0 0 1-1 1h-1.57v5.786l16.264 21.472V216.25h-3.624a1 1 0 0 1-1-1v-8.416l-71.657-6.908h-39.977l27.794 33.814c.13.158.228.43.228.635v21.16h11.05a1 1 0 0 1 1 1V367H397a1 1 0 0 1 1 1v19.25h41.638l9.862-8.219v-19.677zm-41.334 48.979h28.303V428h-28.303z"/><path class="st0" d="M363.273 483.148l8.017 8.15V476.27c0-.225.1-.49.248-.659l34.877-39.77a1 1 0 0 1 .751-.341h30.303a1 1 0 0 1 1 1v52.704l5.447-11.757V401.25h-43.25v32.362c0 .031-.014.057-.017.087a.978.978 0 0 1-.23.603l-37.146 42.364v6.482zm42.893-75.815a1 1 0 0 1 1-1h30.303a1 1 0 0 1 1 1V429a1 1 0 0 1-1 1h-30.303a1 1 0 0 1-1-1v-21.667zm-25.99-142.665h-10.051v146.665h10.05zM345.655 373.89l4.484 6.907h2.276v-43.062h-6.76zm0-54.14h10.22v-84.375h-10.22zm-9.086 106.602L347.564 436h11.923l-11.705-9.648zm5.931-46.577V401.5h3a1 1 0 0 1 1 1v8h1.64a1 1 0 0 1 1 1v13.38l6.649 5.48v-37.188l-11.096-17.09-2.193 3.693zm11.915-42.04h4.949v43.062h-4.949zm-8.142 144.823v-5.268m-2.805 0c.154 1.737.247 3.491.248 5.268M155.875 416.5v5h56.49a132.655 132.655 0 0 1 1.88-5h-58.37zm673.641-173.44l129.762 62.102v-27.204h-33.517a1 1 0 0 1-1-1v-24.717l-95.245-9.181zM138.75 387h15.125v18.167H138.75zm709.71-120.947l-28.597-13.694-3.57 7.388 29.47 14.163c.271-2.066.923-4.276 1.976-6.478.226-.473.47-.93.722-1.38zm-480.335 71.682h-6.76v43.645l6.76 6.705zM970.778 239h39.167v134.167h-39.167z"/><path class="st0" d="M961.278 251.333V339c0 .267-.158.603-.365.772l-26.802 22.033v11.362h34.667V239h-7.5v12.333zm138.906 106.021v-4.803h-28.124v4.803h26.228zM155.875 423.5v14.667h51.556c1.117-4.575 2.515-9.577 4.24-14.667h-55.796zm181.625-20h7v7h-7zm-1 9h-1.587v11.852h12.228V412.5H345.5zm-109-131.822v24.476L246.86 289a.997.997 0 0 1 .64-.232h69.167V221.5h-67.468L227.5 280.678zm130.375-45.303h10.25v20.16h-10.25zm0 29.293h10.25v55.082h-10.25zm-187.98 175.499v18h33.722c.307-2.363 1.292-9.242 3.335-18h-37.057zm-6.95 0h4.949v18h-4.949zM290.25 327.75h26.417v7.221H290.25zM155.875 440.167h5.07v18h-5.07zM138.75 375.5h15.125v9.5H138.75z"/><path class="st0" d="M155.875 303.586V414.5h59.193c9.9-23.576 23.858-36 40.557-36H326.5v-157h-7.833v68.275c0 .206-.084.449-.216.615l-5.501 6.919a.999.999 0 0 1-.783.378h-61.32l-45.377 37.881a.997.997 0 0 1-.64.233h-38.08a1 1 0 0 1-1-1c0-.014.007-.026.008-.04 0-.013-.008-.024-.008-.038v-44.696l-9.875 13.56zM288.25 326.75a1 1 0 0 1 1-1h28.417a1 1 0 0 1 1 1v9.22a1 1 0 0 1-1 1H289.25a1 1 0 0 1-1-1v-9.22zm200.778 120.332H516v35.585h-26.972zm-368.537-306.04h14.299v14.459h-14.299z"/><path class="st0" d="M9.888 14.314V170h170.25V14.314H9.888zm51.481 13.85a1 1 0 0 1 1-1h65.284a1 1 0 0 1 1 1v48.17a1 1 0 0 1-1 1H62.37a1 1 0 0 1-1-1v-48.17zm-40.765 0a1 1 0 0 1 1-1h30.861a1 1 0 0 1 1 1v48.17a1 1 0 0 1-1 1H21.604a1 1 0 0 1-1-1v-48.17zM169.388 90.88v65.62a1 1 0 0 1-1 1H21.604a1 1 0 0 1-1-1V90.666a1 1 0 0 1 1-1h146.784a1 1 0 0 1 1 1v.214zm0-14.546a1 1 0 0 1-1 1h-30.862a1 1 0 0 1-1-1v-48.17a1 1 0 0 1 1-1h30.862a1 1 0 0 1 1 1v48.17zm927.9 308.135v-25.115h-22.333v12.724z"/><path class="st0" d="M138.526 29.165h28.861v46.169h-28.861zm244.64 152.668v9.583l70.571 6.805v-5.503a1 1 0 0 1 1-1h22.526a1 1 0 0 1 1 1v7.868L932.61 244.4V241a1 1 0 0 1 1-1h25.667v-2a1 1 0 0 1 1-1h103a1 1 0 0 1 1 1v28.535l16.052-12.929c.159-.129.42-.221.627-.221h8.154v-39.227l-489.095-47.162c-.689-.068-1.112-.851-.79-1.462l5.825-11.046-105.667-10.927-.397 4.128a1.01 1.01 0 0 1-1.091.9l-71.172-6.84a1.016 1.016 0 0 1-.9-1.092l.448-4.656L192 111.776v9.773c3.093.373 5.5 3.009 5.5 6.201s-2.407 5.828-5.5 6.2v36.144l108.939 10.74h81.228a1 1 0 0 1 1 1zM153.089 91.666h14.299v14.459h-14.299zM91.066 289.745h6.138c.008 0 .015.005.024.005h2.83v-40.625H88.126v40.625h2.917c.009 0 .016-.005.024-.005zm1 2.005h4.137v4.625h-4.137z"/><path class="st0" d="M188.675 182.833h192.491v15.092H188.675zm30.037 31.078c.169-.23.523-.411.809-.411H326.5v-5H211.192l-68.166 93.75h11.348l64.338-88.339zm-90.545 206.756v25.982l9.355 24.518h9.645v-50.5zM336.25 206.5l-2.734-6.574h-116.09l-4.78 6.574zm-199.46-65.458h14.299v14.459H136.79zm0-16.458h14.299v14.458H136.79zm16.299-16.459h14.299v14.459h-14.299zm-32.598 0h14.299v14.459h-14.299zm0 16.459h14.299v14.458h-14.299zm0-32.918h14.299v14.459h-14.299zm32.598 49.376h14.299v14.459h-14.299zm0-16.458h14.299v14.458h-14.299zm-16.299-16.459h14.299v14.459H136.79zm0-16.459h14.299v14.459H136.79zm48.242 36.709h-2.894V170H190v-36.126a6.264 6.264 0 0 1-4.968-5.499zm654.922 309.166c-24.851 0-45.07 20.219-45.07 45.07s20.219 45.07 45.07 45.07 45.07-20.218 45.07-45.07-20.218-45.07-45.07-45.07zm0 82.307c-20.532 0-37.236-16.704-37.236-37.237s16.704-37.236 37.236-37.236 37.236 16.704 37.236 37.236-16.704 37.237-37.236 37.237z"/><path class="st0" d="M839.954 447.375c-19.43 0-35.236 15.807-35.236 35.236s15.806 35.237 35.236 35.237 35.236-15.807 35.236-35.237-15.806-35.236-35.236-35.236zm0 49.174c-7.685 0-13.938-6.252-13.938-13.938s6.253-13.938 13.938-13.938 13.938 6.253 13.938 13.938-6.252 13.938-13.938 13.938zm-352.926-50.467a1 1 0 0 1 1-1H516v-5.749h-32.666v43.334h3.694v-36.585z"/><path class="st0" d="M839.954 425.021c-31.755 0-57.59 25.835-57.59 57.59s25.835 57.59 57.59 57.59 57.59-25.835 57.59-57.59-25.835-57.59-57.59-57.59zm0 104.66c-25.955 0-47.07-21.115-47.07-47.07s21.115-47.07 47.07-47.07 47.07 21.115 47.07 47.07-21.115 47.07-47.07 47.07z"/><path class="st0" d="M839.954 470.673c-6.583 0-11.938 5.355-11.938 11.938 0 6.582 5.355 11.938 11.938 11.938 6.582 0 11.938-5.356 11.938-11.938 0-6.583-5.356-11.938-11.938-11.938zm232.106 20.46h28.124v-4.803h-1.881c-.006 0-.01.003-.015.003h-24.333c-.005 0-.01-.003-.014-.003h-1.881v4.803zm-918.185-83.966h-15.486l-5.323 11.5h15.1a1 1 0 0 1 1 1V464.5h4.709v-57.333zm943.413 54.923l-22.333-12.392v34.632h22.333v-17.705zm-614.954-24.757H516v-5.5h-40.166v44.834h5.5v-38.334a1 1 0 0 1 1-1zm455.694 34.108l3.14 7.057h131.787v-7.057zm-33.525-36.629L892.11 407H763.946v49.433h22.491c9.71-19.769 30.047-33.412 53.517-33.412s43.807 13.643 53.517 33.412h20.666l-9.632-21.618-.002-.003zm-620.375 12.563c-19.43 0-35.236 15.807-35.236 35.236s15.807 35.237 35.236 35.237 35.236-15.807 35.236-35.237-15.807-35.236-35.236-35.236zm0 49.174c-7.686 0-13.938-6.252-13.938-13.938s6.252-13.938 13.938-13.938 13.938 6.253 13.938 13.938-6.253 13.938-13.938 13.938z"/><path class="st0" d="M284.128 470.673c-6.583 0-11.938 5.355-11.938 11.938 0 6.582 5.355 11.938 11.938 11.938s11.938-5.356 11.938-11.938c0-6.583-5.356-11.938-11.938-11.938zm-64.635-11.4a147.386 147.386 0 0 0-3.323 5.227m11.19 0a59.148 59.148 0 0 1 1.943-5.227"/><path class="st0" d="M284.128 437.541c-24.852 0-45.07 20.219-45.07 45.07s20.218 45.07 45.07 45.07 45.07-20.218 45.07-45.07-20.218-45.07-45.07-45.07zm0 82.307c-20.532 0-37.236-16.704-37.236-37.237s16.704-37.236 37.236-37.236c20.532 0 37.236 16.704 37.236 37.236s-16.704 37.237-37.236 37.237zm89.162-33.838h63.18v6.73h-63.18zm67.35-96.991a1.11 1.11 0 0 1-.64.231h-43a1 1 0 0 1-1-1V369h-13.824v43.333a1 1 0 0 1-1 1h-12.051a1 1 0 0 1-1-1v-21.432l-8.172-8.104h-8.515l6.19 9.533c.089.139.16.38.16.545v39.133l5.121 4.22c.212.176.364.5.364.772v36.633l35.394-40.367v-33.009l-.002-.007a1 1 0 0 1 1-1h45.252a1 1 0 0 1 1 1v76.417h3.583v-95.032l-8.86 7.384zm9.86 97.311h-1.895v4.803h28.124v-4.803h-1.895zm1-36.632v34.632h22.334v-22.24z"/><path class="st0" d="M284.128 425.021c-31.755 0-57.59 25.835-57.59 57.59s25.835 57.59 57.59 57.59 57.59-25.835 57.59-57.59-25.835-57.59-57.59-57.59zm0 104.66c-25.955 0-47.07-21.115-47.07-47.07s21.115-47.07 47.07-47.07 47.07 21.115 47.07 47.07-21.115 47.07-47.07 47.07zm815.16-139.014h15.573v74.958h-15.573zM9.888 7h170.25v5.314H9.888zm172.25 119.375h3.02a6.266 6.266 0 0 1 4.842-4.749v-14.15h-7.862v18.899z"/><circle class="st0" cx="191.25" cy="127.75" r="4.25"/><path transform="rotate(-84.51 462.916 138.858)" class="st0" d="M458.577 104.107h8.68v69.5h-8.68z"/><path class="st0" d="M607.516 154.102a.312.312 0 0 1-.004.007l-5.82 11.039 488.515 47.106c.484.047.904.51.904.996v50h9.75v-50c0-22.014-15.248-23.836-15.896-23.903l-472.11-45.37-5.339 10.125zm481.338 49.09a1 1 0 0 1-1.091.9l-475.25-45.684a1 1 0 0 1 .191-1.991l475.25 45.684a1 1 0 0 1 .9 1.09zM63.369 29.165h63.284v46.169H63.369zm-40.765 0h28.862v46.169H22.604zm.093 78.96h14.299v14.459H22.697zm0 16.459h14.299v14.458H22.697zm0 16.458h14.299v14.459H22.697zm1052.258 256.264l22.333 12.391v-22.942l-22.333-12.39zm22.333 38.949l-22.333-12.39v23.546l22.333 12.392zm-127.51-61.088h-48.216v13.5h110.383v-13.5z"/><path class="st0" d="M1085.416 260.69l-21.138 17.067v50.308l31.843-55.776zM22.697 91.666h14.299v14.459H22.697zm1074.591 320.318l-22.333-12.391v21.985l22.333 12.39zm-138.176-21.317v34.104h42.5V413.75a1 1 0 0 1 1-1h52.5a1 1 0 0 1 1 1v19.674h16.843v-42.757H959.112zm52.833-17.5h50.333V239h-50.333zm77.166-111.421v-6.361h-5.87zm-24.833 13.44l19.779-15.969-3.2-3.467-16.579 13.353zm28.067-9.936l4.816 5.217 2.978-5.217zM38.997 108.125h14.299v14.459H38.997zm32.597 16.459h14.299v14.458H71.594zm16.299-16.459h14.299v14.459H87.893zM55.295 91.666h14.299v14.459H55.295zm16.299 0h14.299v14.459H71.594zm0 49.376h14.299v14.459H71.594zm-32.597 0h14.299v14.459H38.997zm65.195 0h14.299v14.459h-14.299zm-16.299-16.458h14.299v14.458H87.893zm0-32.918h14.299v14.459H87.893zm-32.598 16.459h14.299v14.459H55.295zm32.598 32.917h14.299v14.459H87.893zm-16.299-32.917h14.299v14.459H71.594zm-16.299 32.917h14.299v14.459H55.295zm48.897-49.376h14.299v14.459h-14.299zm-65.195 0h14.299v14.459H38.997zm0 32.918h14.299v14.458H38.997zm65.195 0h14.299v14.458h-14.299zm0-16.459h14.299v14.459h-14.299zm-48.897 16.459h14.299v14.458H55.295z"/><path class="st1" d="M289.25 336.97h28.417a1 1 0 0 0 1-1v-9.22a1 1 0 0 0-1-1H289.25a1 1 0 0 0-1 1v9.22a1 1 0 0 0 1 1zm1-9.22h26.417v7.22H290.25v-7.22zm-6.122 140.923c-7.686 0-13.938 6.253-13.938 13.938s6.252 13.938 13.938 13.938 13.938-6.252 13.938-13.938-6.253-13.938-13.938-13.938zm0 25.876c-6.583 0-11.938-5.356-11.938-11.938 0-6.583 5.355-11.938 11.938-11.938s11.938 5.355 11.938 11.938c0 6.582-5.356 11.938-11.938 11.938z"/><path class="st1" d="M284.128 445.375c-20.532 0-37.236 16.704-37.236 37.236s16.704 37.237 37.236 37.237c20.532 0 37.236-16.704 37.236-37.237s-16.704-37.236-37.236-37.236zm0 72.473c-19.43 0-35.236-15.807-35.236-35.237s15.807-35.236 35.236-35.236 35.236 15.807 35.236 35.236-15.807 35.237-35.236 35.237z"/><path class="st1" d="M284.128 435.541c-25.955 0-47.07 21.115-47.07 47.07s21.115 47.07 47.07 47.07 47.07-21.115 47.07-47.07-21.115-47.07-47.07-47.07zm0 92.14c-24.852 0-45.07-20.218-45.07-45.07s20.218-45.07 45.07-45.07 45.07 20.219 45.07 45.07-20.218 45.07-45.07 45.07zm555.826-59.008c-7.685 0-13.938 6.253-13.938 13.938s6.253 13.938 13.938 13.938 13.938-6.252 13.938-13.938-6.252-13.938-13.938-13.938zm0 25.876c-6.583 0-11.938-5.356-11.938-11.938 0-6.583 5.355-11.938 11.938-11.938 6.582 0 11.938 5.355 11.938 11.938 0 6.582-5.356 11.938-11.938 11.938z"/><path class="st1" d="M839.954 445.375c-20.532 0-37.236 16.704-37.236 37.236s16.704 37.237 37.236 37.237 37.236-16.704 37.236-37.237-16.704-37.236-37.236-37.236zm0 72.473c-19.43 0-35.236-15.807-35.236-35.237s15.806-35.236 35.236-35.236 35.236 15.807 35.236 35.236-15.806 35.237-35.236 35.237z"/><path class="st1" d="M839.954 435.541c-25.955 0-47.07 21.115-47.07 47.07s21.115 47.07 47.07 47.07 47.07-21.115 47.07-47.07-21.115-47.07-47.07-47.07zm0 92.14c-24.851 0-45.07-20.218-45.07-45.07s20.219-45.07 45.07-45.07 45.07 20.219 45.07 45.07-20.218 45.07-45.07 45.07zM407.166 430h30.303a1 1 0 0 0 1-1v-21.667a1 1 0 0 0-1-1h-30.303a1 1 0 0 0-1 1V429a1 1 0 0 0 1 1zm1-21.667h28.303V428h-28.303v-19.667zm203.447-251.016a1 1 0 0 0 .9 1.091l475.25 45.684a1 1 0 0 0 .191-1.991l-475.25-45.684a1.006 1.006 0 0 0-1.09.9zm199.457 96.746c2.517 0 4.565-2.048 4.565-4.565s-2.048-4.565-4.565-4.565-4.564 2.048-4.564 4.565 2.048 4.565 4.564 4.565zm0-7.13c1.414 0 2.565 1.15 2.565 2.565s-1.15 2.565-2.565 2.565a2.566 2.566 0 0 1 0-5.13zM62.37 77.334h65.283a1 1 0 0 0 1-1v-48.17a1 1 0 0 0-1-1H62.37a1 1 0 0 0-1 1v48.17a1 1 0 0 0 1 1zm1-48.17h63.283v46.17H63.37v-46.17zm105.018-1.999h-30.862a1 1 0 0 0-1 1v48.169a1 1 0 0 0 1 1h30.862a1 1 0 0 0 1-1v-48.17a1 1 0 0 0-1-1zm-1 48.169h-28.862v-46.17h28.862v46.17zm-145.784 2h30.861a1 1 0 0 0 1-1v-48.17a1 1 0 0 0-1-1H21.604a1 1 0 0 0-1 1v48.17a1 1 0 0 0 1 1zm1-48.17h28.861v46.17H22.604v-46.17zm145.784 60.502H21.604a1 1 0 0 0-1 1V156.5a1 1 0 0 0 1 1h146.784a1 1 0 0 0 1-1V90.667a1 1 0 0 0-1-1zM36.997 155.5h-14.3v-14.459h14.3V155.5zm0-16.458h-14.3v-14.459h14.3v14.459zm0-16.459h-14.3v-14.458h14.3v14.459zm0-16.458h-14.3V91.666h14.3v14.459zM53.295 155.5H38.997v-14.459h14.298V155.5zm0-16.458H38.997v-14.459h14.298v14.459zm0-16.459H38.997v-14.458h14.298v14.459zm0-16.458H38.997V91.666h14.298v14.459zm16.3 49.375h-14.3v-14.459h14.3V155.5zm0-16.458h-14.3v-14.459h14.3v14.459zm0-16.459h-14.3v-14.458h14.3v14.459zm0-16.458h-14.3V91.666h14.3v14.459zM85.892 155.5H71.594v-14.459h14.3V155.5zm0-16.458H71.594v-14.459h14.3v14.459zm0-16.459H71.594v-14.458h14.3v14.459zm0-16.458H71.594V91.666h14.3v14.459zm16.299 49.375H87.893v-14.459h14.299V155.5zm0-16.458H87.893v-14.459h14.299v14.459zm0-16.459H87.893v-14.458h14.299v14.459zm0-16.458H87.893V91.666h14.299v14.459zm16.3 49.375h-14.3v-14.459h14.3V155.5zm0-16.458h-14.3v-14.459h14.3v14.459zm0-16.459h-14.3v-14.458h14.3v14.459zm0-16.458h-14.3V91.666h14.3v14.459zM134.79 155.5h-14.299v-14.459h14.299V155.5zm0-16.458h-14.299v-14.459h14.299v14.459zm0-16.459h-14.299v-14.458h14.299v14.459zm0-16.458h-14.299V91.666h14.299v14.459zm16.299 49.375H136.79v-14.459h14.299V155.5zm0-16.458H136.79v-14.459h14.299v14.459zm0-16.459H136.79v-14.458h14.299v14.459zm0-16.458H136.79V91.666h14.299v14.459zm16.299 49.375h-14.3v-14.459h14.3V155.5zm0-16.458h-14.3v-14.459h14.3v14.459zm0-16.459h-14.3v-14.458h14.3v14.459zm0-16.458h-14.3V91.666h14.3v14.459z"/><path class="st0" d="M961.278 241v98c0 .267-.158.603-.365.772l-26.802 22.033v11.362h34.667V239h-7.5v2z"/><path class="st0" d="M959.278 314.995v-7.615l-94.514-45.234c.778 2.1.882 4.792.263 7.698l94.251 45.15zM829.516 243.06l129.762 62.102v-27.204h-33.517a1 1 0 0 1-1-1v-24.717l-95.245-9.181zM970.778 239h39.167v134.167h-39.167zm-13.666 185.77v-34.103h-35.01l15.17 34.104zM847.74 267.432c.225-.473.469-.93.72-1.38l-28.597-13.693-3.57 7.388 29.47 14.163c.271-2.066.923-4.276 1.976-6.478zm-27.007-16.874l28.794 13.788c1.323-1.926 2.88-3.544 4.557-4.687a11 11 0 0 1 2.668-1.347l-32.297-15.458-3.722 7.704zm-6.243 8.322l4.002-8.283.001-.003.002-.003 3.968-8.211-52.926-5.102zm-338.227-65.162h-20.526v20.532h20.526zm374.064 88.289c3.241 1.552 8.353-2.112 11.167-7.996 2.83-5.914 2.485-12.22-.754-13.77a3.732 3.732 0 0 0-1.625-.354c-1.183 0-2.521.482-3.905 1.425-2.226 1.516-4.237 3.996-5.666 6.983-2.815 5.883-2.456 12.163.783 13.712zM460.361 216.25v51.856l11.278 14.887V216.25zm15.517 87.835l-8.257-10.918h-22.564l8.263 10.918zm-9.769-12.918l-5.356-7.082h-22.57l5.36 7.082zm455.453 84v13.5h110.383v-13.5h-62.167zm-445.728 35.186H507.5v-23.186h-31.666zm-9.715-97.186h16.628l-5.356-7.082h-22.557l5.36 7.082zm9.715 56.375h24.567v15.625h-24.567zm536.111 3.625h50.333V239h-50.333zm77.166-117.782h-5.87l5.87 6.361zm-24.833 13.718v6.083l19.779-15.969-3.2-3.467zm32.882 1.364l2.98-5.217h-7.795zm-637.92 11.618l-8.446-11.168h-22.578l8.453 11.168zm605.038-4.328v50.308l31.843-55.776-10.705-11.6zM190 121.626v-14.15h-7.862v18.899h3.02a6.266 6.266 0 0 1 4.842-4.749z"/><path class="st0" d="M1090.207 212.254c.484.047.904.51.904.996v50h9.75v-50c0-22.014-15.248-23.836-15.896-23.903l-472.11-45.37-5.339 10.125a.312.312 0 0 1-.004.007l-5.82 11.039 488.515 47.106z"/><path transform="rotate(-84.51 462.916 138.858)" class="st0" d="M458.577 104.107h8.68v69.5h-8.68z"/><path class="st0" d="M926.76 252.333v23.625h32.518v-23.625h-25.667zm32.518 64.879l-94.774-45.402a23.478 23.478 0 0 1-1.205 3.065c-1.928 4.028-4.72 7.031-7.57 8.497l103.55 49.623v-15.783zM478.263 207.189l447.548 43.144h6.8v-3.925l-454.348-43.812zm594.692 228.235h-17.157l-12.165 34.017h29.322zM934.611 242h24.667v8.334h-24.667zm69 172.75h50.5v10.021h-50.5zm-2 18.674v-6.653h-64.989c-.375 0-.762-.252-.914-.594l-15.796-35.51h-4.616l19.052 42.757h67.263zm2-6.653h50.5v6.653h-50.5zM483.757 315.167h-23.06v11.97h23.06zm-36.152 35.383h1.895v-36.047l-52.581-69.527a1.143 1.143 0 0 1-.203-.605v-6.163h-2.998a1 1 0 0 1-1-1v-6.897a1 1 0 0 1 1-1h49.949a1 1 0 0 1 1 1v6.897a1 1 0 0 1-1 1h-1.57v5.786l16.264 21.471V216.25h-3.624a1 1 0 0 1-1-1v-8.416l-71.657-6.908h-39.977l27.794 33.814c.13.158.228.43.228.635v21.16h11.05a1 1 0 0 1 1 1V367H397a1 1 0 0 1 1 1v19.25h41.638l9.862-8.219v-19.677h-1.895a1 1 0 0 1-1-1v-6.803a1 1 0 0 1 1-1z"/><path class="st0" d="M370.125 328.75v82.583h10.05V264.668h-10.05v56.082zm10.051-71.215h-22.301v5.133h22.3zm78.521 93.015v-36.047l-52.323-69.132h-6.65l51.573 68.192a.957.957 0 0 1 .203.604v36.384h7.197zm-104.282-12.815h4.949v43.062h-4.949zm123.337 21.619h-1.919v8.188h7.924v-27.325h-23.06v10.334h17.055a1 1 0 0 1 1 1v6.803a1 1 0 0 1-1 1zm-109.627 28.731v-50.35h-6.76v43.645zm0-58.335h-22.47v5.985h22.47zm590.987 60.917v34.104h42.5V413.75a1 1 0 0 1 1-1h52.5a1 1 0 0 1 1 1v19.674h16.843v-42.757H959.112zM9.888 170h170.25V14.314H9.888zm0-163h170.25v5.314H9.888zm439.393 261.916l-5.355-7.081h-22.583l5.36 7.082zm472.722 166.508l15.135 34.017h4.612l-15.158-34.017zm119.507 34.017l12.164-34.017H928.781l15.158 34.017zM355.789 430.36v-37.188l-11.096-17.09-2.193 3.693V401.5h3a1 1 0 0 1 1 1v8h1.64a1 1 0 0 1 1 1v13.38l6.649 5.48zm563.773-41.693v-14.5a1 1 0 0 1 1-1h11.55v-11.834c0-.267.158-.603.365-.772l26.801-22.033v-3.316L853 284.282a6.837 6.837 0 0 1-1.021.088 5.78 5.78 0 0 1-2.515-.558c-2.524-1.208-3.832-4.13-3.837-7.749l-81.867-39.342-285.497-27.523v6.052a1 1 0 0 1-1 1h-3.624v69.383l21.158 27.93c.115.152.203.413.203.604v53.375h6.4a1 1 0 0 1 1 1v16.625h6.1a1 1 0 0 1 1 1v2.5h410.062zm-734.53-260.292h-2.894V170H190v-36.126a6.264 6.264 0 0 1-4.968-5.499zm275.665 200.761h23.06v9.081h-23.06zm-102.822-64.468h10.25v55.082h-10.25zm95.862-64.437l-70.57-6.805v4.595l70.57 6.803z"/><path class="st0" d="M493 367.542v-53.04l-52.37-69.13h-6.649l51.573 68.191c.115.152.203.414.203.604v53.375H493zm-94.284-129.313h41.38v5.142h-41.38z"/><path class="st0" d="M442.413 259.835l-10.938-14.464h-22.593l10.947 14.464zm-47.695-28.524h47.949v4.898h-47.949zm-26.593 90.439h-22.47v6h22.47zm-22.47-2h10.22v-84.375h-10.22zM328.5 378.5h12.43l2.725-4.588V224.305l-6.573-15.805H328.5zm29.375-143.125h10.25v20.16h-10.25zM337.5 403.5h7v7h-7zm-2.587 9v11.852h12.228V412.5H336.5zm17.502-74.765h-6.76v36.155l4.484 6.907h2.276z"/><path class="st0" d="M335.681 199.926l2.986 7.178.006.015 6.902 16.596.001.003.002.004c.025.06.024.122.036.183.014.067.04.13.04.2v9.27h21.355l-27.495-33.45h-3.833zm-2.165 0h-116.09l-4.78 6.574H336.25zM526.5 407h72.136v22.833H526.5z"/><path class="st0" d="M755.446 483.833c0 .133-.058.36-.12.477l-1.876 3.462a1.054 1.054 0 0 1-.879.524H527.375a1.04 1.04 0 0 1-.888-.541l-1.875-3.629a1.317 1.317 0 0 1-.112-.459V407H518v76.424l4.372 8.497H757.58l4.366-8.334V407h-6.5v76.833z"/><path class="st0" d="M545.5 471.375h53.136V477H545.5zm135.864 0h72.082V477h-72.082zM545.5 483.667a1 1 0 0 1-1 1h-17.358l.842 1.629h70.652V479H545.5v4.667zM600.636 407h78.729v79.296h-78.729z"/><path class="st0" d="M526.5 447.082h17v35.585h-17zm0-7.749h17v5.749h-17z"/><path class="st0" d="M526.5 437.333h18a1 1 0 0 1 1 1v31.042h53.136v-37.542H526.5v5.5zm-75 46.997h22.334v-22.24L451.5 449.697zm0-36.919l22.334 12.392v-23.548l-22.334-12.39zm25.252-94.861h-28.147v4.804h28.147zM451.5 421.578l22.334 12.39v-21.984L451.5 399.593zm58-10.225a1 1 0 0 1-1 1h-32.666v17.48H516V407h-6.5v4.353zm-33.666 65.314h5.5v-38.334a1 1 0 0 1 1-1H516v-5.5h-40.166v44.834z"/><path class="st0" d="M489.028 447.082H516v35.585h-26.972z"/><path class="st0" d="M483.334 482.667h3.694v-36.585a1 1 0 0 1 1-1H516v-5.749h-32.666v43.334zm356.62-57.646c-31.755 0-57.59 25.835-57.59 57.59s25.835 57.59 57.59 57.59 57.59-25.835 57.59-57.59-25.835-57.59-57.59-57.59zm235.001 22.39l22.333 12.392v-23.548l-22.333-12.39zm0-25.833l22.333 12.39v-21.984l-22.333-12.391zM681.364 407h72.082v62.375h-72.082zm393.591 77.33h22.333v-22.24l-22.333-12.39zm24.333-93.663h15.573v74.958h-15.573zm.896-38.117h-28.124v4.804h28.124zm-25.229 44.756l22.333 12.391v-22.942l-22.333-12.39zm22.333-37.952h-22.333v12.724l22.333 12.39z"/><path class="st0" d="M893.682 405.613l12.392 27.81h26.084l-19.051-42.756H509.5V405h383.235c.364-.01.827.255.947.613zm-419.848-46.259H451.5v12.724l22.334 12.39zm207.53 126.942h70.612l1.47-2.716V479h-72.082zm416.924.037h-24.333c-.005 0-.01-.003-.014-.003h-1.881v4.803h28.124v-4.803h-1.881c-.006 0-.01.003-.015.003zm-25.333-14.892H938.028l3.14 7.057h131.787zm-165.99-36.017l19.193 43.074h12.82l-19.165-43.074z"/><path class="st0" d="M904.503 434.812L892.11 407H763.946v49.433h22.491c9.71-19.769 30.047-33.412 53.517-33.412s43.807 13.643 53.517 33.412h20.666l-9.632-21.618-.002-.003zM451.5 397.306l22.334 12.391v-22.942l-22.334-12.39zm-247.883 60.861c.307-2.363 1.292-9.242 3.335-18h-37.057v18h33.722zM219.52 213.5H326.5v-5H211.192l-68.166 93.75h11.348l64.338-88.339c.169-.23.523-.411.809-.411zm-7.849 210h-55.796v14.667h51.556c1.117-4.575 2.515-9.577 4.24-14.667z"/><circle class="st0" cx="191.25" cy="127.75" r="4.25"/><path class="st0" d="M155.875 440.167h5.07v18h-5.07zm7.07 0h4.949v18h-4.949zm50.338-21.186c.316-.84.637-1.666.963-2.481h-58.371v5h56.49c.298-.84.602-1.679.918-2.519zM138.75 375.5h15.125v9.5H138.75zm0 11.5h15.125v18.167H138.75zm49.925-204.167h192.491v15.092H188.675zm66.95 195.667H326.5v-157h-7.833v68.275c0 .206-.084.449-.216.615l-5.501 6.919a.999.999 0 0 1-.783.378h-61.32l-45.377 37.881a.997.997 0 0 1-.64.233h-38.08a1 1 0 0 1-1-1c0-.014.007-.026.008-.04 0-.013-.008-.024-.008-.038v-44.696l-9.875 13.56V414.5h59.193c9.9-23.576 23.858-36 40.557-36zM91.066 289.745h6.138c.008 0 .015.005.024.005h2.83v-40.625H88.126v40.625h2.917c.009 0 .016-.005.024-.005z"/><path class="st0" d="M382.166 180.833a1 1 0 0 1 1 1v9.583l70.571 6.805v-5.503a1 1 0 0 1 1-1h22.526a1 1 0 0 1 1 1v7.868L932.61 244.4V241a1 1 0 0 1 1-1h25.667v-2a1 1 0 0 1 1-1h103a1 1 0 0 1 1 1v28.535l16.052-12.929a1.1 1.1 0 0 1 .627-.221h8.154v-39.227l-489.095-47.162c-.688-.068-1.112-.852-.79-1.462l5.825-11.046-105.667-10.927-.397 4.128a1.01 1.01 0 0 1-1.091.9l-71.172-6.84a1.016 1.016 0 0 1-.9-1.092l.448-4.656L192 111.776v9.773c3.093.373 5.5 3.009 5.5 6.201s-2.407 5.828-5.5 6.2v36.144l108.939 10.74h81.227zm-249.1 237.834h15.1a1 1 0 0 1 1 1V464.5h4.709v-57.333h-15.486l-5.323 11.5z"/><path class="st0" d="M128.167 446.65l9.355 24.517h9.645v-50.5h-19zm-36.101-154.9h4.137v4.625h-4.137zm7.993 11.5v-4.875H88.125v12.278h49.625a1 1 0 0 1 1 1V373.5h15.125v-69.25h-52.816a1 1 0 0 1-1-1zM373.29 477.271h63.18V484h-63.18zm1.207-2.001h61.972V437.5h-28.85zm-1.207 10.74h63.18v6.73h-63.18z"/><path class="st0" d="M400.666 433.612c0 .031-.014.057-.017.087a.978.978 0 0 1-.23.603l-37.146 42.364v6.482l8.017 8.15V476.27c0-.225.1-.49.248-.659l34.877-39.77a1 1 0 0 1 .751-.341h30.303a1 1 0 0 1 1 1v52.704l5.447-11.757V401.25h-43.25v32.362zM450.5 486.33h-1.895v4.803h28.124v-4.803h-1.895z"/><path class="st0" d="M361.273 483.558V438h-13v45.416l5.814 20.054h12.918l-5.693-19.634a1.008 1.008 0 0 1-.04-.278z"/><path class="st0" d="M449.5 381.635l-8.86 7.384a1.13 1.13 0 0 1-.64.231h-43a1 1 0 0 1-1-1V369h-13.824v43.333a1 1 0 0 1-1 1h-12.051a1 1 0 0 1-1-1v-21.432l-8.172-8.104h-8.515l6.19 9.533c.089.139.16.38.16.545v39.133l5.121 4.22c.209.173.364.503.364.772v36.633l35.394-40.367v-33.009l-.002-.007a1 1 0 0 1 1-1h45.252a1 1 0 0 1 1 1v76.417h3.583v-95.032zm-222-100.957v24.476L246.86 289a.997.997 0 0 1 .64-.232h69.167V221.5h-67.468L227.5 280.678z"/><path class="st0" d="M326.5 215.5H220.03l-2.914 4H241.5c.666 0 1.168.719.939 1.344L220.5 280.678V312.9c0 .363-.07.77-.364 1.015l-17.593 14.687a.997.997 0 0 1-.64.232H173.76a1 1 0 0 1-1-1v-47.431l-5.01 6.878v46.52h36.717l45.377-37.882a.997.997 0 0 1 .64-.232h61.2l3.912-4.92h-67.733L227.14 308.06c-.627.524-1.641.049-1.641-.768V280.5a1.07 1.07 0 0 1 .061-.345l22-60c.135-.37.545-.655.939-.655h78v-4z"/><path class="st0" d="M218.5 280.5c.004-.125.027-.222.061-.345l21.507-58.655H215.66l-40.9 56.157v49.177h26.781l16.96-14.158V280.5zm129.282 145.852h-11.213L347.564 436h11.923zM257.333 404.5H335.5v-2a1 1 0 0 1 1-1h4v-21h-84.875c-40.882 0-50.043 77.99-50.131 78.777-.054.483-.513.89-.994.89h-48.625v4.333h51.25c1.104-3.1 6.018-16.377 13.656-29.503 11.777-20.236 24.074-30.497 36.552-30.497z"/><path class="st0" d="M333.253 426.104a1.102 1.102 0 0 1-.34-.752V419.5h-62.825c-20.111 0-39.224 23.326-48.663 36.933h9.199c9.71-19.766 30.036-33.412 53.504-33.412 23.467 0 43.789 13.646 53.495 33.412h8.65v-18.905l-13.02-11.424z"/><path class="st0" d="M284.128 425.021c-31.755 0-57.59 25.835-57.59 57.59s25.835 57.59 57.59 57.59 57.59-25.835 57.59-57.59-25.835-57.59-57.59-57.59z"/><path class="st0" d="M270.088 417.5h62.825v-6a1 1 0 0 1 1-1h1.587v-4h-78.167c-25.76 0-44.891 49.26-48.08 58h4.587c1.395-2.383 7.695-12.832 16.722-23.158 13.831-15.82 27.13-23.842 39.526-23.842z"/><path class="st1" d="M1115.861 388.667h-16.573v-29.313h1.896a1 1 0 0 0 1-1v-6.803a1 1 0 0 0-1-1h-30.124a1 1 0 0 0-1 1v6.803a1 1 0 0 0 1 1h1.895v29.313h-39.01v-13.5h29.333a1 1 0 0 0 1-1v-42.069l38.452-67.352a1.21 1.21 0 0 0 .131-.496v-51c0-23.88-17.522-25.876-17.7-25.894l-472.782-45.434c-.373-.032-.8.195-.98.53l-5.342 10.13-106.482-11.012.434-4.512a1.003 1.003 0 0 0-.9-1.092l-71.171-6.841a1 1 0 0 0-1.092.9l-.383 3.985L192 109.765v-3.288a1 1 0 0 0-1-1h-8.862V6a1 1 0 0 0-1-1H8.888a1 1 0 0 0-1 1v165a1 1 0 0 0 1 1H190.95l89.603 8.834h-92.879a1 1 0 0 0-1 1v17.092a1 1 0 0 0 1 1h27.28L140.553 302.25h-38.495v-4.875a1 1 0 0 0-1-1h-2.855v-4.625h2.855a1 1 0 0 0 1-1v-42.625a1 1 0 0 0-1-1H87.125a1 1 0 0 0-1 1v42.625a1 1 0 0 0 1 1h2.941v4.625h-2.941a1 1 0 0 0-1 1v14.278a1 1 0 0 0 1 1h49.625v93.293l-5.889 12.721h-3.694a1 1 0 0 0-1 1c0 .025.012.045.013.07-.001.023-.013.044-.013.069v27.027c.012.15.028.195.065.356l9.667 25.334c.141.367.543.644.935.644h11.333a1 1 0 0 0 1-1V466.5h64.828c.705 0 1.255-.469 1.647-1.045.405-.596 2.364-3.942 3.851-6.182l.568-.84h9.623l-.381.84a59.15 59.15 0 0 0-1.942 5.227l-.592 2a59.4 59.4 0 0 0-2.23 16.111c0 32.859 26.731 59.59 59.589 59.59 32.205 0 58.507-25.684 59.54-57.643l.048-2a59.977 59.977 0 0 0-.248-5.268l-.216-2a59.117 59.117 0 0 0-4.696-16.857h7.717v24.125c0 1.115.124 1.569.249 2l5.853 20.19c.117.4.545.722.96.722h15.001a1 1 0 0 0 .96-1.279l-4.96-17.11 7.24 7.36c.185.185.451.3.714.3h65.18c.51 0 .748-.253.92-.611l7.165-15.463h3.945v5.663h-1.895a1 1 0 0 0-1 1v6.803a1 1 0 0 0 1 1h30.124a1 1 0 0 0 1-1v-6.803a1 1 0 0 0-1-1h-1.895v-5.663h5.5v5a1 1 0 0 0 1 1h34.056l4.483 8.712a1 1 0 0 0 .889.542h236.423c.332 0 .73-.241.885-.536l4.762-9.088c.063-.12.114-.329.114-.464v-25.4h21.564a59.265 59.265 0 0 0-5.096 26.615c1.242 30.752 26.184 55.78 56.933 57.097 34.04 1.46 62.197-25.81 62.197-59.534a59.224 59.224 0 0 0-5.146-24.178h20.63l9.569 21.474c.16.36.516.591.91.591h147.448v3.832h-1.895a1 1 0 0 0-1 1v6.803a1 1 0 0 0 1 1h30.124a1 1 0 0 0 1-1v-6.803a1 1 0 0 0-1-1h-1.896v-16.705h16.573a1 1 0 0 0 1-1v-76.958a1 1 0 0 0-1-1zm-935.723-282.19V170H9.888V14.314h170.25v92.163zm0-94.163H9.888V7h170.25v5.314zm892.817 378.353v42.757h-16.844V413.75a1 1 0 0 0-1-1h-52.5a1 1 0 0 0-1 1v11.02h-42.499v-34.103h113.843zm-144.174 44.757h124.893l-12.164 34.017h-97.571l-15.158-34.017zm12.969 34.017h-4.612l-15.135-34.017h4.59l15.157 34.017zM508.5 385.167h-6.1v-16.625a1 1 0 0 0-1-1H495v-53.375c0-.19-.088-.452-.203-.604l-21.158-27.93V216.25h3.624a1 1 0 0 0 1-1v-6.052l285.497 27.523 81.867 39.342c.005 3.62 1.313 6.541 3.837 7.749a5.78 5.78 0 0 0 2.515.558c.336 0 .678-.036 1.021-.088l106.278 50.93v3.316l-26.801 22.033a1.105 1.105 0 0 0-.366.772v11.834h-11.55a1 1 0 0 0-1 1v14.5H509.5v-2.5a1 1 0 0 0-1-1zm-30.748-34.616h-17.055v-10.334h23.06v27.325h-7.924v-8.188h1.919a1 1 0 0 0 1-1v-6.803a1 1 0 0 0-1-1zm-26.455-36.988l-51.572-68.192h6.649l52.323 69.132v36.048H451.5v-36.384a.957.957 0 0 0-.203-.604zm-3.692 45.79h1.895v19.678l-9.862 8.219H398V368a1 1 0 0 0-1-1h-14.824V256.535a1 1 0 0 0-1-1h-11.051v-21.16c0-.205-.097-.477-.228-.635l-27.794-33.814h39.977l71.657 6.908v8.416a1 1 0 0 0 1 1h3.624v49.216l-16.265-21.472v-5.785h1.57a1 1 0 0 0 1-1v-6.898a1 1 0 0 0-1-1h-49.948a1 1 0 0 0-1 1v6.898a1 1 0 0 0 1 1h2.998v6.162c0 .19.088.453.203.605l52.581 69.527v36.048h-1.895a1 1 0 0 0-1 1v6.803a1 1 0 0 0 1 1zm-78.48-96.685h-11.25v-5.133h22.3v5.133h-11.05zm11.05 2v146.665h-10.05V264.668h10.05zm-19.81 71.067h-14.71v-5.985h22.47v5.985h-7.76zm7.76 2v50.35l-6.76-6.705v-43.645h6.76zm-8.76 0v43.062h-4.95v-43.062h4.95zM348.14 410.5h-1.64v-8a1 1 0 0 0-1-1h-3v-21.725l2.193-3.693 11.096 17.09v37.187l-6.648-5.48V411.5a1 1 0 0 0-1-1zm8.734-177.125h-11.22v-9.27c0-.07-.027-.133-.04-.2-.013-.061-.012-.123-.037-.183l-.002-.004v-.003l-6.903-16.596-.006-.015-2.986-7.178h3.833l27.495 33.449h-10.134zm11.25 2v20.16h-10.25v-20.16h10.25zm-12.25 0v84.375h-10.22v-84.375h10.22zm-12.22-11.07v149.607l-2.724 4.588H328.5v-170h8.582l6.573 15.805zM345.5 412.5h1.64v11.852h-12.227V412.5H345.5zm-8-2v-7h7v7h-7zm8.155-36.61v-36.155h6.76v43.062h-2.276l-4.484-6.907zm0-46.14v-6h22.47v6h-22.47zm12.22-8v-55.082h10.25v55.082h-10.25zm25.291-121.729v-4.595l70.571 6.805v4.593l-70.57-6.803zm102.388 115.542l-51.573-68.192h6.65L493 314.502v53.04h-7.243v-53.375c0-.19-.088-.452-.203-.604zm-24.857 13.573v-11.969h23.06v11.97h-23.06zm23.06 2v9.081h-23.06v-9.08h23.06zm-85.04-90.907h41.38v5.142h-41.38v-5.142zm-4-2.02v-4.898h47.95v4.897h-47.95zm36.758 9.162l10.938 14.464H419.83l-10.947-14.464h22.593zm12.45 16.464l5.356 7.082h-22.578l-5.36-7.082h22.583zm6.869 9.082l8.446 11.168h-22.57l-8.454-11.169h22.578zm9.959 13.168l5.356 7.082h-22.566l-5.36-7.082h22.57zm6.868 9.082l8.257 10.918H453.32l-8.263-10.918h22.564zm-7.26-25.061V216.25h11.278v66.743l-11.278-14.887zm-1-53.856h-3.624v-20.532h20.526v20.532H459.36zm-4.527 91.835h22.557l5.356 7.082h-22.553l-5.36-7.082zm45.566 63.457v15.625h-24.566v-15.625H500.4zm7.1 17.625v23.186h-31.666v-23.186H507.5zm524.445-12v13.5H921.562v-13.5h110.383zm-61.167-2V239h39.167v134.167h-39.167zm-13.666 17.5v34.104h-19.84l-15.17-34.104h35.01zm11.666-17.5h-34.667v-11.362l26.802-22.033c.207-.169.365-.505.365-.772V239h7.5v134.167zm-43.017-95.209h33.517v27.204L829.516 243.06l95.245 9.181v24.717a1 1 0 0 0 1 1zm-60.997-15.812l94.514 45.234v7.615l-94.251-45.151c.619-2.906.515-5.598-.263-7.698zm-8.012-3.834a11 11 0 0 0-2.668 1.347c-1.678 1.143-3.234 2.76-4.557 4.687l-28.794-13.788 3.722-7.704 32.297 15.458zm-38.257-7.72l-.002.002v.003l-4.003 8.283-44.953-21.602 52.926 5.102-3.968 8.211zm1.368 1.767l28.598 13.694c-.252.449-.496.906-.722 1.379-1.053 2.202-1.705 4.412-1.975 6.478l-29.472-14.163 3.57-7.388zm29.68 15.936c1.43-2.987 3.441-5.467 5.667-6.983 1.384-.943 2.722-1.425 3.905-1.425.583 0 1.13.117 1.625.354 3.239 1.55 3.583 7.856.754 13.77-2.814 5.884-7.926 9.548-11.167 7.996-3.24-1.549-3.598-7.829-.783-13.712zm13.756 6.58c.49-1.026.885-2.051 1.205-3.065l94.774 45.402v15.783l-103.55-49.623c2.852-1.466 5.643-4.469 7.57-8.497zm95.98-24.542H934.61V242h24.667v8.333zm0 2v23.625H926.76v-23.625h32.517zm-26.668-2h-6.8L478.263 207.19v-4.593l454.348 43.812v3.925zm-12.7 140.334l15.797 35.51c.152.342.54.594.914.594h64.99v6.653h-67.264l-19.052-42.757h4.616zm134.2 36.104v6.653h-50.5v-6.653h50.5zm-50.5-2V414.75h50.5v10.02h-50.5zm52.187 10.653h17.157v34.017h-29.322l12.165-34.017zm6.48-62.257h-50.333V239h50.333v134.167zm2-45.102v-50.308l21.138-17.067 10.705 11.599-31.843 55.776zm19.779-68.848l-19.779 15.97v-6.084l16.578-13.353 3.2 3.467zm-.817-3.832h5.871v6.361l-5.87-6.361zm13.92 15.082l-4.815-5.217h7.794l-2.978 5.217zM607.513 154.11a.312.312 0 0 0 .004-.007l5.339-10.124 472.11 45.369c.648.067 15.896 1.89 15.896 23.903v50h-9.75v-50c0-.486-.42-.949-.904-.996l-488.515-47.106 5.82-11.039zm-178.77-22.897l69.18 6.65-.83 8.64-69.18-6.65.83-8.64zm-246.604-23.735H190v14.149a6.266 6.266 0 0 0-4.843 4.749h-3.02v-18.898zM190 170h-7.862v-41.625h2.894a6.264 6.264 0 0 0 4.968 5.499V170zm-3-42.25c0-2.343 1.907-4.25 4.25-4.25s4.25 1.907 4.25 4.25-1.907 4.25-4.25 4.25-4.25-1.907-4.25-4.25zm5 42.344V133.95c3.093-.373 5.5-3.009 5.5-6.201s-2.407-5.828-5.5-6.2v-9.774L426.272 136l-.448 4.656c-.051.537.361 1.04.9 1.091l71.172 6.841a1.012 1.012 0 0 0 1.091-.9l.397-4.128 105.667 10.927-5.824 11.046c-.323.61.1 1.394.789 1.462l489.095 47.162v39.227h-8.154a1.1 1.1 0 0 0-.627.221l-16.052 12.93V238a1 1 0 0 0-1-1h-103a1 1 0 0 0-1 1v2h-25.667a1 1 0 0 0-1 1v3.399l-454.348-43.813v-7.868a1 1 0 0 0-1-1h-22.526a1 1 0 0 0-1 1v5.503l-70.57-6.805v-9.583a1 1 0 0 0-1-1h-81.228L192 170.093zm-3.325 27.832v-15.093h192.491v15.093h-192.49zm28.751 2h116.09l2.734 6.574H212.646l4.78-6.574zM88.125 289.75v-40.625h11.934v40.625h-2.831c-.009 0-.016-.005-.024-.005h-6.138c-.008 0-.015.005-.024.005h-2.917zm8.079 2v4.625h-4.138v-4.625h4.138zm50.963 179.417h-9.645l-9.355-24.518v-25.982h19v50.5zm6.708-6.667h-4.708v-44.833a1 1 0 0 0-1-1h-15.101l5.323-11.5h15.486V464.5zm0-59.333H138.75V387h15.125v18.167zm0-20.167H138.75v-9.5h15.125v9.5zm0-11.5H138.75v-61.847a1 1 0 0 0-1-1H88.125v-12.278h11.934v4.875a1 1 0 0 0 1 1h52.816v69.25zm-10.849-71.25l68.166-93.75H326.5v5H219.52c-.285 0-.64.18-.808.411l-64.338 88.339h-11.348zm12.849 135.917V423.5h55.796c-1.725 5.09-3.123 10.092-4.24 14.667h-51.556zm51.077 2c-2.043 8.758-3.028 15.637-3.335 18h-33.722v-18h37.057zm-39.057 0v18h-4.95v-18h4.95zm-6.95 0v18h-5.07v-18h5.07zm-5.07-18.667v-5h58.37a132.628 132.628 0 0 0-1.88 5h-56.49zm0-7V303.586l9.875-13.559v44.696c0 .013.007.025.008.039 0 .013-.008.025-.008.039a1 1 0 0 0 1 1h38.08c.234 0 .46-.082.64-.233l45.378-37.881h61.319a.999.999 0 0 0 .783-.378l5.501-6.92c.132-.165.216-.408.216-.614V221.5h7.833v157h-70.875c-16.699 0-30.658 12.424-40.557 36h-59.193zm160.792-125.732H247.5a.997.997 0 0 0-.64.232l-19.36 16.154v-24.476l21.699-59.178h67.468v67.268zM248.5 219.5c-.394 0-.804.285-.939.656l-22 60a1.053 1.053 0 0 0-.061.344v26.791c0 .817 1.014 1.292 1.64.768l20.723-17.291h67.733l-3.911 4.919h-61.2a.997.997 0 0 0-.64.232L204.466 333.8H167.75v-46.52l5.01-6.878v47.431a1 1 0 0 0 1 1h28.143c.234 0 .46-.082.64-.232l17.593-14.687c.295-.246.364-.652.364-1.015v-32.222l21.939-59.834c.23-.625-.273-1.344-.939-1.344h-24.384l2.913-4H326.5v4h-78zm-73.74 107.334v-49.177l40.9-56.157h24.408l-21.507 58.655c-.034.123-.057.22-.061.345v32.176l-16.96 14.158h-26.78zM155.875 464.5v-4.333H204.5c.481 0 .94-.407.994-.89.088-.787 9.249-78.777 50.131-78.777H340.5v21h-4a1 1 0 0 0-1 1v2h-78.167c-12.478 0-24.775 10.26-36.552 30.497-7.638 13.126-12.552 26.404-13.657 29.503h-51.249zm57.965 0h-4.588c3.19-8.74 22.321-58 48.08-58H335.5v4h-1.587a1 1 0 0 0-1 1v6h-62.825c-12.397 0-25.695 8.021-39.525 23.842-9.028 10.326-15.328 20.775-16.723 23.158zm70.288 75.701c-31.755 0-57.59-25.835-57.59-57.59s25.835-57.59 57.59-57.59 57.59 25.835 57.59 57.59-25.835 57.59-57.59 57.59zm53.495-83.768c-9.706-19.766-30.028-33.412-53.495-33.412-23.468 0-43.794 13.646-53.504 33.412h-9.2c9.44-13.607 28.553-36.933 48.664-36.933h62.825v5.852c0 .259.145.58.34.752l13.02 11.424v18.905h-8.65zm-1.054-30.081h11.213L359.487 436h-11.923l-10.995-9.648zm30.436 77.118h-12.918l-5.814-20.054V438h13v45.558c0 .096.021.237.04.278l5.692 19.634zm69.464-10.73h-63.18v-6.73h63.18v6.73zm0-8.74h-63.18v-6.73h63.18V484zm0-8.73h-61.972l33.123-37.77h28.85v37.77zm7.447 2.177l-5.447 11.757V436.5a1 1 0 0 0-1-1h-30.303a1 1 0 0 0-.751.34l-34.877 39.771a1.073 1.073 0 0 0-.248.66v15.027l-8.017-8.15v-6.482l37.145-42.364a.978.978 0 0 0 .23-.603c.004-.03.019-.056.019-.087V401.25h43.25v76.197zm2-.78V400.25a1 1 0 0 0-1-1h-45.251a1 1 0 0 0-1 1l.001.007v33.01l-35.393 40.366V437c0-.27-.155-.599-.364-.771l-5.12-4.221v-39.133a1.17 1.17 0 0 0-.162-.545l-6.19-9.533h8.516l8.172 8.104v21.432a1 1 0 0 0 1 1h12.05a1 1 0 0 0 1-1V369H396v19.25a1 1 0 0 0 1 1h43c.203 0 .48-.098.64-.231l8.86-7.384v95.032h-3.584zm30.813 9.663v4.803h-28.124v-4.803h28.124zm-2.895-99.575v22.942L451.5 397.306v-22.94l22.334 12.39zM451.5 372.078v-12.724h22.334v25.115l-22.334-12.39zm22.334 39.906v21.985l-22.334-12.39v-21.986l22.334 12.391zm0 24.271v23.548L451.5 447.41v-23.546l22.334 12.39zm0 25.834v22.241H451.5v-34.632l22.334 12.391zm1-104.735h-26.229v-4.803h28.147v4.803h-1.918zM516 482.667h-26.972v-35.585H516v35.585zm0-37.585h-27.972a1 1 0 0 0-1 1v36.585h-3.695v-43.334H516v5.749zm0-7.749h-33.666a1 1 0 0 0-1 1v38.334h-5.5v-44.834H516v5.5zm0-7.5h-40.166v-17.48H508.5a1 1 0 0 0 1-1V407h6.5v22.833zm245.946 53.754l-4.366 8.334H522.372L518 483.424V407h6.5v76.667c0 .121.057.352.112.459l1.875 3.629c.163.317.53.54.888.54h225.196c.346 0 .715-.22.88-.523l1.874-3.462c.063-.117.121-.344.121-.477V407h6.5v76.587zm-163.31-51.754v37.542H545.5v-31.042a1 1 0 0 0-1-1h-18v-5.5h72.136zm-72.136-2V407h72.136v22.833H526.5zm19 47.167v-5.625h53.136V477H545.5zm53.136 2v7.296h-70.652l-.842-1.629H544.5a1 1 0 0 0 1-1V479h53.136zM543.5 439.333v5.749h-17v-5.749h17zm0 7.749v35.585h-17v-35.585h17zm57.136 39.214V407h78.728v79.296h-78.728zm152.81-14.921V477h-72.082v-5.625h72.082zm-72.082-2V407h72.082v62.375h-72.082zM753.446 479v4.58l-1.47 2.716h-70.612V479h72.082zM509.5 405v-14.333h403.607l19.051 42.757h-26.084l-12.392-27.811c-.12-.358-.583-.623-.947-.613H509.5zm388.044 77.611c0 31.755-25.835 57.59-57.59 57.59s-57.59-25.835-57.59-57.59 25.835-57.59 57.59-57.59 57.59 25.835 57.59 57.59zm-4.073-26.178c-9.71-19.769-30.046-33.412-53.517-33.412s-43.807 13.643-53.517 33.412h-22.49V407H892.11l12.392 27.812.002.003 9.632 21.618H893.47zm32.687 22.065l-19.193-43.074h12.848l19.165 43.074h-12.82zm15.01 0l-3.14-7.057h134.927v7.057H941.167zm159.016 7.832v4.803h-28.124v-4.803h1.88c.006 0 .01.003.015.003h24.333l.015-.003h1.88zm-2.896-99.575v22.942l-22.333-12.391v-22.94l22.333 12.39zm-22.333-14.677v-12.724h22.333v25.115l-22.333-12.39zm22.333 39.906v21.985l-22.333-12.39v-21.986l22.333 12.391zm0 24.271v23.548l-22.333-12.392v-23.546l22.333 12.39zm0 25.834v22.241h-22.333v-34.632l22.333 12.391zm1-104.735h-26.228v-4.803h28.124v4.803h-1.896zm16.573 108.271h-15.573v-74.958h15.573v74.958z"/></svg>