<svg id="Слой_1" xmlns="http://www.w3.org/2000/svg" viewBox="0 0 255 95"><style>.st0{fill:#2e3192}.st1{fill:#fff}.st2{fill:#ff931e}</style><path class="st0" d="M0 0h255v95H0z"/><g id="text"><path class="st1" d="M52.946 44.022c0 4.776-3.788 8.183-8.251 9.055-2.305.45-4.782.39-7.045-.248-2.35-.662-4.11-1.99-6.124-3.287l-.21-.13 2.55-4.28.23.17c3.036 2.425 7.018 4.088 10.859 2.602 1.67-.646 3.128-1.932 3.131-3.842.004-1.977-1.584-3.052-3.273-3.679-3.579-1.327-8.227-1.4-10.496-4.957-2.099-3.29-1.098-7.899 1.918-10.246 3.561-2.773 8.658-2.386 12.351-.068l.21.13-2.49 4.24-.22-.13c-1.998-1.21-5.348-2.134-7.14-.12-.77.865-1.121 2.238-.593 3.316.532 1.085 1.995 1.578 3.07 1.91 2.81.87 5.903 1.122 8.363 2.876 2.254 1.607 3.16 3.987 3.16 6.688zm29.3 9.33V41.607c0-2.683-.942-5.551-4.1-5.438-3.475.124-4.225 3.668-4.225 6.518v10.665h-4.905v-11.79c0-2.663-.857-5.505-4.011-5.393-3.48.123-4.314 3.633-4.314 6.518v10.665h-4.905v-21.32h4.905v3.275c.45-.96 1.192-1.777 2.227-2.453 2.188-1.424 5.866-1.462 8.033.068 1.02.72 1.755 1.606 2.205 2.655.51-1.05 1.334-1.935 2.475-2.655 2.243-1.418 5.582-1.485 7.93-.261 2.804 1.46 3.59 4.453 3.59 7.416v13.275h-4.905zm29.901-21.32v21.32h-4.905v-2.838c-.66 1.05-1.597 1.875-2.813 2.475-1.214.6-2.437.9-3.667.9-1.59 0-3.044-.292-4.365-.878A10.183 10.183 0 0 1 93 50.604a11.187 11.187 0 0 1-2.205-3.51c-.526-1.32-.788-2.73-.788-4.23 0-1.47.262-2.873.788-4.208A11.126 11.126 0 0 1 93 35.124a10.227 10.227 0 0 1 3.397-2.408c1.32-.584 2.775-.877 4.365-.877 1.23 0 2.453.3 3.667.9 1.216.6 2.153 1.425 2.813 2.475v-3.182h4.905zm-11.115 17.492c.93 0 1.777-.18 2.543-.54.765-.36 1.417-.84 1.957-1.44s.96-1.305 1.26-2.115.45-1.665.45-2.565c0-.9-.15-1.755-.45-2.565s-.72-1.515-1.26-2.115a6.1 6.1 0 0 0-1.957-1.44c-.766-.36-1.613-.54-2.543-.54s-1.77.18-2.52.54c-.75.36-1.395.84-1.935 1.44s-.953 1.305-1.237 2.115a7.642 7.642 0 0 0-.427 2.565c0 .9.14 1.754.427 2.565a6.19 6.19 0 0 0 1.237 2.115 6.16 6.16 0 0 0 1.935 1.44c.75.36 1.59.54 2.52.54zm14.361-17.492h4.905v2.64c.374-.48.906-.92 1.6-1.32.587-.32 1.36-.62 2.32-.9.96-.28 2.16-.42 3.6-.42v4.36c-.72 0-1.52.067-2.4.2s-1.7.354-2.46.66c-.76.307-1.393.714-1.9 1.22-.506.507-.76 1.134-.76 1.88v13h-4.905v-21.32zm27.428 4.36h-4.295v16.96h-4.905v-16.96h-3.36v-4.36h3.36v-6.8l4.905-1.56v8.36h4.295v4.36z"/><path class="st2" d="M164.205 47.952v5.4h-17.56v-29.14h6.76v23.74h10.8zm10.239 5.4h-6.8v-29.14h6.8v29.14zm12.441-23.78v7.22h9.959v5.36h-9.96v11.2h-6.8v-29.14h18.76v5.36h-11.96zm36.799 0h-8.2v23.78h-6.76v-23.78h-8.2v-5.36h23.16v5.36z"/></g><path class="st1" d="M103.706 64.703l3.357 7.547h-1.101l-1-2.213h-3.19l-.945 2.213h-1.1l3.222-7.547h.757zm-.392 1.65l-1.123 2.717h2.331l-1.208-2.718zm5.342-1.607h2.347c.409 0 .763.057 1.064.17.3.112.549.267.744.462.195.195.34.424.435.687.095.263.142.543.142.841 0 .293-.05.569-.15.824s-.255.478-.462.666a2.25 2.25 0 0 1-.787.446c-.317.11-.694.164-1.13.164h-1.123v3.244h-1.08v-7.504zm1.08.967v2.326h1.22c.2 0 .381-.026.544-.078a1.04 1.04 0 0 0 .682-.604 1.392 1.392 0 0 0 .032-.908.965.965 0 0 0-.209-.368 1.079 1.079 0 0 0-.392-.266 1.579 1.579 0 0 0-.61-.102h-1.267zm9.665-.967v.967h-3.18v2.267h3.073v.972h-3.072v2.331h3.281v.967h-4.356v-7.504h4.254zm8.426 0v7.504h-1.075v-3.266h-4.205v3.266h-1.074v-7.504h1.074v3.271h4.205v-3.271h1.075zm8.924 6.537v2.342h-1.1V72.25h-4.953v1.375h-1.101v-2.342h.66l2.476-6.58h.758l2.6 6.58h.66zm-3.652-5.006l-1.762 5.006H135l-1.901-5.006zm8.565-1.574l3.357 7.547h-1.101l-1-2.213h-3.19l-.945 2.213h-1.101l3.222-7.547h.758zm-.393 1.65l-1.122 2.717h2.331l-1.209-2.718zm12.436-1.65l3.356 7.547h-1.1l-1-2.213h-3.19l-.945 2.213h-1.101l3.222-7.547h.758zm-.393 1.65l-1.122 2.717h2.331l-1.209-2.718zm5.402 5.897v-7.504h2.176c.404 0 .752.056 1.042.167s.528.256.716.435c.188.18.328.384.416.615.09.231.135.465.135.701 0 .39-.092.715-.274.975s-.473.47-.87.63v.022c.279.055.53.139.755.253s.413.256.569.425c.155.168.274.359.357.574a1.955 1.955 0 0 1-.013 1.404c-.092.238-.24.454-.444.648s-.47.35-.798.472c-.327.122-.725.183-1.194.183h-2.573zm1.074-6.537v2.246h.715c.54 0 .94-.098 1.197-.293s.387-.497.387-.905c0-.14-.022-.274-.065-.4s-.115-.239-.217-.334a1.121 1.121 0 0 0-.403-.228 1.946 1.946 0 0 0-.62-.086h-.994zm0 3.218v2.352h1.354c.319 0 .58-.036.787-.107s.37-.164.49-.277a.92.92 0 0 0 .256-.382 1.27 1.27 0 0 0 .073-.421.99.99 0 0 0-.406-.838 1.542 1.542 0 0 0-.518-.242 2.777 2.777 0 0 0-.736-.085h-1.3zm11.572-4.185v.967h-2.593v6.537h-1.08v-6.537h-2.594v-.967h6.267zm1.508 3.754c0-.519.096-1.01.287-1.477a3.75 3.75 0 0 1 2.084-2.064 4.28 4.28 0 0 1 1.657-.309c.62 0 1.178.103 1.676.309s.921.484 1.27.835c.35.35.618.759.806 1.224.188.466.283.96.283 1.483 0 .505-.093.99-.278 1.453s-.45.872-.797 1.228a3.86 3.86 0 0 1-1.276.847c-.503.212-1.071.318-1.705.318-.408 0-.792-.048-1.15-.143a3.948 3.948 0 0 1-.98-.4 3.781 3.781 0 0 1-1.751-2.31 3.922 3.922 0 0 1-.126-.993zm1.111 0c0 .41.074.788.221 1.137.147.35.35.652.61.908s.567.455.923.598.744.215 1.163.215.808-.071 1.165-.215c.359-.143.667-.342.927-.598s.463-.559.61-.908c.147-.349.22-.728.22-1.136 0-.415-.073-.798-.22-1.147a2.722 2.722 0 0 0-1.537-1.501c-.357-.143-.746-.214-1.165-.214s-.806.07-1.163.214c-.356.143-.664.342-.923.596s-.463.556-.61.905c-.147.349-.22.732-.22 1.147zm9.103 3.75v-7.504h2.175c.405 0 .752.056 1.043.167.289.111.528.256.717.435.187.18.326.384.416.615.09.231.134.465.134.701 0 .39-.091.715-.274.975s-.473.47-.87.63v.022c.28.055.531.139.755.253s.413.256.569.425c.155.168.274.359.357.574a1.955 1.955 0 0 1-.013 1.404c-.092.238-.24.454-.444.648s-.47.35-.797.472c-.328.122-.726.183-1.195.183h-2.573zm1.074-6.537v2.246h.714c.541 0 .94-.098 1.198-.293s.387-.497.387-.905c0-.14-.021-.274-.064-.4s-.116-.239-.218-.334a1.121 1.121 0 0 0-.403-.228 1.948 1.948 0 0 0-.62-.086h-.994zm0 3.218v2.352h1.354c.318 0 .58-.036.787-.107s.369-.164.491-.277a.92.92 0 0 0 .255-.382 1.27 1.27 0 0 0 .073-.421.999.999 0 0 0-.406-.838 1.542 1.542 0 0 0-.518-.242 2.777 2.777 0 0 0-.736-.085h-1.3zm8.232-1.027c.433 0 .81.06 1.132.178s.591.276.804.476c.213.198.372.43.478.695s.158.546.158.843c0 .297-.055.577-.166.838-.111.261-.274.49-.488.685s-.482.349-.798.462a3.25 3.25 0 0 1-1.088.169h-2.32v-7.504h1.074v3.158h1.214zm-1.214.967v2.412h1.386c.247 0 .453-.034.617-.101.165-.069.297-.158.395-.267s.17-.232.212-.368a1.428 1.428 0 0 0-.024-.92 1.103 1.103 0 0 0-.255-.4c-.112-.112-.246-.199-.405-.261s-.34-.095-.54-.095h-1.386zm6.192-4.125v7.504h-1.074v-7.504h1.074zm6.186 6.537l.032.032v-6.569h1.079v6.537h2.606v-6.537h1.08v7.504h-8.482v-7.504h1.074v6.537h2.61zm11.524-6.537v.967h-3.18v2.267h3.073v.972h-3.073v2.331h3.283v.967h-4.357v-7.504h4.254zm2.072 0h1.074v3.05c.204 0 .385-.016.545-.05s.304-.1.435-.195c.131-.098.251-.233.362-.407s.222-.4.333-.68a4.9 4.9 0 0 1 .412-.828c.141-.221.296-.397.466-.53s.36-.225.567-.279c.208-.054.444-.081.709-.081h.167v.967c-.243 0-.443.022-.597.067a.936.936 0 0 0-.387.215 1.257 1.257 0 0 0-.265.382c-.074.155-.15.343-.229.56a2.652 2.652 0 0 1-.181.404c-.077.135-.16.262-.25.382a2.596 2.596 0 0 1-.29.316 1.169 1.169 0 0 1-.31.209c.186.086.347.174.481.264.134.09.26.198.376.325s.233.28.349.459.25.401.4.666l1.322 2.288h-1.225l-1.166-2.025a8.149 8.149 0 0 0-.494-.779c-.147-.2-.294-.358-.442-.472s-.31-.194-.482-.237-.374-.064-.606-.064v3.577h-1.075v-7.504z"/></svg>