<svg xmlns="http://www.w3.org/2000/svg"><symbol viewBox="0 0 586.8974 255.86441" id="404" xmlns="http://www.w3.org/2000/svg"><path d="M160.693 246.928h-48.305l-.34-50.882h-96.68v-33.472l.063-.143L81.523 11.51 123.63 27.3 67.121 157.91h45.664l5.087-55.97h42.82v55.97h26.798v38.135h-26.798v50.882zm-46.815-1.5h45.315v-50.882h26.798v-35.135h-26.798v-55.97h-39.95l-5.087 55.97H64.839l56.79-131.26-39.302-14.737-65.459 149.475v31.657h96.67l.34 50.882zm178.693 6.928c-27.495 0-48.701-10.494-63.03-31.192-14.269-20.605-21.503-50.536-21.503-88.961 0-38.419 7.234-68.293 21.503-88.793 14.331-20.583 35.537-31.02 63.03-31.02 27.72 0 49.041 10.437 63.37 31.02 14.27 20.502 21.506 50.376 21.506 88.793 0 38.422-7.293 68.354-21.676 88.963-14.444 20.696-35.708 31.19-63.2 31.19zm0-238.466c-26.972 0-47.765 10.22-61.798 30.378-14.091 20.243-21.235 49.828-21.235 87.935 0 38.114 7.145 67.757 21.236 88.107 14.032 20.269 34.824 30.546 61.797 30.546s47.823-10.278 61.97-30.548c14.204-20.353 21.406-49.996 21.406-88.105 0-38.105-7.145-67.69-21.237-87.935-14.031-20.158-34.938-30.378-62.14-30.378zm0 202.17c-8.325 0-15.129-2.763-20.22-8.21-5.05-5.388-8.823-14.3-11.213-26.486-2.373-12.088-3.577-28.628-3.577-49.161 0-20.528 1.204-37.068 3.577-49.16 2.39-12.183 6.163-21.094 11.212-26.488 5.098-5.447 11.9-8.209 20.221-8.209 8.31 0 15.112 2.644 20.212 7.858 5.05 5.169 8.882 13.968 11.392 26.153 2.486 12.105 3.747 28.875 3.747 49.846 0 20.75-1.261 37.407-3.747 49.506-2.508 12.184-6.34 21.038-11.386 26.317-5.098 5.33-11.9 8.033-20.218 8.033zm0-166.214c-7.888 0-14.323 2.602-19.125 7.735-4.855 5.185-8.5 13.849-10.836 25.75-2.355 11.998-3.55 28.441-3.55 48.872 0 20.436 1.195 36.879 3.55 48.872 2.335 11.906 5.98 20.57 10.835 25.75 4.798 5.133 11.233 7.734 19.126 7.734 7.893 0 14.33-2.546 19.134-7.57 4.849-5.072 8.55-13.68 11.001-25.582 2.466-12 3.716-28.555 3.716-49.204 0-20.87-1.25-37.538-3.716-49.543-2.451-11.9-6.15-20.448-10.995-25.408-4.808-4.914-11.247-7.406-19.14-7.406zm253.461 197.082h-48.306l-.34-50.882h-96.68v-33.472l.064-.143 66.091-150.92L508.97 27.3l-.313.723-56.195 129.887h45.663l5.088-55.97h42.82v55.97h26.796v38.135h-26.797v50.882zm-46.815-1.5h45.315v-50.882h26.797v-35.135h-26.797v-55.97h-39.95l-5.088 55.97h-49.315l56.789-131.26-39.302-14.737-65.46 149.475v31.657h96.67l.34 50.882z"/></symbol><symbol viewBox="0 0 487 487" id="arrow-b" xmlns="http://www.w3.org/2000/svg"><path d="M392.15 324.9c-5.3-5.3-13.8-5.3-19.1 0l-116 116V13.5c0-7.5-6-13.5-13.5-13.5s-13.5 6-13.5 13.5v427.4l-116-116c-5.3-5.3-13.8-5.3-19.1 0-5.3 5.3-5.3 13.8 0 19.1l139 139c2.5 2.5 6 4 9.5 4s7-1.4 9.5-4l139-139c5.4-5.2 5.4-13.8.2-19.1z"/></symbol><symbol viewBox="0 0 477.175 477.175" id="arrow-light" xmlns="http://www.w3.org/2000/svg"><path d="M360.731 229.075l-225.1-225.1c-5.3-5.3-13.8-5.3-19.1 0s-5.3 13.8 0 19.1l215.5 215.5-215.5 215.5c-5.3 5.3-5.3 13.8 0 19.1 2.6 2.6 6.1 4 9.5 4 3.4 0 6.9-1.3 9.5-4l225.1-225.1c5.3-5.2 5.3-13.8.1-19z"/></symbol><symbol viewBox="0 0 249.425 249.425" id="check-square" xmlns="http://www.w3.org/2000/svg"><path d="M206.79 81.505a6 6 0 0 0-6 6v149.919H12V48.635h146.792a6 6 0 0 0 0-12H6a6 6 0 0 0-6 6v200.789a6 6 0 0 0 6 6h200.79a6 6 0 0 0 6-6V87.505a6 6 0 0 0-6-6z"/><path d="M247.667 1.758a5.998 5.998 0 0 0-8.485 0L80.416 160.523 41.023 121.13a5.998 5.998 0 0 0-8.485 0 5.999 5.999 0 0 0 0 8.484l43.636 43.636c1.171 1.172 2.707 1.758 4.243 1.758s3.071-.586 4.243-1.758L247.667 10.243a5.998 5.998 0 0 0 0-8.485z"/></symbol><symbol viewBox="0 0 511.999 511.999" id="check-thin" xmlns="http://www.w3.org/2000/svg"><path d="M506.231 75.508c-7.689-7.69-20.158-7.69-27.849 0l-319.21 319.211L33.617 269.163c-7.689-7.691-20.158-7.691-27.849 0-7.69 7.69-7.69 20.158 0 27.849l139.481 139.481c7.687 7.687 20.16 7.689 27.849 0l333.133-333.136c7.69-7.691 7.69-20.159 0-27.849z"/></symbol><symbol id="clock-stroke" viewBox="0 0 24 24" xmlns="http://www.w3.org/2000/svg"><style>.fst0{fill:#ff931e}.fst1{fill:#2e3192}</style><path class="fst0" d="M13 7h-1v6H8v1h5zm-8.8-.3l-.5-.6c-.3-.4-.2-1 .2-1.4l1.6-1.2c.4-.3 1.1-.3 1.4.2l.4.5c.3-.2.6-.3.9-.5L7.7 3c-.7-.8-2-1-2.8-.3L3.3 3.9c-.9.7-1 1.9-.3 2.8l.7.8c.1-.2.3-.5.5-.8zm16.5-2.8l-1.6-1.2c-.8-.7-2.1-.5-2.8.3l-.5.7c.3.1.6.3.9.4l.4-.5c.3-.4 1-.5 1.4-.2l1.6 1.2c.4.3.5 1 .2 1.4l-.5.6c.2.4.4.7.6 1l.7-.8c.6-.9.5-2.2-.4-2.9z"/><path class="fst1" d="M21 13c0-5-4-9-9-9s-9 4-9 9c0 3 1.5 5.7 3.8 7.3l-2 2 .7.7 2.1-2.1c1.3.7 2.8 1.1 4.4 1.1s3-.4 4.3-1.1l2.1 2.1.7-.7-1.9-1.9c2.3-1.6 3.8-4.3 3.8-7.4zm-9 8c-4.4 0-8-3.6-8-8s3.6-8 8-8 8 3.6 8 8-3.6 8-8 8z"/></symbol><symbol viewBox="0 0 512 512" id="close" xmlns="http://www.w3.org/2000/svg"><path d="M256 0C114.844 0 0 114.844 0 256s114.844 256 256 256 256-114.844 256-256S397.156 0 256 0zm0 490.667C126.604 490.667 21.333 385.396 21.333 256S126.604 21.333 256 21.333 490.667 126.604 490.667 256 385.396 490.667 256 490.667z"/><path d="M359.542 152.458c-4.167-4.167-10.917-4.167-15.083 0L256 240.917l-88.458-88.458c-4.167-4.167-10.917-4.167-15.083 0-4.167 4.167-4.167 10.917 0 15.083L240.917 256l-88.458 88.458c-4.167 4.167-4.167 10.917 0 15.083 2.083 2.083 4.813 3.125 7.542 3.125s5.458-1.042 7.542-3.125L256 271.083l88.458 88.458a10.634 10.634 0 0 0 7.542 3.125c2.729 0 5.458-1.042 7.542-3.125 4.167-4.167 4.167-10.917 0-15.083L271.083 256l88.458-88.458c4.167-4.167 4.167-10.917.001-15.084z"/></symbol><symbol id="controls" viewBox="0 0 56.8 56" xmlns="http://www.w3.org/2000/svg"><style>.hst0{fill:#2e3192}.hst1{fill:#ff931e}</style><path class="hst0" d="M8.4 42V2c0-.6-.4-1-1-1s-1 .4-1 1v40h2zm21-20.5V2c0-.6-.4-1-1-1s-1 .4-1 1v19.5h2zm-2 12.8V54c0 .6.4 1 1 1s1-.4 1-1V34.3h-2zm21-20V54c0 .6.4 1 1 1s1-.4 1-1V14.3h-2z"/><path class="hst1" d="M8.4 41.1h-2c-3.4.5-6 3.4-6 6.9 0 3.9 3.1 7 7 7s7-3.1 7-7c0-3.5-2.6-6.4-6-6.9zM7.4 53c-2.8 0-5-2.2-5-5s2.2-5 5-5 5 2.2 5 5-2.3 5-5 5zm49-45c0-3.9-3.1-7-7-7s-7 3.1-7 7c0 3.5 2.6 6.4 6 6.9h2c3.4-.5 6-3.4 6-6.9zm-2 0c0 2.8-2.2 5-5 5s-5-2.2-5-5 2.2-5 5-5 5 2.2 5 5zM29.6 20.7c-.8-.1-1.7-.1-2.5 0-1.6.3-3 1.1-4.1 2.4-2.2 2.5-2.3 6.4-.3 9 3.8 5 12 2.9 12.9-3.3.4-3.8-2.2-7.5-6-8.1zM28.4 33c-2.8 0-5.2-2.4-5.2-5.2 0-2.8 2.4-5.2 5.2-5.2 2.8 0 5.2 2.4 5.2 5.2 0 2.8-2.4 5.2-5.2 5.2z"/></symbol><symbol id="hourglass" viewBox="0 0 60 60" xmlns="http://www.w3.org/2000/svg"><style>.ist0{fill:#ff931e}.ist1{fill:#2e3192}</style><circle class="ist0" cx="35" cy="52" r="1"/><circle class="ist0" cx="39" cy="52" r="1"/><circle class="ist0" cx="43" cy="52" r="1"/><circle class="ist0" cx="33" cy="33" r="1"/><circle class="ist0" cx="35" cy="22" r="1"/><circle class="ist0" cx="39" cy="22" r="1"/><circle class="ist0" cx="37" cy="20" r="1"/><circle class="ist0" cx="39" cy="18" r="1"/><circle class="ist0" cx="35" cy="26" r="1"/><circle class="ist0" cx="33" cy="24" r="1"/><circle class="ist0" cx="37" cy="24" r="1"/><circle class="ist0" cx="33" cy="36" r="1"/><circle class="ist0" cx="33" cy="39" r="1"/><circle class="ist0" cx="33" cy="42" r="1"/><circle class="ist0" cx="33" cy="45" r="1"/><circle class="ist0" cx="33" cy="48" r="1"/><circle class="ist0" cx="37" cy="50" r="1"/><circle class="ist0" cx="41" cy="50" r="1"/><path class="ist0" d="M24 11h-5a1 1 0 1 0 0 2h5a1 1 0 1 0 0-2zm0 7H14a1 1 0 1 0 0 2h10a1 1 0 1 0 0-2zm0 7H9a1 1 0 1 0 0 2h15a1 1 0 1 0 0-2zm0 7H5a1 1 0 1 0 0 2h19a1 1 0 1 0 0-2zm0 7H11a1 1 0 1 0 0 2h13a1 1 0 1 0 0-2zm0 7h-7a1 1 0 1 0 0 2h7a1 1 0 1 0 0-2z"/><path class="ist1" d="M53 54h-5v-6c0-7.591-4.147-14.44-10.714-18A20.428 20.428 0 0 0 48 12V6h5c1.654 0 3-1.346 3-3s-1.346-3-3-3H30a1 1 0 1 0 0 2h23a1.001 1.001 0 0 1 0 2H30a1 1 0 1 0 0 2h16v6c0 7.491-4.588 13.919-11.381 17.075-1.223.568-.674 1.58-.003 1.849A18.45 18.45 0 0 1 46 48v6H30a1 1 0 1 0 0 2h23a1.001 1.001 0 0 1 0 2H30a1 1 0 1 0 0 2h23c1.654 0 3-1.346 3-3s-1.346-3-3-3z"/></symbol><symbol id="invoice" viewBox="0 0 512 512" xmlns="http://www.w3.org/2000/svg"><style>.jst0{fill:#2e3192}.jst1{fill:#ff931e}</style><path class="jst0" d="M209.86 252.634c-.244.788-.5 1.569-.724 2.365h-65.069c-5.12 0-8.533 3.413-8.533 8.533s3.413 8.533 8.533 8.533h61.956a97.965 97.965 0 0 0-.325 5.935h3.139c7.163-7.163 6.305-17.531 1.023-25.366zm-.993 50.977c.216.866.438 1.73.678 2.587h-65.477c-5.12 0-8.533 3.413-8.533 8.533s3.413 8.533 8.533 8.533h72.13c.293.578.604 1.147.91 1.718 1.09-8.032-1.51-16.538-8.241-21.37zM241.245 219c6.106-1.744 12.968-11.096 7.987-17.439a55.527 55.527 0 0 0-3.473 2.239H144.067c-5.12 0-8.533 3.413-8.533 8.533s3.413 8.533 8.533 8.533h83.294a93.672 93.672 0 0 0-2.434 3.1c5.745.65 11.372-2.493 16.318-4.966z" transform="translate(1 1)"/><path class="jst1" d="M344.6 238.787c-4.267-2.56-9.387-1.707-11.947 2.56l-45.227 68.267-26.453-26.453c-3.413-3.413-8.533-3.413-11.947 0-3.413 3.413-3.413 8.533 0 11.947l34.133 34.133c1.707 1.707 3.413 2.56 5.973 2.56 3.413 0 5.973-1.707 6.827-4.267l51.2-76.8c2.561-4.267 1.708-9.387-2.559-11.947z" transform="translate(1 1)"/><path class="jst0" d="M459.8-1H127c-23.893 0-42.667 18.773-42.667 42.667v349.867H24.6c-14.507 0-25.6 11.093-25.6 25.6V459.8c0 28.16 23.04 51.2 51.2 51.2h324.267c12.8 0 24.747-5.12 34.133-13.653 11.093-9.387 17.067-23.04 17.067-37.547V118.467H485.4c14.507 0 25.6-11.093 25.6-25.6V50.2C511 22.04 487.96-1 459.8-1zM50.2 493.933c-18.773 0-34.133-15.36-34.133-34.133v-42.667c0-4.267 3.413-8.533 8.533-8.533h298.667v51.2c0 12.8 4.267 24.747 12.8 34.133H50.2zM408.6 50.2v409.6c0 10.24-4.267 18.773-11.093 25.6-6.422 4.995-14.038 8.189-21.849 8.606a10.717 10.717 0 0 0-1.191-.072 33.834 33.834 0 0 1-16.035-4.032c-10.703-6.039-18.098-17.995-18.098-31.808v-58.027c0-5.12-3.413-8.533-8.533-8.533H101.4V41.667c0-14.507 11.093-25.6 25.6-25.6h294.4a60.402 60.402 0 0 0-4.542 6.364c-4.797 7.377-7.756 16.044-8.196 25.346a47.59 47.59 0 0 0-.062 2.423zm85.333 42.667c0 4.267-3.413 8.533-8.533 8.533h-59.733V50.2c0-18.773 15.36-34.133 34.133-34.133s34.133 15.36 34.133 34.133v42.667z" transform="translate(1 1)"/><path class="jst0" d="M203.8 67.267h102.4c5.12 0 8.533-3.413 8.533-8.533S311.32 50.2 306.2 50.2H203.8c-5.12 0-8.533 3.413-8.533 8.533s3.413 8.534 8.533 8.534zm-59.733 51.2h221.867c5.12 0 8.533-3.413 8.533-8.533s-3.413-8.533-8.533-8.533H144.067c-5.12 0-8.533 3.413-8.533 8.533s3.413 8.533 8.533 8.533zm0 51.2h221.867c5.12 0 8.533-3.413 8.533-8.533s-3.413-8.533-8.533-8.533H144.067c-5.12 0-8.533 3.413-8.533 8.533s3.413 8.533 8.533 8.533z" transform="translate(1 1)"/><path class="jst1" d="M298.735 375.69c-51.849 0-94.03-42.182-94.03-94.03 0-51.85 42.181-94.032 94.03-94.032 51.849 0 94.032 42.182 94.032 94.031 0 51.849-42.183 94.031-94.032 94.031zm0-170.062c-41.923 0-76.03 34.107-76.03 76.031s34.107 76.031 76.03 76.031 76.032-34.107 76.032-76.03-34.108-76.032-76.032-76.032z"/></symbol><symbol id="like" viewBox="0 0 512 512" xmlns="http://www.w3.org/2000/svg"><style>.kst0{fill:#ff931e}.kst1{fill:#2e3192}</style><path class="kst0" d="M512 255.1c0-22.2-18.1-40.3-40.3-40.3h-133c-7.4 0-14.5-3.2-19.3-8.9-4.8-5.7-6.9-13.1-5.8-20.4 5.9-37.5 13.5-88.7 15.9-119.8 1.1-14.6-1.5-25.6-8-32.6-5-5.4-12.2-8.3-20.7-8.3-15.8 0-30.3 9.6-36.9 24.5l-8.2 18.6c-22 49.7-52.6 94.3-91 132.7L139.3 226s-8.325 8.997-9.8 7.5c-4.25 12.223-7.58 9.931 3.25 17.5l6.45-1.5 37.2-37.2c39.9-39.8 71.7-86.2 94.5-137.7l8.2-18.6c3.9-8.8 12.4-14.5 21.6-14.5 5.8 0 7.8 2.2 8.5 2.9 2.2 2.4 4.6 7.7 3.6 19.9-2.4 30.5-9.9 81.3-15.7 118.5-1.9 12.2 1.6 24.5 9.6 33.9 8 9.4 19.7 14.7 32 14.7h26.6c-4.8 6.6-7.7 14.8-7.7 23.6 0 10.6 4.1 20.3 10.9 27.5-13.6 6.5-23.1 20.4-23.1 36.4 0 10.6 4.1 20.3 10.9 27.5-13.6 6.5-23.1 20.4-23.1 36.4 0 10.6 4.1 20.3 10.9 27.5-13.6 6.5-23.1 20.4-23.1 36.4.1 9 2.9 17.1 7.7 23.8h-54.5c-46.4 0-91.8-8.5-135-25.4l-5.117 5.294c-6.32 6.073-3.297 3.13-.54 10.479.477 1.911 5.557 2.127 5.557 2.127 43.3 16.1 88.6 24.2 135 24.2h161c22.2 0 40.3-18.1 40.3-40.3 0-10.6-4.1-20.3-10.9-27.5 13.6-6.5 23.1-20.4 23.1-36.4 0-10.6-4.1-20.3-10.9-27.5 13.6-6.5 23.1-20.4 23.1-36.4 0-10.6-4.1-20.3-10.9-27.5 13.7-6.6 23.1-20.5 23.1-36.5zm-76.9 215.4h-73.8c-13 0-23.6-10.6-23.6-23.6s10.6-23.6 23.6-23.6h73.8c13 0 23.6 10.6 23.6 23.6.1 13-10.5 23.6-23.6 23.6zm12.2-64h-73.8c-13 0-23.6-10.6-23.6-23.6s10.6-23.6 23.6-23.6h73.8c13 0 23.6 10.6 23.6 23.6s-10.6 23.6-23.6 23.6zm12.2-63.9h-73.8c-13 0-23.6-10.6-23.6-23.6s10.6-23.6 23.6-23.6h73.8c13 0 23.6 10.6 23.6 23.6s-10.6 23.6-23.6 23.6zm12.2-63.9h-73.8c-13 0-23.6-10.6-23.6-23.6s10.6-23.6 23.6-23.6h73.8c13 0 23.6 10.6 23.6 23.6 0 13-10.6 23.6-23.6 23.6z"/><path class="kst1" d="M63.3 395.8h7.8c4.6 0 8.3-3.7 8.3-8.3s-3.7-8.3-8.3-8.3h-7.8c-4.6 0-8.3 3.7-8.3 8.3s3.7 8.3 8.3 8.3zm-.1 38.5H71c4.6 0 8.3-3.7 8.3-8.3s-3.7-8.3-8.3-8.3h-7.8c-4.6 0-8.3 3.7-8.3 8.3s3.7 8.3 8.3 8.3z"/><path class="kst1" d="M139.3 224.8c0-4.6-3.7-8.3-8.3-8.3H95.4c-4.6 0-8.3 3.7-8.3 8.3 0 4.6 3.7 8.3 8.3 8.3h27.1v237.4H16.7V233.1h21.9c4.6 0 8.3-3.7 8.3-8.3 0-4.6-3.7-8.3-8.3-8.3H8.3c-4.6 0-8.3 3.7-8.3 8.3v254.1c0 4.6 3.7 8.3 8.3 8.3h122.5c4.6 0 8.3-3.7 8.3-8.3l.2-254.1z"/></symbol><symbol id="locations" viewBox="0 0 508 508" xmlns="http://www.w3.org/2000/svg"><style>.lst0{fill:#2e3192}.lst1{fill:#ff931e}</style><path class="lst0" d="M366.05 100.025a189.708 189.708 0 0 1 15.969 13.296 9.964 9.964 0 0 0 6.809 2.679 9.975 9.975 0 0 0 7.324-3.188c3.762-4.043 3.534-10.371-.51-14.133a209.724 209.724 0 0 0-17.661-14.705c-4.433-3.295-10.697-2.374-13.991 2.06-3.295 4.432-2.373 10.696 2.06 13.991z"/><path class="lst1" d="M91.349 218.226c-29.071 0-52.721 23.651-52.721 52.721 0 29.071 23.65 52.722 52.721 52.722s52.721-23.651 52.721-52.722-23.65-52.721-52.721-52.721zm0 85.442c-18.042 0-32.721-14.679-32.721-32.722 0-18.042 14.679-32.721 32.721-32.721s32.721 14.679 32.721 32.721c0 18.044-14.678 32.722-32.721 32.722zM307.018 88.999c0-29.071-23.651-52.721-52.721-52.721-29.071 0-52.722 23.65-52.722 52.721s23.652 52.721 52.722 52.721 52.721-23.65 52.721-52.721zm-85.443 0c0-18.042 14.679-32.721 32.722-32.721 18.042 0 32.721 14.679 32.721 32.721s-14.679 32.721-32.721 32.721c-18.043 0-32.722-14.679-32.722-32.721z"/><path class="lst0" d="M460.038 279.589A210.476 210.476 0 0 0 462 251c0-45.997-14.711-89.589-42.543-126.065-3.351-4.391-9.626-5.234-14.016-1.884-4.391 3.351-5.234 9.625-1.884 14.016C428.707 170.027 442 209.425 442 251c0 6.782-.369 13.575-1.09 20.303a85.706 85.706 0 0 0-24.259-3.507c-47.42 0-85.999 38.579-85.999 85.999 0 13.751 6.741 33.337 20.076 58.439C321.573 429.765 288.304 439 254 439c-49.67 0-95.989-18.927-131.28-53.443a789.28 789.28 0 0 0 15.081-22.924c26.241-41.51 39.547-72.357 39.547-91.686 0-47.42-38.579-85.999-85.999-85.999-4.709 0-9.325.396-13.831 1.127 16.3-44.196 49.006-81.026 90.971-102.528a86.351 86.351 0 0 0-.191 5.452c0 19.329 13.306 50.176 39.547 91.686 19.021 30.088 37.726 54.572 38.513 55.6a9.998 9.998 0 0 0 15.878-.001c.787-1.027 19.492-25.511 38.513-55.599 26.242-41.51 39.547-72.357 39.547-91.686C340.296 41.579 301.717 3 254.297 3c-36.913 0-68.461 23.381-80.633 56.107C115.775 83.38 71.422 133.189 54.092 193.445 25.277 207.352 5.35 236.866 5.35 270.947c0 19.329 13.306 50.176 39.547 91.686 19.021 30.088 37.726 54.572 38.513 55.6a9.998 9.998 0 0 0 15.878 0c.383-.5 5.004-6.55 11.831-16.081 17.369 16.45 37.224 29.657 59.179 39.319C196.731 453.102 224.893 459 254 459c37.754 0 74.383-10.117 106.53-29.326a606.658 606.658 0 0 0 9.669 15.807c19.021 30.088 37.726 54.572 38.513 55.6a9.998 9.998 0 0 0 15.878 0c.787-1.028 19.492-25.511 38.513-55.6 26.241-41.51 39.547-72.357 39.547-91.686 0-31.602-17.146-59.259-42.612-74.206zM254.297 23c36.392 0 65.999 29.607 65.999 65.999 0 28.12-42.186 91.813-65.999 124.476-23.813-32.663-65.999-96.356-65.999-124.476 0-36.392 29.607-65.999 65.999-65.999zM91.349 395.422C67.536 362.759 25.35 299.066 25.35 270.947c0-36.392 29.607-65.999 65.999-65.999s65.999 29.607 65.999 65.999c0 28.119-42.186 91.812-65.999 124.475zm325.302 82.849c-23.813-32.663-65.999-96.356-65.999-124.476 0-36.392 29.607-65.999 65.999-65.999s65.999 29.607 65.999 65.999c0 28.12-42.186 91.812-65.999 124.476z"/><path class="lst1" d="M416.651 301.074c-29.071 0-52.721 23.65-52.721 52.721s23.65 52.721 52.721 52.721c29.071 0 52.721-23.65 52.721-52.721s-23.65-52.721-52.721-52.721zm0 85.442c-18.042 0-32.721-14.679-32.721-32.721 0-18.042 14.679-32.721 32.721-32.721 18.042 0 32.721 14.679 32.721 32.721s-14.679 32.721-32.721 32.721z"/></symbol><symbol viewBox="0 0 485.411 485.411" id="mail-envelope" xmlns="http://www.w3.org/2000/svg"><path d="M0 81.824v321.763h485.411V81.824H0zm242.708 198.702L43.612 105.691h398.187L242.708 280.526zm-79.311-37.877L23.867 365.178V120.119l139.53 122.53zm18.085 15.884l61.22 53.762 61.22-53.762L441.924 379.72H43.487l137.995-121.187zm140.526-15.878l139.535-122.536v245.059L322.008 242.655z"/></symbol><symbol id="map-pin" viewBox="0 0 337.741 337.741" xmlns="http://www.w3.org/2000/svg"><style>.nst0{fill:#2e3192}.nst1{fill:#fff}.nst2{fill:#ff931e}</style><path class="nst0" d="M302.933 3.5H31.309a7.501 7.501 0 0 0-7.501 7.522l.375 271.24a7.5 7.5 0 0 0 7.5 7.488h105.269l25.222 40.926a7.5 7.5 0 0 0 6.385 3.565l.129-.001a7.504 7.504 0 0 0 6.388-3.786l23.192-40.704h104.665a7.5 7.5 0 0 0 7.5-7.5V11a7.5 7.5 0 0 0-7.5-7.5z"/><path class="nst1" d="M168.85 169.028c0 5.834-1.205 11.437-3.566 16.67-2.408 5.278-5.881 9.909-10.326 13.845-4.446 3.89-9.91 7.038-16.346 9.261-6.39 2.269-13.752 3.427-21.856 3.427-6.483 0-12.27-.649-17.133-1.991-4.862-1.25-9.215-2.871-13.012-4.724-3.75-1.898-7.084-3.843-9.816-5.88-2.64-1.992-5.048-3.705-7.132-5.048l-.972-.602L80.5 174.168l1.065.787c7.131 5.695 13.845 9.631 20.004 11.669 6.159 2.083 11.252 3.102 15.188 3.102 3.612 0 7.224-.463 10.743-1.343a35.357 35.357 0 0 0 9.585-3.936c2.825-1.713 5.094-3.843 6.76-6.436 1.667-2.5 2.501-5.464 2.501-8.798 0-3.658-.926-6.668-2.686-8.89-1.898-2.362-4.352-4.353-7.409-5.928-3.148-1.62-6.76-2.963-10.789-3.982-4.167-1.019-8.335-2.176-12.641-3.334-4.26-1.157-8.52-2.593-12.688-4.213-4.213-1.621-8.057-3.844-11.344-6.576-3.334-2.732-6.02-6.205-8.057-10.372-2.038-4.168-3.103-9.354-3.103-15.42 0-7.224 1.574-13.382 4.63-18.29 3.01-4.863 6.715-8.798 10.882-11.67 4.168-2.824 8.474-4.861 12.827-6.065 4.353-1.204 8.01-1.806 10.79-1.806 5 0 9.538.463 13.427 1.389 3.844.926 7.224 1.991 10.003 3.102 3.24 1.39 6.112 2.825 8.473 4.307l.973.602-11.53 19.633-1.02-.602a37.116 37.116 0 0 0-5.926-2.87 62.35 62.35 0 0 0-6.437-2.085c-2.454-.648-5.14-.972-7.964-.972-3.01 0-5.603.51-7.64 1.528-2.084 1.065-3.797 2.315-5.094 3.844-1.343 1.481-2.315 3.102-2.917 4.862-.648 1.805-.973 3.426-.973 4.908 0 4.306 1.482 7.455 4.585 9.492 3.241 2.223 7.409 4.029 12.41 5.418 5.047 1.39 10.603 2.778 16.484 4.168 5.974 1.343 11.623 3.472 16.809 6.297 5.279 2.871 9.678 6.9 13.15 12.04 3.52 5.186 5.28 12.363 5.28 21.3z"/><path class="nst2" d="M265.55 187.224v25.007h-81.315V77.297h31.301v109.927h50.014z"/></symbol><symbol id="medal" viewBox="0 0 508 508" xmlns="http://www.w3.org/2000/svg"><style>.ost0{fill:#2e3192}.ost1{fill:#ff931e}</style><path class="ost0" d="M396.55 306.2l35.4-27.9-.2-45.1 19.7-40.6-19.6-40.6.2-45.1-35.4-28-19.4-40.7-44-9.9L298.05 0l-44 10.3L210.15 0l-35.2 28.3-44 9.9-19.4 40.7-35.5 28 .2 45.1-19.7 40.6 19.7 40.6-.2 45.1 35.4 28 14.2 29.9-57.5 123.3 68.1-10.4 35.8 58.9 59.6-127.9 22.3-5.2 17.6 4.1 60.2 129 35.8-58.9 68.1 10.4-55.5-119 16.4-34.3zm-226.4 167.1l-25.6-42.1-48.6 7.4 42-90.2 37 8.3 35.2 28.3-40 88.3zm83.9-115.3l-39.9 9.4-31.9-25.7-40-9-17.6-37-32.2-25.4.2-41-17.9-36.8 17.9-36.9-.2-41 32.2-25.4 17.6-37 40-9 31.9-25.7 39.9 9.3 39.9-9.3 31.9 25.7 40 9 17.6 37 32.2 25.4-.2 41 17.9 36.8-17.9 36.8.2 41-32.2 25.4-17.6 37-40 9-31.9 25.7-39.9-9.3zm153.8 80.7l-48.6-7.4-25.6 42-41.8-89.6 6.1 1.4 35.2-28.3 33.1-7.4 41.6 89.3z"/><path class="ost1" d="M254.05 50.9c-78.1 0-141.7 63.6-141.7 141.7s63.6 141.7 141.7 141.7c78.1-.1 141.7-63.6 141.7-141.7s-63.6-141.7-141.7-141.7zm0 267c-69.1 0-125.3-56.2-125.3-125.3s56.2-125.3 125.3-125.3 125.3 56.2 125.3 125.3-56.2 125.3-125.3 125.3z"/><path class="ost1" d="M360.55 158h-81.4l-25.1-77.4-25.1 77.4h-81.4l65.8 47.8-25.1 77.4 65.8-47.8 65.8 47.8-25.1-77.4 65.8-47.8zm-106.5 57.1l-34.7 25.2 13.2-40.8-34.7-25.2h42.8l13.2-40.8 13.2 40.8h42.8l-34.7 25.2 13.6 40.8-34.7-25.2z"/></symbol><symbol id="operator" viewBox="0 0 486 486" xmlns="http://www.w3.org/2000/svg"><style>.pst0{fill:#2e3192}.pst1{fill:#fff}.pst2{fill:#ff931e}</style><path class="pst0" d="M420.39 417.693c-.135-18.284-9.149-29.426-27.176-33.729-18.555-4.423-37.2-8.575-55.666-13.391-3.578-.937-6.99-3.91-9.662-6.72-4.424-4.68-7.55-10.764-12.396-14.84-3.714-3.11-5.692-7.564-4.695-11.46.423-1.615 1.328-3.14 2.853-4.423 7.957-6.704 13.09-14.902 16.216-24.821 1.675-5.36 4.755-10.04 11.474-11.49 9.134-1.963 13.996-8.334 14.373-17.846.347-8.53.181-17.09.151-25.65-.03-6.78-3.065-11.883-8.44-16.035-1.736-1.344-3.397-4.318-3.23-6.386 1.268-15.52 2.702-31.057 4.665-46.517 7.11-55.953-34.605-88.323-75.928-85.937-18.812 1.072-37.73 0-56.587.287-6.477.105-13.12.694-19.385 2.28-36.13 9.194-56.814 41.7-52.632 82.087 1.63 15.747 3.367 31.494 4.68 47.271.182 2.16-1.086 5.345-2.762 6.583-6.01 4.424-8.878 10.055-8.863 17.378.015 6.039-.09 12.078-.045 18.117.136 18.707 5.36 24.308 24.58 25.621 1.101 14.6 7.216 26.014 17.845 35.707.89.8 1.465 2.582 1.782 4.56l.015.015c.543 3.683-1.148 7.79-4.56 10.659-4.846 4.076-7.956 10.16-12.395 14.84-2.657 2.81-6.07 5.783-9.663 6.72-18.465 4.816-37.095 8.968-55.666 13.391-18.012 4.303-27.04 15.445-27.161 33.73-.12 15.595-.181 31.191-.015 46.788.15 13.135 7.61 20.608 20.684 20.623 51.016.03 102.454.046 153.47.046h.408c51.016 0 102.032-.016 153.048-.046 13.074-.015 20.548-7.488 20.684-20.623.18-15.597.105-31.193 0-46.789zm-107.059-38.741c-7.322 13.965-13.27 28.64-19.823 42.999-1.117 2.43-2.416 4.77-3.896 7.67-10.96-7.791-21.272-15.144-32.31-22.995 17.514-15.732 34.787-31.252 52.104-46.818 6.537 5.722 8.138 11.127 3.925 19.144zm30.377-124.271c.09 7.262.197 14.524 0 21.786-.196 7.73-2.597 9.436-10.81 8.485v-37.88c7.519-1.42 10.72 1.207 10.81 7.609zm-183.47 30.15c-7.956 1.299-10.538-.588-10.704-8.817-.15-7.005.015-14.01.045-21 .03-6.282 2.99-9.135 10.66-8.124v37.941zm1.178-54.518c-1.872-19.778-4.71-39.526-5.224-59.335-.906-34.544 25.063-60.12 59.622-60.24 20.382-.061 40.764-.106 61.131 0 35.209.18 60.905 25.394 60.12 60.527-.438 19.808-3.382 39.556-5.254 59.32-.106 1.132-.74 2.204-1.117 3.291a46.71 46.71 0 0 1-1.525.211c-.815-3.23-1.706-6.446-2.43-9.708a9544.495 9544.495 0 0 1-9.135-41.202c-1.283-5.828-4.56-8.636-10.297-5.767-36.235 18.117-75.414 22.42-115 23.749-11.128.377-17.091 3.744-19.945 14.418-1.736 6.523-5.133 12.622-9.587 18.601-.468-1.283-1.238-2.552-1.359-3.865zm12.833 66.733c-.196-6.538.197-13.211-.996-19.567-4.031-21.515 1.902-40.976 11.7-59.592 1.193-2.25 5.39-4 8.274-4.121 29.2-1.284 58.082-4.65 86.27-12.562 8.908-2.506 17.559-5.918 27.584-9.345 3.14 14.161 4.665 28.67 9.662 41.866 8.108 21.394 1.208 42.621 2.054 63.85.075 1.856-2.22 4.408-4.077 5.63-12.335 8.108-26.315 10.871-40.794 11.46-1.57.075-3.548-1.374-4.786-2.657-6.296-6.507-16.397-8.999-24.791-5.662-5.843 2.31-9.346 6.613-9.935 13.014-.603 6.342 1.827 11.324 7.142 14.766 7.685 4.967 20.73 3.11 27.1-3.533 1.45-1.51 3.367-3.155 5.285-3.487 11.293-1.993 22.632-3.624 35.752-5.647-13.135 9.24-24.097 21.092-37.488 25.365-20.896 6.688-43.482 8.877-63.095-6.704-6.688-5.314-13.648-10.282-20.518-15.37-9.315-6.9-14.01-16.14-14.343-27.704zm88.157 23.9c0 3.548-4.092 6.416-9.15 6.416-5.057 0-9.149-2.868-9.149-6.416s4.092-6.417 9.15-6.417c5.057 0 9.15 2.869 9.15 6.417zm-79.324 38.862c17.332 15.566 34.589 31.086 52.102 46.818-11.021 7.851-21.333 15.204-32.294 22.994-1.48-2.898-2.778-5.239-3.895-7.67-6.568-14.357-12.516-29.033-19.839-42.998-4.212-8.017-2.612-13.422 3.926-19.144zm-53.81 113.189c-12.697 0-24.971.075-37.246-.03-5.692-.046-7.881-3.458-7.836-8.848.06-9.798 0-19.597-.015-29.395v-25.591c3.473 2.778 5.405 4.182 7.187 5.767 8.258 7.353 16.094 15.234 24.79 22.013 11.822 9.21 15.763 20.835 13.12 36.084zm110.215-.423h-97.381c0-2.416-.12-4.378.03-6.326 1.102-15.581-5.043-27.72-16.955-37.518-8.138-6.704-15.807-13.996-23.673-21.047-2.854-2.551-5.632-5.163-9.467-8.696 4.47-1.42 7.247-2.491 10.1-3.17 19.054-4.56 38.213-8.622 57.116-13.725 6.507-1.751 8.742.242 11.067 5.707 5.571 13.18 11.716 26.105 17.634 39.134 7.58 16.668 15.143 18.48 29.426 7.413 6.84-5.3 14.056-10.1 22.103-15.838v54.066zm6.734-72.576c-1.253-1.057-4.363-3.699-5.526-4.755-14.554-13.09-29.214-26.075-43.512-39.436-1.253-1.163-1.963-2.914-2.597-4.756-.241-1.706-.136-3.73-.83-5.964 35.842 24.7 69.858 24.746 105.61 1.752-.453 1.041-.8 2.189-1.178 3.321-.694 2.16-1.42 4.288-2.869 5.647-14.297 13.361-28.972 26.346-43.527 39.436-1.343 1.222-4.907 4.212-5.571 4.755zm104.16 72.576H253v-54.066c8.047 5.738 15.28 10.539 22.118 15.838 14.283 11.067 21.832 9.255 29.411-7.413 5.934-13.03 12.079-25.953 17.65-39.134 2.31-5.465 4.544-7.458 11.066-5.707 18.888 5.103 38.062 9.165 57.1 13.724 2.87.68 5.632 1.752 10.101 3.17-3.82 3.534-6.613 6.146-9.466 8.697-7.851 7.05-15.536 14.343-23.674 21.047-11.897 9.798-18.057 21.937-16.94 37.518.136 1.948.016 3.91.016 6.326zm57.931-37.85c0 9.798-.075 19.597 0 29.395.03 5.39-2.159 8.802-7.85 8.848-12.26.105-24.535.03-37.232.03-2.657-15.25 1.283-26.875 13.12-36.084 8.696-6.78 16.532-14.66 24.79-22.013 1.782-1.585 3.715-2.99 7.172-5.767 0 9.768.015 17.68 0 25.59z"/><circle class="pst1" cx="130.963" cy="94.5" r="86.667"/><path class="pst2" d="M131.365 189.857c-51.85 0-94.032-42.183-94.032-94.031 0-51.85 42.182-94.031 94.032-94.031 51.848 0 94.03 42.182 94.03 94.03 0 51.85-42.182 94.032-94.03 94.032zm0-170.062c-41.924 0-76.032 34.107-76.032 76.03s34.108 76.032 76.032 76.032 76.03-34.107 76.03-76.031-34.107-76.031-76.03-76.031z"/><path class="pst2" d="M78.246 130.275v-7.37c4.84-4.692 9.222-9.02 13.146-12.98 3.921-3.96 7.26-7.626 10.01-11 2.75-3.372 4.857-6.526 6.325-9.46 1.465-2.932 2.2-5.72 2.2-8.36 0-3.74-.99-6.69-2.97-8.855-1.98-2.162-4.84-3.245-8.581-3.245-2.714 0-5.188.77-7.425 2.31s-4.308 3.374-6.215 5.5l-7.04-7.04c3.227-3.446 6.545-6.105 9.955-7.975s7.536-2.804 12.375-2.804c3.372 0 6.416.513 9.13 1.54 2.712 1.027 5.023 2.474 6.93 4.344 1.906 1.87 3.392 4.125 4.455 6.765 1.063 2.64 1.596 5.574 1.596 8.8 0 3.08-.68 6.215-2.035 9.406-1.359 3.19-3.19 6.417-5.5 9.68-2.311 3.263-5.005 6.618-8.085 10.064a572.936 572.936 0 0 1-9.79 10.67 823.13 823.13 0 0 0 5.939-.495c2.127-.182 4.032-.274 5.72-.274h17.16v10.78h-47.3zm85.139 0v-18.04h-30.91v-8.58l27.72-43.34h15.07v42.13h8.8v9.79h-8.8v18.04h-11.88zm-18.37-27.83h18.37v-15.84c0-2.052.055-4.472.165-7.26.11-2.786.237-5.206.386-7.26h-.44c-.88 1.834-1.799 3.63-2.75 5.39-.955 1.76-1.945 3.594-2.97 5.5l-12.761 19.47z"/></symbol><symbol id="percentage" viewBox="0 0 453.97 453.97" xmlns="http://www.w3.org/2000/svg"><style>.qst0{fill:#ff931e}.qst1{fill:#2e3192}</style><path class="qst0" d="M159.283 233.991c7.499 7.499 17.351 11.249 27.201 11.249s19.701-3.75 27.2-11.249c7.267-7.266 11.269-16.926 11.269-27.201 0-10.275-4.002-19.936-11.268-27.201-7.266-7.266-16.926-11.268-27.201-11.268s-19.936 4.001-27.202 11.268c-14.998 14.997-14.998 39.402.001 54.402zm10.606-43.797c4.434-4.433 10.327-6.874 16.596-6.874s12.161 2.441 16.595 6.875c4.433 4.432 6.874 10.326 6.874 16.594s-2.441 12.162-6.875 16.595c-9.148 9.149-24.037 9.15-33.189 0h.001c-9.152-9.151-9.152-24.039-.002-33.19zm-6.333 111.001c-14.998 14.999-14.998 39.404 0 54.403 7.5 7.5 17.351 11.249 27.201 11.249 9.852 0 19.702-3.75 27.202-11.249 14.998-14.999 14.998-39.404 0-54.403-15.001-15-39.404-14.998-54.403 0zm43.796 43.796c-9.149 9.149-24.037 9.151-33.188 0-9.15-9.15-9.15-24.04 0-33.19 9.148-9.15 24.038-9.151 33.188 0 9.15 9.15 9.15 24.04 0 33.19zm43.678-117.852l-131.666 67.56a7.5 7.5 0 0 0 3.43 14.175 7.474 7.474 0 0 0 3.418-.829l131.666-67.56a7.5 7.5 0 1 0-6.848-13.346z"/><path class="qst1" d="M441.186 55.982c0-26.75-21.763-48.512-48.512-48.512H340.35c-26.749 0-48.512 21.762-48.512 48.512v34.124l-70.479-6.933a30.145 30.145 0 0 0-24.362 8.719L19.152 269.737c-8.489 8.49-8.489 22.305 0 30.795l139.591 139.59c4.113 4.113 9.581 6.378 15.397 6.378s11.285-2.265 15.398-6.378l177.845-177.844a30.16 30.16 0 0 0 8.718-24.362l-8.665-88.089 59.542-59.541c9.162-9.163 14.208-21.346 14.208-34.304zm-84.41 195.689L178.931 429.515c-1.279 1.28-2.981 1.985-4.791 1.985s-3.511-.705-4.79-1.984L29.759 289.926a6.784 6.784 0 0 1 0-9.583l177.845-177.844a15.197 15.197 0 0 1 12.286-4.397l71.948 7.077v22.743c-5.916 1.374-11.348 4.365-15.749 8.767-6.21 6.21-9.63 14.466-9.63 23.249s3.42 17.039 9.63 23.248c6.21 6.21 14.466 9.63 23.249 9.63 8.782 0 17.038-3.42 23.248-9.63h-.001c6.211-6.209 9.631-14.466 9.631-23.248s-3.42-17.039-9.63-23.249c-4.401-4.401-9.833-7.392-15.748-8.766v-21.269l29.213 2.873c7.226.711 12.985 6.471 13.696 13.696l11.426 116.161a15.211 15.211 0 0 1-4.397 12.287zm-63.777-108.442c3.052 11.178 11.868 19.994 23.046 23.046a17.817 17.817 0 0 1-4.065 6.303h-.001c-3.376 3.377-7.865 5.237-12.641 5.237s-9.266-1.86-12.643-5.237c-3.376-3.377-5.236-7.866-5.236-12.642s1.86-9.265 5.237-12.642a17.826 17.826 0 0 1 6.303-4.065zm123.371-63.55l-50.834 50.833-.861-8.758c-1.409-14.326-12.83-25.746-27.155-27.155l-30.682-3.018V55.982c0-18.479 15.033-33.512 33.512-33.512h52.324c18.479 0 33.512 15.033 33.512 33.512 0 8.952-3.486 17.368-9.816 23.697z"/></symbol><symbol viewBox="0 0 482.6 482.6" id="phone-thin" xmlns="http://www.w3.org/2000/svg"><path d="M98.339 320.8c47.6 56.9 104.9 101.7 170.3 133.4 24.9 11.8 58.2 25.8 95.3 28.2 2.3.1 4.5.2 6.8.2 24.9 0 44.9-8.6 61.2-26.3.1-.1.3-.3.4-.5 5.8-7 12.4-13.3 19.3-20 4.7-4.5 9.5-9.2 14.1-14 21.3-22.2 21.3-50.4-.2-71.9l-60.1-60.1c-10.2-10.6-22.4-16.2-35.2-16.2-12.8 0-25.1 5.6-35.6 16.1l-35.8 35.8c-3.3-1.9-6.7-3.6-9.9-5.2-4-2-7.7-3.9-11-6-32.6-20.7-62.2-47.7-90.5-82.4-14.3-18.1-23.9-33.3-30.6-48.8 9.4-8.5 18.2-17.4 26.7-26.1 3-3.1 6.1-6.2 9.2-9.3 10.8-10.8 16.6-23.3 16.6-36s-5.7-25.2-16.6-36l-29.8-29.8c-3.5-3.5-6.8-6.9-10.2-10.4-6.6-6.8-13.5-13.8-20.3-20.1-10.3-10.1-22.4-15.4-35.2-15.4-12.7 0-24.9 5.3-35.6 15.5l-37.4 37.4c-13.6 13.6-21.3 30.1-22.9 49.2-1.9 23.9 2.5 49.3 13.9 80 17.5 47.5 43.9 91.6 83.1 138.7zm-72.6-216.6c1.2-13.3 6.3-24.4 15.9-34l37.2-37.2c5.8-5.6 12.2-8.5 18.4-8.5 6.1 0 12.3 2.9 18 8.7 6.7 6.2 13 12.7 19.8 19.6 3.4 3.5 6.9 7 10.4 10.6l29.8 29.8c6.2 6.2 9.4 12.5 9.4 18.7s-3.2 12.5-9.4 18.7c-3.1 3.1-6.2 6.3-9.3 9.4-9.3 9.4-18 18.3-27.6 26.8l-.5.5c-8.3 8.3-7 16.2-5 22.2.1.3.2.5.3.8 7.7 18.5 18.4 36.1 35.1 57.1 30 37 61.6 65.7 96.4 87.8 4.3 2.8 8.9 5 13.2 7.2 4 2 7.7 3.9 11 6 .4.2.7.4 1.1.6 3.3 1.7 6.5 2.5 9.7 2.5 8 0 13.2-5.1 14.9-6.8l37.4-37.4c5.8-5.8 12.1-8.9 18.3-8.9 7.6 0 13.8 4.7 17.7 8.9l60.3 60.2c12 12 11.9 25-.3 37.7-4.2 4.5-8.6 8.8-13.3 13.3-7 6.8-14.3 13.8-20.9 21.7-11.5 12.4-25.2 18.2-42.9 18.2-1.7 0-3.5-.1-5.2-.2-32.8-2.1-63.3-14.9-86.2-25.8-62.2-30.1-116.8-72.8-162.1-127-37.3-44.9-62.4-86.7-79-131.5-10.3-27.5-14.2-49.6-12.6-69.7z"/></symbol><symbol id="piggy-bank" viewBox="0 0 512 512" xmlns="http://www.w3.org/2000/svg"><style>.sst0{fill:#2e3192}.sst1{fill:#ff931e}</style><path class="sst0" d="M492.444 271.83l-20.972-6.718c-2.686-.861-4.803-3.005-5.662-5.736-4.42-14.053-11.09-27.246-19.825-39.214-3.981-5.455-8.408-10.664-13.244-15.623 3.094-13.573 4.776-28.934 4.558-42.205-.312-18.985-4.106-30.12-11.598-34.044-4.035-2.116-16.315-8.544-82.782 21.882a24.185 24.185 0 0 0-4.405 2.623c-4.481-1.204-12.661-3.14-17.27-4.14l-.017-.004c-3.222 4.072-6.243 8.278-7.476 13.677 1.452.291 6.507 1.402 7.934 1.712 2.676.581 5.34 1.205 7.98 1.86-.083.324-.168.647-.237.976-3.634 17.245-3.398 32.497.701 45.33 3.684 11.535 10.333 20.88 19.76 27.777 11.111 8.128 24.525 11.639 36.676 11.639 9.145 0 17.576-1.99 23.768-5.497 7.004-3.967 12.872-12.326 17.517-24.876a126.08 126.08 0 0 1 6.1 7.701c7.777 10.654 13.714 22.396 17.646 34.898 2.309 7.343 8.041 13.121 15.332 15.458l20.972 6.718a13.195 13.195 0 0 1 9.2 12.606v34.775a13.195 13.195 0 0 1-9.2 12.606l-33.789 10.823c-5.406 1.733-9.98 5.448-12.882 10.462-13.275 22.942-34.146 41.927-62.037 56.428a11.675 11.675 0 0 0-6.126 8.23l-10.822 57.303a3.35 3.35 0 0 1-3.289 2.724h-35.187a3.35 3.35 0 0 1-3.289-2.724l-5.994-31.669a11.708 11.708 0 0 0-13.314-9.417c-15.157 2.292-30.775 3.453-46.418 3.453-11.638 0-23.127-.649-34.15-1.93-6.095-.701-11.773 3.454-12.912 9.472l-5.696 30.091a3.35 3.35 0 0 1-3.289 2.724H163.52a3.356 3.356 0 0 1-3.293-2.748l-10.42-54.122a11.697 11.697 0 0 0-6.012-8.135C96.25 401.595 71.12 359.191 71.12 304.351c0-27.708 6.062-52.209 18.017-72.825 11.156-19.239 27.45-35.146 48.43-47.281a7.453 7.453 0 0 0 2.718-10.182 7.454 7.454 0 0 0-10.181-2.719C89.425 194.876 64.89 231.18 58.135 277.29v-.001c-.717-.065-1.435-.127-2.15-.201.13-4.975-.77-9.995-2.73-14.867-4.323-10.746-13.203-18.502-22.624-19.759-7.424-.994-14.489 2.158-19.392 8.636-7.109 9.394-5.95 16.828-3.727 21.41 3.753 7.733 13.4 13.203 29.409 16.642a29.24 29.24 0 0 1-1.454 1.986c-9.459 11.863-20.603 14.486-27.839 14.733-4.236.143-7.628 3.544-7.628 7.783v.036c0 4.181 3.299 7.591 7.476 7.782.535.025 1.094.038 1.676.038 9.156 0 23.851-3.377 37.969-21.08 2.229-2.794 4.045-5.742 5.441-8.788 1.406.159 2.757.295 4.051.415l.001-.008a195.752 195.752 0 0 0-.395 12.304c0 31.028 7.397 58.693 21.984 82.23 13.45 21.7 32.707 39.468 57.255 52.83l10.13 52.616c1.629 8.608 9.17 14.856 17.931 14.856h35.187c8.761 0 16.302-6.248 17.931-14.856l5.15-27.208c10.696 1.133 21.77 1.707 32.965 1.707 15.36 0 30.702-1.07 45.654-3.182l5.429 28.685c1.63 8.608 9.171 14.855 17.931 14.855h35.187c8.761 0 16.302-6.248 17.932-14.859l10.537-55.79c29.768-15.742 52.206-36.42 66.704-61.476 1.045-1.806 2.654-3.131 4.53-3.732l33.788-10.823A28.055 28.055 0 0 0 512 333.403v-34.775a28.05 28.05 0 0 0-19.556-26.798zm-71.166-88.557c-2.868 24.526-10.56 45.506-18.291 49.884-8.786 4.977-29.071 5.938-44.301-5.203-15.248-11.154-20.323-31.212-14.678-58.006v-.001c.567-2.691 2.479-5.019 5.114-6.225 37.304-17.076 58.811-22.661 66.801-22.661 1.206 0 2.104.127 2.702.361 2.4 2.558 5.548 17.099 2.653 41.851zM20.921 266.001c-.771-1.59 1.049-4.385 2.203-5.911 1.829-2.416 3.514-2.91 4.787-2.91.269 0 .52.022.75.053 3.426.457 8.226 4.227 10.769 10.548a22.624 22.624 0 0 1 1.559 7.027c-10.315-2.137-18.329-5.218-20.068-8.807z"/><path class="sst1" d="M321.55 61.083c-4.863-9.659-11.24-18.466-18.953-26.18-19.209-19.209-44.749-29.788-71.914-29.788s-52.705 10.579-71.914 29.788c-19.209 19.21-29.788 44.749-29.788 71.914s10.579 52.705 29.788 71.914a101.646 101.646 0 0 0 17.945 14.298l.006-.001c-1.946.506 14.88 6.448 22.28-.028 1.707-1.138 2.308-4.842 1.694-4.756a86.258 86.258 0 0 1-31.388-20.05c-16.394-16.394-25.423-38.191-25.423-61.376 0-23.186 9.029-44.982 25.423-61.376 16.394-16.395 38.192-25.424 61.376-25.424 23.184 0 44.982 9.029 61.376 25.424a86.76 86.76 0 0 1 16.181 22.343 7.45 7.45 0 0 0 10.007 3.304 7.45 7.45 0 0 0 3.304-10.006zm1.609 88.048a101.505 101.505 0 0 0 9.122-37.737 7.45 7.45 0 0 0-7.111-7.777c-4.101-.204-7.594 2.998-7.777 7.11-.971 21.691-9.969 42.1-25.335 57.467a86.267 86.267 0 0 1-31.388 20.05c-1.695-.238 4.08 2.131 13.143 5.506-4.188-1.687 12.528-.282 10.833-.722l.006.001a101.609 101.609 0 0 0 17.945-14.298 102.04 102.04 0 0 0 12.986-15.944c1.274-1.77 6.953-12.35 7.576-13.656z"/><path class="sst0" d="M260.67 188.244a216.085 216.085 0 0 0-59.976 0c-8.432 1.072-18.777 3.173-23.98 4.785l.006-.001a210.25 210.25 0 0 0-13.778 4.076 7.452 7.452 0 1 0 4.725 14.135c40.636-13.585 85.396-13.585 126.032 0 .784.262 1.58.386 2.363.386a7.452 7.452 0 0 0 2.362-14.521 209.652 209.652 0 0 0-13.778-4.076l.006.001c-10.985-2.779-22.485-4.529-23.982-4.785zm161.833 82.369a7.451 7.451 0 0 0-7.451 7.451c0 5.217-4.244 9.461-9.461 9.461-5.216 0-9.461-4.244-9.461-9.461a7.451 7.451 0 0 0-14.902 0c0 13.434 10.93 24.363 24.363 24.363s24.363-10.93 24.363-24.363a7.45 7.45 0 0 0-7.451-7.451z"/><path class="sst1" d="M194.625 136.514h13.978v11.983c0 .583.187 1.06.562 1.433.374.376.853.563 1.436.563h10.42a1.97 1.97 0 0 0 1.404-.563c.395-.373.592-.85.592-1.433v-11.983h31.512c.582 0 1.06-.185 1.436-.56.375-.376.561-.853.561-1.436v-7.988c0-.58-.186-1.06-.561-1.433-.374-.375-.854-.563-1.436-.563h-31.513v-7.364h21.216c8.32 0 15.11-2.535 20.374-7.612 5.262-5.072 7.894-11.624 7.894-19.656 0-8.027-2.632-14.579-7.894-19.656-5.263-5.072-12.054-7.612-20.374-7.612H210.6c-.583 0-1.06.187-1.436.56-.374.376-.562.856-.562 1.436v39.25h-13.977c-.582 0-1.06.198-1.435.593a1.974 1.974 0 0 0-.562 1.404v9.297c0 .583.187 1.06.562 1.435.375.376.852.561 1.435.561h13.978v7.364h-13.978c-.582 0-1.06.187-1.435.563-.374.373-.562.853-.562 1.433v7.988c0 .583.187 1.06.562 1.435.375.376.852.561 1.435.561zm28.391-60.588h19.968c4.41 0 7.966 1.29 10.67 3.869 2.704 2.579 4.056 5.95 4.056 10.108 0 4.16-1.352 7.532-4.055 10.108-2.705 2.582-6.262 3.87-10.67 3.87h-19.969V75.927z"/></symbol><symbol viewBox="0 0 92 92" id="question-mark" xmlns="http://www.w3.org/2000/svg"><path d="M45.386.004C19.983.344-.333 21.215.005 46.619c.34 25.393 21.209 45.715 46.611 45.377 25.398-.342 45.718-21.213 45.38-46.615-.34-25.395-21.21-45.716-46.61-45.377zM45.25 74l-.254-.004c-3.912-.116-6.67-2.998-6.559-6.852.109-3.788 2.934-6.538 6.717-6.538l.227.004c4.021.119 6.748 2.972 6.635 6.937C51.904 71.346 49.123 74 45.25 74zm16.455-32.659c-.92 1.307-2.943 2.93-5.492 4.916l-2.807 1.938c-1.541 1.198-2.471 2.325-2.82 3.434-.275.873-.41 1.104-.434 2.88l-.004.451H39.43l.031-.907c.131-3.728.223-5.921 1.768-7.733 2.424-2.846 7.771-6.289 7.998-6.435.766-.577 1.412-1.234 1.893-1.936 1.125-1.551 1.623-2.772 1.623-3.972a7.74 7.74 0 0 0-1.471-4.576c-.939-1.323-2.723-1.993-5.303-1.993-2.559 0-4.311.812-5.359 2.478-1.078 1.713-1.623 3.512-1.623 5.35v.457H27.936l.02-.477c.285-6.769 2.701-11.643 7.178-14.487C37.947 18.918 41.447 18 45.531 18c5.346 0 9.859 1.299 13.412 3.861 3.6 2.596 5.426 6.484 5.426 11.556 0 2.837-.896 5.502-2.664 7.924z"/></symbol><symbol id="repair" viewBox="0 0 512 512" xmlns="http://www.w3.org/2000/svg"><style>.ust0{fill:#2e3192}.ust1{fill:#ff931e}</style><path class="ust0" d="M484.013 334.668c-25.493-25.492-63.013-34.355-97.01-23.333l-72.554-72.555 4.003-4.003c-8.815-3.485-17.493 3.385-19.452 11.223-.917 2.75.685 4.66 1.73 6.499l1.438-1.439 76.438 76.438a8.686 8.686 0 0 0 9.308 1.944c28.944-11.337 61.844-4.469 83.818 17.505 18.668 18.666 26.436 45.212 21.404 70.52L442.09 366.42a8.686 8.686 0 0 0-12.279 0l-49.119 49.117a8.683 8.683 0 0 0-.001 12.28l51.048 51.048c-25.306 5.025-51.856-2.739-70.52-21.403-21.975-21.975-28.847-54.876-17.506-83.818a8.684 8.684 0 0 0-1.944-9.308l-76.438-76.438 3.761-3.761c-3.364-1.393-6.728-1.978-10.092-1.137-8.634 1.919-14.5 12.12-8.782 20.01l2.832-2.832 72.554 72.553c-11.021 33.996-2.159 71.518 23.334 97.011 18.26 18.26 42.693 27.987 67.58 27.987a95.481 95.481 0 0 0 34.854-6.593 8.687 8.687 0 0 0 2.972-14.225l-55.237-55.236 36.84-36.837 55.233 55.234a8.683 8.683 0 0 0 14.225-2.973c13.863-35.365 5.465-75.573-21.392-102.431zM219 261c9.511-1.73 10.794-12.426 6.443-19.17l-3.088 3.088-72.888-72.884a8.687 8.687 0 0 0-9.308-1.944c-28.94 11.341-61.843 4.47-83.818-17.505-18.665-18.666-26.434-45.212-21.402-70.521l51.047 51.048a8.686 8.686 0 0 0 12.28 0l49.118-49.118a8.683 8.683 0 0 0 0-12.28L96.336 20.667c25.306-5.034 51.853 2.736 70.52 21.403 21.975 21.975 28.847 54.875 17.506 83.818a8.684 8.684 0 0 0 1.944 9.308l72.886 72.885-2.303 2.303c.627.615 1.283 1.202 2.111 1.616 9 5 14-6 15-13 0-2.18.525-4.36.814-6.541l-3.343 3.343-69.003-69.001c11.02-33.996 2.159-71.518-23.334-97.011C152.277 2.935 112.073-5.467 76.701 8.396a8.687 8.687 0 0 0-2.972 14.225l55.236 55.234-36.839 36.839-55.235-55.237a8.683 8.683 0 0 0-14.225 2.972C8.805 97.797 17.203 138.005 44.06 164.864c25.492 25.492 63.012 34.354 97.01 23.333l69.001 69.002-2.033 2.033c3.687 1.475 7.013 2.558 10.962 1.768z"/><path class="ust1" d="M265.331 287.898l36.837-36.838 12.281-12.28 85.93-85.93 54.653-30.557a8.695 8.695 0 0 0 3.529-3.695l24.559-49.117a8.685 8.685 0 0 0-1.626-10.024l-30.7-30.7a8.685 8.685 0 0 0-10.024-1.626l-49.117 24.558a8.689 8.689 0 0 0-3.695 3.529L357.4 109.872l-85.93 85.93-12.279 12.279-36.837 36.837-12.284 12.281-9.954 9.954-24.559-24.559a8.702 8.702 0 0 0-8.135-2.311 8.684 8.684 0 0 0-6.243 5.706l-11.267 33.804-88.953 53.715a8.71 8.71 0 0 0-2.085 1.76l-45.757 53.024c-18.524 21.467-17.278 55.245 2.777 75.3l30.762 30.763c10.52 10.52 24.816 15.843 39.136 15.843 12.99 0 26.001-4.382 36.223-13.243l54.064-46.865a8.655 8.655 0 0 0 1.756-2.091l52.633-87.667 33.792-11.264a8.684 8.684 0 0 0 3.393-14.378l-24.558-24.558 9.954-9.954 12.281-12.28zm-19.889 49.137l-23.51 7.836a8.691 8.691 0 0 0-4.698 3.768l-53.574 89.235-53.019 45.959c-14.751 12.79-37.946 12.001-51.704-1.759l-30.763-30.763c-13.763-13.763-14.621-36.944-1.909-51.674l44.854-51.977 90.511-54.654a8.684 8.684 0 0 0 3.749-4.688l7.836-23.51 20.765 20.765 30.698 30.698 20.764 20.764zm-14.624-39.182l-18.419-18.419 158.134-158.133a8.67 8.67 0 0 0 1.438-1.903l29.84-53.371 41.128-20.563 21.849 21.848-20.565 41.129-53.37 29.84a8.668 8.668 0 0 0-1.903 1.438L230.818 297.853z"/></symbol><symbol viewBox="0 0 586.1 586.2" id="search" xmlns="http://www.w3.org/2000/svg"><title/><path d="M575.7 520.5L411.5 356.2c25-35.9 39.7-79.5 39.7-126.5C451.2 107.3 352 8.2 229.7 8.2S8.2 107.3 8.2 229.7s99.2 221.5 221.5 221.5c47 0 90.7-14.7 126.5-39.7l164.3 164.3c3 3 7.9 3.1 11 0l44.3-44.3c3-3.1 2.9-8.1-.1-11zM229.7 399c-93.5 0-169.4-75.8-169.4-169.4S136.1 60.3 229.7 60.3 399 136.1 399 229.7 323.2 399 229.7 399z"/></symbol><symbol id="stopwatch" viewBox="0 0 60 60" xmlns="http://www.w3.org/2000/svg"><style>.wst0{fill:#ff931e}.wst1{fill:#2e3192}</style><path class="wst0" d="M31.634 37.989a3.558 3.558 0 0 0 2.606-1.459l9.363-12.944a1 1 0 0 0-1.397-1.397L29.26 31.555c-.844.614-1.375 1.563-1.456 2.604s.296 2.06 1.033 2.797a3.554 3.554 0 0 0 2.797 1.033zm-1.836-3.674a1.56 1.56 0 0 1 .637-1.142l7.897-5.713-5.711 7.895a1.565 1.565 0 0 1-2.371.187 1.564 1.564 0 0 1-.452-1.227z"/><path class="wst1" d="M54.034 19.564c-.01-.021-.01-.043-.021-.064-.012-.02-.031-.031-.044-.05a27.185 27.185 0 0 0-3.565-4.809l2.148-2.147 1.414 1.414 4.242-4.243-4.242-4.242-4.243 4.242 1.415 1.415-2.148 2.147a27.154 27.154 0 0 0-4.809-3.566c-.019-.013-.03-.032-.05-.044-.021-.012-.043-.011-.064-.022a26.81 26.81 0 0 0-10.273-3.404V5h1.5c1.379 0 2.5-1.121 2.5-2.5S36.672 0 35.293 0h-9c-1.379 0-2.5 1.121-2.5 2.5s1.121 2.5 2.5 2.5h1.5v1.156c-1.08.115-2.158.291-3.224.535a1 1 0 1 0 .447 1.949 25.43 25.43 0 0 1 2.78-.477l1.073-.083c.328-.025.63-.043.924-.057V10a1 1 0 1 0 2 0V8.03a24.805 24.805 0 0 1 10.456 2.845l-.986 1.707a1 1 0 0 0 1.732 1l.983-1.703a25.194 25.194 0 0 1 7.772 7.772l-1.703.983a1 1 0 0 0 1.002 1.732l1.707-.986a24.82 24.82 0 0 1 2.849 10.619H53.63a1 1 0 1 0 0 2h1.975a24.82 24.82 0 0 1-2.849 10.619l-1.707-.986a1 1 0 0 0-1 1.732l1.703.983a25.194 25.194 0 0 1-7.772 7.772l-.983-1.703a.998.998 0 0 0-1.366-.366.999.999 0 0 0-.366 1.366l.986 1.707a24.805 24.805 0 0 1-10.456 2.845V56a1 1 0 1 0-2 0v1.976a25.235 25.235 0 0 1-4.776-.617.996.996 0 0 0-1.198.751 1 1 0 0 0 .751 1.198c1.996.46 4.035.692 6.058.692.049 0 .096-.003.145-.004.007 0 .012.004.018.004.008 0 .015-.005.023-.005a26.825 26.825 0 0 0 13.219-3.573c.031-.014.064-.021.094-.039.02-.012.031-.031.05-.044a27.197 27.197 0 0 0 9.773-9.761c.019-.027.043-.048.06-.078.012-.021.011-.043.021-.064C56.317 42.476 57.63 37.89 57.63 33s-1.313-9.476-3.596-13.436zm-.069-11.313l1.414 1.414-1.414 1.415-1.415-1.415 1.415-1.414zm-24.172-2.23V3h-3.5c-.275 0-.5-.225-.5-.5s.225-.5.5-.5h9c.275 0 .5.225.5.5s-.225.5-.5.5h-3.5v3.021c-.348-.014-.68-.021-1-.021l-.088.002L30.63 6c-.164 0-.328.011-.492.014-.116.003-.225.002-.345.007z"/><path class="wst0" d="M21.793 14h-5a1 1 0 1 0 0 2h5a1 1 0 1 0 0-2zm0 7h-10a1 1 0 1 0 0 2h10a1 1 0 1 0 0-2zm0 7h-15a1 1 0 1 0 0 2h15a1 1 0 1 0 0-2zm0 7h-19a1 1 0 1 0 0 2h19a1 1 0 1 0 0-2zm0 7h-13a1 1 0 1 0 0 2h13a1 1 0 1 0 0-2zm0 7h-7a1 1 0 1 0 0 2h7a1 1 0 1 0 0-2z"/></symbol><symbol id="truck" viewBox="0 0 470 470" xmlns="http://www.w3.org/2000/svg"><style>.xst0{fill:#2e3192}.xst1{fill:#ff931e}</style><path class="xst0" d="M78.628 91.881a7.5 7.5 0 0 0 7.5-7.5V15h297.743v69.381a7.5 7.5 0 0 0 15 0V7.5a7.5 7.5 0 0 0-7.5-7.5H78.628a7.5 7.5 0 0 0-7.5 7.5v76.881a7.5 7.5 0 0 0 7.5 7.5z"/><path class="xst0" d="M398.872 290.218v-95.837a7.5 7.5 0 0 0-15 0v95.161h-24.186V171.881h61.686a7.5 7.5 0 0 0 7.5-7.5v-50a7.5 7.5 0 0 0-7.5-7.5h-61.686v-22.5a7.5 7.5 0 0 0-7.5-7.5H117.814a7.5 7.5 0 0 0-7.5 7.5v22.5H48.628a7.5 7.5 0 0 0-7.5 7.5v50a7.5 7.5 0 0 0 7.5 7.5h61.686v117.661H86.128v-95.161a7.5 7.5 0 0 0-15 0v95.837c-19.868 3.554-35 20.949-35 41.824v79.491a7.5 7.5 0 0 0 7.5 7.5h2.5V462.5a7.5 7.5 0 0 0 7.5 7.5h64.186a7.5 7.5 0 0 0 7.5-7.5v-20.967a7.5 7.5 0 0 0-15 0V455H61.128v-35.967h347.743V455h-49.186v-13.467a7.5 7.5 0 0 0-15 0V462.5a7.5 7.5 0 0 0 7.5 7.5h64.186a7.5 7.5 0 0 0 7.5-7.5v-43.467h2.5a7.5 7.5 0 0 0 7.5-7.5v-79.491c.001-20.875-15.131-38.27-34.999-41.824zm-7.5 14.324c15.164 0 27.5 12.336 27.5 27.5v31.991h-59.186v-59.491h31.686zm27.5 99.491H51.128v-25h367.743v25h.001zM125.315 171.881h219.371v192.151H125.315V171.881zm288.558-15h-15v-35h15v35zm-30-35v35h-24.186v-35h24.186zm-39.186 35H242.501v-65h102.186v65zm-219.372-65h102.186v65H125.315v-65zm-15 65H86.129v-35h24.186v35zm-54.186-35h15v35h-15v-35zm22.5 182.661h31.686v59.491H51.129v-31.991c0-15.164 12.337-27.5 27.5-27.5z"/><path class="xst1" d="M147.814 259.033h174.371a7.5 7.5 0 0 0 7.5-7.5c0-23.435-19.065-42.5-42.5-42.5H182.814c-23.435 0-42.5 19.065-42.5 42.5a7.5 7.5 0 0 0 7.5 7.5zm35-35h104.371c12.565 0 23.188 8.47 26.46 20H156.354c3.272-11.531 13.896-20 26.46-20zm139.372 50H147.814a7.5 7.5 0 0 0 0 15h174.371a7.5 7.5 0 0 0 .001-15zm0 30H147.814a7.5 7.5 0 0 0 0 15h174.371a7.5 7.5 0 0 0 .001-15zm0 30H147.814a7.5 7.5 0 0 0 0 15h174.371a7.5 7.5 0 0 0 .001-15z"/></symbol><symbol viewBox="0 0 512 512" id="update" xmlns="http://www.w3.org/2000/svg"><path d="M512 104.931l-92.326-12.599-12.633 92.334 34.629-26.307c15.775 29.965 24.092 63.481 24.092 97.64 0 115.662-94.098 209.76-209.76 209.76v43.399c139.592 0 253.159-113.567 253.159-253.159 0-43.636-11.247-86.421-32.539-124.193L512 104.931zM2.841 256.001c0 43.634 11.247 86.421 32.539 124.191L0 407.069l92.326 12.599 12.633-92.332-34.627 26.304c-15.775-29.967-24.093-63.479-24.093-97.638C46.24 140.339 140.338 46.241 256 46.241V2.842C116.408 2.842 2.841 116.409 2.841 256.001z"/></symbol></svg>