<?xml version="1.0" encoding="utf-8"?>
<!-- Generator: Adobe Illustrator 21.0.2, SVG Export Plug-In . SVG Version: 6.00 Build 0)  -->
<svg version="1.1" id="Слой_1" xmlns="http://www.w3.org/2000/svg" xmlns:xlink="http://www.w3.org/1999/xlink" x="0px" y="0px"
	 viewBox="0 0 586.8974 255.86441" style="enable-background:new 0 0 586.8974 255.86441;" xml:space="preserve">
<g>
	<g>
		<path d="M160.69327,246.92821H112.3876l-0.33936-50.88184H15.36807V162.5742l0.06299-0.14355l66.0918-150.92041l42.1084,15.79102
			L67.12247,157.91112h45.66309l5.08789-55.96973h42.81982v55.96973h26.79736v38.13525h-26.79736V246.92821z M113.87784,245.42821
			h45.31543v-50.88184h26.79736v-35.13525h-26.79736v-55.96973h-39.94971l-5.08789,55.96973H64.83926l56.78906-131.25928
			L82.32657,13.41356l-65.4585,149.4751v31.65771h96.67041L113.87784,245.42821z"/>
	</g>
	<g>
		<path d="M292.5712,252.35594c-27.49512,0-48.70166-10.49414-63.03076-31.19238
			c-14.26807-20.60498-21.50293-50.53564-21.50293-88.96094c0-38.41846,7.23486-68.29248,21.50391-88.79248
			c14.33057-20.5835,35.53662-31.02002,63.02979-31.02002c27.7207,0,49.04102,10.43652,63.36914,31.02002
			c14.27148,20.50146,21.50684,50.37548,21.50684,88.79248c0,38.42236-7.29297,68.354-21.67578,88.96338
			C341.32706,241.8618,320.06339,252.35594,292.5712,252.35594z M292.5712,13.89012
			c-26.97266,0-47.76514,10.22022-61.79834,30.37744c-14.09082,20.24316-21.23535,49.82861-21.23535,87.93506
			c0,38.11426,7.14502,67.75781,21.23633,88.10742c14.03223,20.26855,34.82373,30.5459,61.79736,30.5459
			c26.97266,0,47.82324-10.27832,61.96973-30.54834c14.2041-20.35254,21.40625-49.99561,21.40625-88.10498
			c0-38.10449-7.14551-67.69043-21.2373-87.93506C340.67862,24.11034,319.77237,13.89012,292.5712,13.89012z M292.5712,216.05907
			c-8.3252,0-15.12891-2.76172-20.2207-8.2085c-5.0498-5.38818-8.82227-14.2998-11.21289-26.48682
			c-2.37305-12.08789-3.57666-28.62793-3.57666-49.16113c0-20.52734,1.20361-37.06738,3.57666-49.16016
			c2.39062-12.18213,6.16309-21.09375,11.21289-26.4873v0.00049c5.09766-5.44727,11.90039-8.20947,20.2207-8.20947
			c8.31055,0,15.11133,2.64355,20.21191,7.85742c5.0498,5.16895,8.88184,13.96826,11.3916,26.1538
			c2.48633,12.10449,3.74707,28.875,3.74707,49.84521c0,20.75098-1.26074,37.40723-3.74707,49.50635
			c-2.50781,12.18359-6.33887,21.0376-11.38574,26.31738C307.69131,213.35643,300.88858,216.05907,292.5712,216.05907z
			 M292.5712,49.84618c-7.88867,0-14.32324,2.60205-19.125,7.73438l0,0c-4.85547,5.18506-8.50098,13.84912-10.83594,25.75097
			c-2.35547,11.99756-3.54932,28.44043-3.54932,48.87109c0,20.43652,1.19385,36.87939,3.54932,48.87207
			c2.33496,11.90674,5.98047,20.5708,10.83496,25.75098c4.79785,5.13184,11.23242,7.7334,19.12598,7.7334
			c7.89258,0,14.33008-2.54639,19.13379-7.56934c4.84863-5.07275,8.5498-13.68018,11.00098-25.58301
			c2.46582-11.99951,3.71582-28.55469,3.71582-49.2041c0-20.86914-1.25-37.53809-3.71582-49.54297
			c-2.45117-11.89941-6.15039-20.44775-10.99512-25.40771C306.90323,52.33788,300.46378,49.84618,292.5712,49.84618z"/>
	</g>
	<g>
		<path d="M546.03217,246.92821h-48.30569l-0.33984-50.88184h-96.67969V162.5742l0.06348-0.14355l66.09082-150.92041
			l42.1084,15.79102l-0.3125,0.72314l-56.19531,129.88672h45.66309l5.08789-55.96973h42.81937v55.96973h26.79688v38.13525h-26.79688
			V246.92821z M499.21671,245.42821h45.31546v-50.88184h26.79688v-35.13525h-26.79688v-55.96973h-39.95023l-5.08789,55.96973
			h-49.31543l56.78906-131.25928l-39.30176-14.73828l-65.45898,149.4751v31.65771h96.66992L499.21671,245.42821z"/>
	</g>
</g>
</svg>
