<?xml version="1.0" encoding="utf-8"?>
<!-- Generator: Adobe Illustrator 21.0.2, SVG Export Plug-In . SVG Version: 6.00 Build 0)  -->
<svg version="1.1" id="Слой_1" xmlns:sketch="http://www.bohemiancoding.com/sketch/ns"
	 xmlns="http://www.w3.org/2000/svg" xmlns:xlink="http://www.w3.org/1999/xlink" x="0px" y="0px" viewBox="0 0 24 24"
	 style="enable-background:new 0 0 24 24;" xml:space="preserve">
<style type="text/css">
	.st0{fill:#FF931E;}
	.st1{fill:#2E3192;}
</style>
<g>
	<polygon class="st0" points="13,7 12,7 12,13 8,13 8,14 13,14 	"/>
	<path class="st0" d="M4.2,6.7L3.7,6.1c-0.3-0.4-0.2-1,0.2-1.4l1.6-1.2c0.4-0.3,1.1-0.3,1.4,0.2l0.4,0.5C7.6,4,7.9,3.9,8.2,3.7
		L7.7,3C7,2.2,5.7,2,4.9,2.7L3.3,3.9C2.4,4.6,2.3,5.8,3,6.7l0.7,0.8C3.8,7.3,4,7,4.2,6.7z"/>
	<path class="st0" d="M20.7,3.9l-1.6-1.2C18.3,2,17,2.2,16.3,3l-0.5,0.7c0.3,0.1,0.6,0.3,0.9,0.4l0.4-0.5c0.3-0.4,1-0.5,1.4-0.2
		l1.6,1.2c0.4,0.3,0.5,1,0.2,1.4l-0.5,0.6c0.2,0.4,0.4,0.7,0.6,1l0.7-0.8C21.7,5.9,21.6,4.6,20.7,3.9z"/>
	<path class="st1" d="M21,13c0-5-4-9-9-9s-9,4-9,9c0,3,1.5,5.7,3.8,7.3l-2,2L5.5,23l2.1-2.1C8.9,21.6,10.4,22,12,22s3-0.4,4.3-1.1
		l2.1,2.1l0.7-0.7l-1.9-1.9C19.5,18.8,21,16.1,21,13z M12,21c-4.4,0-8-3.6-8-8s3.6-8,8-8s8,3.6,8,8S16.4,21,12,21z"/>
</g>
</svg>
