<?xml version="1.0" encoding="utf-8"?>
<!-- Generator: Adobe Illustrator 21.0.2, SVG Export Plug-In . SVG Version: 6.00 Build 0)  -->
<svg version="1.1" id="Capa_1" xmlns="http://www.w3.org/2000/svg" xmlns:xlink="http://www.w3.org/1999/xlink" x="0px" y="0px"
	 viewBox="0 0 56.8 56" style="enable-background:new 0 0 56.8 56;" xml:space="preserve">
<style type="text/css">
	.st0{fill:#2E3192;}
	.st1{fill:#FF931E;}
</style>
<path class="st0" d="M8.4,42V2c0-0.6-0.4-1-1-1s-1,0.4-1,1v40H8.4z"/>
<path class="st0" d="M29.4,21.5V2c0-0.6-0.4-1-1-1s-1,0.4-1,1v19.5H29.4z"/>
<path class="st0" d="M27.4,34.3V54c0,0.6,0.4,1,1,1s1-0.4,1-1V34.3H27.4z"/>
<path class="st0" d="M48.4,14.3V54c0,0.6,0.4,1,1,1s1-0.4,1-1V14.3H48.4z"/>
<g>
	<path class="st1" d="M8.4,41.1h-2c-3.4,0.5-6,3.4-6,6.9c0,3.9,3.1,7,7,7s7-3.1,7-7C14.4,44.5,11.8,41.6,8.4,41.1z M7.4,53
		c-2.8,0-5-2.2-5-5s2.2-5,5-5s5,2.2,5,5S10.1,53,7.4,53z"/>
	<path class="st1" d="M56.4,8c0-3.9-3.1-7-7-7s-7,3.1-7,7c0,3.5,2.6,6.4,6,6.9h2C53.8,14.4,56.4,11.5,56.4,8z M54.4,8
		c0,2.8-2.2,5-5,5s-5-2.2-5-5s2.2-5,5-5S54.4,5.2,54.4,8z"/>
	<path class="st1" d="M29.6,20.7c-0.8-0.1-1.7-0.1-2.5,0c-1.6,0.3-3,1.1-4.1,2.4c-2.2,2.5-2.3,6.4-0.3,9c3.8,5,12,2.9,12.9-3.3
		C36,25,33.4,21.3,29.6,20.7z M28.4,33c-2.8,0-5.2-2.4-5.2-5.2c0-2.8,2.4-5.2,5.2-5.2c2.8,0,5.2,2.4,5.2,5.2
		C33.6,30.6,31.2,33,28.4,33z"/>
</g>
</svg>
