<?xml version="1.0" encoding="utf-8"?>
<!-- Generator: Adobe Illustrator 21.0.2, SVG Export Plug-In . SVG Version: 6.00 Build 0)  -->
<svg version="1.1" id="Capa_1" xmlns="http://www.w3.org/2000/svg" xmlns:xlink="http://www.w3.org/1999/xlink" x="0px" y="0px"
	 viewBox="0 0 60 60" style="enable-background:new 0 0 60 60;" xml:space="preserve">
<style type="text/css">
	.st0{fill:#FF931E;}
	.st1{fill:#2E3192;}
</style>
<g>
	<circle class="st0" cx="35" cy="52" r="1"/>
	<circle class="st0" cx="39" cy="52" r="1"/>
	<circle class="st0" cx="43" cy="52" r="1"/>
	<circle class="st0" cx="33" cy="33" r="1"/>
	<circle class="st0" cx="35" cy="22" r="1"/>
	<circle class="st0" cx="39" cy="22" r="1"/>
	<circle class="st0" cx="37" cy="20" r="1"/>
	<circle class="st0" cx="39" cy="18" r="1"/>
	<circle class="st0" cx="35" cy="26" r="1"/>
	<circle class="st0" cx="33" cy="24" r="1"/>
	<circle class="st0" cx="37" cy="24" r="1"/>
	<circle class="st0" cx="33" cy="36" r="1"/>
	<circle class="st0" cx="33" cy="39" r="1"/>
	<circle class="st0" cx="33" cy="42" r="1"/>
	<circle class="st0" cx="33" cy="45" r="1"/>
	<circle class="st0" cx="33" cy="48" r="1"/>
	<circle class="st0" cx="37" cy="50" r="1"/>
	<circle class="st0" cx="41" cy="50" r="1"/>
	<path class="st0" d="M24,11h-5c-0.552,0-1,0.447-1,1s0.448,1,1,1h5c0.552,0,1-0.447,1-1S24.552,11,24,11z"/>
	<path class="st0" d="M24,18H14c-0.552,0-1,0.447-1,1s0.448,1,1,1h10c0.552,0,1-0.447,1-1S24.552,18,24,18z"/>
	<path class="st0" d="M24,25H9c-0.552,0-1,0.447-1,1s0.448,1,1,1h15c0.552,0,1-0.447,1-1S24.552,25,24,25z"/>
	<path class="st0" d="M24,32H5c-0.552,0-1,0.447-1,1s0.448,1,1,1h19c0.552,0,1-0.447,1-1S24.552,32,24,32z"/>
	<path class="st0" d="M24,39H11c-0.552,0-1,0.447-1,1s0.448,1,1,1h13c0.552,0,1-0.447,1-1S24.552,39,24,39z"/>
	<path class="st0" d="M24,46h-7c-0.552,0-1,0.447-1,1s0.448,1,1,1h7c0.552,0,1-0.447,1-1S24.552,46,24,46z"/>
	<path class="st1" d="M53,54h-5v-6c0-7.591-4.147-14.44-10.714-18C43.853,26.44,48,19.591,48,12V6h5c1.654,0,3-1.346,3-3
		s-1.346-3-3-3H30c-0.552,0-1,0.447-1,1s0.448,1,1,1h23c0.551,0,1,0.448,1,1s-0.449,1-1,1h-5H30c-0.552,0-1,0.447-1,1s0.448,1,1,1
		h16v6c0,7.491-4.58769,13.91901-11.381,17.075c-1.22292,0.56814-0.67418,1.58049-0.003,1.849C41.531,33.805,46,40.508,46,48v6H30
		c-0.552,0-1,0.447-1,1s0.448,1,1,1h18h5c0.551,0,1,0.448,1,1s-0.449,1-1,1H30c-0.552,0-1,0.447-1,1s0.448,1,1,1h23
		c1.654,0,3-1.346,3-3S54.654,54,53,54z"/>
</g>
</svg>
