<?xml version="1.0" encoding="utf-8"?>
<!-- Generator: Adobe Illustrator 21.0.2, SVG Export Plug-In . SVG Version: 6.00 Build 0)  -->
<svg version="1.1" id="Layer_1" xmlns="http://www.w3.org/2000/svg" xmlns:xlink="http://www.w3.org/1999/xlink" x="0px" y="0px"
	 viewBox="0 0 512 512" style="enable-background:new 0 0 512 512;" xml:space="preserve">
<style type="text/css">
	.st0{fill:#2E3192;}
	.st1{fill:#FF931E;}
</style>
<g transform="translate(1 1)">
	<g>
		<g>
			<path class="st0" d="M209.85974,252.63428c-0.24347,0.78735-0.50067,1.56848-0.72388,2.36475h-65.06885
				c-5.12,0-8.53302,3.41296-8.53302,8.53296s3.41302,8.53302,8.53302,8.53302h61.95587
				c-0.17432,1.95953-0.26953,3.94208-0.32526,5.935c1.03821,0,2.37756,0,3.13922,0
				C216.00018,270.83667,215.14215,260.46851,209.85974,252.63428z"/>
			<path class="st0" d="M208.86699,303.61108c0.21637,0.86633,0.43799,1.73047,0.67804,2.58691h-65.47704
				c-5.12,0-8.53296,3.41296-8.53296,8.53296s3.41296,8.53302,8.53296,8.53302h72.12907
				c0.29388,0.57849,0.60468,1.14655,0.9101,1.71796C218.19859,316.94965,215.59752,308.44427,208.86699,303.61108z"/>
			<path class="st0" d="M241.24504,219c6.10565-1.74445,12.96844-11.09601,7.98743-17.4389
				c-1.17487,0.70325-2.33704,1.43842-3.47345,2.23889h-101.692c-5.12,0-8.53302,3.41302-8.53302,8.53302
				s3.41296,8.53302,8.53302,8.53302h83.29405c-0.83447,1.01404-1.64252,2.05048-2.43439,3.09979
				C230.67216,224.61578,236.29857,221.47321,241.24504,219z"/>
			<path class="st1" d="M344.60001,238.787c-4.267-2.56-9.38699-1.707-11.94699,2.56l-45.22699,68.26701l-26.453-26.453
				c-3.41299-3.41299-8.533-3.41299-11.94701,0c-3.41299,3.41299-3.41299,8.53299,0,11.94699l34.13301,34.133
				c1.707,1.707,3.41299,2.56,5.97299,2.56c3.41299,0,5.97299-1.707,6.827-4.267l51.20001-76.8
				C349.72,246.467,348.867,241.347,344.60001,238.787z"/>
			<path class="st0" d="M459.79999-1H127c-23.893,0-42.667,18.773-42.667,42.667v349.867H24.6C10.093,391.534-1,402.62698-1,417.134
				v42.66599C-1,487.95999,22.04,511,50.2,511h319.147h5.12c12.79999,0,24.74701-5.12,34.133-13.65302
				c11.09299-9.38699,17.06699-23.04001,17.06699-37.547V118.467h59.733c14.50699,0,25.60001-11.093,25.60001-25.6V50.2
				C511,22.04,487.95999-1,459.79999-1z M50.2,493.93301c-18.773,0-34.133-15.35999-34.133-34.133v-42.66699
				c0-4.267,3.413-8.53299,8.533-8.53299h68.267H323.267v49.49301v1.707c0,12.79999,4.267,24.74701,12.79999,34.133H50.2V493.93301z
				 M408.60001,50.2v409.60001c0,10.23999-4.267,18.77301-11.09299,25.60001c-6.422,4.995-14.03799,8.189-21.849,8.60599
				c-0.38699-0.043-0.78101-0.07199-1.19101-0.07199c-5.78699,0-11.24701-1.46399-16.035-4.03201
				c-10.703-6.039-18.09799-17.995-18.09799-31.80801v-58.02701c0-5.12-3.41299-8.53299-8.53299-8.53299H101.4V41.667
				c0-14.507,11.093-25.6,25.6-25.6h294.39999c-1.64301,2.008-3.159,4.139-4.54199,6.364
				c-4.797,7.377-7.75601,16.044-8.19601,25.346C408.621,48.581,408.60001,49.389,408.60001,50.2z M493.93301,92.867
				c0,4.267-3.41299,8.533-8.53299,8.533h-59.733V50.2c0-18.773,15.35999-34.133,34.133-34.133s34.133,15.36,34.133,34.133V92.867z"
				/>
			<path class="st0" d="M203.8,67.267h102.40001c5.12,0,8.53299-3.413,8.53299-8.533s-3.41299-8.534-8.53299-8.534H203.8
				c-5.12,0-8.533,3.413-8.533,8.533S198.67999,67.267,203.8,67.267z"/>
			<path class="st0" d="M144.067,118.467h221.86702c5.12,0,8.53299-3.413,8.53299-8.533s-3.41299-8.533-8.53299-8.533H144.067
				c-5.12,0-8.533,3.413-8.533,8.533S138.94701,118.467,144.067,118.467z"/>
			<path class="st0" d="M144.067,169.66701h221.86702c5.12,0,8.53299-3.41299,8.53299-8.533s-3.41299-8.533-8.53299-8.533H144.067
				c-5.12,0-8.533,3.41299-8.533,8.533S138.94701,169.66701,144.067,169.66701z"/>
		</g>
	</g>
</g>
<path class="st1" d="M298.73535,375.69043c-51.84912,0-94.03125-42.18262-94.03125-94.03125
	c0-51.84912,42.18213-94.03125,94.03125-94.03125c51.84863,0,94.03125,42.18213,94.03125,94.03125
	C392.7666,333.50781,350.58398,375.69043,298.73535,375.69043z M298.73535,205.62793
	c-41.92383,0-76.03125,34.10742-76.03125,76.03125s34.10742,76.03125,76.03125,76.03125s76.03125-34.10742,76.03125-76.03125
	S340.65918,205.62793,298.73535,205.62793z"/>
</svg>
