<?xml version="1.0" encoding="utf-8"?>
<!-- Generator: Adobe Illustrator 21.0.2, SVG Export Plug-In . SVG Version: 6.00 Build 0)  -->
<svg version="1.1" id="Layer_1" xmlns="http://www.w3.org/2000/svg" xmlns:xlink="http://www.w3.org/1999/xlink" x="0px" y="0px"
	 viewBox="0 0 512 512" style="enable-background:new 0 0 512 512;" xml:space="preserve">
<style type="text/css">
	.st0{fill:#FF931E;}
	.st1{fill:#2E3192;}
</style>
<path class="st0" d="M512,255.09998c0-22.19995-18.09998-40.29999-40.29999-40.29999c-8.5,0-66.20001,0-73.79999,0h-59.20001
	c-7.39996,0-14.5-3.20001-19.29999-8.89996c-4.79999-5.70001-6.89996-13.10004-5.79999-20.40002
	c5.90002-37.5,13.5-88.70001,15.90002-119.79999c1.09998-14.59998-1.5-25.59998-8-32.59998
	c-5-5.40002-12.20001-8.30005-20.70001-8.30005c-15.79999,0-30.29999,9.60004-36.90002,24.5l-8.20001,18.60004
	c-22,49.70001-52.59998,94.29999-91,132.69995L139.29999,226c0,0-8.32526,8.99652-9.79999,7.5
	c-4.25037,12.22302-7.5791,9.93146,3.25,17.5l6.45001-1.5l37.20001-37.20001c39.90002-39.79999,71.70001-86.20001,94.5-137.70001
	L279.10004,56c3.90002-8.79999,12.40002-14.5,21.60004-14.5c5.79999,0,7.79999,2.20001,8.5,2.90002
	c2.20001,2.39996,4.59998,7.70001,3.59998,19.89996c-2.39996,30.5-9.89996,81.29999-15.70001,118.5
	c-1.89996,12.20001,1.60004,24.5,9.60004,33.90002c8,9.39996,19.70001,14.70001,32,14.70001h26.59998
	C360.50006,238,357.60004,246.20001,357.60004,255c0,10.59998,4.10004,20.29999,10.90002,27.5
	c-13.60004,6.5-23.10004,20.39996-23.10004,36.39996c0,10.60004,4.10004,20.29999,10.90002,27.5
	c-13.60004,6.5-23.10004,20.40002-23.10004,36.40002c0,10.59998,4.10004,20.29999,10.90002,27.5
	C330.5,416.79999,321,430.69995,321,446.69995c0.10004,9.00006,2.90002,17.10004,7.70001,23.80005h-54.5
	c-46.39996,0-91.79999-8.5-135-25.40002l-5.11739,5.29364c-6.31971,6.07324-3.29622,3.13049-0.54048,10.47906
	C134.02005,462.7843,139.10004,463,139.10004,463c43.29999,16.09998,88.59998,24.20001,135,24.20001h87.19995h27.29999h46.5
	c22.20001,0,40.29999-18.10004,40.29999-40.29999c0-10.60004-4.09998-20.29999-10.89996-27.5
	C478.09998,412.90002,487.59998,399,487.59998,383c0-10.59998-4.09998-20.29999-10.89996-27.5
	c13.59998-6.5,23.09998-20.39996,23.09998-36.39996c0-10.60004-4.09998-20.29999-10.89996-27.5
	C502.60004,285,512,271.09998,512,255.09998z M435.10004,470.5h-47.20001h-26.60004c-13,0-23.59998-10.60004-23.59998-23.60004
	s10.59998-23.59998,23.59998-23.59998H373.5h61.60004c13,0,23.59998,10.59998,23.59998,23.59998
	C458.79999,459.89996,448.20001,470.5,435.10004,470.5z M447.29999,406.5h-12.20001H373.5
	c-13,0-23.60004-10.60004-23.60004-23.60004S360.5,359.29999,373.5,359.29999h12.20001h61.59998
	c13,0,23.60004,10.59998,23.60004,23.59998S460.29999,406.5,447.29999,406.5z M459.5,342.59998h-12.20001h-61.59998
	c-13,0-23.60004-10.59998-23.60004-23.59998s10.60004-23.60004,23.60004-23.60004h12.20001H459.5
	c13,0,23.60004,10.60004,23.60004,23.60004S472.5,342.59998,459.5,342.59998z M471.70001,278.70001H459.5h-61.59998
	c-13,0-23.60004-10.60004-23.60004-23.60004S384.90002,231.5,397.90002,231.5c8.09998,0,66.79999,0,73.79999,0
	c13,0,23.60004,10.59998,23.60004,23.59998C495.29999,268.09998,484.70001,278.70001,471.70001,278.70001z"/>
<path class="st1" d="M63.29999,395.79999h7.79999c4.60004,0,8.30005-3.70001,8.30005-8.29999s-3.70001-8.29999-8.30005-8.29999
	h-7.79999C58.70001,379.20001,55,382.90002,55,387.5S58.70001,395.79999,63.29999,395.79999z"/>
<path class="st1" d="M63.20001,434.29999H71c4.59998,0,8.29999-3.70001,8.29999-8.29999S75.59998,417.70001,71,417.70001h-7.79999
	c-4.60004,0-8.29999,3.70001-8.29999,8.29999S58.59998,434.29999,63.20001,434.29999z"/>
<path class="st1" d="M139.29999,224.79999c0-4.59998-3.69995-8.29999-8.29999-8.29999H95.40002
	c-4.60004,0-8.30005,3.70001-8.30005,8.29999c0,4.60004,3.70001,8.29999,8.30005,8.29999H122.5v13v204.70001V470.5H16.70001
	V233.09998h21.89996c4.60004,0,8.30005-3.69995,8.30005-8.29999c0-4.59998-3.70001-8.29999-8.30005-8.29999H8.29999
	C3.70001,216.5,0,220.20001,0,224.79999v254.10004c0,4.59998,3.70001,8.29999,8.29999,8.29999h122.5
	c4.60004,0,8.30005-3.70001,8.30005-8.29999L139.29999,224.79999z"/>
</svg>
