<?xml version="1.0" encoding="utf-8"?>
<!-- Generator: Adobe Illustrator 21.0.2, SVG Export Plug-In . SVG Version: 6.00 Build 0)  -->
<svg version="1.1" id="Layer_1" xmlns="http://www.w3.org/2000/svg" xmlns:xlink="http://www.w3.org/1999/xlink" x="0px" y="0px"
	 viewBox="0 0 508 508" style="enable-background:new 0 0 508 508;" xml:space="preserve">
<style type="text/css">
	.st0{fill:#2E3192;}
	.st1{fill:#FF931E;}
</style>
<g>
	<g>
		<g>
			<path class="st0" d="M366.04999,100.025c5.54001,4.119,10.91299,8.592,15.96899,13.296c1.92599,1.792,4.37,2.679,6.80899,2.679
				c2.67999,0,5.354-1.071,7.32401-3.188c3.76199-4.043,3.534-10.371-0.51001-14.133c-5.591-5.202-11.53299-10.149-17.66101-14.705
				c-4.43301-3.295-10.69699-2.374-13.991,2.06C360.69501,90.466,361.617,96.73,366.04999,100.025z"/>
			<path class="st1" d="M91.349,218.226c-29.071,0-52.721,23.651-52.721,52.72099c0,29.07101,23.65,52.72202,52.721,52.72202
				s52.72101-23.651,52.72101-52.72198C144.07001,241.87601,120.42,218.226,91.349,218.226z M91.349,303.668
				c-18.042,0-32.721-14.67899-32.721-32.72202c0-18.04199,14.679-32.72101,32.721-32.72101s32.721,14.679,32.721,32.72101
				C124.07,288.98999,109.392,303.668,91.349,303.668z"/>
			<path class="st1" d="M307.01801,88.999c0-29.071-23.651-52.721-52.72101-52.721c-29.071,0-52.722,23.65-52.722,52.721
				s23.65199,52.721,52.722,52.721S307.01801,118.07,307.01801,88.999z M221.575,88.999c0-18.042,14.679-32.721,32.722-32.721
				c18.04199,0,32.72101,14.679,32.72101,32.721S272.33902,121.72,254.297,121.72C236.254,121.72,221.575,107.041,221.575,88.999z"
				/>
			<path class="st0" d="M460.03799,279.58899C461.33401,270.155,462,260.56601,462,251c0-45.99701-14.711-89.58899-42.543-126.065
				c-3.35101-4.391-9.62601-5.234-14.01599-1.884c-4.39099,3.351-5.23401,9.625-1.884,14.01601
				C428.707,170.02699,442,209.425,442,251c0,6.78198-0.36899,13.57501-1.09,20.30301
				c-7.69901-2.26801-15.83499-3.50699-24.259-3.50699c-47.41998,0-85.99899,38.57901-85.99899,85.99899
				c0,13.75101,6.741,33.33701,20.07599,58.439C321.573,429.76501,288.30399,439,254,439c-49.67,0-95.989-18.927-131.28-53.44299
				c4.769-6.991,9.912-14.74701,15.08099-22.92401c26.241-41.51001,39.547-72.35699,39.547-91.686
				c0-47.42-38.57899-85.99899-85.999-85.99899c-4.709,0-9.325,0.396-13.831,1.127c16.3-44.196,49.006-81.026,90.97099-102.528
				c-0.114,1.805-0.19099,3.619-0.19099,5.452c0,19.329,13.306,50.176,39.547,91.686c19.021,30.088,37.726,54.57199,38.513,55.60001
				c1.892,2.47099,4.827,3.91901,7.939,3.91901c3.11201,0,6.04701-1.44901,7.93901-3.92
				c0.78699-1.02699,19.492-25.511,38.513-55.599c26.242-41.50999,39.547-72.357,39.547-91.686
				C340.29599,41.579,301.71701,3,254.297,3c-36.91299,0-68.461,23.381-80.633,56.107
				C115.775,83.38,71.422,133.189,54.092,193.44501C25.277,207.35201,5.35,236.866,5.35,270.94699
				c0,19.32901,13.306,50.17599,39.547,91.686c19.021,30.08801,37.726,54.57199,38.513,55.60001
				c1.892,2.47101,4.827,3.91901,7.939,3.91901s6.047-1.44901,7.939-3.91901c0.383-0.5,5.004-6.54999,11.831-16.08099
				c17.369,16.45001,37.22401,29.65701,59.17899,39.319C196.731,453.10199,224.89301,459,254,459
				c37.754,0,74.383-10.117,106.53-29.32599c3.00101,5.08499,6.22,10.35101,9.66901,15.80701
				c19.021,30.08801,37.72601,54.57199,38.513,55.60001c1.892,2.47101,4.827,3.91901,7.939,3.91901s6.047-1.44901,7.939-3.91901
				c0.78699-1.02802,19.492-25.51099,38.513-55.60001c26.241-41.51001,39.547-72.35699,39.547-91.686
				C502.64999,322.19299,485.504,294.53601,460.03799,279.58899z M254.297,23c36.392,0,65.99899,29.607,65.99899,65.999
				c0,28.12-42.186,91.81301-65.99899,124.47601c-23.813-32.66299-65.99899-96.356-65.99899-124.476
				C188.298,52.607,217.905,23,254.297,23z M91.349,395.422C67.536,362.759,25.35,299.06601,25.35,270.94699
				c0-36.392,29.607-65.99899,65.999-65.99899s65.99899,29.60699,65.99899,65.99899
				C157.34801,299.06601,115.162,362.759,91.349,395.422z M416.651,478.271
				c-23.81299-32.66299-65.99899-96.35602-65.99899-124.47601c0-36.392,29.60699-65.99899,65.99899-65.99899
				s65.99899,29.60699,65.99899,65.99899C482.64999,381.91501,440.46399,445.60699,416.651,478.271z"/>
			<path class="st1" d="M416.651,301.07401c-29.07098,0-52.72101,23.64999-52.72101,52.72101s23.64999,52.72101,52.72101,52.72101
				c29.07098,0,52.72101-23.64999,52.72101-52.72101S445.72198,301.07401,416.651,301.07401z M416.651,386.51599
				c-18.04199,0-32.72101-14.67899-32.72101-32.72101c0-18.04199,14.67899-32.72101,32.72101-32.72101
				c18.04199,0,32.72101,14.67899,32.72101,32.72101S434.69299,386.51599,416.651,386.51599z"/>
		</g>
	</g>
</g>
</svg>
