<?xml version="1.0" encoding="utf-8"?>
<!-- Generator: Adobe Illustrator 21.0.2, SVG Export Plug-In . SVG Version: 6.00 Build 0)  -->
<svg version="1.1" id="Capa_1" xmlns="http://www.w3.org/2000/svg" xmlns:xlink="http://www.w3.org/1999/xlink" x="0px" y="0px"
	 viewBox="0 0 337.741 337.741" style="enable-background:new 0 0 337.741 337.741;" xml:space="preserve">
<style type="text/css">
	.st0{fill:#2E3192;}
	.st1{fill:#FFFFFF;}
	.st2{fill:#FF931E;}
</style>
<g>
	<path class="st0" d="M302.93304,3.49997H31.30908c-3.63135,0-6.65796,2.58014-7.3504,6.00641
		c-0.10068,0.49558-0.15152,1.00995-0.1507,1.5152l0.375,271.24042c0.00702,4.13696,3.362,7.48798,7.5,7.48798h105.26904
		l25.22198,40.92603c1.367,2.21796,3.78497,3.565,6.38501,3.565c0.04297,0,0.086,0,0.12897-0.00104
		c2.64801-0.04596,5.07599-1.48499,6.388-3.78601l23.19226-40.70398h104.66473c4.14301,0,7.5-3.35797,7.5-7.5v-271.25
		C310.43304,6.858,307.07599,3.49997,302.93304,3.49997z"/>
</g>
<g>
	<path class="st1" d="M168.84943,169.02773c0,5.8345-1.20398,11.43753-3.56558,16.67006
		c-2.40797,5.27856-5.88086,9.90909-10.32597,13.84521c-4.44539,3.8895-9.90936,7.03819-16.34587,9.26103
		c-6.39012,2.26892-13.75251,3.42654-21.85593,3.42654c-6.48282,0-12.27097-0.64832-17.13296-1.99107
		c-4.86201-1.25032-9.21469-2.87091-13.01177-4.72322c-3.75072-1.89836-7.08483-3.84343-9.8167-5.88084
		c-2.63945-1.99107-5.04741-3.70438-7.13118-5.04713l-0.97223-0.60197l11.80779-19.81876l1.06493,0.78737
		c7.13119,5.69545,13.84521,9.6313,20.0039,11.66873c6.15869,2.08377,11.25211,3.10263,15.18825,3.10263
		c3.61166,0,7.22362-0.46324,10.74258-1.34303c3.51924-0.87979,6.71429-2.22256,9.58522-3.93585
		c2.82486-1.71329,5.09377-3.84343,6.76065-6.43646c1.66693-2.5004,2.5004-5.46397,2.5004-8.79781
		c0-3.65829-0.92587-6.66794-2.68552-8.89079c-1.89865-2.3616-4.35268-4.35268-7.40903-5.92691
		c-3.1487-1.62086-6.76038-2.96359-10.78892-3.98219c-4.16756-1.01888-8.33517-2.1765-12.64152-3.33412
		c-4.25998-1.15764-8.52001-2.59311-12.68758-4.21364c-4.21363-1.62086-8.05706-3.84343-11.34482-6.57553
		c-3.33383-2.73186-6.01963-6.20476-8.05705-10.37231c-2.03743-4.16728-3.10236-9.35345-3.10236-15.41973
		c0-7.22361,1.57423-13.38197,4.63052-18.29031c3.00965-4.86228,6.71429-8.79809,10.88162-11.66901
		c4.16756-2.82456,8.47395-4.862,12.82663-6.06598c4.35268-1.20398,8.01071-1.80595,10.78922-1.80595
		c5.00077,0,9.53887,0.46324,13.42831,1.38911c3.84343,0.92615,7.22362,1.99135,10.00208,3.10263
		c3.24113,1.38911,6.11234,2.82457,8.47366,4.30634l0.97249,0.60196l-11.52995,19.63336l-1.01886-0.60196
		c-1.7596-1.06493-3.75073-2.03744-5.92691-2.87093c-1.80595-0.69468-3.9822-1.43546-6.43648-2.08379
		c-2.45403-0.64832-5.13983-0.9725-7.96436-0.9725c-3.00993,0-5.60301,0.50959-7.64045,1.52817
		c-2.08377,1.06493-3.79708,2.31526-5.09348,3.84343c-1.34303,1.48181-2.31526,3.10236-2.91724,4.862
		c-0.64832,1.80595-0.9725,3.42654-0.9725,4.90835c0,4.30634,1.48182,7.45505,4.58418,9.49252
		c3.2414,2.22284,7.40902,4.02854,12.40974,5.41789c5.04741,1.38911,10.60406,2.77822,16.48465,4.16727
		c5.97356,1.34303,11.62265,3.4729,16.80879,6.29747c5.27885,2.8712,9.67793,6.8997,13.15082,12.03954
		C167.08983,152.91362,168.84943,160.09088,168.84943,169.02773z"/>
	<path class="st2" d="M265.54971,187.22395v25.00662h-81.31445V77.29658h31.30122v109.92735
		C215.53648,187.22392,265.54971,187.22392,265.54971,187.22395z"/>
</g>
</svg>
