<svg id="Capa_1" width="50px" height="58px" data-name="Capa 1" xmlns="http://www.w3.org/2000/svg" viewBox="0 0 50.4 58.2"><defs><style>.cls-1{fill:#2e3192}.cls-2{fill:#fff}.cls-3{fill:#ff931e}</style></defs><title>map-pin</title><path class="cls-1" d="M52.1 2.7H4.3A1.3 1.3 0 0 0 3 3.8v48a1.3 1.3 0 0 0 1.3 1.3h18.6l4.4 7.2a1.3 1.3 0 0 0 1.1.6 1.3 1.3 0 0 0 1.1-.7l4.1-7.2h18.5a1.3 1.3 0 0 0 1.3-1.3V4a1.3 1.3 0 0 0-1.3-1.3z" transform="translate(-3 -2.7)"/><path class="cls-2" d="M28.5 31.8a7.1 7.1 0 0 1-.6 2.9 7.3 7.3 0 0 1-1.8 2.4 8.6 8.6 0 0 1-2.9 1.6 11.5 11.5 0 0 1-3.8.6 11.5 11.5 0 0 1-3-.4l-2.3-.8-1.7-1-1.3-.9h-.2l2.1-3.5h.2a11.8 11.8 0 0 0 3.5 2.1 8.7 8.7 0 0 0 2.7.5l1.9-.2 1.7-.7a3.6 3.6 0 0 0 1.2-1.1 2.7 2.7 0 0 0 .4-1.5 2.5 2.5 0 0 0-.5-1.6 4 4 0 0 0-1.3-1l-1.9-.7-2.2-.5-2.2-.7a7.1 7.1 0 0 1-2-1.2 5.4 5.4 0 0 1-1.5-1.8 6.2 6.2 0 0 1-.5-2.7 6 6 0 0 1 .8-3.2 6.8 6.8 0 0 1 1.9-2.1 7.7 7.7 0 0 1 2.3-1.1l1.9-.3 2.4.2 1.8.5 1.5.8h.2l-2 3.5h-.2l-1-.5-1.3-.4-1.4-.2a3 3 0 0 0-1.3.3l-.9.7a2.4 2.4 0 0 0-.5.9 2.6 2.6 0 0 0-.2.9 1.8 1.8 0 0 0 .8 1.7 7.3 7.3 0 0 0 2.2 1l2.9.7a11.4 11.4 0 0 1 3 1.1 6.5 6.5 0 0 1 2.3 2.1 6.6 6.6 0 0 1 .8 3.6z" transform="translate(-3 -2.7)"/><path class="cls-3" d="M45.5 35v4.4H31.2V15.7h5.5V35z" transform="translate(-3 -2.7)"/></svg>