<?xml version="1.0" encoding="utf-8"?>
<!-- Generator: Adobe Illustrator 21.0.2, SVG Export Plug-In . SVG Version: 6.00 Build 0)  -->
<svg version="1.1" id="Capa_1" xmlns="http://www.w3.org/2000/svg" xmlns:xlink="http://www.w3.org/1999/xlink" x="0px" y="0px"
	 viewBox="0 0 508 508" style="enable-background:new 0 0 508 508;" xml:space="preserve">
<style type="text/css">
	.st0{fill:#2E3192;}
	.st1{fill:#FF931E;}
</style>
<g>
	<g>
		<path class="st0" d="M396.54999,306.20001l35.39999-27.89999l-0.20001-45.10001l19.70001-40.60001L431.84998,152l0.20001-45.1
			l-35.39999-28L377.25,38.2l-44-9.9L298.04999,0l-44,10.3L210.14999,0l-35.2,28.3l-44,9.9l-19.4,40.7l-35.5,28l0.2,45.10001
			l-19.7,40.60001l19.7,40.60001l-0.2,45.10001l35.4,28l14.2,29.89999L68.14999,459.5L136.25,449.10001L172.05,508
			l59.59999-127.89999l22.3-5.20001L271.54999,379L331.75,508l35.79999-58.89999L435.64999,459.5l-55.5-119L396.54999,306.20001z
			 M170.14999,473.29999l-25.60001-42.10001l-48.6,7.39999l41.99999-90.20001l37,8.29999l35.2,28.29999L170.14999,473.29999z
			 M254.05,358l-39.90001,9.39999L182.25,341.69998l-40-9l-17.6-37l-32.2-25.39999l0.2-41l-17.9-36.8l17.9-36.90001l-0.2-41
			l32.2-25.4l17.60001-37l40-9l31.89999-25.7l39.89999,9.3l39.89999-9.3l31.89999,25.7l40,9l17.60001,37l32.20001,25.4l-0.20001,41
			l17.89999,36.8l-17.89999,36.8l0.20001,41l-32.20001,25.39999l-17.60001,37l-40,9l-31.89999,25.70001L254.05,358z
			 M407.85001,438.70001L359.25,431.30002l-25.60001,42l-41.79999-89.60001l6.10001,1.39999l35.20001-28.29999l33.10001-7.39999
			L407.85001,438.70001z"/>
	</g>
</g>
<g>
	<g>
		<path class="st1" d="M254.05,50.9c-78.09999,0-141.7,63.6-141.7,141.70001s63.60001,141.69998,141.7,141.69998
			c78.09999-0.10001,141.7-63.60001,141.7-141.7S332.14999,50.9,254.05,50.9z M254.05,317.89999
			c-69.09999,0-125.3-56.20001-125.3-125.3s56.2-125.3,125.3-125.3s125.3,56.2,125.3,125.3S323.14999,317.89999,254.05,317.89999z"
			/>
	</g>
</g>
<g>
	<g>
		<path class="st1" d="M360.54999,158h-81.39999l-25.10001-77.4L228.94998,158h-81.39999l65.8,47.8l-25.10001,77.40001l65.8-47.8
			l65.79999,47.8l-25.10001-77.39999L360.54999,158z M254.05,215.10001l-34.7,25.2l13.2-40.8l-34.7-25.2h42.8l13.2-40.8
			l13.20001,40.8h42.79999l-34.70001,25.2L288.75,240.3L254.05,215.10001z"/>
	</g>
</g>
</svg>
