<?xml version="1.0" encoding="utf-8"?>
<!-- Generator: Adobe Illustrator 21.0.2, SVG Export Plug-In . SVG Version: 6.00 Build 0)  -->
<svg version="1.1" id="Слой_1" xmlns="http://www.w3.org/2000/svg" xmlns:xlink="http://www.w3.org/1999/xlink" x="0px" y="0px"
	 viewBox="0 0 486 486" style="enable-background:new 0 0 486 486;" xml:space="preserve">
<style type="text/css">
	.st0{fill:#2E3192;}
	.st1{fill:#FFFFFF;}
	.st2{fill:#FF931E;}
</style>
<path class="st0" d="M420.39066,417.69312c-0.13593-18.28363-9.14932-29.42581-27.17624-33.72879
	c-18.55539-4.42368-37.20129-8.57559-55.66611-13.39182c-3.57819-0.93607-6.99023-3.91031-9.6626-6.7186
	c-4.42368-4.68033-7.54895-10.76483-12.39542-14.84119c-3.71405-3.11017-5.69186-7.56409-4.69543-11.45935
	c0.42279-1.61551,1.32861-3.14041,2.85352-4.42368c7.95654-6.70349,13.08987-14.90164,16.21515-24.82098
	c1.67584-5.35974,4.75589-10.04016,11.4744-11.4895c9.13431-1.9628,13.99579-8.33408,14.37323-17.84573
	c0.34723-8.53036,0.18115-17.09085,0.15094-25.65134c-0.03012-6.77905-3.06482-11.88205-8.43967-16.03398
	c-1.7363-1.34373-3.39703-4.31807-3.23099-6.38647c1.26825-15.52061,2.70248-31.05643,4.66528-46.51668
	c7.11108-55.95287-34.60446-88.32279-75.92746-85.93729c-18.81194,1.07198-37.72968,0-56.58694,0.28686
	c-6.47697,0.1057-13.1201,0.69454-19.38577,2.2798c-36.12929,9.19458-56.81345,41.70044-52.6313,82.08736
	c1.6306,15.74712,3.36681,31.49422,4.6804,47.27156c0.18117,2.159-1.0871,5.34464-2.76294,6.58267
	c-6.00894,4.42368-8.87758,10.05525-8.86247,17.37772c0.01512,6.03915-0.09058,12.07834-0.04533,18.11749
	c0.13593,18.70633,5.35974,24.30759,24.57945,25.62112c1.10211,14.59973,7.21675,26.01376,17.84575,35.7066
	c0.89072,0.80023,1.46445,2.58176,1.78154,4.5596l0.01511,0.01511c0.5435,3.68381-1.14745,7.79047-4.5596,10.65912
	c-4.84645,4.07635-7.95662,10.16086-12.39542,14.84119c-2.65724,2.80829-6.06929,5.78253-9.66261,6.7186
	c-18.46481,4.81622-37.09558,8.96814-55.66599,13.39182c-18.01189,4.30298-27.04042,15.44516-27.16122,33.72879
	c-0.12072,15.59607-0.18117,31.19226-0.01502,46.78842c0.15094,13.13519,7.60931,20.60861,20.68407,20.62372
	c51.01591,0.03021,102.45451,0.04532,153.47034,0.04532h0.40767c51.01582,0,102.03163-0.01511,153.04753-0.04532
	c13.07477-0.01511,20.54825-7.48853,20.68417-20.62372C420.57181,448.88538,420.49625,433.28918,420.39066,417.69312z
	 M313.3313,378.95181c-7.32245,13.96558-13.27103,28.64081-19.82358,42.99893c-1.11722,2.43073-2.41562,4.7709-3.89529,7.66968
	c-10.961-7.7905-21.27289-15.14316-32.30948-22.99411c17.51355-15.73199,34.78558-31.25269,52.10294-46.81863
	C315.94321,365.52985,317.54358,370.93484,313.3313,378.95181z M343.70828,254.68089c0.09061,7.2621,0.19629,14.52419,0,21.78627
	c-0.19626,7.73013-2.5968,9.43622-10.81006,8.48502v-37.8806C340.41696,245.65237,343.61771,248.27939,343.70828,254.68089z
	 M160.23851,284.83148c-7.95663,1.2984-10.53841-0.58884-10.70447-8.81723c-0.15094-7.00546,0.01511-14.0108,0.04524-21.00116
	c0.03023-6.28078,2.98946-9.13422,10.65923-8.12268V284.83148z M161.41609,230.31284
	c-1.87213-19.77823-4.71054-39.52632-5.22391-59.33478c-0.90584-34.54404,25.06259-60.1199,59.62173-60.24062
	c20.38219-0.06045,40.76436-0.1057,61.13145,0c35.20834,0.18117,60.90491,25.39471,60.1199,60.52749
	c-0.4379,19.80846-3.38202,39.55655-5.25415,59.31976c-0.10568,1.13234-0.73978,2.20424-1.11722,3.29134
	c-0.49826,0.07547-1.01154,0.15094-1.5249,0.2113c-0.81528-3.2309-1.70609-6.44675-2.43076-9.70796
	c-3.07996-13.72394-6.11462-27.4631-9.13422-41.20216c-1.28339-5.82777-4.5596-8.63597-10.29678-5.76741
	c-36.23502,18.11749-75.41411,22.42046-115.00079,23.74898c-11.12715,0.37746-17.09085,3.74435-19.94438,14.41858
	c-1.7363,6.52232-5.13332,12.62184-9.58713,18.60065C162.30692,232.89462,161.5369,231.62645,161.41609,230.31284z
	 M174.24931,297.04562c-0.19627-6.53732,0.19629-13.21066-0.99641-19.56683c-4.0312-21.51451,1.90225-40.97575,11.70088-59.59151
	c1.1927-2.24957,5.38988-4.00089,8.27364-4.1217c29.19931-1.28337,58.08162-4.65018,86.2695-12.56146
	c8.90771-2.50623,17.55887-5.91837,27.58383-9.34561c3.14038,14.16185,4.66528,28.67091,9.66269,41.86649
	c8.10757,21.3938,1.20782,42.62148,2.05328,63.84914c0.07547,1.85699-2.21933,4.40857-4.07645,5.6315
	c-12.33496,8.10754-26.31564,10.87051-40.79449,11.45935c-1.57025,0.07547-3.54807-1.37396-4.7861-2.65726
	c-6.29581-6.5072-16.39632-8.99838-24.79076-5.66171c-5.84288,2.30994-9.34561,6.61288-9.93445,13.0144
	c-0.60387,6.34113,1.82687,11.32343,7.14137,14.76569c7.68478,4.96729,20.7294,3.11017,27.10077-3.53284
	c1.44934-1.5098,3.36682-3.15552,5.28427-3.48764c11.29321-1.99292,22.63177-3.62354,35.75186-5.64658
	c-13.13522,9.2399-24.09631,21.09174-37.48816,25.36447c-20.89555,6.68835-43.48196,8.87756-63.09415-6.70349
	c-6.68846-5.31448-13.64857-10.28168-20.5181-15.36966C179.27695,317.85062,174.58153,308.61069,174.24931,297.04562z
	 M262.40607,320.94565c0,3.54797-4.09158,6.41663-9.14934,6.41663c-5.05786,0-9.14934-2.86865-9.14934-6.41663
	s4.09148-6.4166,9.14934-6.4166C258.31448,314.52905,262.40607,317.39767,262.40607,320.94565z M183.08156,359.80768
	c17.33247,15.56595,34.58937,31.08664,52.10292,46.81863c-11.02145,7.85095-21.33336,15.20361-32.29437,22.99411
	c-1.47966-2.89877-2.77805-5.23895-3.89528-7.66968c-6.56766-14.35812-12.51624-29.03336-19.83868-42.99893
	C174.94386,370.93484,176.54424,365.52985,183.08156,359.80768z M129.27267,472.9968c-12.6974,0-24.97202,0.07547-37.24663-0.03024
	c-5.69185-0.04532-7.88107-3.4574-7.83582-8.84735c0.06045-9.79852,0-19.59717-0.01502-29.39569v-25.59097
	c3.4725,2.77805,5.40498,4.18216,7.18653,5.76743c8.25861,7.35266,16.09442,15.23383,24.79084,22.01276
	C127.97417,446.12244,131.91481,457.74783,129.27267,472.9968z M239.48744,472.57401H142.1059
	c0-2.41565-0.1208-4.37836,0.03014-6.32605c1.1022-15.58105-5.04265-27.71973-16.95493-37.51828
	c-8.13779-6.70346-15.80747-13.99579-23.67352-21.04648c-2.85353-2.55154-5.63149-5.16345-9.46642-8.69641
	c4.46902-1.41922,7.24698-2.49121,10.10051-3.17053c19.05356-4.5596,38.21282-8.62094,57.11544-13.72403
	c6.50719-1.75134,8.74165,0.24152,11.06679,5.70703c5.57114,13.18045,11.71591,26.10428,17.63435,39.13379
	c7.57909,16.66806,15.14316,18.47983,29.42583,7.41302c6.83929-5.29938,14.05615-10.10049,22.10336-15.83771V472.57401z
	 M246.22105,399.99832c-1.25307-1.05688-4.36324-3.69901-5.5258-4.7558c-14.55441-13.08997-29.21452-26.07413-43.51219-39.43573
	c-1.25316-1.16257-1.96271-2.914-2.5968-4.75589c-0.24162-1.70609-0.13593-3.72922-0.83046-5.96368
	c35.84244,24.70016,69.85809,24.74548,105.60992,1.7514c-0.45291,1.04175-0.80014,2.18912-1.17758,3.32147
	c-0.69455,2.15909-1.41922,4.28784-2.86865,5.6467c-14.29767,13.3616-28.9729,26.34576-43.5273,39.43573
	C250.44855,396.46545,246.88536,399.4548,246.22105,399.99832z M350.38153,472.57401H253v-54.06564
	c8.04721,5.73721,15.27917,10.53833,22.11847,15.83771c14.28268,11.0668,21.83163,9.25504,29.41071-7.41302
	c5.93356-13.02951,12.07834-25.95334,17.64948-39.13379c2.31003-5.46552,4.54449-7.45837,11.0668-5.70703
	c18.88751,5.10309,38.06186,9.16443,57.10031,13.72403c2.86865,0.67932,5.6315,1.75131,10.10052,3.17053
	c-3.81982,3.53296-6.61292,6.14487-9.46643,8.69641c-7.85092,7.05069-15.53574,14.34302-23.67352,21.04648
	c-11.89716,9.79855-18.05713,21.93723-16.93982,37.51828C350.50235,468.19565,350.38153,470.15836,350.38153,472.57401z
	 M408.31232,434.72351c0,9.79852-0.07556,19.59717,0,29.39569c0.03015,5.38995-2.15909,8.80203-7.85092,8.84735
	c-12.25949,0.10571-24.53412,0.03024-37.23151,0.03024c-2.65726-15.24896,1.28339-26.87436,13.12009-36.08408
	c8.69641-6.77893,16.53223-14.6601,24.79083-22.01276c1.78156-1.58527,3.71402-2.98938,7.17151-5.76743
	C408.31232,418.90094,408.32733,426.81223,408.31232,434.72351z"/>
<circle class="st1" cx="130.96257" cy="94.5" r="86.66666"/>
<path class="st2" d="M131.36459,189.8571c-51.84912,0-94.03125-42.18262-94.03125-94.03126
	c0-51.84912,42.18213-94.03125,94.03125-94.03125c51.84863,0,94.03125,42.18213,94.03125,94.03125
	C225.39584,147.67448,183.21323,189.8571,131.36459,189.8571z M131.36459,19.7946c-41.92383,0-76.03125,34.10742-76.03125,76.03125
	s34.10743,76.03126,76.03125,76.03126s76.03125-34.10742,76.03125-76.03126S173.28842,19.7946,131.36459,19.7946z"/>
<g>
	<path class="st2" d="M78.24609,130.27539v-7.37012c4.83984-4.69189,9.22168-9.02002,13.14551-12.97998
		c3.92188-3.95996,7.25977-7.62598,10.00977-11c2.75-3.37207,4.85742-6.52588,6.3252-9.45996
		c1.46582-2.93213,2.2002-5.71973,2.2002-8.35986c0-3.74023-0.99023-6.69141-2.9707-8.85498
		c-1.97949-2.16211-4.83984-3.24512-8.58008-3.24512c-2.71387,0-5.18848,0.77002-7.4248,2.31006
		c-2.2373,1.54004-4.30859,3.37402-6.21484,5.5l-7.04004-7.04004c3.22656-3.44629,6.54492-6.10498,9.95508-7.9751
		s7.53516-2.80469,12.375-2.80469c3.37207,0,6.41602,0.51367,9.12988,1.53955c2.71191,1.02783,5.02246,2.4751,6.92969,4.34521
		c1.90625,1.87012,3.3916,4.125,4.45508,6.76514c1.0625,2.63965,1.5957,5.57373,1.5957,8.7998
		c0,3.08008-0.67969,6.21484-2.03516,9.40527c-1.3584,3.18994-3.19043,6.41748-5.5,9.67969
		c-2.31055,3.26416-5.00488,6.61914-8.08496,10.06494c-3.08008,3.44775-6.34375,7.00391-9.79004,10.67041
		c1.83203-0.14648,3.8125-0.31152,5.93945-0.49512c2.12695-0.18213,4.03223-0.2749,5.7207-0.2749h17.16016v10.77979H78.24609z"/>
	<path class="st2" d="M163.38477,130.27539v-18.04004h-30.90918v-8.58008l27.71973-43.33984h15.06934v42.12988h8.80078v9.79004
		h-8.80078v18.04004H163.38477z M145.01465,102.44531h18.37012V86.60547c0-2.05225,0.05566-4.47217,0.16504-7.26025
		c0.11035-2.78613,0.2373-5.20605,0.38574-7.25977h-0.44043c-0.87988,1.83398-1.79785,3.62988-2.75,5.39014
		c-0.9541,1.75977-1.94434,3.59375-2.96973,5.5L145.01465,102.44531z"/>
</g>
</svg>
