<?xml version="1.0" encoding="utf-8"?>
<!-- Generator: Adobe Illustrator 21.0.2, SVG Export Plug-In . SVG Version: 6.00 Build 0)  -->
<svg version="1.1" id="Capa_1" xmlns="http://www.w3.org/2000/svg" xmlns:xlink="http://www.w3.org/1999/xlink" x="0px" y="0px"
	 viewBox="0 0 453.97 453.97" style="enable-background:new 0 0 453.97 453.97;" xml:space="preserve">
<style type="text/css">
	.st0{fill:#FF931E;}
	.st1{fill:#2E3192;}
</style>
<g>
	<path class="st0" d="M159.283,233.991c7.49899,7.49899,17.351,11.24899,27.201,11.24899s19.701-3.75,27.2-11.24899
		c7.267-7.26601,11.269-16.92599,11.269-27.201c0-10.27499-4.002-19.936-11.26801-27.201
		c-7.26601-7.26601-16.92599-11.26801-27.201-11.26801s-19.936,4.00101-27.202,11.26801
		C144.284,194.586,144.284,218.991,159.283,233.991L159.283,233.991z M169.88901,190.194
		c4.43401-4.433,10.327-6.87399,16.59601-6.87399s12.161,2.44099,16.595,6.875c4.433,4.43201,6.87399,10.326,6.87399,16.59399
		s-2.44099,12.162-6.875,16.595c-9.14799,9.149-24.037,9.14999-33.189,0h0.00101C160.739,214.233,160.739,199.345,169.88901,190.194
		z"/>
	<path class="st0" d="M163.556,301.19501c-14.998,14.99899-14.998,39.40399,0,54.40298c7.5,7.5,17.351,11.24899,27.201,11.24899
		c9.85201,0,19.702-3.75,27.202-11.24899c14.998-14.99899,14.998-39.40399,0-54.40302
		C202.95801,286.19501,178.55501,286.19699,163.556,301.19501z M207.35201,344.991c-9.149,9.14899-24.037,9.151-33.188,0
		c-9.14999-9.14999-9.14999-24.04001,0-33.19c9.14799-9.14999,24.03799-9.151,33.188,0
		C216.502,320.95099,216.502,335.841,207.35201,344.991z"/>
	<path class="st0" d="M251.03,227.13901l-131.666,67.56c-3.686,1.89099-5.14,6.41199-3.249,10.09698
		c1.329,2.59,3.955,4.078,6.679,4.078c1.152,0,2.322-0.267,3.418-0.82901l131.66599-67.56
		c3.686-1.89101,5.14001-6.412,3.24899-10.097C259.23602,226.703,254.716,225.24901,251.03,227.13901z"/>
	<path class="st1" d="M441.186,55.982c0-26.75-21.763-48.512-48.51199-48.512h-52.32401
		c-26.74899,0-48.51199,21.762-48.51199,48.512v34.124l-70.479-6.933c-9.06-0.891-17.93201,2.288-24.362,8.719L19.152,269.737
		c-8.489,8.48999-8.489,22.30499,0,30.79501l139.591,139.59c4.11301,4.11301,9.58099,6.37799,15.397,6.37799
		s11.285-2.26501,15.39799-6.37799l177.84502-177.84399c6.431-6.43201,9.608-15.311,8.71799-24.362l-8.66501-88.08899
		l59.54199-59.541C436.14001,81.123,441.186,68.94,441.186,55.982z M356.776,251.67101L178.931,429.51501
		c-1.27901,1.28-2.981,1.98499-4.791,1.98499s-3.511-0.70499-4.78999-1.98401l0,0l-139.591-139.59
		c-2.642-2.642-2.642-6.94101,0-9.58301L207.604,102.499c2.884-2.885,6.745-4.471,10.77499-4.471c0.502,0,1.006,0.025,1.511,0.074
		l71.94798,7.077v22.743c-5.91599,1.37399-11.34799,4.36499-15.74899,8.767c-6.20999,6.21001-9.63,14.466-9.63,23.24899
		s3.42001,17.039,9.63,23.248c6.20999,6.21001,14.466,9.63,23.24899,9.63c8.78201,0,17.03799-3.42,23.24799-9.63h-0.00101
		c6.211-6.209,9.63101-14.466,9.63101-23.248s-3.42001-17.039-9.63-23.24899c-4.401-4.401-9.83301-7.392-15.74799-8.766v-21.269
		l29.21301,2.873c7.22601,0.711,12.98499,6.471,13.69601,13.696L361.173,239.384
		C361.62201,243.94901,360.01901,248.42799,356.776,251.67101z M292.99899,143.229
		c3.052,11.17799,11.86801,19.994,23.04599,23.04601c-0.88501,2.336-2.24701,4.48399-4.065,6.30299c-0.00101,0-0.00101,0-0.00101,0
		c-3.37601,3.377-7.86499,5.237-12.64099,5.237s-9.26599-1.86-12.64301-5.237c-3.37601-3.377-5.23599-7.866-5.23599-12.642
		s1.85999-9.265,5.237-12.642C288.51501,145.476,290.664,144.114,292.99899,143.229z M416.37,79.679l-50.83401,50.83299
		l-0.86099-8.758c-1.409-14.326-12.82999-25.746-27.155-27.155l-30.68201-3.018V55.982
		c0.00003-18.479,15.03302-33.512,33.51202-33.512h52.32401c18.479,0,33.51199,15.033,33.51199,33.512
		C426.186,64.93401,422.70001,73.35,416.37,79.679z"/>
</g>
</svg>
