<?xml version="1.0" encoding="utf-8"?>
<!-- Generator: Adobe Illustrator 21.0.2, SVG Export Plug-In . SVG Version: 6.00 Build 0)  -->
<svg version="1.1" id="Capa_1" xmlns="http://www.w3.org/2000/svg" xmlns:xlink="http://www.w3.org/1999/xlink" x="0px" y="0px"
	 viewBox="0 0 512 512" style="enable-background:new 0 0 512 512;" xml:space="preserve">
<style type="text/css">
	.st0{fill:#2E3192;}
	.st1{fill:#FF931E;}
</style>
<g>
	<g>
		<path class="st0" d="M492.44403,271.82996l-20.97205-6.71796c-2.68597-0.86102-4.80298-3.005-5.66199-5.73602
			c-4.41998-14.05298-11.08997-27.24597-19.82501-39.21399c-3.98096-5.45502-8.40796-10.664-13.24396-15.62299
			c3.09399-13.573,4.776-28.93402,4.55798-42.20502c-0.31201-18.98499-4.10596-30.12-11.59796-34.04401
			c-4.03503-2.11597-16.315-8.54395-82.78204,21.88202c-1.57397,0.72003-3.04401,1.60699-4.40497,2.62299
			c-4.48102-1.20398-12.66113-3.14011-17.2691-4.14011c-0.00592-0.00128-0.01215-0.00244-0.01807-0.00372
			c-3.22192,4.0722-6.24316,8.27832-7.47559,13.67688c1.45166,0.29114,6.50696,1.40231,7.93372,1.71201
			c2.67603,0.58099,5.34003,1.20502,7.98004,1.85999c-0.08301,0.32404-0.16803,0.64703-0.237,0.97601
			c-3.63403,17.245-3.39801,32.49701,0.70099,45.33002c3.68396,11.53497,10.33301,20.88,19.76001,27.77698
			C361,248.11102,374.414,251.62201,386.565,251.62201c9.14502,0,17.57599-1.98999,23.76801-5.49695
			c7.00403-3.96704,12.87201-12.32605,17.51703-24.87604c2.14697,2.50604,4.18201,5.073,6.09998,7.70105
			c7.77704,10.65399,13.71399,22.396,17.646,34.89795c2.30902,7.34302,8.04102,13.12103,15.33203,15.45801l20.97198,6.71802
			c5.50299,1.763,9.20001,6.828,9.20001,12.60596v34.77502c0,5.77802-3.69696,10.84296-9.20001,12.60596l-33.789,10.823
			c-5.40601,1.73303-9.98096,5.448-12.88196,10.46204c-13.27502,22.94196-34.146,41.927-62.03699,56.42798
			c-3.22198,1.677-5.45404,4.67603-6.12604,8.23004l-10.82196,57.30298c-0.29901,1.57904-1.68201,2.724-3.289,2.724h-35.18701
			c-1.60699,0-2.98999-1.146-3.289-2.724l-5.99402-31.66901c-1.17999-6.23096-7.02399-10.37-13.31396-9.41699
			c-15.15704,2.29199-30.77502,3.453-46.41803,3.453c-11.638,0-23.12701-0.64899-34.14996-1.92999
			c-6.09503-0.70099-11.77301,3.45404-12.91205,9.47205l-5.69598,30.091c-0.29901,1.57898-1.68201,2.724-3.289,2.724h-35.18701
			c-1.60699,0-2.98999-1.146-3.29297-2.74799l-10.41998-54.12201c-0.67102-3.487-2.86102-6.45203-6.01202-8.13501
			C96.25,401.59497,71.12,359.19098,71.12,304.35101c0-27.70801,6.06201-52.20898,18.01703-72.82501
			c11.15601-19.23901,27.45001-35.146,48.42902-47.28101c3.56195-2.06097,4.77899-6.61896,2.71899-10.18201
			c-2.06-3.56195-6.61804-4.77698-10.18103-2.71899c-40.67902,23.53198-65.21399,59.836-71.96899,105.94598V277.289
			c-0.71698-0.065-1.435-0.12701-2.15002-0.20099c0.13-4.97504-0.76996-9.995-2.72998-14.867
			c-4.323-10.74603-13.203-18.50201-22.62402-19.75903c-7.42401-0.99396-14.48901,2.15802-19.39197,8.63605
			C4.13,260.492,5.289,267.92596,7.51202,272.508c3.75299,7.73297,13.39996,13.203,29.409,16.64197
			c-0.44,0.659-0.92401,1.32104-1.45404,1.98602c-9.45898,11.86298-20.60297,14.48596-27.83899,14.73297
			C3.39203,306.01196,0,309.41296,0,313.65198v0.03601c0,4.18103,3.29901,7.591,7.47601,7.78204
			c0.53497,0.02496,1.09399,0.03796,1.67596,0.03796c9.15601,0,23.85101-3.37701,37.96906-21.07996
			c2.22894-2.79401,4.04498-5.742,5.44098-8.78802c1.40601,0.159,2.75702,0.29504,4.05096,0.41504c0-0.00299,0-0.005,0.00104-0.008
			c-0.25403,4.03796-0.39502,8.13501-0.39502,12.30396c0,31.02802,7.39703,58.69299,21.98401,82.23004
			c13.45001,21.70001,32.70703,39.46796,57.255,52.83002l10.13,52.61597c1.62903,8.60803,9.16998,14.85602,17.93103,14.85602
			h35.18695c8.76105,0,16.302-6.24799,17.93103-14.85602l5.14996-27.20801c10.69604,1.133,21.77002,1.70703,32.96503,1.70703
			c15.35999,0,30.70203-1.07001,45.65399-3.18201l5.42902,28.685c1.63,8.60797,9.17096,14.85498,17.93097,14.85498H358.953
			c8.76099,0,16.302-6.24799,17.93201-14.85901l10.53699-55.79095c29.76801-15.74103,52.20599-36.41901,66.70404-61.47504
			c1.04498-1.80597,2.65399-3.13098,4.52997-3.73199l33.78802-10.823C504.14099,356.45496,512,345.68597,512,333.40302v-34.77502
			C512,286.34601,504.14099,275.57697,492.44403,271.82996z M421.27802,183.27301
			c-2.86798,24.526-10.56097,45.50598-18.29102,49.88397c-8.78601,4.97699-29.07098,5.93799-44.30096-5.203
			c-15.24799-11.15399-20.323-31.21198-14.67804-58.00598c0-0.00104,0-0.00104,0-0.00104
			c0.56702-2.69098,2.479-5.01898,5.11401-6.22498c37.30402-17.07599,58.81104-22.66101,66.80103-22.66101
			c1.20599,0,2.104,0.12701,2.70197,0.36102C421.02502,143.97998,424.17303,158.521,421.27802,183.27301z M20.92102,266.00098
			c-0.771-1.58997,1.04895-4.38501,2.203-5.91101c1.82898-2.41595,3.51398-2.90997,4.78699-2.90997
			c0.26898,0,0.52002,0.02197,0.75,0.05298c3.42596,0.45703,8.22601,4.22699,10.76898,10.54803
			c0.599,1.48798,1.37701,3.953,1.55902,7.02698C30.67401,272.67096,22.65997,269.58997,20.92102,266.00098z"/>
	</g>
</g>
<g>
	<g>
		<path class="st1" d="M321.54999,61.08301c-4.86298-9.659-11.23999-18.466-18.953-26.17999
			c-19.20898-19.20898-44.74896-29.78796-71.914-29.78796c-27.16498,0-52.70502,10.57898-71.914,29.78796
			c-19.20898,19.21002-29.78796,44.74902-29.78796,71.914s10.57898,52.70502,29.78796,71.914
			c5.54102,5.54102,11.56903,10.30603,17.94501,14.29803c0.00201,0,0.00403-0.00104,0.00598-0.00104
			C174.77393,193.53375,191.5993,199.47559,199,193c1.70697-1.138,2.30756-4.8421,1.69403-4.75598
			c-11.45801-4.20001-22.20703-10.86902-31.388-20.04999c-16.39398-16.39398-25.42303-38.19104-25.42303-61.37598
			c0-23.18604,9.02905-44.98199,25.42303-61.37604c16.39398-16.39496,38.19202-25.42401,61.37598-25.42401
			c23.18402,0,44.98199,9.02905,61.37604,25.42401c6.58801,6.58801,12.03198,14.10602,16.18097,22.34302
			c1.85101,3.67603,6.33203,5.15601,10.00702,3.30402C321.922,69.23901,323.401,64.75806,321.54999,61.08301z"/>
		<path class="st1" d="M323.159,149.13104c5.38599-11.76605,8.53101-24.54504,9.12201-37.737
			c0.18402-4.112-2.99896-7.59399-7.11096-7.77704c-4.10101-0.20398-7.59399,2.99805-7.77704,7.11005
			c-0.97101,21.69098-9.96899,42.09998-25.33496,57.46698c-9.18103,9.18097-19.93103,15.84998-31.388,20.04999
			c-1.69507-0.23785,4.07996,2.13098,13.14246,5.50598c-4.1875-1.6875,12.52838-0.28192,10.8335-0.72198
			c0.00201,0,0.00403,0.00104,0.00604,0.00104c6.37701-3.992,12.40399-8.75702,17.94501-14.29803
			c4.90198-4.90198,9.229-10.255,12.98596-15.94397C316.85739,161.01764,322.53577,150.43742,323.159,149.13104z"/>
	</g>
</g>
<path class="st0" d="M260.67004,188.24402c-19.86902-2.78796-40.10699-2.78796-59.97601,0
	c-8.43251,1.07246-18.77736,3.17265-23.98004,4.78503c0.00201,0,0.00403-0.00104,0.00598-0.00104
	c-4.633,1.20398-9.23096,2.55603-13.77795,4.07599c-3.90302,1.30499-6.00903,5.526-4.70404,9.42999
	c1.30402,3.90302,5.52704,6.00903,9.42902,4.70502c40.63599-13.58502,85.396-13.58502,126.03198,0
	c0.784,0.26202,1.58002,0.38599,2.36304,0.38599c3.117,0,6.02301-1.97198,7.06598-5.091
	c1.30499-3.90295-0.80096-8.125-4.70398-9.42999c-4.547-1.51996-9.14502-2.87299-13.77802-4.07599
	c0.00201,0,0.00403,0.00104,0.00604,0.00104C273.66666,190.25,262.16666,188.5,260.67004,188.24402z"/>
<g>
	<g>
		<path class="st0" d="M422.50299,270.61301c-4.11499,0-7.45099,3.336-7.45099,7.45099c0,5.21701-4.24399,9.461-9.461,9.461
			c-5.216,0-9.461-4.24399-9.461-9.461c0-4.116-3.336-7.45099-7.45099-7.45099s-7.45099,3.336-7.45099,7.45099
			c0,13.43399,10.92999,24.36301,24.36301,24.36301s24.36301-10.92999,24.36301-24.36301
			C429.95401,273.94699,426.61801,270.61301,422.50299,270.61301z"/>
	</g>
</g>
<g>
	<g>
		<path class="st1" d="M194.62538,136.51433h13.97791v11.98242c0,0.58301,0.18652,1.06026,0.56181,1.4333
			c0.37425,0.37546,0.85271,0.56319,1.43555,0.56319h10.42029c0.5408,0,1.00876-0.18773,1.40402-0.56319
			c0.39528-0.37305,0.5923-0.85048,0.5923-1.4333v-11.98242h31.51202c0.58162,0,1.06026-0.18532,1.43536-0.56079
			c0.37547-0.37512,0.56181-0.85271,0.56181-1.43571v-7.98754c0-0.57955-0.18634-1.06025-0.56181-1.4333
			c-0.37408-0.37547-0.85374-0.56319-1.43536-0.56319h-31.51305v-7.36355h21.21606c8.3196,0,15.1098-2.53506,20.37369-7.61243
			C269.8678,104.48579,272.5,97.93397,272.5,89.90199c0-8.02664-2.6322-14.57864-7.89401-19.65582
			c-5.26288-5.0722-12.05426-7.61243-20.37369-7.61243h-33.63269c-0.58301,0-1.06042,0.18756-1.43555,0.56078
			c-0.37425,0.37529-0.56181,0.85581-0.56181,1.43555v39.25068h-13.97687c-0.58282,0-1.06042,0.1972-1.43555,0.5923
			c-0.37408,0.39526-0.56181,0.86321-0.56181,1.40385v9.29667c0,0.583,0.18652,1.06059,0.56181,1.43571
			c0.37531,0.37546,0.85168,0.56078,1.43555,0.56078h13.97791v7.36355h-13.97791c-0.58282,0-1.06042,0.18774-1.43555,0.56319
			c-0.37408,0.37305-0.56181,0.85271-0.56181,1.4333v7.98755c0,0.58299,0.18652,1.06059,0.56181,1.43571
			C193.56496,136.32899,194.04239,136.51433,194.62538,136.51433z M223.01624,75.92633h19.96808
			c4.4091,0,7.96532,1.28915,10.67021,3.8683c2.70351,2.57932,4.05586,5.95005,4.05586,10.10838
			c0,4.16041-1.35236,7.53217-4.05586,10.10839c-2.7049,2.5814-6.26128,3.87054-10.67021,3.87054h-19.96808V75.92633z"/>
	</g>
</g>
</svg>
