<?xml version="1.0" encoding="utf-8"?>
<!-- Generator: Adobe Illustrator 21.0.2, SVG Export Plug-In . SVG Version: 6.00 Build 0)  -->
<svg version="1.1" id="Layer_1" xmlns="http://www.w3.org/2000/svg" xmlns:xlink="http://www.w3.org/1999/xlink" x="0px" y="0px"
	 viewBox="0 0 512 512" style="enable-background:new 0 0 512 512;" xml:space="preserve">
<style type="text/css">
	.st0{fill:#2E3192;}
	.st1{fill:#FF931E;}
</style>
<g>
	<g>
		<g>
			<g>
				<path class="st0" d="M484.013,334.66797c-25.49298-25.492-63.013-34.35498-97.01001-23.33301l-72.55402-72.55499
					l4.00293-4.00293C309.63745,231.29193,300.95941,238.16248,299,246c-0.91656,2.74969,0.68549,4.65906,1.72949,6.4986
					l1.43854-1.4386l76.43799,76.43799c2.44202,2.44,6.09802,3.203,9.30804,1.94403
					c28.94397-11.33704,61.84399-4.46899,83.81799,17.505c18.66797,18.66595,26.43597,45.21198,21.40393,70.51996l-51.04596-51.047
					c-3.39001-3.388-8.88702-3.39001-12.27899,0l-49.11902,49.117c-1.62897,1.62903-2.54401,3.83704-2.54401,6.14001
					c0,2.30304,0.91504,4.51099,2.54303,6.14001l51.04797,51.04803c-25.30597,5.02496-51.85596-2.73901-70.51996-21.40302
					c-21.97504-21.97504-28.84705-54.87604-17.50604-83.81799c1.25903-3.21399,0.49603-6.867-1.94397-9.30804l-76.43805-76.43799
					l3.76111-3.76117C265.72809,282.74353,262.36401,282.159,259,283c-8.6344,1.91876-14.49988,12.11957-8.78162,20.00952
					l2.8316-2.8316L325.604,372.7309c-11.021,33.99603-2.159,71.51801,23.33398,97.01105
					c18.26001,18.26001,42.69299,27.987,67.58002,27.987c11.71503-0.00104,23.53302-2.15704,34.854-6.59302
					c2.72699-1.06799,4.73303-3.44098,5.33099-6.30896c0.599-2.867-0.28796-5.84302-2.35901-7.91602l-55.237-55.23596
					l36.84003-36.83704l55.23297,55.23401c2.07202,2.07104,5.05103,2.95801,7.91602,2.35901
					c2.86798-0.599,5.23999-2.604,6.30896-5.33197C519.26801,401.73401,510.87,361.526,484.013,334.66797z"/>
				<path class="st0" d="M219,261c9.51105-1.72931,10.79352-12.42639,6.44293-19.16998l-3.08795,3.08795l-72.888-72.88397
					c-2.44-2.44-6.09198-3.20099-9.30798-1.94403c-28.94,11.341-61.84302,4.47003-83.81799-17.505
					c-18.66498-18.66595-26.43402-45.21198-21.40198-70.521l51.047,51.04803c3.39294,3.39099,8.88995,3.388,12.27997,0
					l49.11798-49.11804c3.39105-3.39197,3.39105-8.888,0-12.27997L96.336,20.66699
					c25.30603-5.034,51.85303,2.73602,70.52002,21.40302c21.97498,21.97498,28.84698,54.875,17.50598,83.81799
					c-1.25903,3.21399-0.49603,6.867,1.94397,9.30798l72.88605,72.88501l-2.30286,2.3028
					c0.62726,0.61505,1.28259,1.20209,2.11084,1.61621c9,5,14-6,15-13c0-2.18036,0.52545-4.36072,0.81403-6.54108l-3.34308,3.34308
					l-69.00299-69.00098c11.02002-33.99603,2.159-71.51801-23.33398-97.01105C152.27698,2.935,112.073-5.46698,76.70099,8.396
					C73.974,9.46399,71.96802,11.83698,71.37,14.70502c-0.599,2.867,0.28802,5.84296,2.35901,7.91595l55.23602,55.23401
					l-36.83905,36.83899l-55.23499-55.237c-2.07196-2.06995-5.04498-2.95294-7.91602-2.35895
					c-2.86798,0.599-5.23999,2.604-6.30896,5.33099C8.80499,97.797,17.203,138.005,44.06,164.86401
					c25.492,25.492,63.01202,34.354,97.01001,23.33295l69.00104,69.00201l-2.0329,2.0329
					C211.72461,260.70667,215.05127,261.78973,219,261z"/>
			</g>
		</g>
		<path class="st1" d="M265.33099,287.89801L302.16803,251.06l12.28094-12.28003l85.92999-85.92999l54.65302-30.55695
			c1.52002-0.85004,2.74902-2.138,3.52899-3.69501l24.55902-49.117c1.67096-3.34302,1.01697-7.38-1.62604-10.02405
			l-30.70001-30.69995c-2.64301-2.64301-6.68298-3.297-10.02399-1.62604l-49.117,24.55804
			c-1.55701,0.77899-2.84497,2.00897-3.69501,3.52899l-30.55701,54.65399L271.47095,195.802l-12.27893,12.27899l-36.83704,36.83698
			l-12.28394,12.28101l-9.95404,9.95398l-24.55896-24.55896c-2.13-2.12701-5.20404-2.99603-8.13501-2.31104
			c-2.92798,0.69098-5.29102,2.85004-6.24298,5.70599l-11.26703,33.80402l-88.953,53.71503
			c-0.78302,0.474-1.487,1.06696-2.08502,1.76001l-45.75702,53.02399c-18.52399,21.46698-17.27795,55.245,2.77704,75.29999
			l30.76196,30.763c10.52002,10.51996,24.81604,15.84296,39.13605,15.84296c12.98999,0,26.00098-4.38196,36.22296-13.24298
			l54.06403-46.86499c0.69202-0.60004,1.28601-1.30603,1.75598-2.091l52.633-87.66699l33.79199-11.26404
			c2.854-0.95197,5.013-3.31396,5.70404-6.24298c0.69098-2.92902-0.18304-6.00702-2.31104-8.13501l-24.55798-24.55804
			l9.95398-9.95398L265.33099,287.89801z M245.44202,337.03497l-23.51001,7.836c-1.96497,0.65601-3.63098,1.992-4.698,3.76801
			l-53.57397,89.23505l-53.01904,45.95898c-14.75098,12.78998-37.94598,12.00098-51.70398-1.75903l-30.763-30.763
			c-13.763-13.763-14.62103-36.94397-1.909-51.67401l44.854-51.97699L161.63,293.00598
			c1.76703-1.06696,3.09601-2.729,3.74902-4.68799l7.836-23.51001l20.76495,20.76501l30.698,30.698L245.44202,337.03497z
			 M230.81799,297.85297l-18.41901-18.41901l158.13403-158.133c0.565-0.565,1.04797-1.20496,1.43799-1.90295l29.83997-53.37103
			l41.12799-20.56299l21.849,21.84802l-20.565,41.12897l-53.37,29.84003c-0.698,0.38995-1.33801,0.87299-1.90302,1.43799
			L230.81799,297.85297z"/>
	</g>
</g>
</svg>
