<?xml version="1.0" encoding="utf-8"?>
<!-- Generator: Adobe Illustrator 21.0.2, SVG Export Plug-In . SVG Version: 6.00 Build 0)  -->
<svg version="1.1" id="Слой_1" xmlns:sketch="http://www.bohemiancoding.com/sketch/ns"
	 xmlns="http://www.w3.org/2000/svg" xmlns:xlink="http://www.w3.org/1999/xlink" x="0px" y="0px" viewBox="0 0 586.1 586.2"
	 style="enable-background:new 0 0 586.1 586.2;" xml:space="preserve">
<title></title>
<desc></desc>
<g id="slice" transform="translate(215.000000, 119.000000)">
</g>
<g>
	<path d="M575.7,520.5L411.5,356.2c25-35.9,39.7-79.5,39.7-126.5C451.2,107.3,352,8.2,229.7,8.2S8.2,107.3,8.2,229.7
		s99.2,221.5,221.5,221.5c47,0,90.7-14.7,126.5-39.7l0,0l164.3,164.3c3,3,7.9,3.1,11,0l44.3-44.3
		C578.8,528.4,578.7,523.4,575.7,520.5z M229.7,399c-93.5,0-169.4-75.8-169.4-169.4S136.1,60.3,229.7,60.3S399,136.1,399,229.7
		S323.2,399,229.7,399z"/>
</g>
</svg>
