<?xml version="1.0" encoding="utf-8"?>
<!-- Generator: Adobe Illustrator 21.0.2, SVG Export Plug-In . SVG Version: 6.00 Build 0)  -->
<svg version="1.1" id="Слой_1" xmlns="http://www.w3.org/2000/svg" xmlns:xlink="http://www.w3.org/1999/xlink" x="0px" y="0px"
	 viewBox="0 0 470 470" style="enable-background:new 0 0 470 470;" xml:space="preserve">
<style type="text/css">
	.st0{fill:#2E3192;}
	.st1{fill:#FF931E;}
</style>
<g>
	<path class="st0" d="M78.628,91.881c4.142,0,7.5-3.358,7.5-7.5V15H383.871v69.381c0,4.142,3.358,7.5,7.5,7.5s7.5-3.358,7.5-7.5V7.5
		c0-4.142-3.358-7.5-7.5-7.5H78.62799c-4.142,0-7.5,3.358-7.5,7.5v76.881C71.12799,88.52299,74.48599,91.881,78.628,91.881z"/>
	<path class="st0" d="M398.87201,290.21799v-95.83701c0-4.142-3.358-7.5-7.5-7.5s-7.5,3.358-7.5,7.5v95.16101h-24.186V171.88098
		h61.686c4.142,0,7.5-3.358,7.5-7.5v-50c0-4.142-3.358-7.5-7.5-7.5h-61.686v-22.5c0-4.142-3.358-7.5-7.5-7.5H117.81401
		c-4.142,0-7.5,3.358-7.5,7.5v22.5h-61.686c-4.142,0-7.5,3.358-7.5,7.5v50c0,4.142,3.358,7.5,7.5,7.5h61.686v117.66101h-24.186
		v-95.16101c0-4.142-3.358-7.5-7.5-7.5s-7.5,3.358-7.5,7.5v95.83701c-19.868,3.55399-35,20.94901-35,41.82401v79.491
		c0,4.142,3.358,7.5,7.5,7.5h2.5V462.5c0,4.142,3.358,7.5,7.5,7.5h64.186c4.142,0,7.5-3.358,7.5-7.5v-20.96701
		c0-4.142-3.358-7.5-7.5-7.5s-7.5,3.358-7.5,7.5V455H61.128v-35.96701H408.871V455h-49.186v-13.46701c0-4.142-3.358-7.5-7.5-7.5
		s-7.5,3.358-7.5,7.5V462.5c0,4.142,3.358,7.5,7.5,7.5h64.186c4.142,0,7.5-3.358,7.5-7.5v-43.46701h2.5c4.142,0,7.5-3.358,7.5-7.5
		v-79.491C433.87201,311.16699,418.73999,293.772,398.87201,290.21799z M391.37201,304.54199c15.164,0,27.5,12.336,27.5,27.5v31.991
		h-59.186v-59.491H391.37201z M418.87201,404.03299H51.12802v-25h367.74301v25H418.87201z M125.315,171.881h219.371v192.15099
		H125.315v-192.151V171.881z M413.87302,156.881h-15v-35h15V156.881z M383.87302,121.881v35h-24.186v-35H383.87302z
		 M344.68701,156.881h-102.186v-65h102.186V156.881z M125.31502,91.881h102.18599v65h-102.186
		C125.31501,156.881,125.31501,91.881,125.31502,91.881z M110.31502,156.881h-24.186v-35h24.186V156.881z M56.12902,121.881h15v35
		h-15C56.12901,156.881,56.12901,121.881,56.12902,121.881z M78.62901,304.54199h31.686v59.491h-59.186v-31.991
		C51.12902,316.87799,63.46602,304.54199,78.62901,304.54199z"/>
	<path class="st1" d="M147.814,259.03299h174.371c4.142,0,7.5-3.358,7.5-7.5c0-23.435-19.065-42.5-42.5-42.5H182.814
		c-23.435,0-42.5,19.065-42.5,42.5C140.314,255.67499,143.672,259.03299,147.814,259.03299z M182.814,224.03299h104.371
		c12.565,0,23.18799,8.47,26.45999,20h-157.291C159.62599,232.50198,170.24998,224.03299,182.814,224.03299z"/>
	<path class="st1" d="M322.186,274.03299H147.81401c-4.142,0-7.5,3.358-7.5,7.5s3.358,7.5,7.5,7.5H322.185
		c4.142,0,7.5-3.358,7.5-7.5S326.328,274.03299,322.186,274.03299z"/>
	<path class="st1" d="M322.186,304.03299H147.81401c-4.142,0-7.5,3.358-7.5,7.5s3.358,7.5,7.5,7.5H322.185
		c4.142,0,7.5-3.358,7.5-7.5S326.328,304.03299,322.186,304.03299z"/>
	<path class="st1" d="M322.186,334.03299H147.81401c-4.142,0-7.5,3.358-7.5,7.5s3.358,7.5,7.5,7.5H322.185
		c4.142,0,7.5-3.358,7.5-7.5S326.328,334.03299,322.186,334.03299z"/>
</g>
</svg>
