<?xml version="1.0" encoding="utf-8"?>
<!-- Generator: Adobe Illustrator 21.0.2, SVG Export Plug-In . SVG Version: 6.00 Build 0)  -->
<svg version="1.1" id="Слой_1" xmlns="http://www.w3.org/2000/svg" xmlns:xlink="http://www.w3.org/1999/xlink" x="0px" y="0px"
	 viewBox="0 0 1124 548" style="enable-background:new 0 0 1124 548;" xml:space="preserve">
<style type="text/css">
	.st0{fill:none;}
	.st1{fill:#fff;}
</style>
<g>
	<polygon class="st0" points="460.36133,268.10565 471.63867,282.99268 471.63867,216.25 460.36133,216.25 	"/>
	<path class="st0" d="M460.69678,340.21729v10.3335h17.05518c0.55225,0,1,0.44727,1,1v6.80273c0,0.55273-0.44775,1-1,1h-1.91846
		v8.18848h7.92334v-27.32471H460.69678z"/>
	<rect x="394.71777" y="231.31055" class="st0" width="47.94873" height="4.89795"/>
	<polygon class="st0" points="926.76074,275.95801 959.27832,275.95801 959.27832,252.3335 933.61133,252.3335 926.76074,252.3335 	
		"/>
	<path class="st0" d="M936.62207,426.77051c-0.3703,0-0.76428-0.25711-0.91406-0.59375l-15.79639-35.50977h-4.61572
		l19.05176,42.75684h67.26367v-6.65332H936.62207z"/>
	<polygon class="st0" points="922.10107,390.66699 937.27197,424.77051 957.1123,424.77051 957.1123,390.66699 	"/>
	<path class="st0" d="M458.69678,350.55078v-36.04803l-52.32306-69.13165h-6.64917l51.57281,68.19238
		c0.11475,0.15164,0.20264,0.41327,0.20264,0.60352v36.38379H458.69678z"/>
	<polygon class="st0" points="475.8783,304.08496 467.62128,293.16699 445.05682,293.16699 453.32019,304.08496 	"/>
	<rect x="398.71631" y="238.229" class="st0" width="41.37988" height="5.14209"/>
	<polygon class="st0" points="459.24023,282.08496 450.79382,270.9165 428.21631,270.9165 436.66925,282.08496 	"/>
	<polygon class="st0" points="449.28131,268.9165 443.92572,261.83496 421.34283,261.83496 426.70258,268.9165 	"/>
	<polygon class="st0" points="442.41315,259.83496 431.47455,245.37109 408.88196,245.37109 419.8291,259.83496 	"/>
	<polygon class="st0" points="466.10876,291.16699 460.75281,284.08496 438.18298,284.08496 443.54309,291.16699 	"/>
	<path class="st0" d="M850.32715,282.00684c3.24121,1.55176,8.35254-2.1123,11.16699-7.99561
		c2.8291-5.91455,2.48438-12.22021-0.75391-13.77002c-0.49512-0.23682-1.04199-0.354-1.625-0.354
		c-1.18359,0-2.52148,0.48145-3.90527,1.42432c-2.22559,1.5166-4.2373,3.99658-5.66602,6.9834
		C846.72949,274.17822,847.08789,280.45801,850.32715,282.00684z"/>
	<circle class="st0" cx="811.07031" cy="249.49805" r="2.5647"/>
	<path class="st0" d="M814.48987,258.88025l4.00256-8.28278c0.00049-0.00104,0.00024-0.0022,0.00073-0.00323
		c0.00049-0.0011,0.00146-0.00165,0.00208-0.00275l3.96814-8.21173l-52.92603-5.10223L814.48987,258.88025z M811.07031,244.93311
		c2.5166,0,4.56445,2.04785,4.56445,4.56494s-2.04785,4.56494-4.56445,4.56494s-4.56445-2.04785-4.56445-4.56494
		S808.55371,244.93311,811.07031,244.93311z"/>
	<path class="st0" d="M854.08398,259.65869c0.89746-0.61078,1.79199-1.05103,2.66846-1.34698l-32.29712-15.45734l-3.72266,7.70374
		l28.79468,13.78827C850.8501,262.41986,852.40625,260.80206,854.08398,259.65869z"/>
	<path class="st0" d="M959.27832,314.99481v-7.6145l-94.5144-45.23431c0.77808,2.10028,0.88159,4.79236,0.26294,7.69788
		L959.27832,314.99481z"/>
	<path class="st0" d="M959.27832,317.2121l-94.77466-45.40161c-0.32007,1.01343-0.7146,2.03882-1.20483,3.06403
		c-1.92749,4.0285-4.71899,7.03186-7.57019,8.49731l103.54968,49.62329V317.2121z"/>
	<rect x="1003.61133" y="426.77051" class="st0" width="50.5" height="6.65332"/>
	<rect x="1003.61133" y="414.75" class="st0" width="50.5" height="10.02051"/>
	<path class="st0" d="M478.2627,215.25c0,0.55225-0.44775,1-1,1h-3.62402v69.38287l21.1582,27.9306
		c0.1149,0.15155,0.20312,0.41299,0.20312,0.60352v53.375h6.40039c0.55225,0,1,0.44727,1,1v16.625H508.5c0.55225,0,1,0.44727,1,1
		v2.5h410.06152v-14.5c0-0.55273,0.44727-1,1-1h11.5498v-11.83398c0-0.26715,0.15839-0.60278,0.36523-0.77246l26.80176-22.03278
		v-3.31531l-106.27783-50.9306c-0.34375,0.05219-0.68555,0.08826-1.02197,0.08826c-0.87695,0-1.72363-0.18066-2.51465-0.55859
		c-2.5238-1.2074-3.83203-4.12909-3.83643-7.74811l-81.86755-39.34283L478.2627,209.198V215.25z"/>
	<rect x="934.61133" y="242" class="st0" width="24.66699" height="8.3335"/>
	<polygon class="st0" points="478.2627,207.18878 925.81079,250.3335 932.61133,250.3335 932.61133,246.40839 478.2627,202.59613 	
		"/>
	<path class="st0" d="M433.98138,245.37109l51.57281,68.19238c0.11475,0.15164,0.20264,0.41327,0.20264,0.60352v53.375H493
		v-53.03961l-52.36957-69.13129H433.98138z"/>
	<polygon class="st0" points="753.44629,479 681.36426,479 681.36426,486.2959 751.97583,486.2959 753.44629,483.58008 	"/>
	<rect x="681.36426" y="471.375" class="st0" width="72.08203" height="5.625"/>
	<rect x="526.5" y="439.33301" class="st0" width="17" height="5.74902"/>
	<rect x="526.5" y="447.08203" class="st0" width="17" height="35.58496"/>
	<rect x="681.36426" y="407" class="st0" width="72.08203" height="62.375"/>
	<rect x="600.63574" y="407" class="st0" width="78.72852" height="79.2959"/>
	<path class="st0" d="M598.63574,479H545.5v4.66699c0,0.55273-0.44775,1-1,1h-17.35797l0.84161,1.62891h70.6521V479z"/>
	<polygon class="st0" points="926.59216,435.42383 922.00269,435.42383 937.13794,469.44141 941.74976,469.44141 	"/>
	<polygon class="st0" points="1072.95508,435.42383 1055.7981,435.42383 1043.6333,469.44141 1072.95508,469.44141 	"/>
	<rect x="526.5" y="407" class="st0" width="72.13574" height="22.83301"/>
	<rect x="545.5" y="471.375" class="st0" width="53.13574" height="5.625"/>
	<path class="st0" d="M526.5,437.33301h18c0.55225,0,1,0.44727,1,1v7.74902V469.375h53.13574v-37.54199H526.5V437.33301z"/>
	<polygon class="st0" points="473.8335,386.75549 451.5,374.36505 451.5,397.30603 473.8335,409.69739 	"/>
	<polygon class="st0" points="473.8335,384.46893 473.8335,359.35352 451.5,359.35352 451.5,372.07849 	"/>
	<polygon class="st0" points="448.60498,357.35352 450.5,357.35352 474.8335,357.35352 476.75195,357.35352 476.75195,352.55078 
		448.60498,352.55078 	"/>
	<polygon class="st0" points="460.69678,327.13623 483.75684,327.13623 483.75684,315.16699 466.11865,315.16699 
		460.69678,315.16699 	"/>
	<rect x="460.69678" y="329.13623" class="st0" width="23.06006" height="9.08105"/>
	<polygon class="st0" points="466.11865,313.16699 482.74677,313.16699 477.39081,306.08496 454.83392,306.08496 
		460.19403,313.16699 	"/>
	<polygon class="st0" points="455.7373,214.25 459.36133,214.25 472.63867,214.25 476.2627,214.25 476.2627,193.71826 
		455.7373,193.71826 	"/>
	<path class="st0" d="M516,407h-6.5v4.35254c0,0.55273-0.44775,1-1,1h-32.6665v17.48047H516V407z"/>
	<polygon class="st0" points="473.8335,411.98401 451.5,399.59265 451.5,421.57849 473.8335,433.96893 	"/>
	<polygon class="st0" points="473.8335,436.25549 451.5,423.86505 451.5,447.4115 473.8335,459.80286 	"/>
	<rect x="475.8335" y="369.54199" class="st0" width="24.56689" height="15.625"/>
	<polygon class="st0" points="507.5,406 507.5,389.66699 507.5,387.16699 475.8335,387.16699 475.8335,410.35254 507.5,410.35254 	
		"/>
	<polygon class="st0" points="453.7373,200.2312 383.1665,193.42615 383.1665,198.02124 453.7373,204.82446 	"/>
	<path class="st0" d="M257.33252,404.5H335.5v-2c0-0.55273,0.44775-1,1-1h4v-21h-84.875
		c-40.88232,0-50.04346,77.99023-50.13135,78.77734c-0.05353,0.48282-0.51218,0.88965-0.99365,0.88965h-48.625V464.5h51.24939
		c1.10413-3.09906,6.01868-16.37701,13.65686-29.50293C232.55762,414.76074,244.85498,404.5,257.33252,404.5z"/>
	<path class="st0" d="M138.75,311.65332V329.75v43.75h15.125v-69.25h-52.81641c-0.55225,0-1-0.44727-1-1
		c0-0.0014,0.00079-0.0025,0.00079-0.00391s-0.00079-0.0025-0.00079-0.00391V298.375h-2.85498h-6.13721H88.125v12.27832h49.625
		C138.30225,310.65332,138.75,311.10059,138.75,311.65332z"/>
	<path class="st0" d="M270.08838,417.5h62.82471v-6c0-0.55273,0.44775-1,1-1H335.5v-4h-78.16748
		c-25.75916,0-44.89087,49.2597-48.08038,58h4.58789c1.39532-2.38281,7.69476-12.83154,16.72247-23.1582
		C244.39307,425.52148,257.69141,417.5,270.08838,417.5z"/>
	<path class="st0" d="M348.27295,483.41571l5.81421,20.05402h12.91772l-5.69238-19.63379
		c-0.00089-0.00305-0.03955-0.25616-0.03955-0.27832V438h-13V483.41571z"/>
	<path class="st0" d="M284.12793,423.02148c30.37781,0,55.50165,22.85388,59.12396,52.26855"/>
	<path class="st0" d="M346.27295,475.29004v-37.76172l-13.01953-11.4248c-0.19757-0.17413-0.34033-0.48947-0.34033-0.75195V419.5
		h-62.82471"/>
	<path class="st0" d="M174.75977,326.83398h26.78027L218.5,312.67584V280.5c0.02577-0.11395,0.04613-0.22885,0.06104-0.34473
		L240.06812,221.5H215.6593l-40.89954,56.15662V326.83398z"/>
	<path class="st0" d="M167.75,333.80078h36.7168l45.37744-37.88184c0.17969-0.15039,0.40625-0.23242,0.64062-0.23242h61.19971
		l3.91113-4.91895h-67.73291l-20.72217,17.29102c-0.62708,0.52487-1.64062,0.04861-1.64062-0.76758V280.5
		c0.02577-0.11395,0.04613-0.22885,0.06104-0.34473l22-59.99951C247.69608,219.78513,248.106,219.5,248.5,219.5h78v-4H220.02917
		l-2.91327,4H241.5c0.66582,0,1.16812,0.71919,0.93896,1.34424L220.5,280.67828v32.22211c0,0.3649-0.06593,0.76608-0.36426,1.01465
		l-17.59229,14.68652c-0.17969,0.15039-0.40625,0.23242-0.64062,0.23242h-28.14307c-0.55225,0-1-0.44727-1-1v-47.43127
		l-5.00977,6.8786V333.80078z"/>
	<polygon class="st0" points="368.125,329.75 345.65479,329.75 345.65479,335.73535 353.41504,335.73535 360.36426,335.73535 
		368.125,335.73535 	"/>
	<polygon class="st0" points="374.49658,475.27051 436.46924,475.27051 436.46924,437.5 407.61963,437.5 	"/>
	<polygon class="st0" points="357.875,257.53516 357.875,262.66846 369.125,262.66846 380.17578,262.66846 380.17578,257.53516 
		369.125,257.53516 	"/>
	<path class="st0" d="M338.66699,207.10425c0.00214,0.00488,0.00391,0.00952,0.00598,0.01447l6.9024,16.59637
		c0.00037,0.00085,0.00067,0.00165,0.0011,0.00256l0.00165,0.00403c0.0249,0.05994,0.02344,0.12189,0.03613,0.18323
		c0.0141,0.06696,0.04053,0.12939,0.04053,0.20056v0.00476c0,0.00061,0,0.00122,0,0.00183v9.26294H356.875h10.13379
		l-27.49469-33.44922h-3.83264L338.66699,207.10425z"/>
	<polygon class="st0" points="328.5,378.5 340.9306,378.5 343.65479,373.9118 343.65479,328.75 343.65479,320.75 343.65479,234.375 
		343.65479,224.30493 337.08154,208.5 328.5,208.5 	"/>
	<polygon class="st0" points="919.81299,435.42383 906.96484,435.42383 926.15784,478.49805 938.97778,478.49805 	"/>
	<path class="st0" d="M932.15845,433.42383l-19.05176-42.75684H509.5V405h383.23535c0.36005-0.00946,0.8269,0.25449,0.94629,0.61261
		l12.39209,27.81122H932.15845z"/>
	<path class="st0" d="M755.44629,483.83301c0,0.13315-0.05847,0.35992-0.12109,0.47656l-1.875,3.46289
		c-0.16742,0.30881-0.52539,0.52344-0.87891,0.52344H527.375c-0.3515,0-0.72809-0.23038-0.88818-0.54102l-1.875-3.62891
		c-0.05524-0.10706-0.11182-0.33798-0.11182-0.45898v-37.58496V438.625v-0.29199V407H518v31.33301v0.29199v7.45703v37.34235
		l4.37244,8.49652h235.20728l4.36658-8.33368V407h-6.5V483.83301z"/>
	<polygon class="st0" points="345.65479,321.75 345.65479,327.75 368.125,327.75 368.125,321.75 356.875,321.75 	"/>
	<polygon class="st0" points="1002.61133,435.42383 928.78125,435.42383 943.93872,469.44141 1041.50952,469.44141 
		1053.67432,435.42383 	"/>
	<rect x="373.28955" y="477.27051" class="st0" width="63.17969" height="6.72949"/>
	<path class="st0" d="M449.5,359.35352h-1.89502c-0.55225,0-1-0.44727-1-1v-6.80273c0-0.55273,0.44775-1,1-1H449.5v-36.04822
		l-52.58105-69.52649c-0.11508-0.15189-0.20264-0.41502-0.20264-0.60498v-6.1626h-2.99854c-0.55225,0-1-0.44775-1-1v-6.89795
		c0-0.55225,0.44775-1,1-1h49.94873c0.55225,0,1,0.44775,1,1v6.89795c0,0.55225-0.44775,1-1,1h-1.57031v5.78564l16.26514,21.47137
		V216.25h-3.62402c-0.55225,0-1-0.44775-1-1v-8.41632l-71.65686-6.9079h-39.97791l27.79492,33.81445
		c0.13016,0.15816,0.22754,0.42982,0.22754,0.63477v21.16016h11.05078c0.55225,0,1,0.44775,1,1v7.1333V367H397
		c0.55225,0,1,0.44727,1,1v19.25h41.63757l9.86243-8.21869V359.35352z"/>
	<rect x="408.1665" y="408.33301" class="st0" width="28.30273" height="19.66699"/>
	<path class="st0" d="M363.27295,483.14832l8.0166,8.14948v-6.28802c0-0.00171,0.00098-0.00317,0.00098-0.00488
		s-0.00098-0.00317-0.00098-0.00488v-8.72949c0-0.22504,0.09985-0.49033,0.24805-0.65918l34.87695-39.77051
		c0.18994-0.2168,0.46387-0.34082,0.75195-0.34082h30.30273c0.55225,0,1,0.44727,1,1v39.77051V485
		c0,0.00171-0.00098,0.00317-0.00098,0.00488s0.00098,0.00317,0.00098,0.00488v4.19421l5.44727-11.75665V401.25h-43.25v32.3623
		c0,0.03088-0.01483,0.05682-0.01758,0.08698c-0.01227,0.21472-0.07758,0.42828-0.23047,0.60248l-37.14551,42.36456V483.14832z
		 M406.1665,407.33301c0-0.55273,0.44775-1,1-1h30.30273c0.55225,0,1,0.44727,1,1V429c0,0.55273-0.44775,1-1,1H407.1665
		c-0.55225,0-1-0.44727-1-1V407.33301z"/>
	<polygon class="st0" points="380.17578,264.66846 370.125,264.66846 370.125,320.75 370.125,328.75 370.125,411.33301 
		380.17578,411.33301 	"/>
	<polygon class="st0" points="345.65479,373.88977 350.13934,380.79688 352.41504,380.79688 352.41504,337.73535 
		345.65479,337.73535 	"/>
	<polygon class="st0" points="345.65479,319.75 355.875,319.75 355.875,263.66846 355.875,256.53516 355.875,235.375 
		345.65479,235.375 	"/>
	<polygon class="st0" points="336.56885,426.35156 347.56396,436 359.4873,436 347.78174,426.35156 	"/>
	<path class="st0" d="M342.5,379.77472V401.5h3c0.55225,0,1,0.44727,1,1v8h1.64062c0.55225,0,1,0.44727,1,1v13.37988
		l6.64795,5.47955v-37.18768l-11.09595-17.08997L342.5,379.77472z"/>
	<rect x="354.41504" y="337.73535" class="st0" width="4.94922" height="43.06152"/>
	<line class="st0" x1="346.27295" y1="482.55762" x2="346.27295" y2="477.29004"/>
	<path class="st0" d="M343.46771,477.29004c0.15454,1.73694,0.24713,3.49146,0.24872,5.26758"/>
	<path class="st0" d="M155.875,416.5v5h56.49017c0.29785-0.83911,0.60138-1.67883,0.91754-2.51855
		c0.31628-0.8399,0.63745-1.66669,0.96307-2.48145H155.875z"/>
	<path class="st0" d="M829.51624,243.05963l129.76208,62.10284v-27.20447h-33.51758c-0.55273,0-1-0.44727-1-1v-24.71655
		L829.51624,243.05963z"/>
	<rect x="138.75" y="387" class="st0" width="15.125" height="18.16699"/>
	<path class="st0" d="M848.46094,266.05292l-28.59839-13.69434l-3.57007,7.38794l29.47144,14.16309
		c0.27039-2.06525,0.92236-4.27594,1.97534-6.47797C847.96533,266.95929,848.20862,266.50165,848.46094,266.05292z"/>
	<polygon class="st0" points="368.125,337.73535 361.36426,337.73535 361.36426,381.38031 368.125,388.08453 	"/>
	<rect x="970.77832" y="239" class="st0" width="39.16699" height="134.16699"/>
	<path class="st0" d="M961.27832,251.3335v25.62451V339c0,0.26721-0.15839,0.60275-0.36523,0.77246l-26.80176,22.03278v11.36176
		h34.66699V239h-7.5v2V251.3335z"/>
	<polygon class="st0" points="1100.18359,357.35352 1100.18359,352.55078 1072.05957,352.55078 1072.05957,357.35352 
		1073.95508,357.35352 1098.28809,357.35352 	"/>
	<path class="st0" d="M155.875,423.5v14.66699h51.55585c1.11737-4.57507,2.51501-9.57733,4.24048-14.66699H155.875z"/>
	<rect x="337.5" y="403.5" class="st0" width="7" height="7"/>
	<polygon class="st0" points="336.5,412.5 334.91309,412.5 334.91309,424.35156 347.14062,424.35156 347.14062,412.5 345.5,412.5 	
		"/>
	<path class="st0" d="M227.5,280.67828v24.4762L246.85986,289c0.17969-0.15039,0.40625-0.23242,0.64062-0.23242h69.1665V221.5
		h-67.46844L227.5,280.67828z"/>
	<rect x="357.875" y="235.375" class="st0" width="10.25" height="20.16016"/>
	<rect x="357.875" y="264.66846" class="st0" width="10.25" height="55.08154"/>
	<path class="st0" d="M169.89453,440.16699v18h33.72229c0.30737-2.36273,1.29236-9.24243,3.33545-18H169.89453z"/>
	<rect x="162.94531" y="440.16699" class="st0" width="4.94922" height="18"/>
	<rect x="290.25" y="327.75" class="st0" width="26.41699" height="7.2207"/>
	<rect x="155.875" y="440.16699" class="st0" width="5.07031" height="18"/>
	<rect x="138.75" y="375.5" class="st0" width="15.125" height="9.5"/>
	<path class="st0" d="M155.875,303.58612V414.5h59.19312c9.89929-23.57562,23.85803-36,40.55688-36H326.5v-157h-7.83301v68.27539
		c0,0.20605-0.08392,0.44858-0.21582,0.61426l-5.50146,6.91895c-0.18994,0.23926-0.47803,0.37793-0.78271,0.37793h-61.31934
		l-45.37744,37.88184c-0.17969,0.15039-0.40625,0.23242-0.64062,0.23242H166.75c-0.55225,0-1-0.44727-1-1
		c0-0.01385,0.00732-0.02533,0.00787-0.03906c-0.00055-0.01373-0.00787-0.02521-0.00787-0.03906v-44.69531L155.875,303.58612z
		 M288.25,326.75c0-0.55273,0.44775-1,1-1h28.41699c0.55225,0,1,0.44727,1,1v9.2207c0,0.55273-0.44775,1-1,1H289.25
		c-0.55225,0-1-0.44727-1-1V326.75z"/>
	<rect x="489.02783" y="447.08203" class="st0" width="26.97217" height="35.58496"/>
	<rect x="120.49121" y="141.0415" class="st0" width="14.29883" height="14.4585"/>
	<path class="st0" d="M9.8877,14.31445V170h170.25v-42.625v-20.89844V14.31445H9.8877z M61.36914,28.16455c0-0.55225,0.44775-1,1-1
		h65.28418c0.55225,0,1,0.44775,1,1V76.3335c0,0.55225-0.44775,1-1,1H62.36914c-0.55225,0-1-0.44775-1-1V28.16455z
		 M20.60352,28.16455c0-0.55225,0.44775-1,1-1h30.86182c0.55225,0,1,0.44775,1,1V76.3335c0,0.55225-0.44775,1-1,1H21.60352
		c-0.55225,0-1-0.44775-1-1V28.16455z M169.3877,90.87988v65.29199V156.5c0,0.55225-0.44775,1-1,1h-0.09375H21.69727h-0.09375
		c-0.55225,0-1-0.44775-1-1V90.6665c0-0.55225,0.44775-1,1-1h0.09375h146.59668h0.09375c0.55225,0,1,0.44775,1,1V90.87988z
		 M169.3877,76.3335c0,0.55225-0.44775,1-1,1h-30.86133c-0.55225,0-1-0.44775-1-1V28.16455c0-0.55225,0.44775-1,1-1h30.86133
		c0.55225,0,1,0.44775,1,1V76.3335z"/>
	<polygon class="st0" points="1097.28809,384.46887 1097.28809,359.35352 1074.95508,359.35352 1074.95508,372.07849 	"/>
	<rect x="138.52637" y="29.16455" class="st0" width="28.86133" height="46.16895"/>
	<path class="st0" d="M383.1665,181.8335v9.58289l70.5708,6.80505v-5.50317c0-0.55225,0.44775-1,1-1h22.52539
		c0.55225,0,1,0.44775,1,1v7.8681l454.34863,43.81238V241c0-0.55225,0.44727-1,1-1h25.66699v-2c0-0.55225,0.44727-1,1-1h9.5h93.5
		c0.55273,0,1,0.44775,1,1v28.53522l16.05176-12.92926c0.15894-0.1286,0.42078-0.22119,0.62695-0.22119h8.1543v-39.22638
		l-489.0957-47.16278c-0.6886-0.06763-1.11169-0.85056-0.78906-1.46191l5.82483-11.0459l-105.66724-10.92664l-0.39685,4.1283
		c-0.05243,0.5443-0.55063,0.94832-1.09131,0.8999l-71.17188-6.84131c-0.53757-0.05167-0.95169-0.55257-0.8999-1.09131
		l0.44751-4.65588L192,111.7757v9.77374c3.09326,0.37225,5.5,3.00854,5.5,6.20056s-2.40674,5.82831-5.5,6.20056v36.14325
		l108.93884,10.73969h81.22766C382.71875,180.8335,383.1665,181.28125,383.1665,181.8335z"/>
	<rect x="153.08887" y="91.6665" class="st0" width="14.29883" height="14.4585"/>
	<path class="st0" d="M91.06641,289.74512h6.13721c0.00861,0,0.01569,0.00464,0.02423,0.00488h2.83075v-40.625H88.125v40.625
		h2.91718C91.05072,289.74976,91.0578,289.74512,91.06641,289.74512z"/>
	<rect x="92.06641" y="291.75" class="st0" width="4.13721" height="4.625"/>
	<rect x="188.67529" y="182.8335" class="st0" width="192.49121" height="15.09229"/>
	<path class="st0" d="M218.7124,213.91113c0.16852-0.2309,0.52249-0.41113,0.80811-0.41113H326.5v-5H211.19208l-68.16595,93.75
		h11.34802L218.7124,213.91113z"/>
	<polygon class="st0" points="128.1665,420.66699 128.1665,446.64929 137.52203,471.16699 147.1665,471.16699 147.1665,420.66699 	
		"/>
	<polygon class="st0" points="336.24976,206.5 333.51556,199.92578 217.42645,199.92578 212.6463,206.5 	"/>
	<rect x="136.79004" y="141.0415" class="st0" width="14.29883" height="14.4585"/>
	<rect x="136.79004" y="124.5835" class="st0" width="14.29883" height="14.45801"/>
	<rect x="153.08887" y="108.125" class="st0" width="14.29883" height="14.4585"/>
	<rect x="120.49121" y="108.125" class="st0" width="14.29883" height="14.4585"/>
	<rect x="120.49121" y="124.5835" class="st0" width="14.29883" height="14.45801"/>
	<rect x="120.49121" y="91.6665" class="st0" width="14.29883" height="14.4585"/>
	<rect x="153.08887" y="141.0415" class="st0" width="14.29883" height="14.4585"/>
	<rect x="153.08887" y="124.5835" class="st0" width="14.29883" height="14.45801"/>
	<rect x="136.79004" y="108.125" class="st0" width="14.29883" height="14.4585"/>
	<rect x="136.79004" y="91.6665" class="st0" width="14.29883" height="14.4585"/>
	<path class="st0" d="M185.03168,128.375h-2.89398V170H190v-36.12598C187.34985,133.33392,185.30469,131.11169,185.03168,128.375z"
		/>
	<path class="st0" d="M839.9541,437.54102c-24.85156,0-45.07031,20.21875-45.07031,45.07031s20.21875,45.07031,45.07031,45.07031
		s45.07031-20.21875,45.07031-45.07031S864.80566,437.54102,839.9541,437.54102z M839.9541,519.84766
		c-20.53223,0-37.23633-16.7041-37.23633-37.23633s16.7041-37.23633,37.23633-37.23633s37.23633,16.7041,37.23633,37.23633
		S860.48633,519.84766,839.9541,519.84766z"/>
	<path class="st0" d="M839.9541,447.375c-19.42969,0-35.23633,15.80664-35.23633,35.23633s15.80664,35.23633,35.23633,35.23633
		s35.23633-15.80664,35.23633-35.23633S859.38379,447.375,839.9541,447.375z M839.9541,496.54883
		c-7.68555,0-13.93848-6.25195-13.93848-13.9375s6.25293-13.93848,13.93848-13.93848s13.9375,6.25293,13.9375,13.93848
		S847.63965,496.54883,839.9541,496.54883z"/>
	<path class="st0" d="M487.02783,446.08203c0-0.55273,0.44775-1,1-1H516v-5.74902h-32.6665v43.33398h3.69434V446.08203z"/>
	<path class="st0" d="M839.9541,425.02148c-31.75488,0-57.58984,25.83496-57.58984,57.58984s25.83496,57.58984,57.58984,57.58984
		s57.58984-25.83496,57.58984-57.58984S871.70898,425.02148,839.9541,425.02148z M839.9541,529.68164
		c-25.95508,0-47.07031-21.11523-47.07031-47.07031s21.11523-47.07031,47.07031-47.07031s47.07031,21.11523,47.07031,47.07031
		S865.90918,529.68164,839.9541,529.68164z"/>
	<path class="st0" d="M839.9541,470.67285c-6.58301,0-11.93848,5.35547-11.93848,11.93848
		c0,6.58203,5.35547,11.9375,11.93848,11.9375c6.58203,0,11.9375-5.35547,11.9375-11.9375
		C851.8916,476.02832,846.53613,470.67285,839.9541,470.67285z"/>
	<path class="st0" d="M1072.05957,491.13281h28.12402v-4.80273h-1.88098c-0.00513,0.00006-0.0094,0.00293-0.01453,0.00293h-24.33301
		c-0.00513,0-0.0094-0.00287-0.01453-0.00293h-1.88098V491.13281z"/>
	<path class="st0" d="M153.875,407.16699h-15.48584l-5.32361,11.5h15.10095c0.55225,0,1,0.44727,1,1V464.5h4.7085V407.16699z"/>
	<polygon class="st0" points="1097.28809,462.08948 1074.95508,449.69818 1074.95508,484.33008 1097.28809,484.33008 
		1097.28809,466.625 	"/>
	<path class="st0" d="M482.3335,437.33301H516v-5.5h-40.1665v44.83398h5.5v-38.33398
		C481.3335,437.78027,481.78125,437.33301,482.3335,437.33301z"/>
	<polygon class="st0" points="938.02783,471.44141 941.16748,478.49805 1072.95508,478.49805 1072.95508,471.44141 	"/>
	<path class="st0" d="M904.50293,434.81152L892.11084,407H763.94629v49.43262h22.49121
		c9.70923-19.76819,30.04614-33.41113,53.5166-33.41113s43.80737,13.64294,53.5166,33.41113h20.66626l-9.63232-21.61755
		C904.50403,434.81384,904.50342,434.81274,904.50293,434.81152z"/>
	<path class="st0" d="M284.12793,447.375c-19.4292,0-35.23584,15.80664-35.23584,35.23633s15.80664,35.23633,35.23584,35.23633
		s35.23633-15.80664,35.23633-35.23633S303.55713,447.375,284.12793,447.375z M284.12793,496.54883
		c-7.68555,0-13.93799-6.25195-13.93799-13.9375s6.25244-13.93848,13.93799-13.93848s13.93799,6.25293,13.93799,13.93848
		S291.81348,496.54883,284.12793,496.54883z"/>
	<path class="st0" d="M284.12793,470.67285c-6.58252,0-11.93799,5.35547-11.93799,11.93848
		c0,6.58203,5.35547,11.9375,11.93799,11.9375s11.93799-5.35547,11.93799-11.9375
		C296.06592,476.02832,290.71045,470.67285,284.12793,470.67285z"/>
	<path class="st0" d="M219.4931,459.27344c-1.48737,2.23932-2.61194,4.04968-3.32349,5.22656"/>
	<path class="st0" d="M227.36084,464.5c0.56897-1.77911,1.2146-3.52399,1.94214-5.22656"/>
	<path class="st0" d="M284.12793,437.54102c-24.85205,0-45.07031,20.21875-45.07031,45.07031s20.21826,45.07031,45.07031,45.07031
		s45.07031-20.21875,45.07031-45.07031S308.97998,437.54102,284.12793,437.54102z M284.12793,519.84766
		c-20.53174,0-37.23584-16.7041-37.23584-37.23633s16.7041-37.23633,37.23584-37.23633
		c20.53223,0,37.23633,16.7041,37.23633,37.23633S304.66016,519.84766,284.12793,519.84766z"/>
	<rect x="373.28955" y="486.00977" class="st0" width="63.17969" height="6.73047"/>
	<path class="st0" d="M440.64014,389.01855C440.47733,389.15378,440.20801,389.25,440,389.25h-43c-0.55225,0-1-0.44727-1-1V369
		h-13.82422v43.33301c0,0.55273-0.44775,1-1,1H369.125c-0.55225,0-1-0.44727-1-1v-21.43207l-8.17236-8.10406h-6.5376h-1.97717
		l6.18958,9.5332c0.0896,0.13846,0.16113,0.38022,0.16113,0.54492v39.13287l5.12061,4.22064
		c0.21164,0.17502,0.36377,0.49875,0.36377,0.77148v36.63275l35.39355-40.36646v-33.00903c0-0.00256-0.00146-0.0047-0.00146-0.00726
		c0-0.55273,0.44775-1,1-1h45.25146c0.55225,0,1,0.44727,1,1v76.41699H449.5v-95.03168L440.64014,389.01855z"/>
	<polygon class="st0" points="450.5,486.33008 448.60498,486.33008 448.60498,491.13281 476.72852,491.13281 476.72852,486.33008 
		474.8335,486.33008 	"/>
	<polygon class="st0" points="451.5,449.69812 451.5,484.33008 473.8335,484.33008 473.8335,462.08948 	"/>
	<path class="st0" d="M284.12793,425.02148c-31.75537,0-57.58984,25.83496-57.58984,57.58984s25.83447,57.58984,57.58984,57.58984
		s57.58984-25.83496,57.58984-57.58984S315.8833,425.02148,284.12793,425.02148z M284.12793,529.68164
		c-25.95459,0-47.07031-21.11523-47.07031-47.07031s21.11572-47.07031,47.07031-47.07031s47.07031,21.11523,47.07031,47.07031
		S310.08252,529.68164,284.12793,529.68164z"/>
	<rect x="1099.28809" y="390.66699" class="st0" width="15.57324" height="74.95801"/>
	<rect x="9.8877" y="7" class="st0" width="170.25" height="5.31445"/>
	<path class="st0" d="M182.1377,126.375h3.01965c0.53827-2.38501,2.43976-4.25934,4.84265-4.74902v-14.14941h-7.8623V126.375z"/>
	<circle class="st0" cx="191.25" cy="127.75" r="4.25"/>
	
		<rect x="458.57651" y="104.10741" transform="matrix(0.09568 -0.99541 0.99541 0.09568 280.40353 586.36377)" class="st0" width="8.68045" height="69.49953"/>
	<path class="st0" d="M607.51642,154.10156c-0.00134,0.00262-0.00269,0.00513-0.00409,0.00769l-5.8208,11.03827l488.5155,47.10687
		c0.48401,0.0466,0.9043,0.50943,0.9043,0.99561v50h9.75v-50c0-22.01367-15.24805-23.83643-15.89648-23.90332l-472.1098-45.36896
		L607.51642,154.10156z M1088.85352,203.19189c-0.0498,0.51709-0.48438,0.9043-0.99414,0.9043
		c-0.03223,0-0.06445-0.00146-0.09668-0.00439l-475.25-45.68359c-0.5498-0.05322-0.95215-0.5415-0.89941-1.09131
		c0.05273-0.55029,0.5498-0.9502,1.09082-0.8999l475.25,45.68359C1088.50391,202.15381,1088.90625,202.64209,1088.85352,203.19189z"
		/>
	<rect x="63.36914" y="29.16455" class="st0" width="63.28418" height="46.16895"/>
	<rect x="22.60352" y="29.16455" class="st0" width="28.86182" height="46.16895"/>
	<rect x="22.69727" y="108.125" class="st0" width="14.29932" height="14.4585"/>
	<rect x="22.69727" y="124.5835" class="st0" width="14.29932" height="14.45801"/>
	<rect x="22.69727" y="141.0415" class="st0" width="14.29932" height="14.4585"/>
	<polygon class="st0" points="1074.95508,397.30603 1097.28809,409.69733 1097.28809,389.66699 1097.28809,386.75549 
		1074.95508,374.36511 	"/>
	<polygon class="st0" points="1097.28809,436.25549 1074.95508,423.86511 1074.95508,447.4115 1097.28809,459.8028 	"/>
	<polygon class="st0" points="969.77832,375.16699 921.56152,375.16699 921.56152,388.66699 1031.94531,388.66699 
		1031.94531,375.16699 	"/>
	<polygon class="st0" points="1085.41589,260.68988 1064.27832,277.75684 1064.27832,328.06464 1096.12085,272.28876 	"/>
	<rect x="22.69727" y="91.6665" class="st0" width="14.29932" height="14.4585"/>
	<polygon class="st0" points="1097.28809,411.98401 1074.95508,399.59271 1074.95508,421.57849 1097.28809,433.96887 	"/>
	<path class="st0" d="M959.1123,390.66699v34.10352h42.49902V413.75c0-0.55273,0.44727-1,1-1h52.5c0.55273,0,1,0.44727,1,1v19.67383
		h16.84375v-42.75684h-40.00977H959.1123z"/>
	<polygon class="st0" points="1011.94531,373.16699 1032.94531,373.16699 1062.27832,373.16699 1062.27832,239 1011.94531,239 	"/>
	<polygon class="st0" points="1089.11133,261.74603 1089.11133,255.38477 1083.24023,255.38477 	"/>
	<polygon class="st0" points="1064.27832,275.18628 1084.05688,259.21741 1080.85645,255.74963 1064.27832,269.10284 	"/>
	<polygon class="st0" points="1092.34521,265.25 1097.16064,270.46747 1100.1394,265.25 	"/>
	<rect x="38.99658" y="108.125" class="st0" width="14.29883" height="14.4585"/>
	<rect x="71.59424" y="124.5835" class="st0" width="14.29883" height="14.45801"/>
	<rect x="87.89307" y="108.125" class="st0" width="14.29883" height="14.4585"/>
	<rect x="55.29541" y="91.6665" class="st0" width="14.29883" height="14.4585"/>
	<rect x="71.59424" y="91.6665" class="st0" width="14.29883" height="14.4585"/>
	<rect x="71.59424" y="141.0415" class="st0" width="14.29883" height="14.4585"/>
	<rect x="38.99658" y="141.0415" class="st0" width="14.29883" height="14.4585"/>
	<rect x="104.19189" y="141.0415" class="st0" width="14.29932" height="14.4585"/>
	<rect x="87.89307" y="124.5835" class="st0" width="14.29883" height="14.45801"/>
	<rect x="87.89307" y="91.6665" class="st0" width="14.29883" height="14.4585"/>
	<rect x="55.29541" y="108.125" class="st0" width="14.29883" height="14.4585"/>
	<rect x="87.89307" y="141.0415" class="st0" width="14.29883" height="14.4585"/>
	<rect x="71.59424" y="108.125" class="st0" width="14.29883" height="14.4585"/>
	<rect x="55.29541" y="141.0415" class="st0" width="14.29883" height="14.4585"/>
	<rect x="104.19189" y="91.6665" class="st0" width="14.29932" height="14.4585"/>
	<rect x="38.99658" y="91.6665" class="st0" width="14.29883" height="14.4585"/>
	<rect x="38.99658" y="124.5835" class="st0" width="14.29883" height="14.45801"/>
	<rect x="104.19189" y="124.5835" class="st0" width="14.29932" height="14.45801"/>
	<rect x="104.19189" y="108.125" class="st0" width="14.29932" height="14.4585"/>
	<rect x="55.29541" y="124.5835" class="st0" width="14.29883" height="14.45801"/>
	<path class="st1" d="M289.25,336.9707h28.41699c0.55225,0,1-0.44727,1-1V326.75c0-0.55273-0.44775-1-1-1H289.25
		c-0.55225,0-1,0.44727-1,1v9.2207C288.25,336.52344,288.69775,336.9707,289.25,336.9707z M290.25,327.75h26.41699v7.2207H290.25
		V327.75z"/>
	<path class="st1" d="M284.12793,468.67285c-7.68555,0-13.93799,6.25293-13.93799,13.93848s6.25244,13.9375,13.93799,13.9375
		s13.93799-6.25195,13.93799-13.9375S291.81348,468.67285,284.12793,468.67285z M284.12793,494.54883
		c-6.58252,0-11.93799-5.35547-11.93799-11.9375c0-6.58301,5.35547-11.93848,11.93799-11.93848s11.93799,5.35547,11.93799,11.93848
		C296.06592,489.19336,290.71045,494.54883,284.12793,494.54883z"/>
	<path class="st1" d="M284.12793,445.375c-20.53174,0-37.23584,16.7041-37.23584,37.23633s16.7041,37.23633,37.23584,37.23633
		c20.53223,0,37.23633-16.7041,37.23633-37.23633S304.66016,445.375,284.12793,445.375z M284.12793,517.84766
		c-19.4292,0-35.23584-15.80664-35.23584-35.23633s15.80664-35.23633,35.23584-35.23633s35.23633,15.80664,35.23633,35.23633
		S303.55713,517.84766,284.12793,517.84766z"/>
	<path class="st1" d="M284.12793,435.54102c-25.95459,0-47.07031,21.11523-47.07031,47.07031s21.11572,47.07031,47.07031,47.07031
		s47.07031-21.11523,47.07031-47.07031S310.08252,435.54102,284.12793,435.54102z M284.12793,527.68164
		c-24.85205,0-45.07031-20.21875-45.07031-45.07031s20.21826-45.07031,45.07031-45.07031s45.07031,20.21875,45.07031,45.07031
		S308.97998,527.68164,284.12793,527.68164z"/>
	<path class="st1" d="M839.9541,468.67285c-7.68555,0-13.93848,6.25293-13.93848,13.93848s6.25293,13.9375,13.93848,13.9375
		s13.9375-6.25195,13.9375-13.9375S847.63965,468.67285,839.9541,468.67285z M839.9541,494.54883
		c-6.58301,0-11.93848-5.35547-11.93848-11.9375c0-6.58301,5.35547-11.93848,11.93848-11.93848
		c6.58203,0,11.9375,5.35547,11.9375,11.93848C851.8916,489.19336,846.53613,494.54883,839.9541,494.54883z"/>
	<path class="st1" d="M839.9541,445.375c-20.53223,0-37.23633,16.7041-37.23633,37.23633s16.7041,37.23633,37.23633,37.23633
		s37.23633-16.7041,37.23633-37.23633S860.48633,445.375,839.9541,445.375z M839.9541,517.84766
		c-19.42969,0-35.23633-15.80664-35.23633-35.23633S820.52441,447.375,839.9541,447.375s35.23633,15.80664,35.23633,35.23633
		S859.38379,517.84766,839.9541,517.84766z"/>
	<path class="st1" d="M839.9541,435.54102c-25.95508,0-47.07031,21.11523-47.07031,47.07031s21.11523,47.07031,47.07031,47.07031
		s47.07031-21.11523,47.07031-47.07031S865.90918,435.54102,839.9541,435.54102z M839.9541,527.68164
		c-24.85156,0-45.07031-20.21875-45.07031-45.07031s20.21875-45.07031,45.07031-45.07031s45.07031,20.21875,45.07031,45.07031
		S864.80566,527.68164,839.9541,527.68164z"/>
	<path class="st1" d="M407.1665,430h30.30273c0.55225,0,1-0.44727,1-1v-21.66699c0-0.55273-0.44775-1-1-1H407.1665
		c-0.55225,0-1,0.44727-1,1V429C406.1665,429.55273,406.61426,430,407.1665,430z M408.1665,408.33301h28.30273V428H408.1665
		V408.33301z"/>
	<path class="st1" d="M611.61328,157.31689c-0.05273,0.5498,0.34961,1.03809,0.89941,1.09131l475.25,45.68359
		c0.03223,0.00293,0.06445,0.00439,0.09668,0.00439c0.50977,0,0.94434-0.38721,0.99414-0.9043
		c0.05273-0.5498-0.34961-1.03809-0.89941-1.09131l-475.25-45.68359C612.16309,156.3667,611.66602,156.7666,611.61328,157.31689z"/>
	<path class="st1" d="M811.07031,254.06299c2.5166,0,4.56445-2.04785,4.56445-4.56494s-2.04785-4.56494-4.56445-4.56494
		s-4.56445,2.04785-4.56445,4.56494S808.55371,254.06299,811.07031,254.06299z M811.07031,246.93311
		c1.41406,0,2.56445,1.15039,2.56445,2.56494s-1.15039,2.56494-2.56445,2.56494s-2.56445-1.15039-2.56445-2.56494
		S809.65625,246.93311,811.07031,246.93311z"/>
	<path class="st1" d="M62.36914,77.3335h65.28418c0.55225,0,1-0.44775,1-1V28.16455c0-0.55225-0.44775-1-1-1H62.36914
		c-0.55225,0-1,0.44775-1,1V76.3335C61.36914,76.88574,61.81689,77.3335,62.36914,77.3335z M63.36914,29.16455h63.28418V75.3335
		H63.36914V29.16455z"/>
	<path class="st1" d="M168.3877,27.16455h-30.86133c-0.55225,0-1,0.44775-1,1V76.3335c0,0.55225,0.44775,1,1,1h30.86133
		c0.55225,0,1-0.44775,1-1V28.16455C169.3877,27.6123,168.93994,27.16455,168.3877,27.16455z M167.3877,75.3335h-28.86133V29.16455
		h28.86133V75.3335z"/>
	<path class="st1" d="M21.60352,77.3335h30.86182c0.55225,0,1-0.44775,1-1V28.16455c0-0.55225-0.44775-1-1-1H21.60352
		c-0.55225,0-1,0.44775-1,1V76.3335C20.60352,76.88574,21.05127,77.3335,21.60352,77.3335z M22.60352,29.16455h28.86182V75.3335
		H22.60352V29.16455z"/>
	<path class="st1" d="M168.3877,89.6665h-0.09375H21.69727h-0.09375c-0.55225,0-1,0.44775-1,1V156.5c0,0.55225,0.44775,1,1,1
		h0.09375h146.59668h0.09375c0.55225,0,1-0.44775,1-1v-0.32812V90.87988V90.6665
		C169.3877,90.11426,168.93994,89.6665,168.3877,89.6665z M36.99658,155.5H22.69727v-14.4585h14.29932V155.5z M36.99658,139.0415
		H22.69727V124.5835h14.29932V139.0415z M36.99658,122.5835H22.69727V108.125h14.29932V122.5835z M36.99658,106.125H22.69727
		V91.6665h14.29932V106.125z M53.29541,155.5H38.99658v-14.4585h14.29883V155.5z M53.29541,139.0415H38.99658V124.5835h14.29883
		V139.0415z M53.29541,122.5835H38.99658V108.125h14.29883V122.5835z M53.29541,106.125H38.99658V91.6665h14.29883V106.125z
		 M69.59424,155.5H55.29541v-14.4585h14.29883V155.5z M69.59424,139.0415H55.29541V124.5835h14.29883V139.0415z M69.59424,122.5835
		H55.29541V108.125h14.29883V122.5835z M69.59424,106.125H55.29541V91.6665h14.29883V106.125z M85.89307,155.5H71.59424v-14.4585
		h14.29883V155.5z M85.89307,139.0415H71.59424V124.5835h14.29883V139.0415z M85.89307,122.5835H71.59424V108.125h14.29883V122.5835
		z M85.89307,106.125H71.59424V91.6665h14.29883V106.125z M102.19189,155.5H87.89307v-14.4585h14.29883V155.5z M102.19189,139.0415
		H87.89307V124.5835h14.29883V139.0415z M102.19189,122.5835H87.89307V108.125h14.29883V122.5835z M102.19189,106.125H87.89307
		V91.6665h14.29883V106.125z M118.49121,155.5h-14.29932v-14.4585h14.29932V155.5z M118.49121,139.0415h-14.29932V124.5835h14.29932
		V139.0415z M118.49121,122.5835h-14.29932V108.125h14.29932V122.5835z M118.49121,106.125h-14.29932V91.6665h14.29932V106.125z
		 M134.79004,155.5h-14.29883v-14.4585h14.29883V155.5z M134.79004,139.0415h-14.29883V124.5835h14.29883V139.0415z
		 M134.79004,122.5835h-14.29883V108.125h14.29883V122.5835z M134.79004,106.125h-14.29883V91.6665h14.29883V106.125z
		 M151.08887,155.5h-14.29883v-14.4585h14.29883V155.5z M151.08887,139.0415h-14.29883V124.5835h14.29883V139.0415z
		 M151.08887,122.5835h-14.29883V108.125h14.29883V122.5835z M151.08887,106.125h-14.29883V91.6665h14.29883V106.125z
		 M167.3877,155.5h-14.29883v-14.4585h14.29883V155.5z M167.3877,139.0415h-14.29883V124.5835h14.29883V139.0415z
		 M167.3877,122.5835h-14.29883V108.125h14.29883V122.5835z M167.3877,106.125h-14.29883V91.6665h14.29883V106.125z"/>
</g>
<g>
	<path class="st0" d="M961.27832,241v10.3335v25.62451V339c0,0.26727-0.15881,0.60309-0.36523,0.77246l-26.80176,22.03278v11.36176
		h34.66699V239h-7.5V241z"/>
	<path class="st0" d="M959.27832,314.99481v-7.6145l-94.5144-45.23431c0.77808,2.10028,0.88159,4.79236,0.26294,7.69788
		L959.27832,314.99481z"/>
	<path class="st0" d="M829.51624,243.05963l129.76208,62.10284v-27.20447h-33.51758c-0.55273,0-1-0.44727-1-1v-24.71655
		L829.51624,243.05963z"/>
	<rect x="970.77832" y="239" class="st0" width="39.16699" height="134.16699"/>
	<polygon class="st0" points="957.1123,424.77051 957.1123,390.66699 922.10107,390.66699 937.27197,424.77051 	"/>
	<path class="st0" d="M847.73926,267.43164c0.22607-0.47235,0.46936-0.92999,0.72168-1.37872l-28.59839-13.69434l-3.57007,7.38794
		l29.47144,14.16309C846.0343,271.84436,846.68628,269.63367,847.73926,267.43164z"/>
	<path class="st0" d="M820.73267,250.55811l28.79468,13.78827c1.32275-1.92651,2.87891-3.54431,4.55664-4.68768
		c0.89746-0.61078,1.79199-1.05103,2.66846-1.34698l-32.29712-15.45734L820.73267,250.55811z"/>
	<polygon class="st0" points="814.48987,258.88025 818.49243,250.59747 818.49316,250.59424 818.49524,250.59149 
		822.46338,242.37976 769.53735,237.27753 	"/>
	<polygon class="st0" points="476.2627,193.71826 455.7373,193.71826 455.7373,214.25 459.36133,214.25 472.63867,214.25 
		476.2627,214.25 	"/>
	<path class="st0" d="M850.32715,282.00684c3.24121,1.55176,8.35254-2.1123,11.16699-7.99561
		c2.8291-5.91455,2.48438-12.22021-0.75391-13.77002c-0.49512-0.23682-1.04199-0.354-1.625-0.354
		c-1.18359,0-2.52148,0.48145-3.90527,1.42432c-2.22559,1.5166-4.2373,3.99658-5.66602,6.9834
		C846.72949,274.17822,847.08789,280.45801,850.32715,282.00684z"/>
	<polygon class="st0" points="460.36133,216.25 460.36133,268.10565 471.63867,282.99268 471.63867,216.25 	"/>
	<polygon class="st0" points="475.8783,304.08496 467.62128,293.16699 445.05682,293.16699 453.32019,304.08496 	"/>
	<polygon class="st0" points="466.10876,291.16699 460.75281,284.08496 438.18298,284.08496 443.54309,291.16699 	"/>
	<polygon class="st0" points="921.56152,375.16699 921.56152,388.66699 1031.94531,388.66699 1031.94531,375.16699 
		969.77832,375.16699 	"/>
	<polygon class="st0" points="475.8335,410.35254 507.5,410.35254 507.5,406 507.5,389.66699 507.5,387.16699 475.8335,387.16699 	
		"/>
	<polygon class="st0" points="466.11865,313.16699 482.74677,313.16699 477.39081,306.08496 454.83392,306.08496 
		460.19403,313.16699 	"/>
	<rect x="475.8335" y="369.54199" class="st0" width="24.56689" height="15.625"/>
	<polygon class="st0" points="1011.94531,373.16699 1032.94531,373.16699 1062.27832,373.16699 1062.27832,239 1011.94531,239 	"/>
	<polygon class="st0" points="1089.11133,255.38477 1083.24023,255.38477 1089.11133,261.74603 	"/>
	<polygon class="st0" points="1064.27832,269.10284 1064.27832,275.18628 1084.05688,259.21741 1080.85645,255.74963 	"/>
	<polygon class="st0" points="1097.16064,270.46747 1100.1394,265.25 1092.34521,265.25 	"/>
	<polygon class="st0" points="459.24023,282.08496 450.79382,270.9165 428.21631,270.9165 436.66925,282.08496 	"/>
	<polygon class="st0" points="1064.27832,277.75684 1064.27832,328.06464 1096.12085,272.28876 1085.41589,260.68988 	"/>
	<path class="st0" d="M190,121.62598v-14.14941h-7.8623V126.375h3.01965C185.69562,123.98999,187.59711,122.11566,190,121.62598z"/>
	<path class="st0" d="M1090.20703,212.25439c0.48401,0.04657,0.9043,0.5094,0.9043,0.99561v50h9.75v-50
		c0-22.01367-15.24805-23.83643-15.89648-23.90332l-472.1098-45.36896l-5.33862,10.12384
		c-0.00134,0.00262-0.00269,0.00513-0.00409,0.00769l-5.8208,11.03827L1090.20703,212.25439z"/>
	
		<rect x="458.57651" y="104.10741" transform="matrix(0.09568 -0.99541 0.99541 0.09568 280.40353 586.36377)" class="st0" width="8.68045" height="69.49953"/>
	<polygon class="st0" points="926.76074,252.3335 926.76074,275.95801 959.27832,275.95801 959.27832,252.3335 933.61133,252.3335 	
		"/>
	<path class="st0" d="M959.27832,317.2121l-94.77466-45.40161c-0.32007,1.01343-0.7146,2.03882-1.20483,3.06403
		c-1.92749,4.0285-4.71899,7.03186-7.57019,8.49731l103.54968,49.62329V317.2121z"/>
	<polygon class="st0" points="478.2627,207.18878 925.81079,250.3335 932.61133,250.3335 932.61133,246.40839 478.2627,202.59613 	
		"/>
	<polygon class="st0" points="1072.95508,435.42383 1055.7981,435.42383 1043.6333,469.44141 1072.95508,469.44141 	"/>
	<rect x="934.61133" y="242" class="st0" width="24.66699" height="8.3335"/>
	<rect x="1003.61133" y="414.75" class="st0" width="50.5" height="10.02051"/>
	<path class="st0" d="M1001.61133,433.42383v-6.65332h-64.98926c-0.375,0-0.76196-0.25195-0.91406-0.59375l-15.79639-35.50977
		h-4.61572l19.05176,42.75684H1001.61133z"/>
	<rect x="1003.61133" y="426.77051" class="st0" width="50.5" height="6.65332"/>
	<polygon class="st0" points="483.75684,315.16699 466.11865,315.16699 460.69678,315.16699 460.69678,327.13623 
		483.75684,327.13623 	"/>
	<path class="st0" d="M447.60498,350.55078H449.5v-36.04822l-52.58105-69.52649c-0.11505-0.15192-0.20264-0.41504-0.20264-0.60498
		v-6.1626h-2.99854c-0.55225,0-1-0.44775-1-1v-6.89795c0-0.55225,0.44775-1,1-1h49.94873c0.55225,0,1,0.44775,1,1v6.89795
		c0,0.55225-0.44775,1-1,1h-1.57031v5.78564l16.26514,21.47137V216.25h-3.62402c-0.55225,0-1-0.44775-1-1v-8.41632l-71.65686-6.9079
		h-39.97791l27.79492,33.81445c0.13019,0.15814,0.22754,0.42981,0.22754,0.63477v21.16016h11.05078c0.55225,0,1,0.44775,1,1v7.1333
		V367H397c0.55225,0,1,0.44727,1,1v19.25h41.63757l9.86243-8.21869v-19.6778h-1.89502c-0.55225,0-1-0.44727-1-1v-6.80273
		C446.60498,350.99805,447.05273,350.55078,447.60498,350.55078z"/>
	<polygon class="st0" points="370.125,328.75 370.125,411.33301 380.17578,411.33301 380.17578,264.66846 370.125,264.66846 
		370.125,320.75 	"/>
	<polygon class="st0" points="380.17578,257.53516 369.125,257.53516 357.875,257.53516 357.875,262.66846 369.125,262.66846 
		380.17578,262.66846 	"/>
	<path class="st0" d="M458.69678,350.55078v-36.04803l-52.32306-69.13165h-6.64917l51.57281,68.19238
		c0.0943,0.12463,0.20264,0.31329,0.20264,0.60352v36.38379H458.69678z"/>
	<rect x="354.41504" y="337.73535" class="st0" width="4.94922" height="43.06152"/>
	<path class="st0" d="M477.75195,359.35352h-1.91846v8.18848h7.92334v-27.32471h-23.06006v10.3335h17.05518c0.55225,0,1,0.44727,1,1
		v6.80273C478.75195,358.90625,478.3042,359.35352,477.75195,359.35352z"/>
	<polygon class="st0" points="368.125,388.08453 368.125,337.73535 361.36426,337.73535 361.36426,381.38031 	"/>
	<polygon class="st0" points="368.125,329.75 345.65479,329.75 345.65479,335.73535 353.41504,335.73535 360.36426,335.73535 
		368.125,335.73535 	"/>
	<path class="st0" d="M959.1123,390.66699v34.10352h42.49902V413.75c0-0.55273,0.44727-1,1-1h52.5c0.55273,0,1,0.44727,1,1v19.67383
		h16.84375v-42.75684h-40.00977H959.1123z"/>
	<polygon class="st0" points="9.8877,170 180.1377,170 180.1377,127.375 180.1377,106.47656 180.1377,14.31445 9.8877,14.31445 	"/>
	<rect x="9.8877" y="7" class="st0" width="170.25" height="5.31445"/>
	<polygon class="st0" points="449.28131,268.9165 443.92572,261.83496 421.34283,261.83496 426.70258,268.9165 	"/>
	<polygon class="st0" points="922.00269,435.42383 937.13794,469.44141 941.74976,469.44141 926.59216,435.42383 	"/>
	<polygon class="st0" points="1041.50952,469.44141 1053.67432,435.42383 1002.61133,435.42383 928.78125,435.42383 
		943.93872,469.44141 	"/>
	<path class="st0" d="M355.78857,430.35944v-37.18768l-11.09595-17.08997L342.5,379.77472V401.5h3c0.55225,0,1,0.44727,1,1v8
		h1.64062c0.55225,0,1,0.44727,1,1v13.37988L355.78857,430.35944z"/>
	<path class="st0" d="M919.56152,388.66699v-14.5c0-0.55273,0.44727-1,1-1h11.5498v-11.83398
		c0-0.26727,0.15894-0.60315,0.36523-0.77246l26.80176-22.03278v-3.31531l-106.27783-50.9306
		c-0.34375,0.05219-0.68555,0.08826-1.02197,0.08826c-0.87695,0-1.72363-0.18066-2.51465-0.55859
		c-2.5238-1.2074-3.83203-4.12909-3.83643-7.74811l-81.86755-39.34283L478.2627,209.198v6.052c0,0.55225-0.44775,1-1,1h-3.62402
		v69.38287l21.1582,27.9306C494.9118,313.71503,495,313.97644,495,314.16699v53.375h6.40039c0.55225,0,1,0.44727,1,1v16.625H508.5
		c0.55225,0,1,0.44727,1,1v2.5H919.56152z"/>
	<path class="st0" d="M185.03168,128.375h-2.89398V170H190v-36.12598C187.34985,133.33392,185.30469,131.11169,185.03168,128.375z"
		/>
	<rect x="460.69678" y="329.13623" class="st0" width="23.06006" height="9.08105"/>
	<rect x="357.875" y="264.66846" class="st0" width="10.25" height="55.08154"/>
	<polygon class="st0" points="453.7373,200.2312 383.1665,193.42615 383.1665,198.02124 453.7373,204.82446 	"/>
	<path class="st0" d="M493,367.54199v-53.03961l-52.36957-69.13129h-6.64905l51.57281,68.19238
		c0.11475,0.15161,0.20264,0.41327,0.20264,0.60352v53.375H493z"/>
	<rect x="398.71631" y="238.229" class="st0" width="41.37988" height="5.14209"/>
	<polygon class="st0" points="442.41315,259.83496 431.47455,245.37109 408.88196,245.37109 419.8291,259.83496 	"/>
	<rect x="394.71777" y="231.31055" class="st0" width="47.94873" height="4.89795"/>
	<polygon class="st0" points="368.125,321.75 356.875,321.75 345.65479,321.75 345.65479,327.75 368.125,327.75 	"/>
	<polygon class="st0" points="345.65479,319.75 355.875,319.75 355.875,263.66846 355.875,256.53516 355.875,235.375 
		345.65479,235.375 	"/>
	<polygon class="st0" points="328.5,378.5 340.9306,378.5 343.65479,373.9118 343.65479,328.75 343.65479,320.75 343.65479,234.375 
		343.65479,224.30493 337.08154,208.5 328.5,208.5 	"/>
	<rect x="357.875" y="235.375" class="st0" width="10.25" height="20.16016"/>
	<rect x="337.5" y="403.5" class="st0" width="7" height="7"/>
	<polygon class="st0" points="334.91309,412.5 334.91309,424.35156 347.14062,424.35156 347.14062,412.5 345.5,412.5 336.5,412.5 	
		"/>
	<polygon class="st0" points="352.41504,337.73535 345.65479,337.73535 345.65479,373.88977 350.13934,380.79688 
		352.41504,380.79688 	"/>
	<path class="st0" d="M335.68146,199.92578l2.98553,7.17847c0.00214,0.00488,0.00391,0.00952,0.00598,0.01447l6.9024,16.59637
		c0.00037,0.00085,0.00067,0.00165,0.0011,0.00256l0.00165,0.00403c0.0249,0.05994,0.02344,0.12189,0.03613,0.18323
		c0.0141,0.06696,0.04053,0.12939,0.04053,0.20056v0.00476c0,0.00061,0,0.00122,0,0.00183v9.26294H356.875h10.13379
		l-27.49469-33.44922H335.68146z"/>
	<polygon class="st0" points="333.51556,199.92578 217.42645,199.92578 212.6463,206.5 336.24976,206.5 	"/>
	<rect x="526.5" y="407" class="st0" width="72.13574" height="22.83301"/>
	<path class="st0" d="M755.44629,483.83301c0,0.13312-0.05847,0.35992-0.12109,0.47656l-1.875,3.46289
		c-0.16394,0.30243-0.53271,0.52344-0.87891,0.52344H527.375c-0.35791,0-0.72498-0.22437-0.88818-0.54102l-1.875-3.62891
		c-0.05524-0.10706-0.11182-0.33801-0.11182-0.45898v-37.58496V438.625v-0.29199V407H518v31.33301v0.29199v7.45703v37.34235
		l4.37244,8.49652h235.20728l4.36658-8.33368V407h-6.5V483.83301z"/>
	<rect x="545.5" y="471.375" class="st0" width="53.13574" height="5.625"/>
	<rect x="681.36426" y="471.375" class="st0" width="72.08203" height="5.625"/>
	<path class="st0" d="M545.5,483.66699c0,0.55273-0.44775,1-1,1h-17.35797l0.84161,1.62891h70.6521V479H545.5V483.66699z"/>
	<rect x="600.63574" y="407" class="st0" width="78.72852" height="79.2959"/>
	<rect x="526.5" y="447.08203" class="st0" width="17" height="35.58496"/>
	<rect x="526.5" y="439.33301" class="st0" width="17" height="5.74902"/>
	<path class="st0" d="M526.5,437.33301h18c0.55225,0,1,0.44727,1,1v7.74902V469.375h53.13574v-37.54199H526.5V437.33301z"/>
	<polygon class="st0" points="451.5,484.33008 473.8335,484.33008 473.8335,462.08948 451.5,449.69812 	"/>
	<polygon class="st0" points="451.5,447.4115 473.8335,459.80286 473.8335,436.25549 451.5,423.86505 	"/>
	<polygon class="st0" points="476.75195,352.55078 448.60498,352.55078 448.60498,357.35352 450.5,357.35352 474.8335,357.35352 
		476.75195,357.35352 	"/>
	<polygon class="st0" points="451.5,421.57849 473.8335,433.96893 473.8335,411.98401 451.5,399.59265 	"/>
	<path class="st0" d="M509.5,411.35254c0,0.55273-0.44775,1-1,1h-32.6665v17.48047H516V407h-6.5V411.35254z"/>
	<path class="st0" d="M475.8335,476.66699h5.5v-38.33398c0-0.55273,0.44775-1,1-1H516v-5.5h-40.1665V476.66699z"/>
	<rect x="489.02783" y="447.08203" class="st0" width="26.97217" height="35.58496"/>
	<path class="st0" d="M483.3335,482.66699h3.69434v-36.58496c0-0.55273,0.44775-1,1-1H516v-5.74902h-32.6665V482.66699z"/>
	<path class="st0" d="M839.9541,425.02148c-31.75488,0-57.58984,25.83496-57.58984,57.58984s25.83496,57.58984,57.58984,57.58984
		s57.58984-25.83496,57.58984-57.58984S871.70898,425.02148,839.9541,425.02148z"/>
	<polygon class="st0" points="1074.95508,447.4115 1097.28809,459.8028 1097.28809,436.25549 1074.95508,423.86511 	"/>
	<polygon class="st0" points="1074.95508,421.57849 1097.28809,433.96887 1097.28809,411.98401 1074.95508,399.59271 	"/>
	<rect x="681.36426" y="407" class="st0" width="72.08203" height="62.375"/>
	<polygon class="st0" points="1074.95508,484.33008 1097.28809,484.33008 1097.28809,466.625 1097.28809,462.08948 
		1074.95508,449.69818 	"/>
	<rect x="1099.28809" y="390.66699" class="st0" width="15.57324" height="74.95801"/>
	<polygon class="st0" points="1100.18359,352.55078 1072.05957,352.55078 1072.05957,357.35352 1073.95508,357.35352 
		1098.28809,357.35352 1100.18359,357.35352 	"/>
	<polygon class="st0" points="1074.95508,397.30603 1097.28809,409.69733 1097.28809,389.66699 1097.28809,386.75549 
		1074.95508,374.36511 	"/>
	<polygon class="st0" points="1097.28809,359.35352 1074.95508,359.35352 1074.95508,372.07849 1097.28809,384.46887 	"/>
	<path class="st0" d="M893.68164,405.61261l12.39209,27.81122h26.08472l-19.05176-42.75684H509.5V405h383.23535
		C893.09875,404.99042,893.56226,405.25458,893.68164,405.61261z"/>
	<polygon class="st0" points="473.8335,359.35352 451.5,359.35352 451.5,372.07849 473.8335,384.46893 	"/>
	<polygon class="st0" points="681.36426,486.2959 751.97583,486.2959 753.44629,483.58008 753.44629,479 681.36426,479 	"/>
	<path class="st0" d="M1098.28809,486.33301h-24.33301c-0.00513,0-0.0094-0.00287-0.01453-0.00293h-1.88098v4.80273h28.12402
		v-4.80273h-1.88098C1098.29749,486.33014,1098.29321,486.33301,1098.28809,486.33301z"/>
	<polygon class="st0" points="1072.95508,471.44141 938.02783,471.44141 941.16748,478.49805 1072.95508,478.49805 	"/>
	<polygon class="st0" points="906.96484,435.42383 926.15784,478.49805 938.97778,478.49805 919.81299,435.42383 	"/>
	<path class="st0" d="M904.50293,434.81152L892.11084,407H763.94629v49.43262h22.49121
		c9.70923-19.76819,30.04614-33.41113,53.5166-33.41113s43.80737,13.64294,53.5166,33.41113h20.66626l-9.63232-21.61755
		C904.50403,434.81384,904.50342,434.81274,904.50293,434.81152z"/>
	<polygon class="st0" points="451.5,397.30603 473.8335,409.69739 473.8335,386.75549 451.5,374.36505 	"/>
	<path class="st0" d="M203.61682,458.16699c0.30737-2.36273,1.29236-9.24243,3.33545-18h-37.05774v18H203.61682z"/>
	<path class="st0" d="M219.52051,213.5H326.5v-5H211.19208l-68.16595,93.75h11.34802l64.33826-88.33887
		C218.88074,213.68048,219.23462,213.5,219.52051,213.5z"/>
	<path class="st0" d="M211.67133,423.5H155.875v14.66699h51.55585C208.54822,433.59192,209.94586,428.58966,211.67133,423.5z"/>
	<circle class="st0" cx="191.25" cy="127.75" r="4.25"/>
	<rect x="155.875" y="440.16699" class="st0" width="5.07031" height="18"/>
	<rect x="162.94531" y="440.16699" class="st0" width="4.94922" height="18"/>
	<path class="st0" d="M213.28271,418.98145c0.31628-0.8399,0.63745-1.66669,0.96307-2.48145H155.875v5h56.49017
		C212.66302,420.66089,212.96655,419.82117,213.28271,418.98145z"/>
	<rect x="138.75" y="375.5" class="st0" width="15.125" height="9.5"/>
	<rect x="138.75" y="387" class="st0" width="15.125" height="18.16699"/>
	<rect x="188.67529" y="182.8335" class="st0" width="192.49121" height="15.09229"/>
	<path class="st0" d="M255.625,378.5H326.5v-157h-7.83301v68.27539c0,0.20605-0.08392,0.44855-0.21582,0.61426l-5.50146,6.91895
		c-0.18994,0.23926-0.47803,0.37793-0.78271,0.37793h-61.31934l-45.37744,37.88184
		c-0.17969,0.15039-0.40625,0.23242-0.64062,0.23242H166.75c-0.55225,0-1-0.44727-1-1c0-0.01385,0.00732-0.02533,0.00787-0.03906
		c-0.00055-0.01373-0.00787-0.02521-0.00787-0.03906v-44.69531l-9.875,13.55878V414.5h59.19312
		C224.96741,390.92438,238.92615,378.5,255.625,378.5z"/>
	<path class="st0" d="M91.06641,289.74512h6.13721c0.00861,0,0.01569,0.00464,0.02423,0.00488h2.83075v-40.625H88.125v40.625
		h2.91718C91.05072,289.74976,91.0578,289.74512,91.06641,289.74512z"/>
	<path class="st0" d="M382.1665,180.8335c0.55225,0,1,0.44775,1,1v9.58289l70.5708,6.80505v-5.50317c0-0.55225,0.44775-1,1-1
		h22.52539c0.55225,0,1,0.44775,1,1v7.8681l454.34863,43.81238V241c0-0.55225,0.44727-1,1-1h25.66699v-2c0-0.55225,0.44727-1,1-1
		h9.5h93.5c0.55273,0,1,0.44775,1,1v28.53522l16.05176-12.92926c0.16064-0.13,0.42261-0.22119,0.62695-0.22119h8.1543v-39.22638
		l-489.0957-47.16278c-0.68799-0.06757-1.11121-0.85156-0.78906-1.46191l5.82483-11.0459l-105.66724-10.92664l-0.39685,4.1283
		c-0.05243,0.54425-0.5506,0.9483-1.09131,0.8999l-71.17188-6.84131c-0.53876-0.05182-0.9516-0.55377-0.8999-1.09131
		l0.44751-4.65588L192,111.7757v9.77374c3.09326,0.37225,5.5,3.00854,5.5,6.20056s-2.40674,5.82831-5.5,6.20056v36.14325
		l108.93884,10.73969H382.1665z"/>
	<path class="st0" d="M133.06555,418.66699h15.10095c0.55225,0,1,0.44727,1,1V464.5h4.7085v-57.33301h-15.48584L133.06555,418.66699
		z"/>
	<polygon class="st0" points="128.1665,446.64929 137.52203,471.16699 147.1665,471.16699 147.1665,420.66699 128.1665,420.66699 	
		"/>
	<rect x="92.06641" y="291.75" class="st0" width="4.13721" height="4.625"/>
	<path class="st0" d="M100.05859,303.25c0-0.0014,0.00079-0.0025,0.00079-0.00391s-0.00079-0.0025-0.00079-0.00391V298.375h-2.85498
		h-6.13721H88.125v12.27832h49.625c0.55225,0,1,0.44727,1,1V329.75v43.75h15.125v-69.25h-52.81641
		C100.50635,304.25,100.05859,303.80273,100.05859,303.25z"/>
	<rect x="373.28955" y="477.27051" class="st0" width="63.17969" height="6.72949"/>
	<polygon class="st0" points="374.49658,475.27051 436.46924,475.27051 436.46924,437.5 407.61963,437.5 	"/>
	<rect x="373.28955" y="486.00977" class="st0" width="63.17969" height="6.73047"/>
	<path class="st0" d="M400.6665,433.6123c0,0.03088-0.01483,0.05682-0.01758,0.08698
		c-0.01227,0.21472-0.07758,0.42828-0.23047,0.60248l-37.14551,42.36456v6.48199l8.0166,8.14948v-6.28802
		c0-0.00171,0.00098-0.00317,0.00098-0.00488s-0.00098-0.00317-0.00098-0.00488v-8.72949c0-0.22504,0.09985-0.49036,0.24805-0.65918
		l34.87695-39.77051c0.18994-0.2168,0.46387-0.34082,0.75195-0.34082h30.30273c0.55225,0,1,0.44727,1,1v39.77051V485
		c0,0.00171-0.00098,0.00317-0.00098,0.00488s0.00098,0.00317,0.00098,0.00488v4.19421l5.44727-11.75665V401.25h-43.25V433.6123z"/>
	<polygon class="st0" points="450.5,486.33008 448.60498,486.33008 448.60498,491.13281 476.72852,491.13281 476.72852,486.33008 
		474.8335,486.33008 	"/>
	<path class="st0" d="M361.27295,483.55762V438h-13v45.41571l5.81421,20.05402h12.91772l-5.69238-19.63379
		C361.29425,483.79456,361.27295,483.65369,361.27295,483.55762z"/>
	<path class="st0" d="M449.5,381.63531l-8.85986,7.38324c-0.16016,0.133-0.43762,0.23145-0.64014,0.23145h-43
		c-0.55225,0-1-0.44727-1-1V369h-13.82422v43.33301c0,0.55273-0.44775,1-1,1H369.125c-0.55225,0-1-0.44727-1-1v-21.43207
		l-8.17236-8.10406h-6.5376h-1.97717l6.18958,9.5332c0.0896,0.13843,0.16113,0.38019,0.16113,0.54492v39.13287l5.12061,4.22064
		c0.20874,0.17261,0.36377,0.50201,0.36377,0.77148v36.63275l35.39355-40.36646v-33.00903c0-0.00256-0.00146-0.0047-0.00146-0.00726
		c0-0.55273,0.44775-1,1-1h45.25146c0.55225,0,1,0.44727,1,1v76.41699H449.5V381.63531z"/>
	<path class="st0" d="M227.5,280.67828v24.4762L246.85986,289c0.17969-0.15039,0.40625-0.23242,0.64062-0.23242h69.1665V221.5
		h-67.46844L227.5,280.67828z"/>
	<path class="st0" d="M326.5,215.5H220.02917l-2.91327,4H241.5c0.66553,0,1.16821,0.71893,0.93896,1.34424L220.5,280.67828v32.22211
		c0,0.36237-0.06921,0.7688-0.36426,1.01465l-17.59229,14.68652c-0.17969,0.15039-0.40625,0.23242-0.64062,0.23242h-28.14307
		c-0.55225,0-1-0.44727-1-1v-47.43127l-5.00977,6.8786v46.51947h36.7168l45.37744-37.88184
		c0.17969-0.15039,0.40625-0.23242,0.64062-0.23242h61.19971l3.91113-4.91895h-67.73291l-20.72217,17.29102
		c-0.62665,0.52454-1.64062,0.04907-1.64062-0.76758V280.5c0.00586-0.12744,0.01764-0.22943,0.06104-0.34473l22-59.99951
		C247.69604,219.7851,248.10602,219.5,248.5,219.5h78V215.5z"/>
	<path class="st0" d="M218.5,280.5c0.00391-0.12549,0.02747-0.22156,0.06104-0.34473L240.06812,221.5H215.6593l-40.89954,56.15662
		v49.17737h26.78027L218.5,312.67584V280.5z"/>
	<polygon class="st0" points="347.78174,426.35156 336.56885,426.35156 347.56396,436 359.4873,436 	"/>
	<path class="st0" d="M257.33252,404.5H335.5v-2c0-0.55273,0.44775-1,1-1h4v-21h-84.875
		c-40.88232,0-50.04346,77.99023-50.13135,78.77734c-0.05347,0.48248-0.51227,0.88965-0.99365,0.88965h-48.625V464.5h51.24939
		c1.10413-3.09906,6.01868-16.37701,13.65686-29.50293C232.55762,414.76074,244.85498,404.5,257.33252,404.5z"/>
	<path class="st0" d="M333.25342,426.10352c-0.19513-0.172-0.34033-0.49255-0.34033-0.75195V419.5h-62.82471
		c-20.11157,0-39.224,23.32568-48.66364,36.93262h9.19885c9.71027-19.76556,30.03638-33.41113,53.50433-33.41113
		c23.46741,0,43.78894,13.64502,53.49481,33.41113h8.65021v-18.9043L333.25342,426.10352z"/>
	<path class="st0" d="M284.12793,425.02148c-31.75537,0-57.58984,25.83496-57.58984,57.58984s25.83447,57.58984,57.58984,57.58984
		s57.58984-25.83496,57.58984-57.58984S315.8833,425.02148,284.12793,425.02148z"/>
	<path class="st0" d="M270.08838,417.5h62.82471v-6c0-0.55273,0.44775-1,1-1H335.5v-4h-78.16748
		c-25.75916,0-44.89087,49.2597-48.08038,58h4.58789c1.39532-2.38281,7.69476-12.83154,16.72247-23.1582
		C244.39307,425.52148,257.69141,417.5,270.08838,417.5z"/>
	<path class="st1" d="M1115.86133,388.66699h-16.57324v-29.31348h1.89551c0.55225,0,1-0.44775,1-1v-6.80273c0-0.55231-0.44775-1-1-1
		h-30.12402c-0.55273,0-1,0.44727-1,1c0,0.00159,0.00098,0.00281,0.00098,0.00439s-0.00098,0.00281-0.00098,0.00439v6.79395
		c0,0.55225,0.44775,1,1,1h1.89551v29.31348h-39.00977v-13.5h29.33301c0.55225,0,1-0.44775,1-1v-42.06885l38.45117-67.35254
		c0.07068-0.12329,0.13184-0.35315,0.13184-0.49561v-51c0-23.88037-17.52246-25.87646-17.70117-25.89404l-472.78125-45.43359
		c-0.37274-0.03198-0.79968,0.19489-0.98047,0.5293l-5.34167,10.12964L499.5755,141.57043l0.43378-4.51282
		c0.05261-0.54761-0.35229-1.0387-0.8999-1.09131L427.9375,129.125c-0.55664-0.04834-1.03857,0.35059-1.09131,0.8999
		l-0.38306,3.98523L192,109.76514v-3.28857c0-0.55231-0.44769-1-1-1h-8.8623V6c0-0.55231-0.44769-1-1-1H8.8877
		c-0.55231,0-1,0.44769-1,1v165c0,0.55225,0.44769,1,1,1h172.25h9.81366l89.60309,8.8335h-92.87915c-0.55231,0-1,0.44769-1,1
		v17.09229c0,0.55225,0.44769,1,1,1h27.27905L140.55402,302.25h-38.49542v-4.875c0-0.55231-0.44769-1-1-1h-2.85498v-4.625h2.85498
		c0.55231,0,1-0.44775,1-1v-42.625c0-0.55231-0.44769-1-1-1H87.125c-0.55231,0-1,0.44769-1,1v42.625c0,0.55225,0.44769,1,1,1
		h2.94141v4.625H87.125c-0.55231,0-1,0.44769-1,1v14.27832c0,0.55225,0.44769,1,1,1h49.625V329.75v76.19641l-5.88867,12.72058
		h-3.69482c-0.55225,0-1,0.44727-1,1c0,0.0246,0.01221,0.04517,0.01398,0.06934c-0.00177,0.02417-0.01398,0.04474-0.01398,0.06934
		v27.02734c0.01239,0.14941,0.02863,0.19507,0.06592,0.35645l9.66699,25.33398c0.14087,0.36694,0.54218,0.64355,0.93408,0.64355
		h11.33301c0.55231,0,1-0.44775,1-1V466.5h64.8288c0.70447,0,1.25482-0.46875,1.6463-1.04468
		c0.40546-0.5965,2.36414-3.94257,3.8515-6.18188l0.56757-0.84082h9.62305l-0.38074,0.84082
		c-0.72754,1.70258-1.37317,3.44745-1.94214,5.22656l-0.59161,2c-1.44263,5.12848-2.23114,10.52795-2.23114,16.11133
		c0,32.8584,26.73193,59.58984,59.58984,59.58984c32.2052,0,58.50751-25.68439,59.54047-57.64355l0.04803-2
		c-0.00159-1.77612-0.09418-3.53064-0.24872-5.26758l-0.21582-2c-0.73065-5.93304-2.34924-11.59192-4.69611-16.85742h7.71716
		v16.85742v2c0,0,0,4.15234,0,5.26758c0,1.11517,0.12378,1.56891,0.24878,2c0.125,0.43103,5.85376,20.19043,5.85376,20.19043
		c0.11646,0.40027,0.54401,0.72168,0.96045,0.72168h15.00012c0.66589,0,1.14575-0.63873,0.96033-1.27832l-4.96106-17.11133
		l7.24133,7.36133c0.18481,0.18481,0.45074,0.29883,0.71289,0.29883h65.17969c0.51074,0,0.74841-0.25201,0.92139-0.61066
		l7.16431-15.46259H449.5v5.66309h-1.89502c-0.55231,0-1,0.44769-1,1v6.80273c0,0.55225,0.44769,1,1,1h30.12354
		c0.55231,0,1-0.44775,1-1v-6.80273c0-0.55231-0.44769-1-1-1h-1.89502v-5.66309h5.5v5c0,0.55225,0.44769,1,1,1h5.69434h28.36194
		l4.48328,8.71191c0.17126,0.33276,0.51416,0.54199,0.88849,0.54199h236.42303c0.33264,0,0.7312-0.24109,0.8855-0.53577
		l4.76196-9.08826c0.06287-0.11993,0.11426-0.32886,0.11426-0.46429v-25.39996h21.56348
		c-3.60693,8.09003-5.47998,17.11639-5.09619,26.61554c1.24268,30.75226,26.18433,55.77911,56.93335,57.09705
		c34.03979,1.45898,62.19702-25.81055,62.19702-59.53387c0-8.6059-1.84839-16.78351-5.14551-24.17871h20.62964l9.5686,21.47461
		c0.16016,0.35931,0.5166,0.59082,0.91016,0.59082h147.44824v3.83203h-1.89551c-0.55225,0-1,0.44769-1,1v6.80273
		c0,0.55225,0.44775,1,1,1h30.12402c0.55225,0,1-0.44775,1-1v-6.80273c0-0.55231-0.44775-1-1-1h-1.89551V467.625h16.57324
		c0.55225,0,1-0.44775,1-1v-76.95801C1116.86133,389.11469,1116.41357,388.66699,1115.86133,388.66699z M180.1377,106.47656V127.375
		V170H9.8877V14.31445h170.25V106.47656z M180.1377,12.31445H9.8877V7h170.25V12.31445z M1072.95508,390.66699v42.75684h-16.84375
		V413.75c0-0.55273-0.44727-1-1-1h-52.5c-0.55273,0-1,0.44727-1,1v11.02051H959.1123v-34.10352h73.83301H1072.95508z
		 M928.78125,435.42383h73.83008h51.06299l-12.16479,34.01758h-97.5708L928.78125,435.42383z M941.74976,469.44141h-4.61182
		l-15.13525-34.01758h4.58948L941.74976,469.44141z M508.5,385.16699h-6.09961v-16.625c0-0.55273-0.44775-1-1-1H495v-53.375
		c0-0.19055-0.0882-0.45197-0.20312-0.60352l-21.1582-27.9306V216.25h3.62402c0.55225,0,1-0.44775,1-1v-6.052l285.49719,27.52258
		l81.86755,39.34283c0.00439,3.61902,1.31262,6.54071,3.83643,7.74811c0.79102,0.37793,1.6377,0.55859,2.51465,0.55859
		c0.33643,0,0.67822-0.03607,1.02197-0.08826l106.27783,50.9306v3.31531l-26.80176,22.03278
		c-0.2063,0.16931-0.36523,0.50519-0.36523,0.77246v11.83398h-11.5498c-0.55273,0-1,0.44727-1,1v14.5H509.5v-2.5
		C509.5,385.61426,509.05225,385.16699,508.5,385.16699z M477.75195,350.55078h-17.05518v-10.3335h23.06006v27.32471h-7.92334
		v-8.18848h1.91846c0.55225,0,1-0.44727,1-1v-6.80273C478.75195,350.99805,478.3042,350.55078,477.75195,350.55078z
		 M451.29736,313.56348l-51.57281-68.19238h6.64917l52.32306,69.13165v36.04803H451.5v-36.38379
		C451.5,313.87677,451.39166,313.68811,451.29736,313.56348z M447.60498,359.35352H449.5v19.6778l-9.86243,8.21869H398V368
		c0-0.55273-0.44775-1-1-1h-14.82422V263.66846v-7.1333c0-0.55225-0.44775-1-1-1H370.125V234.375
		c0-0.20496-0.09735-0.47662-0.22754-0.63477l-27.79492-33.81445h39.97791l71.65686,6.9079V215.25c0,0.55225,0.44775,1,1,1h3.62402
		v49.21552l-16.26514-21.47137v-5.78564h1.57031c0.55225,0,1-0.44775,1-1v-6.89795c0-0.55225-0.44775-1-1-1h-49.94873
		c-0.55225,0-1,0.44775-1,1v6.89795c0,0.55225,0.44775,1,1,1h2.99854v6.1626c0,0.18994,0.08759,0.45306,0.20264,0.60498
		L449.5,314.50256v36.04822h-1.89502c-0.55225,0-1,0.44727-1,1v6.80273
		C446.60498,358.90625,447.05273,359.35352,447.60498,359.35352z M369.125,262.66846h-11.25v-5.1333h11.25h11.05078v5.1333H369.125z
		 M380.17578,264.66846v146.66455H370.125V328.75v-8v-56.08154H380.17578z M360.36426,335.73535h-6.94922h-7.76025V329.75H368.125
		v5.98535H360.36426z M368.125,337.73535v50.34918l-6.76074-6.70422v-43.64496H368.125z M359.36426,337.73535v43.06152h-4.94922
		v-43.06152H359.36426z M348.14062,410.5H346.5v-8c0-0.55273-0.44775-1-1-1h-3v-21.72528l2.19263-3.69293l11.09595,17.08997
		v37.18768l-6.64795-5.47955V411.5C349.14062,410.94727,348.69287,410.5,348.14062,410.5z M356.875,233.375h-11.22021v-9.26294
		c0-0.00061,0-0.00122,0-0.00183v-0.00476c0-0.07117-0.02643-0.13361-0.04053-0.20056
		c-0.0127-0.06134-0.01123-0.12329-0.03613-0.18323l-0.00165-0.00403c-0.00043-0.00092-0.00073-0.00171-0.0011-0.00256
		l-6.9024-16.59637c-0.00208-0.00494-0.00385-0.00958-0.00598-0.01447l-2.98553-7.17847h3.83264l27.49469,33.44922H356.875z
		 M368.125,235.375v20.16016h-10.25V235.375H368.125z M355.875,235.375v21.16016v7.1333V319.75h-10.22021v-84.375H355.875z
		 M343.65479,224.30493V234.375v86.375v8v45.1618L340.9306,378.5H328.5v-170h8.58154L343.65479,224.30493z M345.5,412.5h1.64062
		v11.85156h-12.22754V412.5H336.5H345.5z M337.5,410.5v-7h7v7H337.5z M345.65479,373.88977v-36.15442h6.76025v43.06152h-2.2757
		L345.65479,373.88977z M345.65479,327.75v-6H356.875h11.25v6H345.65479z M357.875,319.75v-55.08154h10.25V319.75H357.875z
		 M383.1665,198.02124v-4.59509l70.5708,6.80505v4.59326L383.1665,198.02124z M485.5542,313.56348l-51.57281-68.19238h6.64905
		L493,314.50238v53.03961h-7.24316v-53.375C485.75684,313.97675,485.66895,313.71509,485.5542,313.56348z M460.69678,327.13623
		v-11.96924h5.42188h17.63818v11.96924H460.69678z M483.75684,329.13623v9.08105h-23.06006v-9.08105H483.75684z M398.71631,238.229
		h41.37988v5.14209h-41.37988V238.229z M394.71777,236.2085v-4.89795h47.94873v4.89795H394.71777z M431.47455,245.37109
		l10.9386,14.46387H419.8291l-10.94714-14.46387H431.47455z M443.92572,261.83496l5.35559,7.08154h-22.57874l-5.35974-7.08154
		H443.92572z M450.79382,270.9165l8.44641,11.16846h-22.57098l-8.45294-11.16846H450.79382z M460.75281,284.08496l5.35596,7.08203
		h-22.56567l-5.36011-7.08203H460.75281z M467.62128,293.16699l8.25702,10.91797h-22.55811l-8.26337-10.91797H467.62128z
		 M460.36133,268.10565V216.25h11.27734v66.74268L460.36133,268.10565z M459.36133,214.25h-3.62402v-20.53174h20.52539V214.25
		h-3.62402H459.36133z M454.83392,306.08496h22.55688l5.35596,7.08203h-16.62811h-5.92462L454.83392,306.08496z
		 M500.40039,369.54199v15.625H475.8335v-15.625H500.40039z M507.5,387.16699v2.5V406v4.35254h-31.6665v-23.18555H507.5z
		 M1031.94531,375.16699v13.5H921.56152v-13.5h48.2168H1031.94531z M970.77832,373.16699V239h39.16699v134.16699H970.77832z
		 M957.1123,390.66699v34.10352h-19.84033l-15.1709-34.10352H957.1123z M968.77832,373.16699h-34.66699v-11.36176l26.80176-22.03278
		c0.20642-0.16937,0.36523-0.50519,0.36523-0.77246v-62.04199V251.3335V241v-2h7.5V373.16699z M925.76074,277.95801h33.51758
		v27.20447l-129.76208-62.10284l95.24451,9.18182v24.71655C924.76074,277.51074,925.20801,277.95801,925.76074,277.95801z
		 M864.76392,262.146l94.5144,45.23431v7.6145l-94.25146-45.15094C865.64551,266.93835,865.54199,264.24628,864.76392,262.146z
		 M856.75244,258.31171c-0.87646,0.29596-1.771,0.73621-2.66846,1.34698c-1.67773,1.14337-3.23389,2.76117-4.55664,4.68768
		l-28.79468-13.78827l3.72266-7.70374L856.75244,258.31171z M818.49524,250.59149c-0.00061,0.0011-0.00159,0.00165-0.00208,0.00275
		c-0.00049,0.00104-0.00024,0.0022-0.00073,0.00323l-4.00256,8.28278l-44.95251-21.60272l52.92603,5.10223L818.49524,250.59149z
		 M819.86255,252.35858l28.59839,13.69434c-0.25232,0.44873-0.49561,0.90637-0.72168,1.37872
		c-1.05298,2.20203-1.70496,4.41272-1.97534,6.47797l-29.47144-14.16309L819.86255,252.35858z M849.54395,268.29492
		c1.42871-2.98682,3.44043-5.4668,5.66602-6.9834c1.38379-0.94287,2.72168-1.42432,3.90527-1.42432
		c0.58301,0,1.12988,0.11719,1.625,0.354c3.23828,1.5498,3.58301,7.85547,0.75391,13.77002
		c-2.81445,5.8833-7.92578,9.54736-11.16699,7.99561C847.08789,280.45801,846.72949,274.17822,849.54395,268.29492z
		 M863.29883,274.87451c0.49023-1.02521,0.88477-2.0506,1.20483-3.06403l94.77466,45.40161v15.78302l-103.54968-49.62329
		C858.57983,281.90637,861.37134,278.90302,863.29883,274.87451z M959.27832,250.3335h-24.66699V242h24.66699V250.3335z
		 M959.27832,252.3335v23.62451h-32.51758V252.3335h6.85059H959.27832z M932.61133,250.3335h-6.80054l-447.5481-43.14471v-4.59265
		l454.34863,43.81226V250.3335z M919.91162,390.66699l15.79639,35.50977c0.1521,0.3418,0.53906,0.59375,0.91406,0.59375h64.98926
		v6.65332h-67.26367l-19.05176-42.75684H919.91162z M1054.11133,426.77051v6.65332h-50.5v-6.65332H1054.11133z
		 M1003.61133,424.77051V414.75h50.5v10.02051H1003.61133z M1055.7981,435.42383h17.15698v34.01758h-29.32178L1055.7981,435.42383z
		 M1062.27832,373.16699h-29.33301h-21V239h50.33301V373.16699z M1064.27832,328.06464v-50.3078l21.13757-17.06696
		l10.70496,11.59888L1064.27832,328.06464z M1084.05688,259.21741l-19.77856,15.96887v-6.08344l16.57812-13.35321
		L1084.05688,259.21741z M1083.24023,255.38477h5.87109v6.36127L1083.24023,255.38477z M1097.16064,270.46747l-4.81543-5.21747
		h7.79419L1097.16064,270.46747z M607.51233,154.10925c0.0014-0.00256,0.00275-0.00507,0.00409-0.00769l5.33862-10.12384
		l472.1098,45.36896c0.64844,0.06689,15.89648,1.88965,15.89648,23.90332v50h-9.75v-50c0-0.48621-0.42029-0.94904-0.9043-0.99561
		l-488.5155-47.10687L607.51233,154.10925z M428.7417,131.21191l69.18066,6.6499l-0.83057,8.64062l-69.18066-6.6499
		L428.7417,131.21191z M182.1377,107.47656H190v14.14941c-2.40289,0.48969-4.30438,2.36401-4.84265,4.74902h-3.01965V107.47656z
		 M190,170h-7.8623v-41.625h2.89398c0.27301,2.73669,2.31818,4.95892,4.96832,5.49902V170z M187,127.75
		c0-2.34326,1.90674-4.25,4.25-4.25s4.25,1.90674,4.25,4.25s-1.90674,4.25-4.25,4.25S187,130.09326,187,127.75z M192,170.09381
		v-36.14325c3.09326-0.37225,5.5-3.00854,5.5-6.20056s-2.40674-5.82831-5.5-6.20056v-9.77374l234.27173,24.22516l-0.44751,4.65588
		c-0.0517,0.53754,0.36115,1.03949,0.8999,1.09131l71.17188,6.84131c0.54071,0.0484,1.03888-0.35565,1.09131-0.8999l0.39685-4.1283
		l105.66724,10.92664l-5.82483,11.0459c-0.32214,0.61035,0.10107,1.39435,0.78906,1.46191l489.0957,47.16278v39.22638h-8.1543
		c-0.20435,0-0.46631,0.09119-0.62695,0.22119l-16.05176,12.92926V238c0-0.55225-0.44727-1-1-1h-93.5h-9.5c-0.55273,0-1,0.44775-1,1
		v2h-25.66699c-0.55273,0-1,0.44775-1,1v3.39874L478.2627,200.58636v-7.8681c0-0.55225-0.44775-1-1-1H454.7373
		c-0.55225,0-1,0.44775-1,1v5.50317l-70.5708-6.80505v-9.58289c0-0.55225-0.44775-1-1-1h-81.22766L192,170.09381z
		 M188.67529,197.92578V182.8335H381.1665v15.09229H188.67529z M217.42645,199.92578h116.08911l2.73419,6.57422H212.6463
		L217.42645,199.92578z M88.125,289.75v-40.625h11.93359v40.625h-2.83075c-0.00854-0.00024-0.01562-0.00488-0.02423-0.00488
		h-6.13721c-0.00861,0-0.01569,0.00464-0.02423,0.00488H88.125z M96.20361,291.75v4.625h-4.13721v-4.625H96.20361z
		 M147.1665,471.16699h-9.64447l-9.35553-24.5177v-25.9823h19V471.16699z M153.875,464.5h-4.7085v-44.83301c0-0.55273-0.44775-1-1-1
		h-15.10095l5.32361-11.5H153.875V464.5z M153.875,405.16699H138.75V387h15.125V405.16699z M153.875,385H138.75v-9.5h15.125V385z
		 M153.875,373.5H138.75v-43.75v-18.09668c0-0.55273-0.44775-1-1-1H88.125V298.375h2.94141h6.13721h2.85498v4.86719
		c0,0.0014,0.00079,0.0025,0.00079,0.00391s-0.00079,0.0025-0.00079,0.00391c0,0.55273,0.44775,1,1,1H153.875V373.5z
		 M143.02612,302.25l68.16595-93.75H326.5v5H219.52051c-0.28589,0-0.63977,0.18048-0.80811,0.41113L154.37415,302.25H143.02612z
		 M155.875,438.16699V423.5h55.79633c-1.72546,5.08966-3.12311,10.09192-4.24048,14.66699H155.875z M206.95227,440.16699
		c-2.04309,8.75757-3.02808,15.63727-3.33545,18h-33.72229v-18H206.95227z M167.89453,440.16699v18h-4.94922v-18H167.89453z
		 M160.94531,440.16699v18H155.875v-18H160.94531z M155.875,421.5v-5h58.37079c-0.32562,0.81476-0.64679,1.64154-0.96307,2.48145
		c-0.31616,0.83972-0.61969,1.67944-0.91754,2.51855H155.875z M155.875,414.5V303.58612l9.875-13.55878v44.69531
		c0,0.01385,0.00732,0.02533,0.00787,0.03906c-0.00055,0.01373-0.00787,0.02521-0.00787,0.03906c0,0.55273,0.44775,1,1,1h38.07959
		c0.23438,0,0.46094-0.08203,0.64062-0.23242l45.37744-37.88184h61.31934c0.30469,0,0.59277-0.13867,0.78271-0.37793
		l5.50146-6.91895c0.1319-0.16571,0.21582-0.4082,0.21582-0.61426V221.5H326.5v157h-70.875
		c-16.69885,0-30.65759,12.42438-40.55688,36H155.875z M316.66699,288.76758h-69.1665c-0.23438,0-0.46094,0.08203-0.64062,0.23242
		L227.5,305.15448v-24.4762L249.19855,221.5h67.46844V288.76758z M248.5,219.5c-0.39398,0-0.80396,0.2851-0.93896,0.65576
		l-22,59.99951c-0.0434,0.1153-0.05518,0.21729-0.06104,0.34473v26.79102c0,0.81665,1.01398,1.29211,1.64062,0.76758
		l20.72217-17.29102h67.73291l-3.91113,4.91895h-61.19971c-0.23438,0-0.46094,0.08203-0.64062,0.23242l-45.37744,37.88184H167.75
		v-46.51947l5.00977-6.8786v47.43127c0,0.55273,0.44775,1,1,1h28.14307c0.23438,0,0.46094-0.08203,0.64062-0.23242
		l17.59229-14.68652c0.29504-0.24585,0.36426-0.65228,0.36426-1.01465v-32.22211l21.93896-59.83405
		c0.22925-0.62531-0.27344-1.34424-0.93896-1.34424h-24.38409l2.91327-4H326.5v4H248.5z M174.75977,326.83398v-49.17737
		L215.6593,221.5h24.40881l-21.50708,58.65527c-0.03357,0.12317-0.05713,0.21924-0.06104,0.34473v32.17584l-16.95996,14.15814
		H174.75977z M155.875,464.5v-4.33301H204.5c0.48138,0,0.94019-0.40717,0.99365-0.88965
		C205.58154,458.49023,214.74268,380.5,255.625,380.5H340.5v21h-4c-0.55225,0-1,0.44727-1,1v2h-78.16748
		c-12.47754,0-24.7749,10.26074-36.55127,30.49707c-7.63818,13.12592-12.55273,26.40387-13.65686,29.50293H155.875z
		 M213.84003,464.5h-4.58789c3.18951-8.7403,22.32123-58,48.08038-58H335.5v4h-1.58691c-0.55225,0-1,0.44727-1,1v6h-62.82471
		c-12.39697,0-25.69531,8.02148-39.52588,23.8418C221.53479,451.66846,215.23535,462.11719,213.84003,464.5z M284.12793,540.20117
		c-31.75537,0-57.58984-25.83496-57.58984-57.58984s25.83447-57.58984,57.58984-57.58984s57.58984,25.83496,57.58984,57.58984
		S315.8833,540.20117,284.12793,540.20117z M337.62274,456.43262c-9.70587-19.76611-30.0274-33.41113-53.49481-33.41113
		c-23.46796,0-43.79407,13.64557-53.50433,33.41113h-9.19885C230.86438,442.82568,249.97681,419.5,270.08838,419.5h62.82471v5.85156
		c0,0.2594,0.1452,0.57996,0.34033,0.75195l13.01953,11.4248v18.9043H337.62274z M336.56885,426.35156h11.21289L359.4873,436
		h-11.92334L336.56885,426.35156z M367.00488,503.46973h-12.91772l-5.81421-20.05402V438h13v45.55762
		c0,0.09607,0.0213,0.23694,0.03955,0.27832L367.00488,503.46973z M436.46924,492.74023h-63.17969v-6.73047h63.17969V492.74023z
		 M436.46924,484h-63.17969v-6.72949h63.17969V484z M436.46924,475.27051h-61.97266L407.61963,437.5h28.84961V475.27051z
		 M443.9165,477.44733l-5.44727,11.75665v-4.19421c0-0.00171-0.00098-0.00317-0.00098-0.00488s0.00098-0.00317,0.00098-0.00488
		v-8.72949V436.5c0-0.55273-0.44775-1-1-1H407.1665c-0.28809,0-0.56201,0.12402-0.75195,0.34082l-34.87695,39.77051
		c-0.14819,0.16882-0.24805,0.43414-0.24805,0.65918V485c0,0.00171,0.00098,0.00317,0.00098,0.00488
		s-0.00098,0.00317-0.00098,0.00488v6.28802l-8.0166-8.14948v-6.48199l37.14551-42.36456
		c0.15289-0.17419,0.2182-0.38776,0.23047-0.60248c0.00275-0.03015,0.01758-0.05609,0.01758-0.08698V401.25h43.25V477.44733z
		 M445.9165,476.66699V400.25c0-0.55273-0.44775-1-1-1h-45.25146c-0.55225,0-1,0.44727-1,1
		c0,0.00256,0.00146,0.0047,0.00146,0.00726v33.00903l-35.39355,40.36646V437c0-0.26947-0.15503-0.59888-0.36377-0.77148
		l-5.12061-4.22064V392.875c0-0.16473-0.07153-0.40649-0.16113-0.54492l-6.18958-9.5332h1.97717h6.5376l8.17236,8.10406v21.43207
		c0,0.55273,0.44775,1,1,1h12.05078c0.55225,0,1-0.44727,1-1V369H396v19.25c0,0.55273,0.44775,1,1,1h43
		c0.20251,0,0.47998-0.09845,0.64014-0.23145l8.85986-7.38324v95.03168H445.9165z M476.72852,486.33008v4.80273h-28.12354v-4.80273
		H450.5h24.3335H476.72852z M473.8335,386.75549v22.94189L451.5,397.30603v-22.94098L473.8335,386.75549z M451.5,372.07849
		v-12.72498h22.3335v25.11542L451.5,372.07849z M473.8335,411.98401v21.98492L451.5,421.57849v-21.98584L473.8335,411.98401z
		 M473.8335,436.25549v23.54736L451.5,447.4115v-23.54645L473.8335,436.25549z M473.8335,462.08948v22.2406H451.5v-34.63196
		L473.8335,462.08948z M474.8335,357.35352H450.5h-1.89502v-4.80273h28.14697v4.80273H474.8335z M516,482.66699h-26.97217v-35.58496
		H516V482.66699z M516,445.08203h-27.97217c-0.55225,0-1,0.44727-1,1v36.58496h-3.69434v-43.33398H516V445.08203z M516,437.33301
		h-33.6665c-0.55225,0-1,0.44727-1,1v38.33398h-5.5v-44.83398H516V437.33301z M516,429.83301h-40.1665v-17.48047H508.5
		c0.55225,0,1-0.44727,1-1V407h6.5V429.83301z M761.94629,483.58722l-4.36658,8.33368H522.37244L518,483.42438v-37.34235V438.625
		v-0.29199V407h6.5v31.33301v0.29199v7.45703v37.58496c0,0.12097,0.05658,0.35193,0.11182,0.45898l1.875,3.62891
		c0.16321,0.31665,0.53027,0.54102,0.88818,0.54102h225.19629c0.34619,0,0.71497-0.22101,0.87891-0.52344l1.875-3.46289
		c0.06262-0.11664,0.12109-0.34344,0.12109-0.47656V407h6.5V483.58722z M598.63574,431.83301V469.375H545.5v-23.29297v-7.74902
		c0-0.55273-0.44775-1-1-1h-18v-5.5H598.63574z M526.5,429.83301V407h72.13574v22.83301H526.5z M545.5,477v-5.625h53.13574V477
		H545.5z M598.63574,479v7.2959h-70.6521l-0.84161-1.62891H544.5c0.55225,0,1-0.44727,1-1V479H598.63574z M543.5,439.33301v5.74902
		h-17v-5.74902H543.5z M543.5,447.08203v35.58496h-17v-35.58496H543.5z M600.63574,486.2959V407h78.72852v79.2959H600.63574z
		 M753.44629,471.375V477h-72.08203v-5.625H753.44629z M681.36426,469.375V407h72.08203v62.375H681.36426z M753.44629,479v4.58008
		l-1.47046,2.71582h-70.61157V479H753.44629z M509.5,405v-14.33301h403.60669l19.05176,42.75684h-26.08472l-12.39209-27.81122
		c-0.11938-0.35803-0.58289-0.62219-0.94629-0.61261H509.5z M897.54395,482.61133c0,31.75488-25.83496,57.58984-57.58984,57.58984
		s-57.58984-25.83496-57.58984-57.58984s25.83496-57.58984,57.58984-57.58984S897.54395,450.85645,897.54395,482.61133z
		 M893.4707,456.43262c-9.70923-19.76819-30.04614-33.41113-53.5166-33.41113s-43.80737,13.64294-53.5166,33.41113h-22.49121V407
		h128.16455l12.39209,27.81152c0.00049,0.00122,0.0011,0.00232,0.00171,0.00354l9.63232,21.61755H893.4707z M926.15784,478.49805
		l-19.19299-43.07422h12.84814l19.16479,43.07422H926.15784z M941.16748,478.49805l-3.13965-7.05664h134.92725v7.05664H941.16748z
		 M1100.18359,486.33008v4.80273h-28.12402v-4.80273h1.88098c0.00513,0.00006,0.0094,0.00293,0.01453,0.00293h24.33301
		c0.00513,0,0.0094-0.00287,0.01453-0.00293H1100.18359z M1097.28809,386.75549v2.9115v20.03033l-22.33301-12.3913v-22.94092
		L1097.28809,386.75549z M1074.95508,372.07849v-12.72498h22.33301v25.11536L1074.95508,372.07849z M1097.28809,411.98401v21.98486
		l-22.33301-12.39038v-21.98578L1097.28809,411.98401z M1097.28809,436.25549v23.5473l-22.33301-12.3913v-23.54639
		L1097.28809,436.25549z M1097.28809,462.08948v4.53552v17.70508h-22.33301v-34.6319L1097.28809,462.08948z M1098.28809,357.35352
		h-24.33301h-1.89551v-4.80273h28.12402v4.80273H1098.28809z M1114.86133,465.625h-15.57324v-74.95801h15.57324V465.625z"/>
</g>
</svg>
