<?xml version="1.0" encoding="utf-8"?>
<!-- Generator: Adobe Illustrator 21.0.2, SVG Export Plug-In . SVG Version: 6.00 Build 0)  -->
<svg version="1.1" id="Слой_1" xmlns="http://www.w3.org/2000/svg" xmlns:xlink="http://www.w3.org/1999/xlink" x="0px" y="0px"
	 viewBox="0 0 255 95" style="enable-background:new 0 0 255 95;" xml:space="preserve">
<style type="text/css">
	.st0{fill:#2E3192;}
	.st1{fill:#FFFFFF;}
	.st2{fill:#FF931E;}
</style>
<rect class="st0" width="255" height="95"/>
<g>
	<g id="text">
		<path class="st1" d="M52.94635,44.02194c0,4.77601-3.7886,8.18289-8.25138,9.05486
			c-2.30456,0.45028-4.7821,0.3899-7.04454-0.24775c-2.35074-0.66254-4.11043-1.98949-6.12413-3.28708l-0.20996-0.13
			l2.54999-4.28003l0.22998,0.17004c3.03575,2.42456,7.01762,4.08774,10.85857,2.60215
			c1.67029-0.64603,3.12807-1.93232,3.13143-3.84214c0.00348-1.97739-1.58473-3.05239-3.27373-3.67878
			c-3.57812-1.32698-8.22641-1.39939-10.49589-4.95759c-2.09829-3.28979-1.09792-7.89822,1.91782-10.24586
			c3.56147-2.77247,8.65818-2.38559,12.3518-0.06778l0.21002,0.13l-2.48999,4.23999l-0.22003-0.13
			c-1.99864-1.2096-5.34812-2.13382-7.13995-0.11999c-0.76982,0.86521-1.12173,2.23811-0.59317,3.31646
			c0.53168,1.08469,1.99446,1.57747,3.06984,1.91022c2.80953,0.86933,5.90316,1.12165,8.36252,2.87505
			C52.03983,38.94087,52.94635,41.32116,52.94635,44.02194z"/>
		<path class="st1" d="M82.24615,53.35196V41.60684c0-2.68254-0.94239-5.55086-4.10089-5.43801
			c-3.47401,0.12412-4.2243,3.66824-4.2243,6.51809v10.66504h-4.90527V41.56192c0-2.66292-0.85712-5.50507-4.01069-5.39309
			c-3.47989,0.12357-4.31353,3.63268-4.31353,6.51809v10.66504h-4.90527V32.03191h4.90527v3.27513
			c0.44922-0.95996,1.19141-1.77734,2.22656-2.45312c2.18822-1.4244,5.86636-1.46191,8.03321,0.06836
			c1.01953,0.71973,1.75488,1.60547,2.20508,2.6543c0.50977-1.04883,1.33398-1.93457,2.47461-2.6543
			c2.24338-1.41869,5.58249-1.48481,7.93042-0.26149c2.80333,1.4606,3.58912,4.45275,3.58912,7.41578v13.27539
			C87.15046,53.35197,82.24615,53.35197,82.24615,53.35196z"/>
		<path class="st1" d="M112.14725,32.03191v21.32h-4.90527v-2.83815c-0.66016,1.0498-1.59668,1.875-2.8125,2.47559
			c-1.21484,0.59961-2.4375,0.89941-3.66699,0.89941c-1.59082,0-3.04492-0.29199-4.36523-0.87793
			c-1.32031-0.58398-2.45312-1.38672-3.39746-2.40723c-0.94531-1.01953-1.68066-2.18945-2.20508-3.50977
			c-0.52539-1.31934-0.78809-2.72949-0.78809-4.22949c0-1.4707,0.2627-2.87305,0.78809-4.20801
			c0.52441-1.33496,1.25977-2.5127,2.20508-3.53223c0.94434-1.01953,2.07715-1.82227,3.39746-2.4082
			c1.32031-0.58398,2.77441-0.87695,4.36523-0.87695c1.22949,0,2.45215,0.2998,3.66699,0.90039
			c1.21582,0.59961,2.15234,1.4248,2.8125,2.47461V32.0319C107.24197,32.0319,112.14725,32.0319,112.14725,32.03191z
			 M101.03202,49.52353c0.92969,0,1.77734-0.17969,2.54297-0.54004c0.76465-0.35938,1.41699-0.83984,1.95703-1.43945
			s0.95996-1.30469,1.25977-2.11523s0.4502-1.66504,0.4502-2.56445c0-0.90039-0.15039-1.75586-0.4502-2.56543
			s-0.71973-1.51465-1.25977-2.11523c-0.54004-0.59961-1.19238-1.08008-1.95703-1.44043
			c-0.76562-0.35938-1.61328-0.53906-2.54297-0.53906s-1.77051,0.17969-2.51953,0.53906
			c-0.75,0.36035-1.39551,0.84082-1.93555,1.44043c-0.53906,0.60059-0.95312,1.30566-1.2373,2.11523
			c-0.28613,0.80957-0.42676,1.66504-0.42676,2.56543c0,0.89941,0.14062,1.75391,0.42676,2.56445
			c0.28418,0.81055,0.69824,1.51562,1.2373,2.11523c0.54004,0.59961,1.18555,1.08008,1.93555,1.43945
			C99.26151,49.34384,100.10233,49.52353,101.03202,49.52353z"/>
		<path class="st1" d="M115.39302,32.03214h4.90513v2.63965c0.37354-0.47998,0.90625-0.91992,1.6001-1.31982
			c0.58643-0.31982,1.36035-0.62012,2.32031-0.8999c0.95996-0.28027,2.15967-0.41992,3.59961-0.41992V36.392
			c-0.71973,0-1.52002,0.06689-2.3999,0.2002s-1.69971,0.35352-2.45996,0.65967c-0.75977,0.30713-1.39355,0.71387-1.8999,1.22021
			c-0.50684,0.50684-0.76025,1.13379-0.76025,1.87988v13h-4.90513C115.39303,53.35196,115.39303,32.03214,115.39302,32.03214z"/>
		<path class="st1" d="M142.82135,36.39196h-4.29552v16.96h-4.90468v-16.96h-3.36035v-4.36h3.36035v-6.80012l4.90468-1.56006
			v8.36017h4.29552V36.39196z"/>
		<path class="st2" d="M164.20514,47.95157v5.40039h-17.56055V24.21182h6.75977v23.73974
			C153.40436,47.95156,164.20514,47.95156,164.20514,47.95157z"/>
		<path class="st2" d="M174.4444,53.35196h-6.7998V24.21182h6.7998V53.35196z"/>
		<path class="st2" d="M186.88483,29.57196v7.21994h9.95898v5.36001h-9.95898v11.20005h-6.80078V24.21182h18.75977v5.36014
			H186.88483z"/>
		<path class="st2" d="M223.68365,29.57218h-8.19922v23.77978h-6.76074V29.57218h-8.2002v-5.36035h23.16016V29.57218z"/>
	</g>
	<g>
		<path class="st1" d="M103.70605,64.70303l3.35693,7.54688h-1.10107l-0.99902-2.21289h-3.19043l-0.94531,2.21289h-1.10107
			l3.22266-7.54688H103.70605z M103.31396,66.35245l-1.12256,2.71777h2.33105L103.31396,66.35245z"/>
		<path class="st1" d="M108.65625,64.746h2.34717c0.4082,0,0.7627,0.05664,1.06348,0.16992
			c0.30078,0.1123,0.54883,0.2666,0.74414,0.46191c0.19482,0.19531,0.33984,0.42383,0.43457,0.6875
			c0.09521,0.2627,0.14258,0.54297,0.14258,0.84082c0,0.29297-0.05029,0.56836-0.15039,0.82422s-0.25439,0.47754-0.46191,0.66602
			c-0.20752,0.1875-0.46973,0.33594-0.78711,0.44531c-0.31641,0.10938-0.69336,0.16406-1.13037,0.16406h-1.12256v3.24414h-1.07959
			C108.65626,72.24991,108.65626,64.746,108.65625,64.746z M109.73584,65.7128v2.32617h1.21924
			c0.20068,0,0.38232-0.02637,0.54541-0.07812c0.1626-0.05176,0.30127-0.12891,0.41602-0.23047
			c0.11475-0.10254,0.20312-0.22656,0.26562-0.37305c0.06299-0.14746,0.09424-0.31348,0.09424-0.5
			c0-0.13574-0.02051-0.27246-0.06201-0.4082c-0.04102-0.13574-0.11084-0.25879-0.20898-0.36816
			c-0.09863-0.10938-0.22949-0.19727-0.39258-0.26562c-0.1626-0.06836-0.36572-0.10254-0.60938-0.10254h-1.26758V65.7128z"/>
		<path class="st1" d="M119.40137,64.746v0.9668h-3.17969v2.26758h3.07227v0.97168h-3.07227v2.33105h3.28174v0.9668h-4.35596V64.746
			H119.40137z"/>
		<path class="st1" d="M127.82666,64.746v7.50391h-1.07422v-3.26562h-4.20557v3.26562h-1.07422V64.746h1.07422v3.27148h4.20557
			V64.746H127.82666z"/>
		<path class="st1" d="M136.75098,71.28311v2.3418h-1.10059v-1.375h-4.95215v1.375h-1.10156v-2.3418h0.66113l2.47559-6.58008
			h0.75781l2.59961,6.58008H136.75098z M133.09863,66.27725l-1.76172,5.00586H135L133.09863,66.27725z"/>
		<path class="st1" d="M141.66406,64.70303l3.35645,7.54688h-1.10059l-0.99902-2.21289h-3.19043l-0.94531,2.21289h-1.10156
			l3.22266-7.54688H141.66406z M141.27148,66.35245l-1.12207,2.71777h2.33105L141.27148,66.35245z"/>
		<path class="st1" d="M153.70703,64.70303l3.35645,7.54688h-1.10059l-0.99902-2.21289h-3.19043l-0.94531,2.21289h-1.10156
			l3.22266-7.54688H153.70703z M153.31445,66.35245l-1.12207,2.71777h2.33105L153.31445,66.35245z"/>
		<path class="st1" d="M158.71582,72.24991V64.746h2.17578c0.4043,0,0.75195,0.05566,1.04199,0.16699
			s0.52832,0.25586,0.7168,0.43457c0.1875,0.17969,0.32715,0.38477,0.41602,0.61523
			c0.08984,0.23145,0.13477,0.46484,0.13477,0.70117c0,0.39062-0.0918,0.71484-0.27441,0.97461s-0.47266,0.4707-0.87012,0.63086
			v0.02148c0.2793,0.05469,0.53125,0.13867,0.75488,0.25293s0.41309,0.25586,0.56934,0.4248
			c0.15527,0.16797,0.27441,0.35938,0.35742,0.57422c0.08203,0.21484,0.12305,0.44922,0.12305,0.70312
			c0,0.22949-0.0459,0.46289-0.13672,0.70117c-0.0918,0.23828-0.23926,0.4541-0.44336,0.64746s-0.46973,0.35059-0.79785,0.47266
			c-0.32715,0.12207-0.72559,0.18262-1.19434,0.18262h-2.57324V72.24991z M159.79004,65.7128v2.24609h0.71484
			c0.54004,0,0.93945-0.09766,1.19727-0.29297s0.38672-0.49707,0.38672-0.90527c0-0.13965-0.02148-0.27344-0.06445-0.40039
			s-0.11523-0.23828-0.21777-0.33301c-0.10156-0.09473-0.23633-0.1709-0.40234-0.22852
			c-0.16699-0.05664-0.37305-0.08594-0.62012-0.08594C160.78418,65.71279,159.79004,65.71279,159.79004,65.7128z
			 M159.79004,68.93057v2.35254h1.35352c0.31934,0,0.58105-0.03613,0.78711-0.10742s0.37012-0.16406,0.49121-0.27637
			c0.12207-0.11328,0.20703-0.24023,0.25488-0.38184c0.04883-0.1416,0.07324-0.28125,0.07324-0.42188
			c0-0.17188-0.0332-0.32812-0.09961-0.46973s-0.16797-0.26367-0.30664-0.36816c-0.1377-0.10352-0.31055-0.18359-0.51758-0.24121
			c-0.20801-0.05762-0.45312-0.08594-0.73633-0.08594C161.08984,68.93056,159.79004,68.93056,159.79004,68.93057z"/>
		<path class="st1" d="M171.3623,64.746v0.9668h-2.59375v6.53711h-1.08008V65.7128h-2.59375V64.746H171.3623z"/>
		<path class="st1" d="M172.87012,68.50089c0-0.51953,0.0957-1.01172,0.28711-1.47754
			c0.19141-0.46484,0.46289-0.87402,0.81348-1.22656c0.35156-0.35254,0.77441-0.63184,1.27051-0.83789
			s1.04785-0.30859,1.65723-0.30859c0.61914,0,1.17773,0.10254,1.67578,0.30859s0.9209,0.48438,1.27051,0.83496
			c0.34863,0.35059,0.61719,0.75879,0.80566,1.22461c0.1875,0.46582,0.28223,0.95996,0.28223,1.48242
			c0,0.50488-0.09277,0.98926-0.27734,1.45312s-0.4502,0.87207-0.79688,1.22754c-0.34766,0.35352-0.77344,0.63672-1.27637,0.84766
			c-0.50293,0.21191-1.07129,0.31738-1.70508,0.31738c-0.4082,0-0.79199-0.04785-1.14941-0.14258
			c-0.3584-0.09473-0.68457-0.22754-0.98047-0.39941c-0.29492-0.17188-0.55957-0.37695-0.79199-0.61523
			c-0.2334-0.23828-0.42969-0.5-0.59082-0.78418c-0.16113-0.28516-0.28418-0.58887-0.36816-0.91113
			S172.87012,68.84073,172.87012,68.50089z M173.98145,68.50089c0,0.4082,0.07324,0.78711,0.2207,1.13574
			c0.14648,0.34961,0.34961,0.65234,0.60938,0.9082s0.56738,0.45508,0.92383,0.59863s0.74414,0.21484,1.16309,0.21484
			s0.80762-0.07129,1.16504-0.21484c0.3584-0.14355,0.66699-0.34277,0.92676-0.59863s0.46289-0.55859,0.61035-0.9082
			c0.14648-0.34863,0.21973-0.72754,0.21973-1.13574c0-0.41504-0.07324-0.79785-0.21973-1.14648
			c-0.14746-0.34961-0.35059-0.65137-0.61035-0.90527s-0.56836-0.45312-0.92676-0.5957
			c-0.35742-0.14355-0.74609-0.21484-1.16504-0.21484s-0.80664,0.07129-1.16309,0.21484
			c-0.35645,0.14258-0.66406,0.3418-0.92383,0.5957s-0.46289,0.55566-0.60938,0.90527
			C174.05469,67.70303,173.98145,68.08585,173.98145,68.50089z"/>
		<path class="st1" d="M183.08398,72.24991V64.746h2.1748c0.40527,0,0.75195,0.05566,1.04297,0.16699
			c0.28906,0.11133,0.52832,0.25586,0.7168,0.43457c0.1875,0.17969,0.32617,0.38477,0.41602,0.61523
			c0.08984,0.23145,0.13477,0.46484,0.13477,0.70117c0,0.39062-0.0918,0.71484-0.27441,0.97461s-0.47266,0.4707-0.87012,0.63086
			v0.02148c0.2793,0.05469,0.53125,0.13867,0.75488,0.25293s0.41309,0.25586,0.56934,0.4248
			c0.15527,0.16797,0.27441,0.35938,0.35742,0.57422c0.08203,0.21484,0.12305,0.44922,0.12305,0.70312
			c0,0.22949-0.0459,0.46289-0.13672,0.70117c-0.0918,0.23828-0.23926,0.4541-0.44336,0.64746s-0.46973,0.35059-0.79785,0.47266
			c-0.32715,0.12207-0.72559,0.18262-1.19434,0.18262h-2.57324V72.24991z M184.1582,65.7128v2.24609h0.71387
			c0.54102,0,0.94043-0.09766,1.19824-0.29297s0.38672-0.49707,0.38672-0.90527c0-0.13965-0.02148-0.27344-0.06445-0.40039
			s-0.11523-0.23828-0.21777-0.33301c-0.10156-0.09473-0.23633-0.1709-0.40234-0.22852
			c-0.16699-0.05664-0.37305-0.08594-0.62109-0.08594C185.15137,65.71279,184.1582,65.71279,184.1582,65.7128z M184.1582,68.93057
			v2.35254h1.35352c0.31836,0,0.58105-0.03613,0.78711-0.10742s0.36914-0.16406,0.49121-0.27637
			c0.12207-0.11328,0.20703-0.24023,0.25488-0.38184c0.04883-0.1416,0.07324-0.28125,0.07324-0.42188
			c0-0.17188-0.0332-0.32812-0.09961-0.46973s-0.16895-0.26367-0.30664-0.36816c-0.1377-0.10352-0.31055-0.18359-0.51758-0.24121
			c-0.20801-0.05762-0.45312-0.08594-0.73633-0.08594C185.45801,68.93056,184.1582,68.93056,184.1582,68.93057z"/>
		<path class="st1" d="M192.38965,67.90421c0.43359,0,0.81055,0.05957,1.13281,0.17773s0.59082,0.27637,0.80371,0.47559
			c0.21289,0.19824,0.37207,0.43066,0.47754,0.69531s0.1582,0.5459,0.1582,0.84277c0,0.29785-0.05469,0.57715-0.16602,0.83789
			c-0.11133,0.26172-0.27344,0.49023-0.48828,0.68555s-0.48145,0.34863-0.79785,0.46191
			c-0.31738,0.1123-0.67969,0.16895-1.08789,0.16895h-2.32031V64.746h1.07422v3.1582
			C191.17578,67.90421,192.38965,67.90421,192.38965,67.90421z M191.17578,68.871v2.41211h1.38574
			c0.24707,0,0.45312-0.03418,0.61719-0.10156c0.16504-0.06836,0.29688-0.15723,0.39551-0.2666s0.16895-0.23145,0.21191-0.36816
			c0.04297-0.13574,0.06445-0.27148,0.06445-0.4082c0-0.18555-0.0293-0.35645-0.08887-0.5127
			c-0.05859-0.15527-0.14355-0.28906-0.25488-0.39941c-0.11133-0.11133-0.24609-0.19824-0.40527-0.26074
			s-0.33984-0.09473-0.54004-0.09473C192.56152,68.87101,191.17578,68.87101,191.17578,68.871z M197.36816,64.746v7.50391h-1.07422
			V64.746H197.36816z"/>
		<path class="st1" d="M203.55371,71.28311l0.03223,0.03223V64.746h1.0791v6.53711h2.60547V64.746h1.08008v7.50391h-8.48145V64.746
			h1.07422v6.53711H203.55371z"/>
		<path class="st1" d="M215.07812,64.746v0.9668h-3.17969v2.26758h3.07227v0.97168h-3.07227v2.33105h3.28223v0.9668h-4.35645V64.746
			H215.07812z"/>
		<path class="st1" d="M217.14941,64.746h1.07422v3.05078c0.2041,0,0.38574-0.0166,0.54492-0.05078s0.30469-0.09961,0.43555-0.19531
			c0.13086-0.09766,0.25098-0.23242,0.3623-0.40625s0.22168-0.40039,0.33301-0.67969
			c0.13281-0.33203,0.26953-0.60938,0.41113-0.8291c0.1416-0.2207,0.29688-0.39648,0.4668-0.5293s0.35938-0.22559,0.56641-0.2793
			c0.20801-0.05371,0.44434-0.08105,0.70898-0.08105h0.16699v0.9668c-0.24316,0-0.44238,0.02246-0.59668,0.06738
			c-0.15332,0.04492-0.28223,0.11621-0.38672,0.21484c-0.10352,0.09863-0.19238,0.22559-0.26562,0.38184
			c-0.07324,0.15527-0.14941,0.34277-0.22852,0.56055c-0.0459,0.13281-0.10742,0.26758-0.18164,0.40332
			c-0.07617,0.13574-0.15918,0.2627-0.25,0.38184c-0.0918,0.11719-0.18848,0.22363-0.29004,0.31641
			c-0.10254,0.09277-0.20508,0.16309-0.30957,0.20898c0.18652,0.08594,0.34668,0.17383,0.48145,0.26367
			c0.13379,0.08984,0.25977,0.19824,0.37598,0.3252s0.23242,0.28027,0.34863,0.45898s0.25,0.40137,0.40039,0.66602l1.32129,2.28809
			h-1.22461l-1.16602-2.02539c-0.18164-0.31836-0.34668-0.57812-0.49414-0.77832c-0.14648-0.2002-0.29395-0.3584-0.44238-0.47266
			s-0.30957-0.19336-0.48145-0.23633s-0.37402-0.06445-0.60645-0.06445v3.57715h-1.07422V64.746z"/>
	</g>
</g>
</svg>
