<svg xmlns="http://www.w3.org/2000/svg" viewBox="0 0 586.8974 255.86441"><path d="M160.693 246.928h-48.305l-.34-50.882h-96.68v-33.472l.063-.143L81.523 11.51 123.63 27.3 67.121 157.91h45.664l5.087-55.97h42.82v55.97h26.798v38.135h-26.798v50.882zm-46.815-1.5h45.315v-50.882h26.798v-35.135h-26.798v-55.97h-39.95l-5.087 55.97H64.839l56.79-131.26-39.302-14.737-65.459 149.475v31.657h96.67l.34 50.882zm178.693 6.928c-27.495 0-48.701-10.494-63.03-31.192-14.269-20.605-21.503-50.536-21.503-88.961 0-38.419 7.234-68.293 21.503-88.793 14.331-20.583 35.537-31.02 63.03-31.02 27.72 0 49.041 10.437 63.37 31.02 14.27 20.502 21.506 50.376 21.506 88.793 0 38.422-7.293 68.354-21.676 88.963-14.444 20.696-35.708 31.19-63.2 31.19zm0-238.466c-26.972 0-47.765 10.22-61.798 30.378-14.091 20.243-21.235 49.828-21.235 87.935 0 38.114 7.145 67.757 21.236 88.107 14.032 20.269 34.824 30.546 61.797 30.546s47.823-10.278 61.97-30.548c14.204-20.353 21.406-49.996 21.406-88.105 0-38.105-7.145-67.69-21.237-87.935-14.031-20.158-34.938-30.378-62.14-30.378zm0 202.17c-8.325 0-15.129-2.763-20.22-8.21-5.05-5.388-8.823-14.3-11.213-26.486-2.373-12.088-3.577-28.628-3.577-49.161 0-20.528 1.204-37.068 3.577-49.16 2.39-12.183 6.163-21.094 11.212-26.488 5.098-5.447 11.9-8.209 20.221-8.209 8.31 0 15.112 2.644 20.212 7.858 5.05 5.169 8.882 13.968 11.392 26.153 2.486 12.105 3.747 28.875 3.747 49.846 0 20.75-1.261 37.407-3.747 49.506-2.508 12.184-6.34 21.038-11.386 26.317-5.098 5.33-11.9 8.033-20.218 8.033zm0-166.214c-7.888 0-14.323 2.602-19.125 7.735-4.855 5.185-8.5 13.849-10.836 25.75-2.355 11.998-3.55 28.441-3.55 48.872 0 20.436 1.195 36.879 3.55 48.872 2.335 11.906 5.98 20.57 10.835 25.75 4.798 5.133 11.233 7.734 19.126 7.734 7.893 0 14.33-2.546 19.134-7.57 4.849-5.072 8.55-13.68 11.001-25.582 2.466-12 3.716-28.555 3.716-49.204 0-20.87-1.25-37.538-3.716-49.543-2.451-11.9-6.15-20.448-10.995-25.408-4.808-4.914-11.247-7.406-19.14-7.406zm253.461 197.082h-48.306l-.34-50.882h-96.68v-33.472l.064-.143 66.091-150.92L508.97 27.3l-.313.723-56.195 129.887h45.663l5.088-55.97h42.82v55.97h26.796v38.135h-26.797v50.882zm-46.815-1.5h45.315v-50.882h26.797v-35.135h-26.797v-55.97h-39.95l-5.088 55.97h-49.315l56.789-131.26-39.302-14.737-65.46 149.475v31.657h96.67l.34 50.882z"/></svg>