<svg id="Слой_1" xmlns="http://www.w3.org/2000/svg" viewBox="0 0 24 24"><style>.st0{fill:#ff931e}.st1{fill:#2e3192}</style><path class="st0" d="M13 7h-1v6H8v1h5zm-8.8-.3l-.5-.6c-.3-.4-.2-1 .2-1.4l1.6-1.2c.4-.3 1.1-.3 1.4.2l.4.5c.3-.2.6-.3.9-.5L7.7 3c-.7-.8-2-1-2.8-.3L3.3 3.9c-.9.7-1 1.9-.3 2.8l.7.8c.1-.2.3-.5.5-.8zm16.5-2.8l-1.6-1.2c-.8-.7-2.1-.5-2.8.3l-.5.7c.3.1.6.3.9.4l.4-.5c.3-.4 1-.5 1.4-.2l1.6 1.2c.4.3.5 1 .2 1.4l-.5.6c.2.4.4.7.6 1l.7-.8c.6-.9.5-2.2-.4-2.9z"/><path class="st1" d="M21 13c0-5-4-9-9-9s-9 4-9 9c0 3 1.5 5.7 3.8 7.3l-2 2 .7.7 2.1-2.1c1.3.7 2.8 1.1 4.4 1.1s3-.4 4.3-1.1l2.1 2.1.7-.7-1.9-1.9c2.3-1.6 3.8-4.3 3.8-7.4zm-9 8c-4.4 0-8-3.6-8-8s3.6-8 8-8 8 3.6 8 8-3.6 8-8 8z"/></svg>