<svg id="Capa_1" xmlns="http://www.w3.org/2000/svg" viewBox="0 0 56.8 56"><style>.st0{fill:#2e3192}.st1{fill:#ff931e}</style><path class="st0" d="M8.4 42V2c0-.6-.4-1-1-1s-1 .4-1 1v40h2zm21-20.5V2c0-.6-.4-1-1-1s-1 .4-1 1v19.5h2zm-2 12.8V54c0 .6.4 1 1 1s1-.4 1-1V34.3h-2zm21-20V54c0 .6.4 1 1 1s1-.4 1-1V14.3h-2z"/><path class="st1" d="M8.4 41.1h-2c-3.4.5-6 3.4-6 6.9 0 3.9 3.1 7 7 7s7-3.1 7-7c0-3.5-2.6-6.4-6-6.9zM7.4 53c-2.8 0-5-2.2-5-5s2.2-5 5-5 5 2.2 5 5-2.3 5-5 5zm49-45c0-3.9-3.1-7-7-7s-7 3.1-7 7c0 3.5 2.6 6.4 6 6.9h2c3.4-.5 6-3.4 6-6.9zm-2 0c0 2.8-2.2 5-5 5s-5-2.2-5-5 2.2-5 5-5 5 2.2 5 5zM29.6 20.7c-.8-.1-1.7-.1-2.5 0-1.6.3-3 1.1-4.1 2.4-2.2 2.5-2.3 6.4-.3 9 3.8 5 12 2.9 12.9-3.3.4-3.8-2.2-7.5-6-8.1zM28.4 33c-2.8 0-5.2-2.4-5.2-5.2 0-2.8 2.4-5.2 5.2-5.2 2.8 0 5.2 2.4 5.2 5.2 0 2.8-2.4 5.2-5.2 5.2z"/></svg>