<svg id="Capa_1" xmlns="http://www.w3.org/2000/svg" viewBox="0 0 60 60"><style>.st0{fill:#ff931e}.st1{fill:#2e3192}</style><circle class="st0" cx="35" cy="52" r="1"/><circle class="st0" cx="39" cy="52" r="1"/><circle class="st0" cx="43" cy="52" r="1"/><circle class="st0" cx="33" cy="33" r="1"/><circle class="st0" cx="35" cy="22" r="1"/><circle class="st0" cx="39" cy="22" r="1"/><circle class="st0" cx="37" cy="20" r="1"/><circle class="st0" cx="39" cy="18" r="1"/><circle class="st0" cx="35" cy="26" r="1"/><circle class="st0" cx="33" cy="24" r="1"/><circle class="st0" cx="37" cy="24" r="1"/><circle class="st0" cx="33" cy="36" r="1"/><circle class="st0" cx="33" cy="39" r="1"/><circle class="st0" cx="33" cy="42" r="1"/><circle class="st0" cx="33" cy="45" r="1"/><circle class="st0" cx="33" cy="48" r="1"/><circle class="st0" cx="37" cy="50" r="1"/><circle class="st0" cx="41" cy="50" r="1"/><path class="st0" d="M24 11h-5a1 1 0 1 0 0 2h5a1 1 0 1 0 0-2zm0 7H14a1 1 0 1 0 0 2h10a1 1 0 1 0 0-2zm0 7H9a1 1 0 1 0 0 2h15a1 1 0 1 0 0-2zm0 7H5a1 1 0 1 0 0 2h19a1 1 0 1 0 0-2zm0 7H11a1 1 0 1 0 0 2h13a1 1 0 1 0 0-2zm0 7h-7a1 1 0 1 0 0 2h7a1 1 0 1 0 0-2z"/><path class="st1" d="M53 54h-5v-6c0-7.591-4.147-14.44-10.714-18A20.428 20.428 0 0 0 48 12V6h5c1.654 0 3-1.346 3-3s-1.346-3-3-3H30a1 1 0 1 0 0 2h23a1.001 1.001 0 0 1 0 2H30a1 1 0 1 0 0 2h16v6c0 7.491-4.588 13.919-11.381 17.075-1.223.568-.674 1.58-.003 1.849A18.45 18.45 0 0 1 46 48v6H30a1 1 0 1 0 0 2h23a1.001 1.001 0 0 1 0 2H30a1 1 0 1 0 0 2h23c1.654 0 3-1.346 3-3s-1.346-3-3-3z"/></svg>