<svg id="Layer_1" xmlns="http://www.w3.org/2000/svg" viewBox="0 0 512 512"><style>.st0{fill:#2e3192}.st1{fill:#ff931e}</style><path class="st0" d="M209.86 252.634c-.244.788-.5 1.569-.724 2.365h-65.069c-5.12 0-8.533 3.413-8.533 8.533s3.413 8.533 8.533 8.533h61.956a97.965 97.965 0 0 0-.325 5.935h3.139c7.163-7.163 6.305-17.531 1.023-25.366zm-.993 50.977c.216.866.438 1.73.678 2.587h-65.477c-5.12 0-8.533 3.413-8.533 8.533s3.413 8.533 8.533 8.533h72.13c.293.578.604 1.147.91 1.718 1.09-8.032-1.51-16.538-8.241-21.37zM241.245 219c6.106-1.744 12.968-11.096 7.987-17.439a55.527 55.527 0 0 0-3.473 2.239H144.067c-5.12 0-8.533 3.413-8.533 8.533s3.413 8.533 8.533 8.533h83.294a93.672 93.672 0 0 0-2.434 3.1c5.745.65 11.372-2.493 16.318-4.966z" transform="translate(1 1)"/><path class="st1" d="M344.6 238.787c-4.267-2.56-9.387-1.707-11.947 2.56l-45.227 68.267-26.453-26.453c-3.413-3.413-8.533-3.413-11.947 0-3.413 3.413-3.413 8.533 0 11.947l34.133 34.133c1.707 1.707 3.413 2.56 5.973 2.56 3.413 0 5.973-1.707 6.827-4.267l51.2-76.8c2.561-4.267 1.708-9.387-2.559-11.947z" transform="translate(1 1)"/><path class="st0" d="M459.8-1H127c-23.893 0-42.667 18.773-42.667 42.667v349.867H24.6c-14.507 0-25.6 11.093-25.6 25.6V459.8c0 28.16 23.04 51.2 51.2 51.2h324.267c12.8 0 24.747-5.12 34.133-13.653 11.093-9.387 17.067-23.04 17.067-37.547V118.467H485.4c14.507 0 25.6-11.093 25.6-25.6V50.2C511 22.04 487.96-1 459.8-1zM50.2 493.933c-18.773 0-34.133-15.36-34.133-34.133v-42.667c0-4.267 3.413-8.533 8.533-8.533h298.667v51.2c0 12.8 4.267 24.747 12.8 34.133H50.2zM408.6 50.2v409.6c0 10.24-4.267 18.773-11.093 25.6-6.422 4.995-14.038 8.189-21.849 8.606a10.717 10.717 0 0 0-1.191-.072 33.834 33.834 0 0 1-16.035-4.032c-10.703-6.039-18.098-17.995-18.098-31.808v-58.027c0-5.12-3.413-8.533-8.533-8.533H101.4V41.667c0-14.507 11.093-25.6 25.6-25.6h294.4a60.402 60.402 0 0 0-4.542 6.364c-4.797 7.377-7.756 16.044-8.196 25.346a47.59 47.59 0 0 0-.062 2.423zm85.333 42.667c0 4.267-3.413 8.533-8.533 8.533h-59.733V50.2c0-18.773 15.36-34.133 34.133-34.133s34.133 15.36 34.133 34.133v42.667z" transform="translate(1 1)"/><path class="st0" d="M203.8 67.267h102.4c5.12 0 8.533-3.413 8.533-8.533S311.32 50.2 306.2 50.2H203.8c-5.12 0-8.533 3.413-8.533 8.533s3.413 8.534 8.533 8.534zm-59.733 51.2h221.867c5.12 0 8.533-3.413 8.533-8.533s-3.413-8.533-8.533-8.533H144.067c-5.12 0-8.533 3.413-8.533 8.533s3.413 8.533 8.533 8.533zm0 51.2h221.867c5.12 0 8.533-3.413 8.533-8.533s-3.413-8.533-8.533-8.533H144.067c-5.12 0-8.533 3.413-8.533 8.533s3.413 8.533 8.533 8.533z" transform="translate(1 1)"/><path class="st1" d="M298.735 375.69c-51.849 0-94.03-42.182-94.03-94.03 0-51.85 42.181-94.032 94.03-94.032 51.849 0 94.032 42.182 94.032 94.031 0 51.849-42.183 94.031-94.032 94.031zm0-170.062c-41.923 0-76.03 34.107-76.03 76.031s34.107 76.031 76.03 76.031 76.032-34.107 76.032-76.03-34.108-76.032-76.032-76.032z"/></svg>