<svg id="Layer_1" xmlns="http://www.w3.org/2000/svg" viewBox="0 0 512 512"><style>.st0{fill:#ff931e}.st1{fill:#2e3192}</style><path class="st0" d="M512 255.1c0-22.2-18.1-40.3-40.3-40.3h-133c-7.4 0-14.5-3.2-19.3-8.9-4.8-5.7-6.9-13.1-5.8-20.4 5.9-37.5 13.5-88.7 15.9-119.8 1.1-14.6-1.5-25.6-8-32.6-5-5.4-12.2-8.3-20.7-8.3-15.8 0-30.3 9.6-36.9 24.5l-8.2 18.6c-22 49.7-52.6 94.3-91 132.7L139.3 226s-8.325 8.997-9.8 7.5c-4.25 12.223-7.58 9.931 3.25 17.5l6.45-1.5 37.2-37.2c39.9-39.8 71.7-86.2 94.5-137.7l8.2-18.6c3.9-8.8 12.4-14.5 21.6-14.5 5.8 0 7.8 2.2 8.5 2.9 2.2 2.4 4.6 7.7 3.6 19.9-2.4 30.5-9.9 81.3-15.7 118.5-1.9 12.2 1.6 24.5 9.6 33.9 8 9.4 19.7 14.7 32 14.7h26.6c-4.8 6.6-7.7 14.8-7.7 23.6 0 10.6 4.1 20.3 10.9 27.5-13.6 6.5-23.1 20.4-23.1 36.4 0 10.6 4.1 20.3 10.9 27.5-13.6 6.5-23.1 20.4-23.1 36.4 0 10.6 4.1 20.3 10.9 27.5-13.6 6.5-23.1 20.4-23.1 36.4.1 9 2.9 17.1 7.7 23.8h-54.5c-46.4 0-91.8-8.5-135-25.4l-5.117 5.294c-6.32 6.073-3.297 3.13-.54 10.479.477 1.911 5.557 2.127 5.557 2.127 43.3 16.1 88.6 24.2 135 24.2h161c22.2 0 40.3-18.1 40.3-40.3 0-10.6-4.1-20.3-10.9-27.5 13.6-6.5 23.1-20.4 23.1-36.4 0-10.6-4.1-20.3-10.9-27.5 13.6-6.5 23.1-20.4 23.1-36.4 0-10.6-4.1-20.3-10.9-27.5 13.7-6.6 23.1-20.5 23.1-36.5zm-76.9 215.4h-73.8c-13 0-23.6-10.6-23.6-23.6s10.6-23.6 23.6-23.6h73.8c13 0 23.6 10.6 23.6 23.6.1 13-10.5 23.6-23.6 23.6zm12.2-64h-73.8c-13 0-23.6-10.6-23.6-23.6s10.6-23.6 23.6-23.6h73.8c13 0 23.6 10.6 23.6 23.6s-10.6 23.6-23.6 23.6zm12.2-63.9h-73.8c-13 0-23.6-10.6-23.6-23.6s10.6-23.6 23.6-23.6h73.8c13 0 23.6 10.6 23.6 23.6s-10.6 23.6-23.6 23.6zm12.2-63.9h-73.8c-13 0-23.6-10.6-23.6-23.6s10.6-23.6 23.6-23.6h73.8c13 0 23.6 10.6 23.6 23.6 0 13-10.6 23.6-23.6 23.6z"/><path class="st1" d="M63.3 395.8h7.8c4.6 0 8.3-3.7 8.3-8.3s-3.7-8.3-8.3-8.3h-7.8c-4.6 0-8.3 3.7-8.3 8.3s3.7 8.3 8.3 8.3zm-.1 38.5H71c4.6 0 8.3-3.7 8.3-8.3s-3.7-8.3-8.3-8.3h-7.8c-4.6 0-8.3 3.7-8.3 8.3s3.7 8.3 8.3 8.3z"/><path class="st1" d="M139.3 224.8c0-4.6-3.7-8.3-8.3-8.3H95.4c-4.6 0-8.3 3.7-8.3 8.3 0 4.6 3.7 8.3 8.3 8.3h27.1v237.4H16.7V233.1h21.9c4.6 0 8.3-3.7 8.3-8.3 0-4.6-3.7-8.3-8.3-8.3H8.3c-4.6 0-8.3 3.7-8.3 8.3v254.1c0 4.6 3.7 8.3 8.3 8.3h122.5c4.6 0 8.3-3.7 8.3-8.3l.2-254.1z"/></svg>