<svg id="Layer_1" xmlns="http://www.w3.org/2000/svg" viewBox="0 0 508 508"><style>.st0{fill:#2e3192}.st1{fill:#ff931e}</style><path class="st0" d="M366.05 100.025a189.708 189.708 0 0 1 15.969 13.296 9.964 9.964 0 0 0 6.809 2.679 9.975 9.975 0 0 0 7.324-3.188c3.762-4.043 3.534-10.371-.51-14.133a209.724 209.724 0 0 0-17.661-14.705c-4.433-3.295-10.697-2.374-13.991 2.06-3.295 4.432-2.373 10.696 2.06 13.991z"/><path class="st1" d="M91.349 218.226c-29.071 0-52.721 23.651-52.721 52.721 0 29.071 23.65 52.722 52.721 52.722s52.721-23.651 52.721-52.722-23.65-52.721-52.721-52.721zm0 85.442c-18.042 0-32.721-14.679-32.721-32.722 0-18.042 14.679-32.721 32.721-32.721s32.721 14.679 32.721 32.721c0 18.044-14.678 32.722-32.721 32.722zM307.018 88.999c0-29.071-23.651-52.721-52.721-52.721-29.071 0-52.722 23.65-52.722 52.721s23.652 52.721 52.722 52.721 52.721-23.65 52.721-52.721zm-85.443 0c0-18.042 14.679-32.721 32.722-32.721 18.042 0 32.721 14.679 32.721 32.721s-14.679 32.721-32.721 32.721c-18.043 0-32.722-14.679-32.722-32.721z"/><path class="st0" d="M460.038 279.589A210.476 210.476 0 0 0 462 251c0-45.997-14.711-89.589-42.543-126.065-3.351-4.391-9.626-5.234-14.016-1.884-4.391 3.351-5.234 9.625-1.884 14.016C428.707 170.027 442 209.425 442 251c0 6.782-.369 13.575-1.09 20.303a85.706 85.706 0 0 0-24.259-3.507c-47.42 0-85.999 38.579-85.999 85.999 0 13.751 6.741 33.337 20.076 58.439C321.573 429.765 288.304 439 254 439c-49.67 0-95.989-18.927-131.28-53.443a789.28 789.28 0 0 0 15.081-22.924c26.241-41.51 39.547-72.357 39.547-91.686 0-47.42-38.579-85.999-85.999-85.999-4.709 0-9.325.396-13.831 1.127 16.3-44.196 49.006-81.026 90.971-102.528a86.351 86.351 0 0 0-.191 5.452c0 19.329 13.306 50.176 39.547 91.686 19.021 30.088 37.726 54.572 38.513 55.6a9.998 9.998 0 0 0 15.878-.001c.787-1.027 19.492-25.511 38.513-55.599 26.242-41.51 39.547-72.357 39.547-91.686C340.296 41.579 301.717 3 254.297 3c-36.913 0-68.461 23.381-80.633 56.107C115.775 83.38 71.422 133.189 54.092 193.445 25.277 207.352 5.35 236.866 5.35 270.947c0 19.329 13.306 50.176 39.547 91.686 19.021 30.088 37.726 54.572 38.513 55.6a9.998 9.998 0 0 0 15.878 0c.383-.5 5.004-6.55 11.831-16.081 17.369 16.45 37.224 29.657 59.179 39.319C196.731 453.102 224.893 459 254 459c37.754 0 74.383-10.117 106.53-29.326a606.658 606.658 0 0 0 9.669 15.807c19.021 30.088 37.726 54.572 38.513 55.6a9.998 9.998 0 0 0 15.878 0c.787-1.028 19.492-25.511 38.513-55.6 26.241-41.51 39.547-72.357 39.547-91.686 0-31.602-17.146-59.259-42.612-74.206zM254.297 23c36.392 0 65.999 29.607 65.999 65.999 0 28.12-42.186 91.813-65.999 124.476-23.813-32.663-65.999-96.356-65.999-124.476 0-36.392 29.607-65.999 65.999-65.999zM91.349 395.422C67.536 362.759 25.35 299.066 25.35 270.947c0-36.392 29.607-65.999 65.999-65.999s65.999 29.607 65.999 65.999c0 28.119-42.186 91.812-65.999 124.475zm325.302 82.849c-23.813-32.663-65.999-96.356-65.999-124.476 0-36.392 29.607-65.999 65.999-65.999s65.999 29.607 65.999 65.999c0 28.12-42.186 91.812-65.999 124.476z"/><path class="st1" d="M416.651 301.074c-29.071 0-52.721 23.65-52.721 52.721s23.65 52.721 52.721 52.721c29.071 0 52.721-23.65 52.721-52.721s-23.65-52.721-52.721-52.721zm0 85.442c-18.042 0-32.721-14.679-32.721-32.721 0-18.042 14.679-32.721 32.721-32.721 18.042 0 32.721 14.679 32.721 32.721s-14.679 32.721-32.721 32.721z"/></svg>