<svg id="Capa_1" xmlns="http://www.w3.org/2000/svg" viewBox="0 0 337.741 337.741"><style>.st0{fill:#2e3192}.st1{fill:#fff}.st2{fill:#ff931e}</style><path class="st0" d="M302.933 3.5H31.309a7.501 7.501 0 0 0-7.501 7.522l.375 271.24a7.5 7.5 0 0 0 7.5 7.488h105.269l25.222 40.926a7.5 7.5 0 0 0 6.385 3.565l.129-.001a7.504 7.504 0 0 0 6.388-3.786l23.192-40.704h104.665a7.5 7.5 0 0 0 7.5-7.5V11a7.5 7.5 0 0 0-7.5-7.5z"/><path class="st1" d="M168.85 169.028c0 5.834-1.205 11.437-3.566 16.67-2.408 5.278-5.881 9.909-10.326 13.845-4.446 3.89-9.91 7.038-16.346 9.261-6.39 2.269-13.752 3.427-21.856 3.427-6.483 0-12.27-.649-17.133-1.991-4.862-1.25-9.215-2.871-13.012-4.724-3.75-1.898-7.084-3.843-9.816-5.88-2.64-1.992-5.048-3.705-7.132-5.048l-.972-.602L80.5 174.168l1.065.787c7.131 5.695 13.845 9.631 20.004 11.669 6.159 2.083 11.252 3.102 15.188 3.102 3.612 0 7.224-.463 10.743-1.343a35.357 35.357 0 0 0 9.585-3.936c2.825-1.713 5.094-3.843 6.76-6.436 1.667-2.5 2.501-5.464 2.501-8.798 0-3.658-.926-6.668-2.686-8.89-1.898-2.362-4.352-4.353-7.409-5.928-3.148-1.62-6.76-2.963-10.789-3.982-4.167-1.019-8.335-2.176-12.641-3.334-4.26-1.157-8.52-2.593-12.688-4.213-4.213-1.621-8.057-3.844-11.344-6.576-3.334-2.732-6.02-6.205-8.057-10.372-2.038-4.168-3.103-9.354-3.103-15.42 0-7.224 1.574-13.382 4.63-18.29 3.01-4.863 6.715-8.798 10.882-11.67 4.168-2.824 8.474-4.861 12.827-6.065 4.353-1.204 8.01-1.806 10.79-1.806 5 0 9.538.463 13.427 1.389 3.844.926 7.224 1.991 10.003 3.102 3.24 1.39 6.112 2.825 8.473 4.307l.973.602-11.53 19.633-1.02-.602a37.116 37.116 0 0 0-5.926-2.87 62.35 62.35 0 0 0-6.437-2.085c-2.454-.648-5.14-.972-7.964-.972-3.01 0-5.603.51-7.64 1.528-2.084 1.065-3.797 2.315-5.094 3.844-1.343 1.481-2.315 3.102-2.917 4.862-.648 1.805-.973 3.426-.973 4.908 0 4.306 1.482 7.455 4.585 9.492 3.241 2.223 7.409 4.029 12.41 5.418 5.047 1.39 10.603 2.778 16.484 4.168 5.974 1.343 11.623 3.472 16.809 6.297 5.279 2.871 9.678 6.9 13.15 12.04 3.52 5.186 5.28 12.363 5.28 21.3z"/><path class="st2" d="M265.55 187.224v25.007h-81.315V77.297h31.301v109.927h50.014z"/></svg>