<svg id="Capa_1" xmlns="http://www.w3.org/2000/svg" viewBox="0 0 508 508"><style>.st0{fill:#2e3192}.st1{fill:#ff931e}</style><path class="st0" d="M396.55 306.2l35.4-27.9-.2-45.1 19.7-40.6-19.6-40.6.2-45.1-35.4-28-19.4-40.7-44-9.9L298.05 0l-44 10.3L210.15 0l-35.2 28.3-44 9.9-19.4 40.7-35.5 28 .2 45.1-19.7 40.6 19.7 40.6-.2 45.1 35.4 28 14.2 29.9-57.5 123.3 68.1-10.4 35.8 58.9 59.6-127.9 22.3-5.2 17.6 4.1 60.2 129 35.8-58.9 68.1 10.4-55.5-119 16.4-34.3zm-226.4 167.1l-25.6-42.1-48.6 7.4 42-90.2 37 8.3 35.2 28.3-40 88.3zm83.9-115.3l-39.9 9.4-31.9-25.7-40-9-17.6-37-32.2-25.4.2-41-17.9-36.8 17.9-36.9-.2-41 32.2-25.4 17.6-37 40-9 31.9-25.7 39.9 9.3 39.9-9.3 31.9 25.7 40 9 17.6 37 32.2 25.4-.2 41 17.9 36.8-17.9 36.8.2 41-32.2 25.4-17.6 37-40 9-31.9 25.7-39.9-9.3zm153.8 80.7l-48.6-7.4-25.6 42-41.8-89.6 6.1 1.4 35.2-28.3 33.1-7.4 41.6 89.3z"/><path class="st1" d="M254.05 50.9c-78.1 0-141.7 63.6-141.7 141.7s63.6 141.7 141.7 141.7c78.1-.1 141.7-63.6 141.7-141.7s-63.6-141.7-141.7-141.7zm0 267c-69.1 0-125.3-56.2-125.3-125.3s56.2-125.3 125.3-125.3 125.3 56.2 125.3 125.3-56.2 125.3-125.3 125.3z"/><path class="st1" d="M360.55 158h-81.4l-25.1-77.4-25.1 77.4h-81.4l65.8 47.8-25.1 77.4 65.8-47.8 65.8 47.8-25.1-77.4 65.8-47.8zm-106.5 57.1l-34.7 25.2 13.2-40.8-34.7-25.2h42.8l13.2-40.8 13.2 40.8h42.8l-34.7 25.2 13.6 40.8-34.7-25.2z"/></svg>