<svg id="Слой_1" xmlns="http://www.w3.org/2000/svg" viewBox="0 0 486 486"><style>.st0{fill:#2e3192}.st1{fill:#fff}.st2{fill:#ff931e}</style><path class="st0" d="M420.39 417.693c-.135-18.284-9.149-29.426-27.176-33.729-18.555-4.423-37.2-8.575-55.666-13.391-3.578-.937-6.99-3.91-9.662-6.72-4.424-4.68-7.55-10.764-12.396-14.84-3.714-3.11-5.692-7.564-4.695-11.46.423-1.615 1.328-3.14 2.853-4.423 7.957-6.704 13.09-14.902 16.216-24.821 1.675-5.36 4.755-10.04 11.474-11.49 9.134-1.963 13.996-8.334 14.373-17.846.347-8.53.181-17.09.151-25.65-.03-6.78-3.065-11.883-8.44-16.035-1.736-1.344-3.397-4.318-3.23-6.386 1.268-15.52 2.702-31.057 4.665-46.517 7.11-55.953-34.605-88.323-75.928-85.937-18.812 1.072-37.73 0-56.587.287-6.477.105-13.12.694-19.385 2.28-36.13 9.194-56.814 41.7-52.632 82.087 1.63 15.747 3.367 31.494 4.68 47.271.182 2.16-1.086 5.345-2.762 6.583-6.01 4.424-8.878 10.055-8.863 17.378.015 6.039-.09 12.078-.045 18.117.136 18.707 5.36 24.308 24.58 25.621 1.101 14.6 7.216 26.014 17.845 35.707.89.8 1.465 2.582 1.782 4.56l.015.015c.543 3.683-1.148 7.79-4.56 10.659-4.846 4.076-7.956 10.16-12.395 14.84-2.657 2.81-6.07 5.783-9.663 6.72-18.465 4.816-37.095 8.968-55.666 13.391-18.012 4.303-27.04 15.445-27.161 33.73-.12 15.595-.181 31.191-.015 46.788.15 13.135 7.61 20.608 20.684 20.623 51.016.03 102.454.046 153.47.046h.408c51.016 0 102.032-.016 153.048-.046 13.074-.015 20.548-7.488 20.684-20.623.18-15.597.105-31.193 0-46.789zm-107.059-38.741c-7.322 13.965-13.27 28.64-19.823 42.999-1.117 2.43-2.416 4.77-3.896 7.67-10.96-7.791-21.272-15.144-32.31-22.995 17.514-15.732 34.787-31.252 52.104-46.818 6.537 5.722 8.138 11.127 3.925 19.144zm30.377-124.271c.09 7.262.197 14.524 0 21.786-.196 7.73-2.597 9.436-10.81 8.485v-37.88c7.519-1.42 10.72 1.207 10.81 7.609zm-183.47 30.15c-7.956 1.299-10.538-.588-10.704-8.817-.15-7.005.015-14.01.045-21 .03-6.282 2.99-9.135 10.66-8.124v37.941zm1.178-54.518c-1.872-19.778-4.71-39.526-5.224-59.335-.906-34.544 25.063-60.12 59.622-60.24 20.382-.061 40.764-.106 61.131 0 35.209.18 60.905 25.394 60.12 60.527-.438 19.808-3.382 39.556-5.254 59.32-.106 1.132-.74 2.204-1.117 3.291a46.71 46.71 0 0 1-1.525.211c-.815-3.23-1.706-6.446-2.43-9.708a9544.495 9544.495 0 0 1-9.135-41.202c-1.283-5.828-4.56-8.636-10.297-5.767-36.235 18.117-75.414 22.42-115 23.749-11.128.377-17.091 3.744-19.945 14.418-1.736 6.523-5.133 12.622-9.587 18.601-.468-1.283-1.238-2.552-1.359-3.865zm12.833 66.733c-.196-6.538.197-13.211-.996-19.567-4.031-21.515 1.902-40.976 11.7-59.592 1.193-2.25 5.39-4 8.274-4.121 29.2-1.284 58.082-4.65 86.27-12.562 8.908-2.506 17.559-5.918 27.584-9.345 3.14 14.161 4.665 28.67 9.662 41.866 8.108 21.394 1.208 42.621 2.054 63.85.075 1.856-2.22 4.408-4.077 5.63-12.335 8.108-26.315 10.871-40.794 11.46-1.57.075-3.548-1.374-4.786-2.657-6.296-6.507-16.397-8.999-24.791-5.662-5.843 2.31-9.346 6.613-9.935 13.014-.603 6.342 1.827 11.324 7.142 14.766 7.685 4.967 20.73 3.11 27.1-3.533 1.45-1.51 3.367-3.155 5.285-3.487 11.293-1.993 22.632-3.624 35.752-5.647-13.135 9.24-24.097 21.092-37.488 25.365-20.896 6.688-43.482 8.877-63.095-6.704-6.688-5.314-13.648-10.282-20.518-15.37-9.315-6.9-14.01-16.14-14.343-27.704zm88.157 23.9c0 3.548-4.092 6.416-9.15 6.416-5.057 0-9.149-2.868-9.149-6.416s4.092-6.417 9.15-6.417c5.057 0 9.15 2.869 9.15 6.417zm-79.324 38.862c17.332 15.566 34.589 31.086 52.102 46.818-11.021 7.851-21.333 15.204-32.294 22.994-1.48-2.898-2.778-5.239-3.895-7.67-6.568-14.357-12.516-29.033-19.839-42.998-4.212-8.017-2.612-13.422 3.926-19.144zm-53.81 113.189c-12.697 0-24.971.075-37.246-.03-5.692-.046-7.881-3.458-7.836-8.848.06-9.798 0-19.597-.015-29.395v-25.591c3.473 2.778 5.405 4.182 7.187 5.767 8.258 7.353 16.094 15.234 24.79 22.013 11.822 9.21 15.763 20.835 13.12 36.084zm110.215-.423h-97.381c0-2.416-.12-4.378.03-6.326 1.102-15.581-5.043-27.72-16.955-37.518-8.138-6.704-15.807-13.996-23.673-21.047-2.854-2.551-5.632-5.163-9.467-8.696 4.47-1.42 7.247-2.491 10.1-3.17 19.054-4.56 38.213-8.622 57.116-13.725 6.507-1.751 8.742.242 11.067 5.707 5.571 13.18 11.716 26.105 17.634 39.134 7.58 16.668 15.143 18.48 29.426 7.413 6.84-5.3 14.056-10.1 22.103-15.838v54.066zm6.734-72.576c-1.253-1.057-4.363-3.699-5.526-4.755-14.554-13.09-29.214-26.075-43.512-39.436-1.253-1.163-1.963-2.914-2.597-4.756-.241-1.706-.136-3.73-.83-5.964 35.842 24.7 69.858 24.746 105.61 1.752-.453 1.041-.8 2.189-1.178 3.321-.694 2.16-1.42 4.288-2.869 5.647-14.297 13.361-28.972 26.346-43.527 39.436-1.343 1.222-4.907 4.212-5.571 4.755zm104.16 72.576H253v-54.066c8.047 5.738 15.28 10.539 22.118 15.838 14.283 11.067 21.832 9.255 29.411-7.413 5.934-13.03 12.079-25.953 17.65-39.134 2.31-5.465 4.544-7.458 11.066-5.707 18.888 5.103 38.062 9.165 57.1 13.724 2.87.68 5.632 1.752 10.101 3.17-3.82 3.534-6.613 6.146-9.466 8.697-7.851 7.05-15.536 14.343-23.674 21.047-11.897 9.798-18.057 21.937-16.94 37.518.136 1.948.016 3.91.016 6.326zm57.931-37.85c0 9.798-.075 19.597 0 29.395.03 5.39-2.159 8.802-7.85 8.848-12.26.105-24.535.03-37.232.03-2.657-15.25 1.283-26.875 13.12-36.084 8.696-6.78 16.532-14.66 24.79-22.013 1.782-1.585 3.715-2.99 7.172-5.767 0 9.768.015 17.68 0 25.59z"/><circle class="st1" cx="130.963" cy="94.5" r="86.667"/><path class="st2" d="M131.365 189.857c-51.85 0-94.032-42.183-94.032-94.031 0-51.85 42.182-94.031 94.032-94.031 51.848 0 94.03 42.182 94.03 94.03 0 51.85-42.182 94.032-94.03 94.032zm0-170.062c-41.924 0-76.032 34.107-76.032 76.03s34.108 76.032 76.032 76.032 76.03-34.107 76.03-76.031-34.107-76.031-76.03-76.031z"/><path class="st2" d="M78.246 130.275v-7.37c4.84-4.692 9.222-9.02 13.146-12.98 3.921-3.96 7.26-7.626 10.01-11 2.75-3.372 4.857-6.526 6.325-9.46 1.465-2.932 2.2-5.72 2.2-8.36 0-3.74-.99-6.69-2.97-8.855-1.98-2.162-4.84-3.245-8.581-3.245-2.714 0-5.188.77-7.425 2.31s-4.308 3.374-6.215 5.5l-7.04-7.04c3.227-3.446 6.545-6.105 9.955-7.975s7.536-2.804 12.375-2.804c3.372 0 6.416.513 9.13 1.54 2.712 1.027 5.023 2.474 6.93 4.344 1.906 1.87 3.392 4.125 4.455 6.765 1.063 2.64 1.596 5.574 1.596 8.8 0 3.08-.68 6.215-2.035 9.406-1.359 3.19-3.19 6.417-5.5 9.68-2.311 3.263-5.005 6.618-8.085 10.064a572.936 572.936 0 0 1-9.79 10.67 823.13 823.13 0 0 0 5.939-.495c2.127-.182 4.032-.274 5.72-.274h17.16v10.78h-47.3zm85.139 0v-18.04h-30.91v-8.58l27.72-43.34h15.07v42.13h8.8v9.79h-8.8v18.04h-11.88zm-18.37-27.83h18.37v-15.84c0-2.052.055-4.472.165-7.26.11-2.786.237-5.206.386-7.26h-.44c-.88 1.834-1.799 3.63-2.75 5.39-.955 1.76-1.945 3.594-2.97 5.5l-12.761 19.47z"/></svg>