<svg id="Capa_1" xmlns="http://www.w3.org/2000/svg" viewBox="0 0 512 512"><style>.st0{fill:#2e3192}.st1{fill:#ff931e}</style><path class="st0" d="M492.444 271.83l-20.972-6.718c-2.686-.861-4.803-3.005-5.662-5.736-4.42-14.053-11.09-27.246-19.825-39.214-3.981-5.455-8.408-10.664-13.244-15.623 3.094-13.573 4.776-28.934 4.558-42.205-.312-18.985-4.106-30.12-11.598-34.044-4.035-2.116-16.315-8.544-82.782 21.882a24.185 24.185 0 0 0-4.405 2.623c-4.481-1.204-12.661-3.14-17.27-4.14l-.017-.004c-3.222 4.072-6.243 8.278-7.476 13.677 1.452.291 6.507 1.402 7.934 1.712 2.676.581 5.34 1.205 7.98 1.86-.083.324-.168.647-.237.976-3.634 17.245-3.398 32.497.701 45.33 3.684 11.535 10.333 20.88 19.76 27.777 11.111 8.128 24.525 11.639 36.676 11.639 9.145 0 17.576-1.99 23.768-5.497 7.004-3.967 12.872-12.326 17.517-24.876a126.08 126.08 0 0 1 6.1 7.701c7.777 10.654 13.714 22.396 17.646 34.898 2.309 7.343 8.041 13.121 15.332 15.458l20.972 6.718a13.195 13.195 0 0 1 9.2 12.606v34.775a13.195 13.195 0 0 1-9.2 12.606l-33.789 10.823c-5.406 1.733-9.98 5.448-12.882 10.462-13.275 22.942-34.146 41.927-62.037 56.428a11.675 11.675 0 0 0-6.126 8.23l-10.822 57.303a3.35 3.35 0 0 1-3.289 2.724h-35.187a3.35 3.35 0 0 1-3.289-2.724l-5.994-31.669a11.708 11.708 0 0 0-13.314-9.417c-15.157 2.292-30.775 3.453-46.418 3.453-11.638 0-23.127-.649-34.15-1.93-6.095-.701-11.773 3.454-12.912 9.472l-5.696 30.091a3.35 3.35 0 0 1-3.289 2.724H163.52a3.356 3.356 0 0 1-3.293-2.748l-10.42-54.122a11.697 11.697 0 0 0-6.012-8.135C96.25 401.595 71.12 359.191 71.12 304.351c0-27.708 6.062-52.209 18.017-72.825 11.156-19.239 27.45-35.146 48.43-47.281a7.453 7.453 0 0 0 2.718-10.182 7.454 7.454 0 0 0-10.181-2.719C89.425 194.876 64.89 231.18 58.135 277.29v-.001c-.717-.065-1.435-.127-2.15-.201.13-4.975-.77-9.995-2.73-14.867-4.323-10.746-13.203-18.502-22.624-19.759-7.424-.994-14.489 2.158-19.392 8.636-7.109 9.394-5.95 16.828-3.727 21.41 3.753 7.733 13.4 13.203 29.409 16.642a29.24 29.24 0 0 1-1.454 1.986c-9.459 11.863-20.603 14.486-27.839 14.733-4.236.143-7.628 3.544-7.628 7.783v.036c0 4.181 3.299 7.591 7.476 7.782.535.025 1.094.038 1.676.038 9.156 0 23.851-3.377 37.969-21.08 2.229-2.794 4.045-5.742 5.441-8.788 1.406.159 2.757.295 4.051.415l.001-.008a195.752 195.752 0 0 0-.395 12.304c0 31.028 7.397 58.693 21.984 82.23 13.45 21.7 32.707 39.468 57.255 52.83l10.13 52.616c1.629 8.608 9.17 14.856 17.931 14.856h35.187c8.761 0 16.302-6.248 17.931-14.856l5.15-27.208c10.696 1.133 21.77 1.707 32.965 1.707 15.36 0 30.702-1.07 45.654-3.182l5.429 28.685c1.63 8.608 9.171 14.855 17.931 14.855h35.187c8.761 0 16.302-6.248 17.932-14.859l10.537-55.79c29.768-15.742 52.206-36.42 66.704-61.476 1.045-1.806 2.654-3.131 4.53-3.732l33.788-10.823A28.055 28.055 0 0 0 512 333.403v-34.775a28.05 28.05 0 0 0-19.556-26.798zm-71.166-88.557c-2.868 24.526-10.56 45.506-18.291 49.884-8.786 4.977-29.071 5.938-44.301-5.203-15.248-11.154-20.323-31.212-14.678-58.006v-.001c.567-2.691 2.479-5.019 5.114-6.225 37.304-17.076 58.811-22.661 66.801-22.661 1.206 0 2.104.127 2.702.361 2.4 2.558 5.548 17.099 2.653 41.851zM20.921 266.001c-.771-1.59 1.049-4.385 2.203-5.911 1.829-2.416 3.514-2.91 4.787-2.91.269 0 .52.022.75.053 3.426.457 8.226 4.227 10.769 10.548a22.624 22.624 0 0 1 1.559 7.027c-10.315-2.137-18.329-5.218-20.068-8.807z"/><path class="st1" d="M321.55 61.083c-4.863-9.659-11.24-18.466-18.953-26.18-19.209-19.209-44.749-29.788-71.914-29.788s-52.705 10.579-71.914 29.788c-19.209 19.21-29.788 44.749-29.788 71.914s10.579 52.705 29.788 71.914a101.646 101.646 0 0 0 17.945 14.298l.006-.001c-1.946.506 14.88 6.448 22.28-.028 1.707-1.138 2.308-4.842 1.694-4.756a86.258 86.258 0 0 1-31.388-20.05c-16.394-16.394-25.423-38.191-25.423-61.376 0-23.186 9.029-44.982 25.423-61.376 16.394-16.395 38.192-25.424 61.376-25.424 23.184 0 44.982 9.029 61.376 25.424a86.76 86.76 0 0 1 16.181 22.343 7.45 7.45 0 0 0 10.007 3.304 7.45 7.45 0 0 0 3.304-10.006zm1.609 88.048a101.505 101.505 0 0 0 9.122-37.737 7.45 7.45 0 0 0-7.111-7.777c-4.101-.204-7.594 2.998-7.777 7.11-.971 21.691-9.969 42.1-25.335 57.467a86.267 86.267 0 0 1-31.388 20.05c-1.695-.238 4.08 2.131 13.143 5.506-4.188-1.687 12.528-.282 10.833-.722l.006.001a101.609 101.609 0 0 0 17.945-14.298 102.04 102.04 0 0 0 12.986-15.944c1.274-1.77 6.953-12.35 7.576-13.656z"/><path class="st0" d="M260.67 188.244a216.085 216.085 0 0 0-59.976 0c-8.432 1.072-18.777 3.173-23.98 4.785l.006-.001a210.25 210.25 0 0 0-13.778 4.076 7.452 7.452 0 1 0 4.725 14.135c40.636-13.585 85.396-13.585 126.032 0 .784.262 1.58.386 2.363.386a7.452 7.452 0 0 0 2.362-14.521 209.652 209.652 0 0 0-13.778-4.076l.006.001c-10.985-2.779-22.485-4.529-23.982-4.785zm161.833 82.369a7.451 7.451 0 0 0-7.451 7.451c0 5.217-4.244 9.461-9.461 9.461-5.216 0-9.461-4.244-9.461-9.461a7.451 7.451 0 0 0-14.902 0c0 13.434 10.93 24.363 24.363 24.363s24.363-10.93 24.363-24.363a7.45 7.45 0 0 0-7.451-7.451z"/><path class="st1" d="M194.625 136.514h13.978v11.983c0 .583.187 1.06.562 1.433.374.376.853.563 1.436.563h10.42a1.97 1.97 0 0 0 1.404-.563c.395-.373.592-.85.592-1.433v-11.983h31.512c.582 0 1.06-.185 1.436-.56.375-.376.561-.853.561-1.436v-7.988c0-.58-.186-1.06-.561-1.433-.374-.375-.854-.563-1.436-.563h-31.513v-7.364h21.216c8.32 0 15.11-2.535 20.374-7.612 5.262-5.072 7.894-11.624 7.894-19.656 0-8.027-2.632-14.579-7.894-19.656-5.263-5.072-12.054-7.612-20.374-7.612H210.6c-.583 0-1.06.187-1.436.56-.374.376-.562.856-.562 1.436v39.25h-13.977c-.582 0-1.06.198-1.435.593a1.974 1.974 0 0 0-.562 1.404v9.297c0 .583.187 1.06.562 1.435.375.376.852.561 1.435.561h13.978v7.364h-13.978c-.582 0-1.06.187-1.435.563-.374.373-.562.853-.562 1.433v7.988c0 .583.187 1.06.562 1.435.375.376.852.561 1.435.561zm28.391-60.588h19.968c4.41 0 7.966 1.29 10.67 3.869 2.704 2.579 4.056 5.95 4.056 10.108 0 4.16-1.352 7.532-4.055 10.108-2.705 2.582-6.262 3.87-10.67 3.87h-19.969V75.927z"/></svg>