<svg id="Layer_1" xmlns="http://www.w3.org/2000/svg" viewBox="0 0 512 512"><style>.st0{fill:#2e3192}.st1{fill:#ff931e}</style><path class="st0" d="M484.013 334.668c-25.493-25.492-63.013-34.355-97.01-23.333l-72.554-72.555 4.003-4.003c-8.815-3.485-17.493 3.385-19.452 11.223-.917 2.75.685 4.66 1.73 6.499l1.438-1.439 76.438 76.438a8.686 8.686 0 0 0 9.308 1.944c28.944-11.337 61.844-4.469 83.818 17.505 18.668 18.666 26.436 45.212 21.404 70.52L442.09 366.42a8.686 8.686 0 0 0-12.279 0l-49.119 49.117a8.683 8.683 0 0 0-.001 12.28l51.048 51.048c-25.306 5.025-51.856-2.739-70.52-21.403-21.975-21.975-28.847-54.876-17.506-83.818a8.684 8.684 0 0 0-1.944-9.308l-76.438-76.438 3.761-3.761c-3.364-1.393-6.728-1.978-10.092-1.137-8.634 1.919-14.5 12.12-8.782 20.01l2.832-2.832 72.554 72.553c-11.021 33.996-2.159 71.518 23.334 97.011 18.26 18.26 42.693 27.987 67.58 27.987a95.481 95.481 0 0 0 34.854-6.593 8.687 8.687 0 0 0 2.972-14.225l-55.237-55.236 36.84-36.837 55.233 55.234a8.683 8.683 0 0 0 14.225-2.973c13.863-35.365 5.465-75.573-21.392-102.431zM219 261c9.511-1.73 10.794-12.426 6.443-19.17l-3.088 3.088-72.888-72.884a8.687 8.687 0 0 0-9.308-1.944c-28.94 11.341-61.843 4.47-83.818-17.505-18.665-18.666-26.434-45.212-21.402-70.521l51.047 51.048a8.686 8.686 0 0 0 12.28 0l49.118-49.118a8.683 8.683 0 0 0 0-12.28L96.336 20.667c25.306-5.034 51.853 2.736 70.52 21.403 21.975 21.975 28.847 54.875 17.506 83.818a8.684 8.684 0 0 0 1.944 9.308l72.886 72.885-2.303 2.303c.627.615 1.283 1.202 2.111 1.616 9 5 14-6 15-13 0-2.18.525-4.36.814-6.541l-3.343 3.343-69.003-69.001c11.02-33.996 2.159-71.518-23.334-97.011C152.277 2.935 112.073-5.467 76.701 8.396a8.687 8.687 0 0 0-2.972 14.225l55.236 55.234-36.839 36.839-55.235-55.237a8.683 8.683 0 0 0-14.225 2.972C8.805 97.797 17.203 138.005 44.06 164.864c25.492 25.492 63.012 34.354 97.01 23.333l69.001 69.002-2.033 2.033c3.687 1.475 7.013 2.558 10.962 1.768z"/><path class="st1" d="M265.331 287.898l36.837-36.838 12.281-12.28 85.93-85.93 54.653-30.557a8.695 8.695 0 0 0 3.529-3.695l24.559-49.117a8.685 8.685 0 0 0-1.626-10.024l-30.7-30.7a8.685 8.685 0 0 0-10.024-1.626l-49.117 24.558a8.689 8.689 0 0 0-3.695 3.529L357.4 109.872l-85.93 85.93-12.279 12.279-36.837 36.837-12.284 12.281-9.954 9.954-24.559-24.559a8.702 8.702 0 0 0-8.135-2.311 8.684 8.684 0 0 0-6.243 5.706l-11.267 33.804-88.953 53.715a8.71 8.71 0 0 0-2.085 1.76l-45.757 53.024c-18.524 21.467-17.278 55.245 2.777 75.3l30.762 30.763c10.52 10.52 24.816 15.843 39.136 15.843 12.99 0 26.001-4.382 36.223-13.243l54.064-46.865a8.655 8.655 0 0 0 1.756-2.091l52.633-87.667 33.792-11.264a8.684 8.684 0 0 0 3.393-14.378l-24.558-24.558 9.954-9.954 12.281-12.28zm-19.889 49.137l-23.51 7.836a8.691 8.691 0 0 0-4.698 3.768l-53.574 89.235-53.019 45.959c-14.751 12.79-37.946 12.001-51.704-1.759l-30.763-30.763c-13.763-13.763-14.621-36.944-1.909-51.674l44.854-51.977 90.511-54.654a8.684 8.684 0 0 0 3.749-4.688l7.836-23.51 20.765 20.765 30.698 30.698 20.764 20.764zm-14.624-39.182l-18.419-18.419 158.134-158.133a8.67 8.67 0 0 0 1.438-1.903l29.84-53.371 41.128-20.563 21.849 21.848-20.565 41.129-53.37 29.84a8.668 8.668 0 0 0-1.903 1.438L230.818 297.853z"/></svg>